<svg width="9319" height="2791" viewBox="0 0 9319 2791" fill="none" xmlns="http://www.w3.org/2000/svg">
<path d="M4198.9 344.025C4008.19 391.687 3834.95 492.606 3699.43 635.005C3563.9 777.404 3471.66 955.41 3433.48 1148.25L3445.41 1150.61C3483.14 960.032 3574.29 784.114 3708.23 643.386C3842.17 502.657 4013.37 402.922 4201.85 355.819L4198.9 344.025Z" fill="#1E1E1E"/>
<circle cx="3439.59" cy="1102.27" r="53.7279" fill="#3A48B9"/>
<circle cx="4181.71" cy="366.829" r="53.7279" fill="#00C2AF"/>
<circle cx="3708.24" cy="625.396" r="53.7279" fill="#0170C4"/>
<path d="M5366.89 1347.37C5366.89 1467.61 5343.2 1586.69 5297.19 1697.78C5251.17 1808.88 5183.72 1909.82 5098.69 1994.85L4451.21 1347.37H5366.89Z" fill="#D9D9D9"/>
<circle cx="4451.21" cy="1347.37" r="915.679" fill="#FEEF01"/>
<path d="M5366.89 1347.37C5366.89 1569.52 5286.13 1784.09 5139.65 1951.12C4993.18 2118.14 4790.98 2226.21 4570.73 2255.21C4350.48 2284.21 4127.2 2232.15 3942.49 2108.73C3757.77 1985.3 3624.23 1798.94 3566.73 1584.36C3509.24 1369.78 3531.71 1141.61 3629.96 942.372C3728.22 743.131 3895.55 586.403 4100.79 501.389C4306.04 416.376 4535.18 408.874 4745.55 480.282C4955.91 551.691 5133.14 697.138 5244.21 889.527L4451.21 1347.37H5366.89Z" fill="#7FD200"/>
<path d="M5366.89 1347.37C5366.89 1548.94 5300.38 1744.88 5177.67 1904.8C5054.96 2064.71 4882.91 2179.67 4688.2 2231.84C4493.5 2284.01 4287.02 2270.48 4100.79 2193.34C3914.57 2116.2 3759 1979.77 3658.21 1805.21C3557.42 1630.64 3517.05 1427.69 3543.37 1227.85C3569.68 1028 3661.19 842.417 3803.73 699.884C3946.26 557.351 4131.84 465.832 4331.69 439.521C4531.54 413.211 4734.48 453.579 4909.05 554.365L4451.21 1347.37H5366.89Z" fill="#00B500"/>
<path d="M5366.89 1347.37C5366.89 1528.47 5313.18 1705.51 5212.57 1856.09C5111.95 2006.67 4968.94 2124.04 4801.62 2193.34C4634.31 2262.65 4450.19 2280.78 4272.57 2245.45C4094.95 2210.12 3931.79 2122.91 3803.73 1994.85C3675.67 1866.79 3588.46 1703.63 3553.13 1526.01C3517.79 1348.38 3535.93 1164.27 3605.23 996.951C3674.54 829.633 3791.9 686.623 3942.49 586.007C4093.07 485.391 4270.11 431.687 4451.21 431.688L4451.21 1347.37H5366.89Z" fill="#00C2AF"/>
<path d="M5366.89 1347.37C5366.89 1508.1 5324.58 1666 5244.21 1805.21C5163.84 1944.41 5048.25 2060 4909.05 2140.37C4769.85 2220.73 4611.95 2263.04 4451.21 2263.04C4290.47 2263.04 4132.57 2220.73 3993.37 2140.37C3854.17 2060 3738.58 1944.41 3658.21 1805.21C3577.84 1666 3535.53 1508.1 3535.53 1347.37C3535.53 1186.63 3577.84 1028.73 3658.21 889.527C3738.58 750.326 3854.17 634.733 3993.37 554.365L4451.21 1347.37H5366.89Z" fill="#0170C4"/>
<path d="M5366.89 1347.37C5366.89 1487.82 5334.58 1626.39 5272.46 1752.36C5210.34 1878.33 5120.07 1988.32 5008.64 2073.82C4897.21 2159.33 4767.6 2218.05 4629.85 2245.45C4492.09 2272.85 4349.88 2268.2 4214.21 2231.84C4078.55 2195.49 3953.06 2128.42 3847.46 2035.81C3741.86 1943.2 3658.98 1827.54 3605.23 1697.78C3551.48 1568.02 3528.31 1427.63 3537.49 1287.48C3546.68 1147.32 3587.98 1011.16 3658.21 889.527L4451.21 1347.37H5366.89Z" fill="#3A48B9"/>
<path d="M5366.89 1347.37C5366.89 1590.22 5270.42 1823.13 5098.69 1994.85C4926.97 2166.57 4694.06 2263.04 4451.21 2263.04C4208.36 2263.04 3975.45 2166.57 3803.73 1994.85C3632 1823.13 3535.53 1590.22 3535.53 1347.37L4451.21 1347.37H5366.89Z" fill="#7420B0"/>
<path d="M5366.89 1347.37C5366.89 1548.94 5300.38 1744.88 5177.67 1904.8C5054.96 2064.71 4882.91 2179.67 4688.2 2231.84C4493.5 2284.01 4287.02 2270.48 4100.79 2193.34C3914.57 2116.2 3759 1979.77 3658.21 1805.21L4451.21 1347.37H5366.89Z" fill="#D2298E"/>
<path d="M5366.89 1347.37C5366.89 1508.1 5324.58 1666 5244.21 1805.21C5163.84 1944.41 5048.25 2060 4909.05 2140.37C4769.85 2220.73 4611.95 2263.04 4451.21 2263.04C4290.47 2263.04 4132.57 2220.73 3993.37 2140.37L4451.21 1347.37H5366.89Z" fill="#FF2600"/>
<path d="M5366.89 1347.37C5366.89 1467.61 5343.2 1586.69 5297.19 1697.78C5251.17 1808.88 5183.72 1909.82 5098.69 1994.85C5013.66 2079.88 4912.72 2147.33 4801.62 2193.34C4690.53 2239.36 4571.46 2263.04 4451.21 2263.04L4451.21 1347.37H5366.89Z" fill="#FC6212"/>
<path d="M5366.89 1347.37C5366.89 1508.1 5324.58 1666 5244.21 1805.21C5163.84 1944.41 5048.25 2060 4909.05 2140.37L4451.21 1347.37H5366.89Z" fill="#F79F23"/>
<path d="M5366.89 1347.37C5366.89 1508.1 5324.58 1666 5244.21 1805.21L4451.21 1347.37H5366.89Z" fill="#FAC713"/>
<path d="M7833.02 1347.37C7833.02 1467.61 7809.34 1586.69 7763.32 1697.78C7717.3 1808.88 7649.85 1909.82 7564.83 1994.85L6917.34 1347.37H7833.02Z" fill="#D9D9D9"/>
<circle cx="6917.34" cy="1347.37" r="915.679" fill="#FEEF01"/>
<path d="M7833.02 1347.37C7833.02 1569.52 7752.26 1784.09 7605.79 1951.12C7459.31 2118.14 7257.11 2226.21 7036.86 2255.21C6816.61 2284.21 6593.33 2232.15 6408.62 2108.73C6223.91 1985.3 6090.36 1798.94 6032.87 1584.36C5975.37 1369.78 5997.84 1141.61 6096.1 942.372C6194.35 743.131 6361.69 586.403 6566.93 501.389C6772.17 416.376 7001.32 408.874 7211.68 480.282C7422.04 551.691 7599.27 697.138 7710.34 889.527L6917.34 1347.37H7833.02Z" fill="#7FD200"/>
<path d="M7833.02 1347.37C7833.02 1548.94 7766.51 1744.88 7643.8 1904.8C7521.09 2064.71 7349.04 2179.67 7154.34 2231.84C6959.63 2284.01 6753.16 2270.48 6566.93 2193.34C6380.7 2116.2 6225.13 1979.77 6124.34 1805.21C6023.56 1630.64 5983.19 1427.69 6009.5 1227.85C6035.81 1028 6127.33 842.417 6269.86 699.884C6412.39 557.351 6597.97 465.832 6797.82 439.521C6997.67 413.211 7200.62 453.579 7375.18 554.365L6917.34 1347.37H7833.02Z" fill="#00B500"/>
<path d="M7833.02 1347.37C7833.02 1528.47 7779.32 1705.51 7678.7 1856.09C7578.09 2006.67 7435.08 2124.04 7267.76 2193.34C7100.44 2262.65 6916.33 2280.78 6738.7 2245.45C6561.08 2210.12 6397.92 2122.91 6269.86 1994.85C6141.8 1866.79 6054.59 1703.63 6019.26 1526.01C5983.93 1348.38 6002.06 1164.27 6071.37 996.951C6140.67 829.633 6258.04 686.623 6408.62 586.007C6559.2 485.391 6736.24 431.687 6917.34 431.688L6917.34 1347.37H7833.02Z" fill="#00C2AF"/>
<path d="M7833.02 1347.37C7833.02 1508.1 7790.71 1666 7710.34 1805.21C7629.98 1944.41 7514.38 2060 7375.18 2140.37C7235.98 2220.73 7078.08 2263.04 6917.34 2263.04C6756.61 2263.04 6598.7 2220.73 6459.5 2140.37C6320.3 2060 6204.71 1944.41 6124.34 1805.21C6043.97 1666 6001.66 1508.1 6001.66 1347.37C6001.66 1186.63 6043.97 1028.73 6124.34 889.527C6204.71 750.326 6320.3 634.733 6459.5 554.365L6917.34 1347.37H7833.02Z" fill="#0170C4"/>
<path d="M7833.02 1347.37C7833.02 1487.82 7800.71 1626.39 7738.59 1752.36C7676.47 1878.33 7586.2 1988.32 7474.77 2073.82C7363.34 2159.33 7233.74 2218.05 7095.98 2245.45C6958.23 2272.85 6816.02 2268.2 6680.35 2231.84C6544.68 2195.49 6419.19 2128.42 6313.59 2035.81C6208 1943.2 6125.12 1827.54 6071.37 1697.78C6017.62 1568.02 5994.44 1427.63 6003.62 1287.48C6012.81 1147.32 6054.11 1011.16 6124.34 889.527L6917.34 1347.37H7833.02Z" fill="#3A48B9"/>
<path d="M7833.02 1347.37C7833.02 1590.22 7736.55 1823.13 7564.83 1994.85C7393.1 2166.57 7160.2 2263.04 6917.34 2263.04C6674.49 2263.04 6441.58 2166.57 6269.86 1994.85C6098.14 1823.13 6001.66 1590.22 6001.66 1347.37L6917.34 1347.37H7833.02Z" fill="#7420B0"/>
<path d="M7833.02 1347.37C7833.02 1548.94 7766.51 1744.88 7643.8 1904.8C7521.09 2064.71 7349.04 2179.67 7154.34 2231.84C6959.63 2284.01 6753.16 2270.48 6566.93 2193.34C6380.7 2116.2 6225.13 1979.77 6124.34 1805.21L6917.34 1347.37H7833.02Z" fill="#D2298E"/>
<path d="M7833.02 1347.37C7833.02 1508.1 7790.71 1666 7710.34 1805.21C7629.98 1944.41 7514.38 2060 7375.18 2140.37C7235.98 2220.73 7078.08 2263.04 6917.34 2263.04C6756.61 2263.04 6598.7 2220.73 6459.5 2140.37L6917.34 1347.37H7833.02Z" fill="#FF2600"/>
<path d="M7833.02 1347.37C7833.02 1467.61 7809.34 1586.69 7763.32 1697.78C7717.3 1808.88 7649.85 1909.82 7564.83 1994.85C7479.8 2079.88 7378.85 2147.33 7267.76 2193.34C7156.66 2239.36 7037.59 2263.04 6917.34 2263.04L6917.34 1347.37H7833.02Z" fill="#FC6212"/>
<path d="M7833.02 1347.37C7833.02 1508.1 7790.71 1666 7710.34 1805.21C7629.98 1944.41 7514.38 2060 7375.18 2140.37L6917.34 1347.37H7833.02Z" fill="#F79F23"/>
<path d="M7833.02 1347.37C7833.02 1508.1 7790.71 1666 7710.34 1805.21L6917.34 1347.37H7833.02Z" fill="#FAC713"/>
<path d="M6067.46 2008.53L5865.99 1448.88L8059.21 975.439L6067.46 2008.53Z" stroke="black" stroke-width="6.52534"/>
<circle cx="5722.19" cy="1460.37" r="53.7279" transform="rotate(0.919457 5722.19 1460.37)" fill="#7420B0"/>
<circle cx="8151.95" cy="948.503" r="53.7279" transform="rotate(0.919457 8151.95 948.503)" fill="#FEEF01"/>
<circle cx="6002.7" cy="2114.94" r="53.7279" transform="rotate(0.919457 6002.7 2114.94)" fill="#D2298E"/>
<path d="M2903.82 1349.54C2903.82 1469.79 2880.13 1588.86 2834.12 1699.96C2788.1 1811.05 2720.65 1912 2635.62 1997.03L1988.14 1349.54H2903.82Z" fill="#D9D9D9"/>
<circle cx="1988.14" cy="1349.54" r="915.679" fill="#FEEF01"/>
<path d="M2903.82 1349.54C2903.82 1571.7 2823.06 1786.27 2676.58 1953.29C2530.11 2120.31 2327.91 2228.39 2107.66 2257.39C1887.41 2286.39 1664.13 2234.32 1479.42 2110.9C1294.7 1987.48 1161.16 1801.12 1103.66 1586.54C1046.16 1371.96 1068.64 1143.79 1166.89 944.55C1265.15 745.308 1432.48 588.581 1637.72 503.567C1842.97 418.554 2072.11 411.052 2282.47 482.46C2492.84 553.868 2670.06 699.316 2781.14 891.704L1988.14 1349.54H2903.82Z" fill="#7FD200"/>
<path d="M2903.82 1349.54C2903.82 1551.12 2837.31 1747.06 2714.6 1906.97C2591.89 2066.89 2419.84 2181.85 2225.13 2234.02C2030.43 2286.19 1823.95 2272.66 1637.72 2195.52C1451.5 2118.38 1295.92 1981.95 1195.14 1807.38C1094.35 1632.82 1053.98 1429.87 1080.29 1230.02C1106.61 1030.18 1198.12 844.594 1340.66 702.061C1483.19 559.528 1668.77 468.009 1868.62 441.699C2068.47 415.389 2271.41 455.757 2445.98 556.543L1988.14 1349.54H2903.82Z" fill="#00B500"/>
<path d="M2903.82 1349.54C2903.82 1530.65 2850.11 1707.69 2749.5 1858.27C2648.88 2008.85 2505.87 2126.22 2338.55 2195.52C2171.24 2264.83 1987.12 2282.96 1809.5 2247.63C1631.88 2212.3 1468.72 2125.09 1340.66 1997.03C1212.6 1868.97 1125.39 1705.81 1090.06 1528.18C1054.72 1350.56 1072.86 1166.45 1142.16 999.129C1211.47 831.81 1328.83 688.801 1479.42 588.185C1630 487.569 1807.04 433.865 1988.14 433.865L1988.14 1349.54H2903.82Z" fill="#00C2AF"/>
<path d="M2903.82 1349.54C2903.82 1510.28 2861.51 1668.18 2781.14 1807.38C2700.77 1946.58 2585.18 2062.18 2445.98 2142.54C2306.78 2222.91 2148.87 2265.22 1988.14 2265.22C1827.4 2265.22 1669.5 2222.91 1530.3 2142.54C1391.1 2062.18 1275.51 1946.58 1195.14 1807.38C1114.77 1668.18 1072.46 1510.28 1072.46 1349.54C1072.46 1188.81 1114.77 1030.91 1195.14 891.704C1275.51 752.504 1391.1 636.91 1530.3 556.543L1988.14 1349.54H2903.82Z" fill="#0170C4"/>
<path d="M2903.82 1349.54C2903.82 1490 2871.51 1628.57 2809.39 1754.54C2747.27 1880.51 2657 1990.5 2545.57 2076C2434.14 2161.5 2304.53 2220.23 2166.78 2247.63C2029.02 2275.03 1886.81 2270.37 1751.14 2234.02C1615.48 2197.67 1489.99 2130.6 1384.39 2037.99C1278.79 1945.38 1195.91 1829.72 1142.16 1699.96C1088.41 1570.2 1065.24 1429.81 1074.42 1289.66C1083.61 1149.5 1124.91 1013.34 1195.14 891.705L1988.14 1349.54H2903.82Z" fill="#3A48B9"/>
<path d="M2903.82 1349.54C2903.82 1592.4 2807.35 1825.3 2635.62 1997.03C2463.9 2168.75 2230.99 2265.22 1988.14 2265.22C1745.29 2265.22 1512.38 2168.75 1340.66 1997.03C1168.93 1825.3 1072.46 1592.4 1072.46 1349.54L1988.14 1349.54H2903.82Z" fill="#7420B0"/>
<path d="M2903.82 1349.54C2903.82 1551.12 2837.31 1747.06 2714.6 1906.97C2591.89 2066.89 2419.84 2181.85 2225.13 2234.02C2030.43 2286.19 1823.95 2272.66 1637.72 2195.52C1451.5 2118.38 1295.92 1981.95 1195.14 1807.38L1988.14 1349.54H2903.82Z" fill="#D2298E"/>
<path d="M2903.82 1349.54C2903.82 1510.28 2861.51 1668.18 2781.14 1807.38C2700.77 1946.58 2585.18 2062.18 2445.98 2142.54C2306.78 2222.91 2148.87 2265.22 1988.14 2265.22C1827.4 2265.22 1669.5 2222.91 1530.3 2142.54L1988.14 1349.54H2903.82Z" fill="#FF2600"/>
<path d="M2903.82 1349.54C2903.82 1469.79 2880.13 1588.86 2834.12 1699.96C2788.1 1811.05 2720.65 1912 2635.62 1997.03C2550.59 2082.06 2449.65 2149.5 2338.55 2195.52C2227.46 2241.54 2108.39 2265.22 1988.14 2265.22L1988.14 1349.54H2903.82Z" fill="#FC6212"/>
<path d="M2903.82 1349.54C2903.82 1510.28 2861.51 1668.18 2781.14 1807.38C2700.77 1946.58 2585.18 2062.18 2445.98 2142.54L1988.14 1349.54H2903.82Z" fill="#F79F23"/>
<path d="M2903.82 1349.54C2903.82 1510.28 2861.51 1668.18 2781.14 1807.38L1988.14 1349.54H2903.82Z" fill="#FAC713"/>
<circle cx="2282.49" cy="2454.84" r="53.7279" transform="rotate(-105 2282.49 2454.84)" fill="#FC6212"/>
<circle cx="1693.79" cy="257.847" r="53.7279" transform="rotate(-105 1693.79 257.847)" fill="#00C2AF"/>
<line x1="1730.15" y1="380.964" x2="2252.43" y2="2330.12" stroke="black" stroke-width="6.52534"/>
</svg>
