<svg width="3926" height="1099" viewBox="0 0 3926 1099" fill="none" xmlns="http://www.w3.org/2000/svg">
<rect width="3926" height="1099" fill="#A5C5B5"/>
<path d="M261.413 710H140.628L324.668 176.884H469.921L653.701 710H532.917L399.377 298.709H395.212L261.413 710ZM253.863 500.45H539.164V588.435H253.863V500.45ZM829.801 717.549C804.291 717.549 781.557 713.124 761.6 704.273C741.642 695.249 725.85 681.973 714.223 664.446C702.769 646.744 697.042 624.705 697.042 598.327C697.042 576.114 701.121 557.458 709.277 542.36C717.434 527.262 728.54 515.114 742.597 505.916C756.654 496.719 772.619 489.777 790.494 485.092C808.542 480.406 827.458 477.109 847.242 475.2C870.496 472.77 889.239 470.514 903.469 468.432C917.699 466.176 928.025 462.878 934.446 458.54C940.867 454.201 944.077 447.78 944.077 439.277V437.715C944.077 421.229 938.871 408.473 928.459 399.449C918.22 390.425 903.642 385.913 884.727 385.913C864.769 385.913 848.89 390.338 837.09 399.189C825.289 407.866 817.48 418.799 813.662 431.988L711.099 423.658C716.305 399.363 726.544 378.364 741.816 360.663C757.088 342.788 776.784 329.079 800.906 319.534C825.202 309.816 853.316 304.956 885.247 304.956C907.46 304.956 928.719 307.56 949.023 312.766C969.501 317.972 987.636 326.042 1003.43 336.975C1019.39 347.908 1031.98 361.965 1041.17 379.145C1050.37 396.152 1054.97 416.543 1054.97 440.318V710H949.804V654.554H946.68C940.259 667.049 931.669 678.069 920.91 687.613C910.15 696.984 897.221 704.36 882.123 709.74C867.025 714.946 849.585 717.549 829.801 717.549ZM861.559 641.018C877.872 641.018 892.276 637.807 904.77 631.386C917.265 624.792 927.07 615.941 934.186 604.834C941.301 593.728 944.858 581.146 944.858 567.089V524.659C941.388 526.915 936.615 528.997 930.541 530.906C924.641 532.642 917.96 534.29 910.497 535.852C903.035 537.24 895.573 538.542 888.111 539.757C880.648 540.798 873.88 541.752 867.806 542.62C854.791 544.529 843.424 547.566 833.706 551.731C823.987 555.896 816.438 561.536 811.059 568.651C805.679 575.593 802.989 584.27 802.989 594.682C802.989 609.78 808.455 621.321 819.389 629.304C830.495 637.113 844.552 641.018 861.559 641.018ZM1180.6 712.569C1167.63 712.569 1156.07 710.183 1145.92 705.413C1135.83 700.643 1127.82 694.068 1121.89 685.689C1115.95 677.31 1112.87 667.708 1112.62 656.883H1151.15C1151.58 664.161 1154.64 670.063 1160.32 674.589C1166.01 679.114 1172.77 681.377 1180.6 681.377C1186.84 681.377 1192.34 680.001 1197.11 677.249C1201.94 674.436 1205.71 670.552 1208.4 665.598C1211.15 660.583 1212.52 654.834 1212.52 648.351C1212.52 641.746 1211.12 635.936 1208.3 630.921C1205.55 625.906 1201.73 621.991 1196.84 619.178C1191.94 616.365 1186.35 614.927 1180.05 614.866C1174.54 614.866 1169.19 615.998 1163.99 618.261C1158.86 620.524 1154.85 623.612 1151.98 627.526L1116.66 621.196L1125.56 522.118H1240.41V554.594H1158.31L1153.44 601.656H1154.55C1157.85 597.008 1162.83 593.155 1169.5 590.097C1176.17 587.039 1183.63 585.51 1191.88 585.51C1203.2 585.51 1213.29 588.17 1222.16 593.491C1231.03 598.812 1238.03 606.12 1243.17 615.417C1248.3 624.652 1250.84 635.294 1250.78 647.342C1250.84 660.002 1247.91 671.255 1241.97 681.102C1236.1 690.888 1227.88 698.594 1217.3 704.22C1206.78 709.786 1194.54 712.569 1180.6 712.569ZM1295.64 712.385C1289.59 712.385 1284.39 710.245 1280.04 705.963C1275.76 701.621 1273.62 696.423 1273.62 690.368C1273.62 684.374 1275.76 679.237 1280.04 674.956C1284.39 670.674 1289.59 668.534 1295.64 668.534C1301.51 668.534 1306.65 670.674 1311.05 674.956C1315.46 679.237 1317.66 684.374 1317.66 690.368C1317.66 694.404 1316.62 698.104 1314.54 701.468C1312.52 704.771 1309.86 707.431 1306.56 709.45C1303.25 711.407 1299.62 712.385 1295.64 712.385ZM1407.65 522.118V710H1367.93V559.823H1366.83L1323.8 586.794V551.566L1370.32 522.118H1407.65ZM1522.4 712.569C1508.27 712.569 1495.7 710.275 1484.69 705.688C1473.74 701.04 1465.15 694.71 1458.91 686.698C1452.68 678.686 1449.56 669.604 1449.56 659.452C1449.56 651.623 1451.33 644.437 1454.88 637.893C1458.49 631.288 1463.38 625.814 1469.56 621.472C1475.73 617.068 1482.64 614.255 1490.29 613.032V611.747C1480.26 609.729 1472.12 604.867 1465.89 597.161C1459.65 589.393 1456.53 580.372 1456.53 570.098C1456.53 560.373 1459.37 551.719 1465.06 544.135C1470.75 536.49 1478.55 530.497 1488.45 526.154C1498.42 521.751 1509.74 519.549 1522.4 519.549C1535.06 519.549 1546.34 521.751 1556.25 526.154C1566.22 530.558 1574.05 536.582 1579.73 544.227C1585.42 551.811 1588.3 560.434 1588.36 570.098C1588.3 580.433 1585.12 589.455 1578.82 597.161C1572.52 604.867 1564.44 609.729 1554.6 611.747V613.032C1562.12 614.255 1568.94 617.068 1575.06 621.472C1581.23 625.814 1586.13 631.288 1589.73 637.893C1593.4 644.437 1595.27 651.623 1595.33 659.452C1595.27 669.604 1592.12 678.686 1585.88 686.698C1579.64 694.71 1571.02 701.04 1560.01 705.688C1549.06 710.275 1536.53 712.569 1522.4 712.569ZM1522.4 683.396C1528.7 683.396 1534.2 682.264 1538.91 680.001C1543.62 677.677 1547.29 674.497 1549.92 670.46C1552.61 666.363 1553.96 661.653 1553.96 656.332C1553.96 650.889 1552.58 646.088 1549.83 641.929C1547.08 637.709 1543.34 634.407 1538.64 632.022C1533.93 629.575 1528.51 628.352 1522.4 628.352C1516.34 628.352 1510.93 629.575 1506.16 632.022C1501.39 634.407 1497.63 637.709 1494.88 641.929C1492.18 646.088 1490.84 650.889 1490.84 656.332C1490.84 661.653 1492.15 666.363 1494.78 670.46C1497.41 674.497 1501.11 677.677 1505.88 680.001C1510.65 682.264 1516.16 683.396 1522.4 683.396ZM1522.4 599.454C1527.66 599.454 1532.34 598.384 1536.43 596.243C1540.53 594.103 1543.74 591.136 1546.07 587.345C1548.39 583.553 1549.55 579.18 1549.55 574.226C1549.55 569.333 1548.39 565.052 1546.07 561.382C1543.74 557.652 1540.56 554.746 1536.53 552.667C1532.49 550.526 1527.78 549.456 1522.4 549.456C1517.08 549.456 1512.37 550.526 1508.27 552.667C1504.17 554.746 1500.96 557.652 1498.64 561.382C1496.37 565.052 1495.24 569.333 1495.24 574.226C1495.24 579.18 1496.4 583.553 1498.73 587.345C1501.05 591.136 1504.26 594.103 1508.36 596.243C1512.46 598.384 1517.14 599.454 1522.4 599.454ZM1644.41 710H1612.49L1661.13 569.088H1699.52L1748.1 710H1716.17L1680.88 601.289H1679.78L1644.41 710ZM1642.42 654.612H1717.82V677.868H1642.42V654.612ZM1789.35 710H1757.42L1806.07 569.088H1844.46L1893.04 710H1861.11L1825.81 601.289H1824.71L1789.35 710ZM1787.35 654.612H1862.76V677.868H1787.35V654.612Z" fill="#434805"/>
<path d="M2226.64 710H2105.85L2289.89 176.884H2435.15L2618.93 710H2498.14L2364.6 298.709H2360.44L2226.64 710ZM2219.09 500.45H2504.39V588.435H2219.09V500.45ZM2795.03 717.549C2769.52 717.549 2746.78 713.124 2726.83 704.273C2706.87 695.249 2691.08 681.973 2679.45 664.446C2668 646.744 2662.27 624.705 2662.27 598.327C2662.27 576.114 2666.35 557.458 2674.5 542.36C2682.66 527.262 2693.77 515.114 2707.82 505.916C2721.88 496.719 2737.85 489.777 2755.72 485.092C2773.77 480.406 2792.68 477.109 2812.47 475.2C2835.72 472.77 2854.47 470.514 2868.7 468.432C2882.93 466.176 2893.25 462.878 2899.67 458.54C2906.09 454.201 2909.3 447.78 2909.3 439.277V437.715C2909.3 421.229 2904.1 408.473 2893.69 399.449C2883.45 390.425 2868.87 385.913 2849.95 385.913C2830 385.913 2814.12 390.338 2802.32 399.189C2790.52 407.866 2782.71 418.799 2778.89 431.988L2676.33 423.658C2681.53 399.363 2691.77 378.364 2707.04 360.663C2722.31 342.788 2742.01 329.079 2766.13 319.534C2790.43 309.816 2818.54 304.956 2850.47 304.956C2872.69 304.956 2893.95 307.56 2914.25 312.766C2934.73 317.972 2952.86 326.042 2968.65 336.975C2984.62 347.908 2997.2 361.965 3006.4 379.145C3015.6 396.152 3020.2 416.543 3020.2 440.318V710H2915.03V654.554H2911.91C2905.49 667.049 2896.9 678.069 2886.14 687.613C2875.38 696.984 2862.45 704.36 2847.35 709.74C2832.25 714.946 2814.81 717.549 2795.03 717.549ZM2826.79 641.018C2843.1 641.018 2857.5 637.807 2870 631.386C2882.49 624.792 2892.3 615.941 2899.41 604.834C2906.53 593.728 2910.08 581.146 2910.08 567.089V524.659C2906.61 526.915 2901.84 528.997 2895.77 530.906C2889.87 532.642 2883.19 534.29 2875.72 535.852C2868.26 537.24 2860.8 538.542 2853.34 539.757C2845.87 540.798 2839.11 541.752 2833.03 542.62C2820.02 544.529 2808.65 547.566 2798.93 551.731C2789.21 555.896 2781.66 561.536 2776.29 568.651C2770.91 575.593 2768.22 584.27 2768.22 594.682C2768.22 609.78 2773.68 621.321 2784.62 629.304C2795.72 637.113 2809.78 641.018 2826.79 641.018ZM3158.94 522.118V710H3119.22V559.823H3118.12L3075.09 586.794V551.566L3121.61 522.118H3158.94ZM3216.72 712.385C3210.66 712.385 3205.46 710.245 3201.12 705.963C3196.84 701.621 3194.7 696.423 3194.7 690.368C3194.7 684.374 3196.84 679.237 3201.12 674.956C3205.46 670.674 3210.66 668.534 3216.72 668.534C3222.59 668.534 3227.73 670.674 3232.13 674.956C3236.53 679.237 3238.74 684.374 3238.74 690.368C3238.74 694.404 3237.7 698.104 3235.62 701.468C3233.6 704.771 3230.94 707.431 3227.63 709.45C3224.33 711.407 3220.69 712.385 3216.72 712.385ZM3328.73 522.118V710H3289.01V559.823H3287.91L3244.88 586.794V551.566L3291.39 522.118H3328.73ZM3380.82 710L3458.7 555.878V554.594H3367.97V522.118H3499.8V555.052L3421.82 710H3380.82ZM3524.04 710V569.088H3617.34V593.652H3553.84V627.228H3611.15V651.791H3553.84V710H3524.04ZM3665.64 711.995C3658.9 711.995 3652.89 710.826 3647.62 708.486C3642.34 706.101 3638.17 702.592 3635.09 697.959C3632.07 693.281 3630.55 687.455 3630.55 680.483C3630.55 674.612 3631.63 669.681 3633.79 665.69C3635.94 661.699 3638.88 658.488 3642.59 656.057C3646.31 653.626 3650.53 651.791 3655.25 650.553C3660.02 649.314 3665.02 648.443 3670.25 647.938C3676.4 647.296 3681.35 646.7 3685.12 646.149C3688.88 645.553 3691.61 644.682 3693.3 643.535C3695 642.388 3695.85 640.691 3695.85 638.443V638.03C3695.85 633.673 3694.47 630.301 3691.72 627.916C3689.01 625.531 3685.16 624.338 3680.16 624.338C3674.89 624.338 3670.69 625.508 3667.57 627.847C3664.45 630.141 3662.39 633.031 3661.38 636.517L3634.27 634.315C3635.65 627.893 3638.35 622.343 3642.39 617.664C3646.42 612.94 3651.63 609.316 3658.01 606.793C3664.43 604.225 3671.86 602.94 3680.3 602.94C3686.17 602.94 3691.79 603.628 3697.16 605.004C3702.57 606.38 3707.36 608.513 3711.54 611.403C3715.76 614.293 3719.08 618.008 3721.51 622.549C3723.94 627.045 3725.16 632.434 3725.16 638.719V710H3697.36V695.345H3696.54C3694.84 698.647 3692.57 701.56 3689.73 704.083C3686.88 706.56 3683.46 708.509 3679.47 709.931C3675.48 711.307 3670.87 711.995 3665.64 711.995ZM3674.04 691.767C3678.35 691.767 3682.16 690.918 3685.46 689.221C3688.76 687.478 3691.35 685.139 3693.23 682.203C3695.12 679.267 3696.06 675.942 3696.06 672.226V661.011C3695.14 661.607 3693.88 662.158 3692.27 662.663C3690.71 663.121 3688.95 663.557 3686.97 663.97C3685 664.337 3683.03 664.681 3681.06 665.002C3679.08 665.277 3677.29 665.529 3675.69 665.759C3672.25 666.263 3669.24 667.066 3666.68 668.167C3664.11 669.268 3662.11 670.758 3660.69 672.639C3659.27 674.474 3658.56 676.767 3658.56 679.52C3658.56 683.51 3660 686.561 3662.89 688.671C3665.83 690.735 3669.54 691.767 3674.04 691.767ZM3747.9 710V604.316H3777.21V710H3747.9ZM3762.62 590.693C3758.27 590.693 3754.53 589.248 3751.41 586.358C3748.34 583.423 3746.8 579.914 3746.8 575.831C3746.8 571.795 3748.34 568.332 3751.41 565.442C3754.53 562.506 3758.27 561.038 3762.62 561.038C3766.98 561.038 3770.7 562.506 3773.77 565.442C3776.89 568.332 3778.45 571.795 3778.45 575.831C3778.45 579.914 3776.89 583.423 3773.77 586.358C3770.7 589.248 3766.98 590.693 3762.62 590.693ZM3830 569.088V710H3800.69V569.088H3830Z" fill="#C8D60F"/>
</svg>
