<svg width="4489" height="999" viewBox="0 0 4489 999" fill="none" xmlns="http://www.w3.org/2000/svg">
<g clip-path="url(#clip0_1765_896)">
<path d="M983.093 699.674C982.509 696.753 980.173 691.497 976.084 683.905C972.58 676.312 969.66 671.348 967.324 669.012C960.899 666.676 948.927 662.879 931.406 657.623C914.469 651.783 896.363 645.65 877.09 639.226C857.817 632.218 839.42 625.793 821.899 619.953C804.962 614.112 792.989 610.024 785.981 607.688C784.228 607.104 780.432 605.352 774.592 602.432C768.752 598.927 762.327 595.423 755.319 591.919C748.31 587.831 741.886 584.327 736.046 581.406C730.205 578.486 726.409 577.026 724.657 577.026C713.56 577.026 703.047 583.743 693.119 597.175C683.19 610.608 673.262 627.253 663.333 647.11C653.404 666.968 642.892 688.285 631.795 711.062C620.698 733.256 608.434 753.405 595.001 771.51C581.568 789.615 566.675 803.924 550.322 814.437C534.553 824.365 516.74 826.702 496.883 821.445V790.783C500.971 785.527 507.395 777.35 516.156 766.254C525.501 755.157 535.429 742.6 545.942 728.583C557.038 714.567 568.719 699.966 580.984 684.781C593.249 669.012 604.637 654.119 615.15 640.102C626.247 626.085 635.883 613.528 644.06 602.432C652.82 591.335 659.245 582.866 663.333 577.026C670.925 567.097 672.094 553.373 666.837 535.852C662.165 517.746 654.864 498.473 644.936 478.032C635.591 457.591 625.371 437.149 614.274 416.708C603.177 396.267 595.293 378.746 590.621 364.145C585.948 349.544 586.24 339.031 591.497 332.607C596.753 326.183 611.062 326.767 634.423 334.359C642.6 358.889 653.988 384.002 668.589 409.7C683.19 435.397 701.879 455.839 724.657 471.024C743.346 458.759 760.867 442.114 777.22 421.088C794.157 400.063 809.634 376.41 823.651 350.128C838.252 323.846 851.393 296.105 863.073 266.903C875.338 237.117 886.143 207.915 895.487 179.298C905.416 150.096 913.884 122.646 920.893 96.9485C927.901 71.2509 933.742 49.0575 938.414 30.3684C943.086 22.1919 949.511 15.7675 957.687 11.0952C966.448 6.42291 974.916 2.62667 983.093 -0.293508C987.181 4.96282 989.809 17.8116 990.977 38.2529C992.145 58.6941 992.729 83.8077 992.729 113.594C992.729 142.795 992.145 175.501 990.977 211.712C990.393 247.338 989.809 283.548 989.225 320.342C989.225 356.553 989.517 392.179 990.101 427.221C990.685 461.679 992.145 492.341 994.481 519.207C997.402 545.488 1001.49 566.805 1006.75 583.158C1012 599.511 1019.3 607.688 1028.65 607.688H1120.63V662.003H1044.42C1033.9 662.003 1029.82 668.72 1032.15 682.153C1034.49 695.001 1039.74 711.646 1047.92 732.088C1056.68 752.529 1066.61 775.306 1077.71 800.42C1089.39 824.949 1099.02 848.603 1106.62 871.38C1114.79 894.158 1119.47 914.891 1120.63 933.58C1121.8 952.269 1116.54 965.41 1104.86 973.003C1102.53 974.171 1097.27 974.755 1089.1 974.755C1081.5 974.755 1076.54 974.171 1074.2 973.003C1071.28 962.49 1065.44 944.385 1056.68 918.687C1047.92 892.99 1038.58 865.54 1028.65 836.338C1019.3 807.136 1010.25 779.687 1001.49 753.989C992.729 728.291 986.597 710.186 983.093 699.674ZM831.535 562.133C835.04 563.885 841.464 567.097 850.809 571.77C860.737 575.858 871.25 580.53 882.347 585.787C894.027 590.459 905.124 594.839 915.637 598.927C926.149 603.016 933.742 605.936 938.414 607.688C939.582 608.272 941.918 608.564 945.422 608.564C948.927 608.564 951.263 608.272 952.431 607.688C954.767 583.743 954.767 553.665 952.431 517.454C950.095 481.244 946.883 444.158 942.794 406.196C939.29 368.233 935.494 332.023 931.406 297.565C927.317 262.523 924.397 234.489 922.645 213.464L755.319 517.454C757.655 519.207 762.327 522.419 769.336 527.091C776.928 531.179 784.52 535.852 792.113 541.108C800.289 545.78 807.882 550.16 814.89 554.249C822.483 558.337 828.031 560.965 831.535 562.133ZM1171.44 852.107C1159.76 827.578 1153.34 802.756 1152.17 777.642C1151.59 752.529 1153.05 726.831 1156.55 700.55C1157.14 692.373 1158.6 680.108 1160.93 663.755C1163.27 647.402 1165.9 629.297 1168.82 609.44C1171.74 589.583 1174.95 568.558 1178.45 546.364C1181.96 524.171 1185.17 503.146 1188.09 483.288C1191.01 463.431 1193.64 445.91 1195.97 430.725C1198.89 414.956 1200.94 403.275 1202.11 395.683C1206.78 371.153 1211.74 350.42 1217 333.483C1222.84 315.962 1230.43 302.529 1239.78 293.185C1249.71 283.84 1262.26 278.876 1277.45 278.292C1293.22 277.708 1313.37 281.504 1337.89 289.68C1340.81 290.264 1344.03 292.601 1347.53 296.689C1351.04 300.193 1353.08 302.821 1353.66 304.573C1354.83 312.166 1356.88 323.846 1359.8 339.615C1363.3 355.384 1367.1 373.49 1371.18 393.931C1375.27 413.788 1379.36 434.813 1383.45 457.007C1388.12 478.616 1392.5 499.641 1396.59 520.083C1400.68 539.94 1404.18 557.753 1407.1 573.522C1410.61 589.291 1413.24 600.972 1414.99 608.564C1423.75 650.031 1434.55 678.94 1447.4 695.293C1460.25 711.062 1473.98 719.239 1488.58 719.823C1503.18 720.407 1518.07 715.735 1533.25 705.806C1549.02 695.293 1564.5 684.489 1579.69 673.392C1594.87 661.711 1609.18 651.783 1622.61 643.606C1636.05 635.43 1647.73 633.97 1657.65 639.226C1657.65 650.323 1655.03 661.127 1649.77 671.64C1644.51 682.153 1638.09 692.081 1630.5 701.426C1623.49 710.186 1615.6 718.363 1606.84 725.955C1598.08 733.548 1589.91 739.972 1582.31 745.228C1549.61 766.838 1522.16 778.227 1499.96 779.395C1478.36 780.563 1459.96 775.598 1444.77 764.502C1429.59 753.405 1417.32 738.22 1407.98 718.947C1398.63 699.674 1390.17 680.108 1382.57 660.251C1375.56 640.394 1368.56 622.873 1361.55 607.688C1355.12 591.919 1347.24 581.99 1337.89 577.902C1336.14 585.495 1332.35 598.635 1326.51 617.325C1321.25 636.014 1315.41 655.871 1308.98 676.896C1302.56 697.922 1296.43 717.779 1290.59 736.468C1284.75 755.157 1280.66 768.298 1278.32 775.89C1277.15 778.811 1274.53 784.359 1270.44 792.535C1266.93 800.712 1262.26 809.764 1256.42 819.693C1250.58 829.038 1243.86 838.382 1236.27 847.727C1229.26 856.487 1221.96 863.204 1214.37 867.876C1206.78 873.132 1199.19 874.884 1191.59 873.132C1184 871.38 1177.28 864.372 1171.44 852.107ZM1217 593.671C1215.83 600.68 1214.96 613.528 1214.37 632.218C1214.37 650.907 1214.37 670.764 1214.37 691.789C1214.37 712.814 1214.37 732.672 1214.37 751.361C1214.96 770.05 1215.83 783.191 1217 790.783C1237.44 759.829 1255.84 723.911 1272.19 683.029C1288.54 641.562 1300.81 598.927 1308.98 555.125C1317.75 510.738 1321.25 466.935 1319.5 423.717C1317.75 379.914 1308.98 340.199 1293.22 304.573C1283.29 322.678 1273.94 345.456 1265.18 372.906C1256.42 400.355 1248.83 428.389 1242.4 457.007C1235.98 485.04 1230.43 511.614 1225.76 536.728C1221.67 561.257 1218.75 580.238 1217 593.671Z" fill="black"/>
<path d="M2612.11 31.5358C2656.44 34.196 2693.68 36.4128 2723.83 38.1862C2754.87 39.0729 2780.58 39.9597 2800.98 40.8464C2824.03 41.7331 2843.54 41.7331 2859.5 40.8464C2875.46 39.9597 2897.19 37.7429 2924.67 34.196C2947.73 31.5358 2978.32 27.5456 3016.45 22.2253C3055.47 16.0182 3103.79 8.03774 3161.43 -1.71618C3141.03 18.6784 3125.07 37.2995 3113.55 54.1472C3102.91 70.1081 3094.48 83.8523 3088.27 95.3797C3081.18 109.567 3076.3 121.538 3073.64 131.292C3071.87 140.159 3073.64 162.327 3078.96 197.796C3084.28 233.265 3091.82 275.384 3101.58 324.153C3111.33 372.036 3121.97 423.466 3133.5 478.443C3145.02 532.533 3156.55 583.519 3168.08 631.402C3179.61 678.398 3189.8 718.744 3198.67 752.439C3208.42 785.248 3215.52 804.756 3219.95 810.963C3233.25 829.584 3241.68 841.998 3245.22 848.205C3248.77 853.525 3254.98 858.402 3263.84 862.836C3267.39 864.609 3273.16 867.269 3281.14 870.816C3288.23 874.363 3297.54 878.797 3309.07 884.117C3321.48 889.437 3337 895.644 3355.62 902.738C3321.04 904.512 3291.33 905.842 3266.51 906.728C3241.68 906.728 3221.28 907.172 3205.32 908.059C3186.7 908.945 3170.74 909.832 3157.44 910.719C3144.14 910.719 3128.18 911.605 3109.56 913.379C3093.59 915.152 3072.76 916.926 3047.04 918.699C3022.21 920.473 2992.95 922.246 2959.26 924.02C2976.99 911.605 2991.18 900.521 3001.82 890.768C3013.35 880.127 3022.21 871.26 3028.42 864.166C3035.51 855.299 3040.39 847.318 3043.05 840.224C3044.83 832.244 3046.16 820.273 3047.04 804.312C3047.93 790.125 3047.93 771.504 3047.04 748.449C3046.16 724.508 3043.94 693.472 3040.39 655.343L2690.58 691.256C2681.71 706.33 2675.06 719.631 2670.63 731.158C2666.2 741.799 2663.09 751.109 2661.32 759.09C2658.66 768.844 2657.77 776.824 2658.66 783.031C2660.43 790.125 2663.54 798.549 2667.97 808.303C2672.4 817.17 2678.61 827.81 2686.59 840.224C2695.46 851.752 2708.31 865.496 2725.16 881.457C2702.99 880.57 2680.38 880.127 2657.33 880.127C2634.27 880.127 2612.99 880.57 2593.48 881.457C2570.43 882.344 2547.82 883.23 2525.65 884.117C2503.48 885.004 2478.21 886.334 2449.84 888.107C2425.89 889.881 2397.96 892.098 2366.04 894.758C2333.23 896.531 2298.21 899.191 2260.96 902.738C2284.02 892.098 2303.53 881.457 2319.49 870.816C2335.45 859.289 2348.75 848.648 2359.39 838.894C2371.8 828.254 2382.45 818.056 2391.31 808.303C2397.52 799.435 2409.93 779.041 2428.55 747.119C2447.18 714.31 2468.01 675.738 2491.07 631.402C2515.01 587.066 2539.84 539.626 2565.55 489.083C2592.15 438.54 2616.1 391.101 2637.38 346.765C2658.66 301.542 2675.95 262.526 2689.25 229.718C2702.55 196.909 2709.2 175.628 2709.2 165.874C2707.43 154.347 2702.99 141.489 2695.9 127.302C2689.69 114.888 2679.94 100.7 2666.64 84.739C2654.22 68.7781 2636.05 51.0437 2612.11 31.5358ZM3024.43 556.917C3019.11 525.882 3014.23 499.281 3009.8 477.113C3005.37 454.058 3001.82 434.993 2999.16 419.919C2995.61 402.185 2992.95 386.667 2991.18 373.366C2988.52 360.952 2985.41 344.991 2981.87 325.484C2978.32 308.636 2973.89 287.798 2968.57 262.97C2964.13 237.255 2958.37 206.663 2951.28 171.194C2900.73 272.28 2861.27 350.755 2832.9 406.618C2805.41 461.595 2785.46 501.941 2773.05 527.656C2757.97 557.804 2749.55 575.539 2747.77 580.859L3024.43 556.917ZM3406.16 393.318C3410.6 387.997 3413.26 378.243 3414.14 364.056C3415.92 348.982 3419.46 332.134 3424.78 313.513C3430.99 294.892 3441.19 275.384 3455.38 254.989C3469.56 234.595 3492.62 215.53 3524.54 197.796C3555.58 180.061 3585.72 169.421 3614.99 165.874C3644.25 162.327 3672.18 163.657 3698.78 169.864C3725.38 176.071 3750.21 185.825 3773.27 199.126C3797.21 212.427 3818.93 227.058 3838.44 243.019C3851.74 253.659 3862.38 269.177 3870.36 289.571C3878.34 309.079 3884.55 331.247 3888.98 356.075C3893.42 380.904 3896.52 407.062 3898.29 434.55C3900.95 461.152 3902.73 487.31 3903.61 513.025C3904.5 537.853 3904.94 560.908 3904.94 582.189C3905.83 602.584 3907.6 619.431 3910.26 632.732C3913.81 652.24 3920.02 669.088 3928.89 683.275C3937.75 696.576 3947.51 708.103 3958.15 717.857C3968.79 726.724 3979.43 733.818 3990.07 739.138C4000.71 744.459 4010.02 748.449 4018 751.109C4023.32 753.769 4028.2 755.543 4032.63 756.429C4041.5 759.976 4047.71 759.976 4051.25 756.429C4045.93 768.844 4041.06 779.484 4036.62 788.351C4032.19 797.219 4028.64 804.756 4025.98 810.963C4022.43 818.056 4019.33 823.82 4016.67 828.254C4014.01 833.574 4010.91 838.451 4007.36 842.885C4004.7 847.318 4001.15 852.195 3996.72 857.516C3992.29 862.836 3987.85 868.6 3983.42 874.807C3971.89 870.373 3960.81 865.053 3950.17 858.846C3940.41 852.639 3931.55 846.875 3923.56 841.555C3913.81 835.348 3904.94 829.14 3896.96 822.933C3888.98 816.726 3881.45 809.633 3874.35 801.652C3868.14 794.558 3861.49 787.021 3854.4 779.041C3848.19 771.06 3842.87 762.193 3838.44 752.439C3833.12 763.967 3820.26 780.371 3799.87 801.652C3780.36 822.933 3754.64 842.441 3722.72 860.176C3690.8 877.023 3653.56 888.994 3611 896.088C3569.32 903.182 3523.21 898.305 3472.67 881.457C3450.5 874.363 3429.66 864.166 3410.15 850.865C3390.65 836.678 3373.8 819.83 3359.61 800.322C3346.31 780.814 3336.56 758.646 3330.35 733.818C3325.03 708.103 3325.47 679.728 3331.68 648.693C3337.89 617.658 3348.97 591.5 3364.93 570.218C3380.89 548.937 3399.96 531.646 3422.12 518.345C3444.29 505.044 3469.12 494.847 3496.61 487.753C3524.1 480.66 3552.47 475.783 3581.73 473.122C3604.79 472.236 3627.84 473.566 3650.9 477.113C3670.41 480.66 3690.8 487.31 3712.08 497.064C3733.36 505.931 3751.54 519.675 3766.62 538.296C3765.73 491.3 3763.96 454.058 3761.29 426.57C3759.52 398.195 3757.75 376.47 3755.97 361.396C3752.43 343.661 3749.32 331.247 3746.66 324.153C3742.23 317.946 3737.35 310.853 3732.03 302.872C3727.6 294.892 3721.84 287.798 3714.74 281.591C3707.65 274.497 3698.78 268.733 3688.14 264.3C3677.5 259.866 3665.09 258.093 3650.9 258.98C3635.82 259.866 3623.85 263.856 3614.99 270.95C3606.12 278.044 3599.03 286.468 3593.7 296.222C3589.27 305.089 3586.61 314.843 3585.72 325.484C3584.84 336.124 3585.28 345.435 3587.05 353.415C3588.83 358.736 3591.49 364.499 3595.03 370.706C3598.58 376.027 3603.46 381.79 3609.67 387.997C3615.87 394.204 3624.3 399.525 3634.94 403.958C3614.54 406.618 3596.37 408.835 3580.4 410.609C3564.44 411.495 3550.7 412.825 3539.17 414.599C3525.87 416.372 3514.34 417.702 3504.59 418.589C3494.84 419.476 3483.31 421.249 3470.01 423.909C3458.48 425.683 3444.29 427.9 3427.44 430.56C3410.6 433.22 3391.09 436.767 3368.92 441.2C3374.24 434.993 3379.12 429.23 3383.55 423.909C3387.99 417.702 3391.98 412.382 3395.52 407.948C3399.07 402.628 3402.62 397.751 3406.16 393.318ZM3605.68 551.597C3589.71 552.484 3573.75 556.474 3557.79 563.568C3541.83 569.775 3527.64 579.085 3515.23 591.5C3502.82 603.027 3492.18 616.771 3483.31 632.732C3475.33 647.806 3471.34 664.654 3471.34 683.275C3471.34 701.896 3475.77 718.3 3484.64 732.488C3494.39 745.789 3506.81 756.873 3521.88 765.74C3537.84 774.607 3554.69 779.928 3572.42 781.701C3591.04 783.474 3609.22 781.701 3626.96 776.381C3643.8 770.174 3659.77 760.42 3674.84 747.119C3689.91 732.931 3702.77 717.857 3713.41 701.896C3724.05 685.048 3731.59 668.644 3736.02 652.683C3740.46 635.836 3740.9 622.091 3737.35 611.451C3730.26 588.396 3714.3 572.435 3689.47 563.568C3664.64 553.814 3636.71 549.824 3605.68 551.597Z" fill="black"/>
</g>
<defs>
<clipPath id="clip0_1765_896">
<rect width="4489" height="999" fill="white"/>
</clipPath>
</defs>
</svg>
