<svg width="137" height="52" viewBox="0 0 137 52" fill="none" xmlns="http://www.w3.org/2000/svg">
<path d="M33.048 13.2316V3.72783H39.1915V5.07194H34.5686V7.63796H38.5602V8.9074H34.5686V11.8739H39.2323V13.2316H33.048ZM41.1643 13.2316V6.51108H42.6578V7.36642C42.9383 6.9908 43.2642 6.72152 43.6353 6.5586C44.0064 6.39115 44.3911 6.30743 44.7893 6.30743C45.4048 6.30743 45.9139 6.42962 46.3167 6.67401C46.7195 6.91839 47.0182 7.23292 47.2128 7.6176C47.4119 8.00227 47.5115 8.39827 47.5115 8.80557V13.2316H46.018V9.26719C46.018 8.78747 45.8732 8.40279 45.5836 8.11315C45.2985 7.82351 44.9002 7.67869 44.3888 7.67869C44.0539 7.67869 43.7552 7.75337 43.4927 7.90271C43.2348 8.05206 43.0311 8.26023 42.8818 8.52725C42.7324 8.78973 42.6578 9.09747 42.6578 9.45047V13.2316H41.1643ZM52.5992 13.4353C51.8932 13.4353 51.2641 13.2814 50.712 12.9737C50.1599 12.6614 49.7254 12.2383 49.4086 11.7042C49.0964 11.1657 48.9402 10.5547 48.9402 9.87136C48.9402 9.35543 49.033 8.88251 49.2186 8.45257C49.4041 8.01811 49.6666 7.64022 50.006 7.31891C50.3454 6.99759 50.7437 6.74868 51.2008 6.57218C51.6624 6.39568 52.1625 6.30743 52.701 6.30743C53.1536 6.30743 53.5722 6.36853 53.9569 6.49072C54.3461 6.60838 54.7036 6.79167 55.0295 7.04058L54.3099 8.18104C54.1017 7.99549 53.8619 7.85745 53.5903 7.76694C53.3233 7.67643 53.0382 7.63117 52.735 7.63117C52.2643 7.63117 51.8593 7.71942 51.5198 7.89592C51.1804 8.07242 50.9157 8.32812 50.7256 8.66301C50.54 8.99339 50.4473 9.3939 50.4473 9.86457C50.4473 10.566 50.6509 11.1159 51.0582 11.5142C51.4701 11.9124 52.029 12.1115 52.735 12.1115C53.0699 12.1115 53.3867 12.0504 53.6854 11.9282C53.984 11.8015 54.233 11.6363 54.4321 11.4327L55.1449 12.5664C54.7873 12.8379 54.3891 13.0506 53.9501 13.2045C53.5111 13.3583 53.0608 13.4353 52.5992 13.4353ZM57.0948 16.2728C56.8505 16.2728 56.6106 16.2457 56.3753 16.1914C56.1399 16.1371 55.9091 16.0443 55.6828 15.9131L56.0223 14.6368C56.1626 14.7273 56.3164 14.7952 56.4839 14.8405C56.6513 14.8857 56.8007 14.9084 56.9319 14.9084C57.2487 14.9084 57.4976 14.8337 57.6786 14.6844C57.8597 14.535 58.0022 14.3042 58.1063 13.9919L58.3303 13.3402L55.6828 6.51108H57.3189L59.1789 11.7246L60.9914 6.51108H62.5731L59.6677 14.2024C59.4595 14.7409 59.2264 15.1595 58.9684 15.4582C58.7105 15.7614 58.4254 15.9719 58.1131 16.0896C57.8008 16.2117 57.4614 16.2728 57.0948 16.2728ZM66.7594 13.4353C66.0534 13.4353 65.4244 13.2814 64.8723 12.9737C64.3201 12.6614 63.8857 12.2383 63.5689 11.7042C63.2566 11.1657 63.1005 10.5547 63.1005 9.87136C63.1005 9.35543 63.1933 8.88251 63.3788 8.45257C63.5644 8.01811 63.8268 7.64022 64.1663 7.31891C64.5057 6.99759 64.9039 6.74868 65.361 6.57218C65.8226 6.39568 66.3227 6.30743 66.8613 6.30743C67.3138 6.30743 67.7325 6.36853 68.1171 6.49072C68.5063 6.60838 68.8639 6.79167 69.1897 7.04058L68.4701 8.18104C68.2619 7.99549 68.0221 7.85745 67.7506 7.76694C67.4835 7.67643 67.1984 7.63117 66.8952 7.63117C66.4245 7.63117 66.0195 7.71942 65.6801 7.89592C65.3407 8.07242 65.0759 8.32812 64.8858 8.66301C64.7003 8.99339 64.6075 9.3939 64.6075 9.86457C64.6075 10.566 64.8112 11.1159 65.2185 11.5142C65.6303 11.9124 66.1892 12.1115 66.8952 12.1115C67.2301 12.1115 67.5469 12.0504 67.8456 11.9282C68.1443 11.8015 68.3932 11.6363 68.5923 11.4327L69.3051 12.5664C68.9476 12.8379 68.5493 13.0506 68.1103 13.2045C67.6714 13.3583 67.2211 13.4353 66.7594 13.4353ZM70.6781 13.2316V3.45629H72.1715V13.2316H70.6781ZM77.3062 13.4353C76.6048 13.4353 75.978 13.2746 75.4258 12.9533C74.8782 12.6275 74.4483 12.1953 74.136 11.6567C73.8238 11.1136 73.6676 10.5185 73.6676 9.87136C73.6676 9.39164 73.7559 8.93908 73.9324 8.51367C74.1134 8.08374 74.3668 7.70358 74.6927 7.37321C75.023 7.04284 75.41 6.78262 75.8535 6.59254C76.297 6.40247 76.7835 6.30743 77.313 6.30743C78.0145 6.30743 78.639 6.47035 79.1866 6.7962C79.7387 7.11752 80.1709 7.54971 80.4832 8.09279C80.7955 8.63134 80.9516 9.22419 80.9516 9.87136C80.9516 10.3465 80.8611 10.7991 80.6801 11.229C80.5036 11.659 80.2524 12.0391 79.9266 12.3695C79.6007 12.6999 79.216 12.9601 78.7725 13.1502C78.329 13.3402 77.8402 13.4353 77.3062 13.4353ZM77.3062 12.1115C77.7226 12.1115 78.0914 12.021 78.4127 11.84C78.7386 11.6544 78.9943 11.3942 79.1798 11.0593C79.3654 10.7244 79.4582 10.3284 79.4582 9.87136C79.4582 9.41427 79.3654 9.01828 79.1798 8.68338C78.9943 8.34396 78.7386 8.08374 78.4127 7.90271C78.0914 7.72169 77.7226 7.63117 77.3062 7.63117C76.8899 7.63117 76.5188 7.72169 76.1929 7.90271C75.8716 8.08374 75.6182 8.34396 75.4326 8.68338C75.2516 9.01828 75.1611 9.41427 75.1611 9.87136C75.1611 10.3284 75.2539 10.7244 75.4394 11.0593C75.625 11.3942 75.8784 11.6544 76.1997 11.84C76.5256 12.021 76.8944 12.1115 77.3062 12.1115ZM82.4517 16.0828V6.51108H83.7959V7.45467C84.0629 7.11525 84.4046 6.83919 84.8209 6.62649C85.2373 6.41378 85.7509 6.30743 86.3619 6.30743C87.0181 6.30743 87.5996 6.46356 88.1065 6.77583C88.6179 7.08357 89.0162 7.50672 89.3013 8.04527C89.5864 8.57929 89.7289 9.18799 89.7289 9.87136C89.7289 10.3646 89.6475 10.8285 89.4846 11.263C89.3216 11.6929 89.0886 12.0708 88.7854 12.3967C88.4867 12.7225 88.1291 12.9782 87.7128 13.1637C87.3009 13.3448 86.8439 13.4353 86.3415 13.4353C85.8165 13.4353 85.3549 13.3402 84.9567 13.1502C84.5584 12.9601 84.219 12.7044 83.9384 12.3831V16.0828H82.4517ZM86.0903 12.1115C86.5067 12.1115 86.8755 12.021 87.1969 11.84C87.5227 11.6544 87.7761 11.3942 87.9572 11.0593C88.1427 10.7244 88.2355 10.3284 88.2355 9.87136C88.2355 9.41427 88.1427 9.01828 87.9572 8.68338C87.7716 8.34396 87.5159 8.08374 87.1901 7.90271C86.8688 7.72169 86.5022 7.63117 86.0903 7.63117C85.674 7.63117 85.3029 7.72169 84.977 7.90271C84.6557 8.08374 84.4023 8.34396 84.2167 8.68338C84.0312 9.01828 83.9384 9.41427 83.9384 9.87136C83.9384 10.3284 84.0312 10.7244 84.2167 11.0593C84.4023 11.3942 84.6557 11.6544 84.977 11.84C85.3029 12.021 85.674 12.1115 86.0903 12.1115ZM94.3636 13.4353C93.6395 13.4353 93.0037 13.2882 92.4561 12.994C91.9085 12.6953 91.4808 12.279 91.1731 11.745C90.8699 11.2109 90.7183 10.5909 90.7183 9.88493C90.7183 9.36901 90.8065 8.89382 90.983 8.45936C91.1595 8.02038 91.4084 7.64022 91.7297 7.31891C92.051 6.99759 92.4267 6.74868 92.8566 6.57218C93.2911 6.39568 93.764 6.30743 94.2754 6.30743C94.832 6.30743 95.3276 6.40699 95.7621 6.60612C96.1965 6.80072 96.5563 7.07452 96.8414 7.42752C97.1311 7.78052 97.3347 8.19461 97.4524 8.6698C97.5746 9.14047 97.5949 9.65186 97.5135 10.204H92.1506C92.1416 10.6068 92.2298 10.9598 92.4154 11.263C92.6009 11.5617 92.8657 11.7947 93.2096 11.9622C93.5581 12.1296 93.9676 12.2134 94.4383 12.2134C94.8185 12.2134 95.185 12.1568 95.538 12.0437C95.8956 11.926 96.2191 11.754 96.5088 11.5277L97.0858 12.6003C96.8686 12.7768 96.6061 12.9284 96.2983 13.0551C95.9906 13.1773 95.6693 13.2701 95.3344 13.3335C94.9995 13.4013 94.6759 13.4353 94.3636 13.4353ZM92.2389 9.10426H96.0472C96.0336 8.59739 95.8707 8.19914 95.5584 7.9095C95.2507 7.61986 94.8117 7.47504 94.2414 7.47504C93.6893 7.47504 93.23 7.61986 92.8634 7.9095C92.5013 8.19914 92.2932 8.59739 92.2389 9.10426ZM101.921 13.4353C101.265 13.4353 100.683 13.2814 100.177 12.9737C99.6697 12.6614 99.2714 12.2383 98.9818 11.7042C98.6967 11.1657 98.5541 10.5547 98.5541 9.87136C98.5541 9.37806 98.6356 8.91645 98.7985 8.48652C98.9614 8.05206 99.1922 7.6719 99.4909 7.34606C99.7941 7.02021 100.152 6.76678 100.563 6.58576C100.98 6.4002 101.439 6.30743 101.942 6.30743C102.552 6.30743 103.082 6.42962 103.53 6.67401C103.978 6.91839 104.351 7.25781 104.65 7.69227L104.338 8.0249V3.45629H105.831V13.2316H104.487V11.616L104.704 11.9554C104.46 12.3808 104.109 12.7338 103.652 13.0144C103.2 13.295 102.623 13.4353 101.921 13.4353ZM102.193 12.1115C102.609 12.1115 102.978 12.021 103.299 11.84C103.625 11.6544 103.881 11.3942 104.066 11.0593C104.252 10.7244 104.345 10.3284 104.345 9.87136C104.345 9.41427 104.252 9.01828 104.066 8.68338C103.881 8.34396 103.625 8.08374 103.299 7.90271C102.978 7.72169 102.609 7.63117 102.193 7.63117C101.776 7.63117 101.408 7.72169 101.086 7.90271C100.765 8.08374 100.511 8.34396 100.326 8.68338C100.14 9.01828 100.048 9.41427 100.048 9.87136C100.048 10.3284 100.14 10.7244 100.326 11.0593C100.511 11.3942 100.765 11.6544 101.086 11.84C101.412 12.021 101.781 12.1115 102.193 12.1115ZM107.908 13.2316V6.51108H109.402V13.2316H107.908ZM108.655 5.30953C108.388 5.30953 108.157 5.22354 107.963 5.05157C107.768 4.8796 107.671 4.65332 107.671 4.37273C107.671 4.09666 107.768 3.87265 107.963 3.70067C108.157 3.52417 108.388 3.43592 108.655 3.43592C108.922 3.43592 109.153 3.52417 109.348 3.70067C109.542 3.87265 109.639 4.09666 109.639 4.37273C109.639 4.65332 109.542 4.8796 109.348 5.05157C109.153 5.22354 108.922 5.30953 108.655 5.30953ZM114.319 13.4353C113.65 13.4353 113.057 13.2814 112.541 12.9737C112.029 12.6614 111.627 12.2383 111.332 11.7042C111.043 11.1657 110.898 10.5547 110.898 9.87136C110.898 9.35996 110.982 8.88703 111.149 8.45257C111.317 8.01811 111.552 7.64022 111.855 7.31891C112.158 6.99759 112.52 6.74868 112.941 6.57218C113.362 6.39568 113.821 6.30743 114.319 6.30743C114.98 6.30743 115.532 6.44772 115.976 6.72831C116.424 7.0089 116.765 7.37095 117.001 7.81446L116.79 8.13352V6.51108H118.121V13.2316H116.79V11.6092L117.001 11.9282C116.765 12.3718 116.424 12.7338 115.976 13.0144C115.532 13.295 114.98 13.4353 114.319 13.4353ZM114.516 12.1115C114.923 12.1115 115.288 12.021 115.609 11.84C115.93 11.6544 116.182 11.3942 116.363 11.0593C116.548 10.7244 116.641 10.3284 116.641 9.87136C116.641 9.41427 116.548 9.01828 116.363 8.68338C116.182 8.34396 115.93 8.08374 115.609 7.90271C115.288 7.72169 114.923 7.63117 114.516 7.63117C114.104 7.63117 113.738 7.72169 113.416 7.90271C113.1 8.08374 112.848 8.34396 112.663 8.68338C112.477 9.01828 112.385 9.41427 112.385 9.87136C112.385 10.3284 112.477 10.7244 112.663 11.0593C112.848 11.3942 113.1 11.6544 113.416 11.84C113.738 12.021 114.104 12.1115 114.516 12.1115ZM126.589 13.4353C125.887 13.4353 125.26 13.2746 124.708 12.9533C124.161 12.6275 123.731 12.1953 123.418 11.6567C123.106 11.1136 122.95 10.5185 122.95 9.87136C122.95 9.39164 123.038 8.93908 123.215 8.51367C123.396 8.08374 123.649 7.70358 123.975 7.37321C124.305 7.04284 124.692 6.78262 125.136 6.59254C125.579 6.40247 126.066 6.30743 126.595 6.30743C127.297 6.30743 127.921 6.47035 128.469 6.7962C129.021 7.11752 129.453 7.54971 129.766 8.09279C130.078 8.63134 130.234 9.22419 130.234 9.87136C130.234 10.3465 130.144 10.7991 129.962 11.229C129.786 11.659 129.535 12.0391 129.209 12.3695C128.883 12.6999 128.498 12.9601 128.055 13.1502C127.611 13.3402 127.123 13.4353 126.589 13.4353ZM126.589 12.1115C127.005 12.1115 127.374 12.021 127.695 11.84C128.021 11.6544 128.277 11.3942 128.462 11.0593C128.648 10.7244 128.741 10.3284 128.741 9.87136C128.741 9.41427 128.648 9.01828 128.462 8.68338C128.277 8.34396 128.021 8.08374 127.695 7.90271C127.374 7.72169 127.005 7.63117 126.589 7.63117C126.172 7.63117 125.801 7.72169 125.475 7.90271C125.154 8.08374 124.901 8.34396 124.715 8.68338C124.534 9.01828 124.443 9.41427 124.443 9.87136C124.443 10.3284 124.536 10.7244 124.722 11.0593C124.907 11.3942 125.161 11.6544 125.482 11.84C125.808 12.021 126.177 12.1115 126.589 12.1115ZM132.326 13.2316V5.41136C132.326 4.74157 132.519 4.21433 132.903 3.82965C133.293 3.44498 133.829 3.25264 134.512 3.25264C134.761 3.25264 134.987 3.27979 135.191 3.3341C135.399 3.38388 135.592 3.45629 135.768 3.55133L135.49 4.73251C135.359 4.6601 135.232 4.61032 135.11 4.58317C134.987 4.55601 134.867 4.54244 134.75 4.54244C134.474 4.54244 134.247 4.61258 134.071 4.75288C133.899 4.89317 133.813 5.13303 133.813 5.47245V6.51108H135.578V7.74658H133.813V13.2316H132.326ZM130.975 7.74658V6.51108H132.523V7.74658H130.975ZM36.1435 30.4353C35.4873 30.4353 34.8447 30.3425 34.2156 30.157C33.5911 29.9669 33.0638 29.6953 32.6339 29.3423L33.3806 28.1815C33.6069 28.3761 33.8694 28.5436 34.1681 28.6839C34.4713 28.8242 34.7926 28.9328 35.132 29.0097C35.4715 29.0821 35.8109 29.1183 36.1503 29.1183C36.7703 29.1183 37.2704 29.0007 37.6505 28.7653C38.0352 28.53 38.2276 28.186 38.2276 27.7335C38.2276 27.3941 38.0963 27.1067 37.8338 26.8714C37.5759 26.636 37.0962 26.4188 36.3947 26.2197L35.4172 25.9346C34.5211 25.6766 33.8671 25.3349 33.4553 24.9095C33.048 24.4841 32.8443 23.9546 32.8443 23.321C32.8443 22.9001 32.9281 22.52 33.0955 22.1806C33.2675 21.8411 33.5073 21.547 33.8151 21.2981C34.1274 21.0491 34.4939 20.8591 34.9148 20.7278C35.3357 20.5966 35.7973 20.531 36.2997 20.531C36.9378 20.531 37.5306 20.6237 38.0782 20.8093C38.6258 20.9948 39.0784 21.2437 39.4359 21.556L38.662 22.6829C38.4674 22.5064 38.2389 22.3548 37.9764 22.2281C37.7184 22.1014 37.4401 22.0041 37.1414 21.9362C36.8427 21.8683 36.5395 21.8343 36.2318 21.8343C35.8516 21.8343 35.5145 21.8909 35.2203 22.0041C34.9307 22.1127 34.7044 22.2711 34.5414 22.4792C34.3785 22.6874 34.2971 22.9409 34.2971 23.2395C34.2971 23.4568 34.3514 23.6469 34.46 23.8098C34.5686 23.9727 34.7542 24.122 35.0166 24.2578C35.2837 24.3891 35.6502 24.5226 36.1164 24.6583L37.1482 24.9638C38.0262 25.2218 38.6688 25.5589 39.0761 25.9753C39.4834 26.3871 39.6871 26.9234 39.6871 27.5841C39.6871 28.1498 39.5468 28.6477 39.2662 29.0776C38.9901 29.503 38.5874 29.8356 38.0579 30.0755C37.5284 30.3154 36.8902 30.4353 36.1435 30.4353ZM44.4584 30.4353C43.7524 30.4353 43.1233 30.2814 42.5712 29.9737C42.0191 29.6614 41.5846 29.2383 41.2678 28.7042C40.9556 28.1657 40.7994 27.5547 40.7994 26.8714C40.7994 26.3554 40.8922 25.8825 41.0778 25.4526C41.2633 25.0181 41.5258 24.6402 41.8652 24.3189C42.2046 23.9976 42.6029 23.7487 43.06 23.5722C43.5216 23.3957 44.0217 23.3074 44.5602 23.3074C45.0128 23.3074 45.4314 23.3685 45.8161 23.4907C46.2053 23.6084 46.5628 23.7917 46.8886 24.0406L46.1691 25.181C45.9609 24.9955 45.721 24.8575 45.4495 24.7669C45.1825 24.6764 44.8974 24.6312 44.5942 24.6312C44.1235 24.6312 43.7185 24.7194 43.379 24.8959C43.0396 25.0724 42.7749 25.3281 42.5848 25.663C42.3992 25.9934 42.3065 26.3939 42.3065 26.8646C42.3065 27.566 42.5101 28.1159 42.9174 28.5142C43.3292 28.9124 43.8882 29.1115 44.5942 29.1115C44.9291 29.1115 45.2458 29.0504 45.5445 28.9282C45.8432 28.8015 46.0921 28.6363 46.2913 28.4327L47.0041 29.5664C46.6465 29.8379 46.2483 30.0506 45.8093 30.2045C45.3703 30.3583 44.92 30.4353 44.4584 30.4353ZM48.377 30.2316V23.5111H49.8705V30.2316H48.377ZM49.1237 22.3095C48.8567 22.3095 48.6259 22.2235 48.4313 22.0516C48.2367 21.8796 48.1394 21.6533 48.1394 21.3727C48.1394 21.0967 48.2367 20.8726 48.4313 20.7007C48.6259 20.5242 48.8567 20.4359 49.1237 20.4359C49.3908 20.4359 49.6216 20.5242 49.8162 20.7007C50.0108 20.8726 50.1081 21.0967 50.1081 21.3727C50.1081 21.6533 50.0108 21.8796 49.8162 22.0516C49.6216 22.2235 49.3908 22.3095 49.1237 22.3095ZM55.012 30.4353C54.2879 30.4353 53.652 30.2882 53.1044 29.994C52.5568 29.6953 52.1291 29.279 51.8214 28.745C51.5182 28.2109 51.3666 27.5909 51.3666 26.8849C51.3666 26.369 51.4548 25.8938 51.6313 25.4594C51.8078 25.0204 52.0567 24.6402 52.378 24.3189C52.6994 23.9976 53.075 23.7487 53.5049 23.5722C53.9394 23.3957 54.4123 23.3074 54.9237 23.3074C55.4804 23.3074 55.9759 23.407 56.4104 23.6061C56.8448 23.8007 57.2046 24.0745 57.4897 24.4275C57.7794 24.7805 57.983 25.1946 58.1007 25.6698C58.2229 26.1405 58.2433 26.6519 58.1618 27.204H52.7989C52.7899 27.6068 52.8781 27.9598 53.0637 28.263C53.2492 28.5617 53.514 28.7947 53.8579 28.9622C54.2064 29.1296 54.616 29.2134 55.0866 29.2134C55.4668 29.2134 55.8334 29.1568 56.1864 29.0437C56.5439 28.926 56.8675 28.754 57.1571 28.5277L57.7341 29.6003C57.5169 29.7768 57.2544 29.9284 56.9467 30.0551C56.6389 30.1773 56.3176 30.2701 55.9827 30.3335C55.6478 30.4013 55.3242 30.4353 55.012 30.4353ZM52.8872 26.1043H56.6955C56.6819 25.5974 56.519 25.1991 56.2067 24.9095C55.899 24.6199 55.46 24.475 54.8898 24.475C54.3376 24.475 53.8783 24.6199 53.5117 24.9095C53.1497 25.1991 52.9415 25.5974 52.8872 26.1043ZM59.7132 30.2316V23.5111H61.2066V24.3664C61.4872 23.9908 61.813 23.7215 62.1841 23.5586C62.5552 23.3912 62.9399 23.3074 63.3382 23.3074C63.9537 23.3074 64.4628 23.4296 64.8656 23.674C65.2684 23.9184 65.567 24.2329 65.7617 24.6176C65.9608 25.0023 66.0603 25.3983 66.0603 25.8056V30.2316H64.5669V26.2672C64.5669 25.7875 64.4221 25.4028 64.1324 25.1132C63.8473 24.8235 63.4491 24.6787 62.9377 24.6787C62.6028 24.6787 62.3041 24.7534 62.0416 24.9027C61.7836 25.0521 61.58 25.2602 61.4306 25.5272C61.2813 25.7897 61.2066 26.0975 61.2066 26.4505V30.2316H59.7132ZM70.7575 30.4353C70.1013 30.4353 69.5763 30.2452 69.1826 29.8651C68.7889 29.4849 68.592 28.9034 68.592 28.1204V21.5492H70.0855V23.5111H71.9523V24.7466H70.0855V27.7946C70.0855 28.2652 70.1737 28.5979 70.3502 28.7925C70.5312 28.9826 70.7847 29.0776 71.1105 29.0776C71.2689 29.0776 71.4183 29.0595 71.5585 29.0233C71.6988 28.9871 71.8256 28.9396 71.9387 28.8807L72.2034 30.0891C72.0088 30.1886 71.7848 30.2701 71.5314 30.3335C71.2825 30.4013 71.0245 30.4353 70.7575 30.4353ZM67.1189 24.7466V23.5111H68.7889V24.7466H67.1189ZM73.7673 30.2316V23.5111H75.2608V30.2316H73.7673ZM74.5141 22.3095C74.247 22.3095 74.0162 22.2235 73.8216 22.0516C73.627 21.8796 73.5297 21.6533 73.5297 21.3727C73.5297 21.0967 73.627 20.8726 73.8216 20.7007C74.0162 20.5242 74.247 20.4359 74.5141 20.4359C74.7811 20.4359 75.0119 20.5242 75.2065 20.7007C75.4011 20.8726 75.4984 21.0967 75.4984 21.3727C75.4984 21.6533 75.4011 21.8796 75.2065 22.0516C75.0119 22.2235 74.7811 22.3095 74.5141 22.3095ZM77.9924 30.2316V22.4114C77.9924 21.7416 78.1847 21.2143 78.5694 20.8297C78.9586 20.445 79.4949 20.2526 80.1783 20.2526C80.4272 20.2526 80.6534 20.2798 80.8571 20.3341C81.0653 20.3839 81.2576 20.4563 81.4341 20.5513L81.1558 21.7325C81.0245 21.6601 80.8978 21.6103 80.7756 21.5832C80.6534 21.556 80.5335 21.5424 80.4159 21.5424C80.1398 21.5424 79.9135 21.6126 79.737 21.7529C79.565 21.8932 79.4791 22.133 79.4791 22.4725V23.5111H81.244V24.7466H79.4791V30.2316H77.9924ZM76.6415 24.7466V23.5111H78.1892V24.7466H76.6415ZM82.6017 30.2316V23.5111H84.0952V30.2316H82.6017ZM83.3485 22.3095C83.0814 22.3095 82.8506 22.2235 82.656 22.0516C82.4614 21.8796 82.3641 21.6533 82.3641 21.3727C82.3641 21.0967 82.4614 20.8726 82.656 20.7007C82.8506 20.5242 83.0814 20.4359 83.3485 20.4359C83.6155 20.4359 83.8463 20.5242 84.0409 20.7007C84.2355 20.8726 84.3328 21.0967 84.3328 21.3727C84.3328 21.6533 84.2355 21.8796 84.0409 22.0516C83.8463 22.2235 83.6155 22.3095 83.3485 22.3095ZM89.2594 30.4353C88.5534 30.4353 87.9243 30.2814 87.3722 29.9737C86.8201 29.6614 86.3856 29.2383 86.0688 28.7042C85.7565 28.1657 85.6004 27.5547 85.6004 26.8714C85.6004 26.3554 85.6932 25.8825 85.8787 25.4526C86.0643 25.0181 86.3268 24.6402 86.6662 24.3189C87.0056 23.9976 87.4039 23.7487 87.861 23.5722C88.3226 23.3957 88.8227 23.3074 89.3612 23.3074C89.8138 23.3074 90.2324 23.3685 90.6171 23.4907C91.0063 23.6084 91.3638 23.7917 91.6896 24.0406L90.9701 25.181C90.7619 24.9955 90.522 24.8575 90.2505 24.7669C89.9835 24.6764 89.6984 24.6312 89.3951 24.6312C88.9245 24.6312 88.5194 24.7194 88.18 24.8959C87.8406 25.0724 87.5758 25.3281 87.3858 25.663C87.2002 25.9934 87.1074 26.3939 87.1074 26.8646C87.1074 27.566 87.3111 28.1159 87.7184 28.5142C88.1302 28.9124 88.6891 29.1115 89.3951 29.1115C89.73 29.1115 90.0468 29.0504 90.3455 28.9282C90.6442 28.8015 90.8931 28.6363 91.0923 28.4327L91.805 29.5664C91.4475 29.8379 91.0493 30.0506 90.6103 30.2045C90.1713 30.3583 89.721 30.4353 89.2594 30.4353ZM33.048 47.2316V37.7278H36.4897C37.164 37.7278 37.7592 37.8455 38.2751 38.0808C38.7955 38.3116 39.2028 38.6465 39.497 39.0855C39.7912 39.52 39.9383 40.0427 39.9383 40.6536C39.9383 41.2827 39.8025 41.8145 39.5309 42.2489C39.2594 42.6789 38.8634 43.007 38.343 43.2332C37.827 43.455 37.198 43.5659 36.4558 43.5659H34.5686V47.2316H33.048ZM34.5686 42.2625H36.4762C37.0916 42.2625 37.5691 42.1335 37.9085 41.8756C38.2479 41.6131 38.4176 41.2171 38.4176 40.6876C38.4176 40.1626 38.2434 39.7598 37.8949 39.4792C37.5465 39.1987 37.0781 39.0584 36.4897 39.0584H34.5686V42.2625ZM44.3054 47.4353C43.604 47.4353 42.9772 47.2746 42.425 46.9533C41.8774 46.6275 41.4475 46.1953 41.1352 45.6567C40.823 45.1136 40.6668 44.5185 40.6668 43.8714C40.6668 43.3916 40.7551 42.9391 40.9316 42.5137C41.1126 42.0837 41.366 41.7036 41.6919 41.3732C42.0223 41.0428 42.4092 40.7826 42.8527 40.5925C43.2962 40.4025 43.7827 40.3074 44.3122 40.3074C45.0137 40.3074 45.6382 40.4704 46.1858 40.7962C46.738 41.1175 47.1702 41.5497 47.4824 42.0928C47.7947 42.6313 47.9508 43.2242 47.9508 43.8714C47.9508 44.3465 47.8603 44.7991 47.6793 45.229C47.5028 45.659 47.2516 46.0391 46.9258 46.3695C46.5999 46.6999 46.2153 46.9601 45.7717 47.1502C45.3282 47.3402 44.8395 47.4353 44.3054 47.4353ZM44.3054 46.1115C44.7218 46.1115 45.0906 46.021 45.412 45.84C45.7378 45.6544 45.9935 45.3942 46.179 45.0593C46.3646 44.7244 46.4574 44.3284 46.4574 43.8714C46.4574 43.4143 46.3646 43.0183 46.179 42.6834C45.9935 42.344 45.7378 42.0837 45.412 41.9027C45.0906 41.7217 44.7218 41.6312 44.3054 41.6312C43.8891 41.6312 43.518 41.7217 43.1921 41.9027C42.8708 42.0837 42.6174 42.344 42.4318 42.6834C42.2508 43.0183 42.1603 43.4143 42.1603 43.8714C42.1603 44.3284 42.2531 44.7244 42.4386 45.0593C42.6242 45.3942 42.8776 45.6544 43.1989 45.84C43.5248 46.021 43.8936 46.1115 44.3054 46.1115ZM51.7183 47.4285C51.1616 47.4285 50.6412 47.3493 50.157 47.1909C49.6727 47.0325 49.2654 46.8198 48.935 46.5528L49.4985 45.4598C49.8107 45.7042 50.1615 45.8966 50.5507 46.0369C50.9444 46.1772 51.3314 46.2473 51.7115 46.2473C52.1505 46.2473 52.4922 46.1704 52.7366 46.0165C52.9809 45.8626 53.1031 45.6477 53.1031 45.3716C53.1031 45.1091 52.9968 44.9168 52.7841 44.7946C52.5759 44.6679 52.1776 44.5366 51.5893 44.4009C50.743 44.2244 50.1275 43.9754 49.7429 43.6541C49.3627 43.3283 49.1726 42.878 49.1726 42.3032C49.1726 41.9004 49.2835 41.5452 49.5053 41.2374C49.7316 40.9252 50.0416 40.6808 50.4353 40.5043C50.829 40.3278 51.2838 40.2395 51.7998 40.2395C52.3021 40.2395 52.775 40.312 53.2185 40.4568C53.6621 40.5971 54.0467 40.7962 54.3726 41.0542L53.8431 42.1539C53.6756 42.0045 53.481 41.8756 53.2593 41.7669C53.0375 41.6583 52.8022 41.5746 52.5533 41.5158C52.3089 41.4524 52.0645 41.4207 51.8201 41.4207C51.44 41.4207 51.13 41.4954 50.8901 41.6448C50.6548 41.7896 50.5371 41.991 50.5371 42.2489C50.5371 42.5159 50.6503 42.7128 50.8765 42.8395C51.1028 42.9662 51.492 43.0929 52.0441 43.2197C52.9131 43.4097 53.5353 43.6632 53.911 43.98C54.2866 44.2968 54.4744 44.7357 54.4744 45.2969C54.4744 45.7269 54.359 46.1025 54.1282 46.4238C53.8974 46.7406 53.5738 46.9872 53.1574 47.1637C52.7456 47.3402 52.2659 47.4285 51.7183 47.4285ZM58.9838 47.4353C58.3276 47.4353 57.8026 47.2452 57.4089 46.8651C57.0152 46.4849 56.8183 45.9034 56.8183 45.1204V38.5492H58.3118V40.5111H60.1786V41.7466H58.3118V44.7946C58.3118 45.2652 58.4 45.5979 58.5765 45.7925C58.7575 45.9826 59.011 46.0776 59.3368 46.0776C59.4952 46.0776 59.6446 46.0595 59.7849 46.0233C59.9252 45.9871 60.0519 45.9396 60.165 45.8807L60.4298 47.0891C60.2352 47.1886 60.0111 47.2701 59.7577 47.3335C59.5088 47.4013 59.2508 47.4353 58.9838 47.4353ZM55.3452 41.7466V40.5111H57.0152V41.7466H55.3452ZM65.0222 47.4353C64.2981 47.4353 63.6623 47.2882 63.1147 46.994C62.5671 46.6953 62.1394 46.279 61.8317 45.745C61.5285 45.2109 61.3769 44.5909 61.3769 43.8849C61.3769 43.369 61.4651 42.8938 61.6416 42.4594C61.8181 42.0204 62.067 41.6402 62.3883 41.3189C62.7096 40.9976 63.0853 40.7487 63.5152 40.5722C63.9497 40.3957 64.4226 40.3074 64.934 40.3074C65.4906 40.3074 65.9862 40.407 66.4207 40.6061C66.8551 40.8007 67.2149 41.0745 67.5 41.4275C67.7897 41.7805 67.9933 42.1946 68.111 42.6698C68.2332 43.1405 68.2535 43.6519 68.1721 44.204H62.8092C62.8002 44.6068 62.8884 44.9598 63.074 45.263C63.2595 45.5617 63.5243 45.7947 63.8682 45.9622C64.2167 46.1296 64.6262 46.2134 65.0969 46.2134C65.4771 46.2134 65.8436 46.1568 66.1966 46.0437C66.5542 45.926 66.8777 45.754 67.1674 45.5277L67.7444 46.6003C67.5272 46.7768 67.2647 46.9284 66.9569 47.0551C66.6492 47.1773 66.3279 47.2701 65.993 47.3335C65.6581 47.4013 65.3345 47.4353 65.0222 47.4353ZM62.8975 43.1043H66.7058C66.6922 42.5974 66.5293 42.1991 66.217 41.9095C65.9093 41.6199 65.4703 41.475 64.9 41.475C64.3479 41.475 63.8886 41.6199 63.522 41.9095C63.1599 42.1991 62.9518 42.5974 62.8975 43.1043ZM69.7234 47.2316V40.5111H71.2169V41.4411C71.4703 41.0202 71.7781 40.726 72.1401 40.5586C72.5022 40.3866 72.8914 40.3006 73.3077 40.3006C73.4435 40.3006 73.5725 40.3074 73.6947 40.321C73.8169 40.3346 73.9345 40.3549 74.0477 40.3821L73.8508 41.9231C73.715 41.8823 73.577 41.8507 73.4367 41.828C73.2964 41.8054 73.1561 41.7941 73.0158 41.7941C72.4954 41.7941 72.0654 41.9548 71.726 42.2761C71.3866 42.5929 71.2169 43.0251 71.2169 43.5727V47.2316H69.7234Z" fill="#00AF64"/>
<path d="M15.8799 10.8821H17.5889V23.5579L25.4805 3.70538V48.1126H7.82812L15.4453 28.9495V19.3841H13.832L7.3623 35.0091L6.88477 34.8431L5.30469 38.4935L5.92676 38.761L4.08984 43.513L0.929688 47.8734L2.02344 42.8909L3.86523 38.0237L4.46484 38.2122L5.99414 34.5579L5.3623 34.2415L12.5488 16.138V10.8821H14.4365V3.70538H15.8799V10.8821ZM17.5889 29.265V45.6771H23.3623V14.3528L17.5889 29.265ZM14.5996 36.9857L11.418 45.6771H15.4453V34.8021L14.5996 36.9857Z" fill="#00AF64"/>
</svg>
