<svg width="790" height="1071" viewBox="0 0 790 1071" fill="none" xmlns="http://www.w3.org/2000/svg">
<g clip-path="url(#clip0_1765_2411)">
<rect x="0.9375" y="0.949219" width="788.695" height="1069.59" fill="#E7FFFD"/>
<line x1="28.1881" y1="2.49902" x2="28.188" y2="1070.54" stroke="#006CB4" stroke-width="0.782435"/>
<line x1="411.352" y1="2.49902" x2="411.352" y2="1070.54" stroke="#006CB4" stroke-width="0.782435"/>
<line x1="380.016" y1="2.49902" x2="380.016" y2="1070.54" stroke="#006CB4" stroke-width="0.782435"/>
<line x1="213.946" y1="2.49902" x2="213.946" y2="1070.54" stroke="#006CB4" stroke-width="0.782435"/>
<line x1="182.61" y1="2.49902" x2="182.61" y2="1070.54" stroke="#006CB4" stroke-width="0.782435"/>
<line x1="760.938" y1="0.949219" x2="760.938" y2="1068.99" stroke="#006CB4" stroke-width="0.782435"/>
<line x1="608.766" y1="2.49902" x2="608.766" y2="1070.54" stroke="#006CB4" stroke-width="0.782435"/>
<line x1="577.422" y1="2.49902" x2="577.423" y2="1070.54" stroke="#006CB4" stroke-width="0.782435"/>
<line x1="789.633" y1="29.4781" x2="0.938232" y2="29.4781" stroke="#006CB4" stroke-width="0.782435"/>
<line x1="789.633" y1="440.107" x2="0.938232" y2="440.107" stroke="#006CB4" stroke-width="0.782435"/>
<line x1="789.633" y1="409.238" x2="0.938232" y2="409.238" stroke="#006CB4" stroke-width="0.782435"/>
<line x1="789.633" y1="664.583" x2="0.938232" y2="664.583" stroke="#006CB4" stroke-width="0.782435"/>
<line x1="789.633" y1="633.713" x2="0.938232" y2="633.714" stroke="#006CB4" stroke-width="0.782435"/>
<line x1="789.633" y1="889.058" x2="0.938232" y2="889.058" stroke="#006CB4" stroke-width="0.782435"/>
<line x1="789.633" y1="858.188" x2="0.938232" y2="858.188" stroke="#006CB4" stroke-width="0.782435"/>
<line x1="789.633" y1="215.632" x2="0.938232" y2="215.632" stroke="#006CB4" stroke-width="0.782435"/>
<line x1="789.633" y1="184.763" x2="0.938232" y2="184.763" stroke="#006CB4" stroke-width="0.782435"/>
<line x1="789.633" y1="1042.98" x2="0.938232" y2="1042.98" stroke="#006CB4" stroke-width="0.782435"/>
<rect x="27.7969" y="27.3711" width="732.734" height="157" fill="#006CB4" fill-opacity="0.39"/>
<rect x="27.7969" y="885.594" width="732.734" height="157" fill="#006CB4" fill-opacity="0.39"/>
<rect x="28.9297" y="215.241" width="350.699" height="418.082" fill="#006CB4" fill-opacity="0.39"/>
<rect x="27.7969" y="664.191" width="549.225" height="193.606" fill="#006CB4" fill-opacity="0.39"/>
<rect x="608.375" y="662.655" width="152.168" height="193.606" fill="#006CB4" fill-opacity="0.39"/>
<rect x="412.078" y="215.241" width="350.699" height="418.082" fill="#006CB4" fill-opacity="0.39"/>
</g>
<rect x="1.13311" y="1.14483" width="788.303" height="1069.2" stroke="#006CB4" stroke-width="0.391218"/>
<defs>
<clipPath id="clip0_1765_2411">
<rect x="0.9375" y="0.949219" width="788.695" height="1069.59" fill="white"/>
</clipPath>
</defs>
</svg>
