<svg width="5444" height="3435" viewBox="0 0 5444 3435" fill="none" xmlns="http://www.w3.org/2000/svg">
<g clip-path="url(#clip0_1810_4367)">
<path d="M287.371 1210.3V1012.95L121.729 738.006H247.563L345.733 905.671L442.891 738.006H565.351L399.71 1013.96V1210.3H287.371ZM728.299 1220.42C690.74 1220.42 657.567 1212.21 628.779 1195.8C599.992 1179.15 577.389 1157 560.971 1129.34C544.778 1101.67 536.681 1071.31 536.681 1038.25C536.681 1014.19 541.292 991.247 550.513 969.431C559.959 947.391 573.228 927.937 590.321 911.069C607.413 893.976 627.655 880.594 651.045 870.924C674.435 861.028 700.186 856.08 728.299 856.08C765.858 856.08 799.031 864.401 827.819 881.044C856.606 897.462 879.097 919.503 895.29 947.166C911.483 974.829 919.579 1005.19 919.579 1038.25C919.579 1062.32 914.969 1085.37 905.748 1107.41C896.527 1129.23 883.37 1148.57 866.277 1165.43C849.185 1182.3 828.943 1195.68 805.553 1205.58C782.163 1215.48 756.412 1220.42 728.299 1220.42ZM728.299 1125.29C744.042 1125.29 758.211 1121.8 770.806 1114.83C783.4 1107.63 793.296 1097.51 800.493 1084.47C807.69 1071.42 811.288 1056.02 811.288 1038.25C811.288 1020.26 807.69 1004.85 800.493 992.034C793.521 978.99 783.738 968.981 771.143 962.009C758.549 954.813 744.267 951.214 728.299 951.214C712.331 951.214 698.05 954.813 685.455 962.009C672.86 968.981 662.965 978.99 655.768 992.034C648.571 1004.85 644.972 1020.26 644.972 1038.25C644.972 1056.02 648.571 1071.42 655.768 1084.47C663.189 1097.51 673.198 1107.63 685.792 1114.83C698.387 1121.8 712.556 1125.29 728.299 1125.29ZM1119.33 1220.42C1088.06 1220.42 1062.2 1214.35 1041.73 1202.21C1021.27 1189.84 1005.97 1172.86 995.853 1151.27C985.957 1129.45 981.01 1104.15 981.01 1075.36V866.201H1091.66V1058.83C1091.66 1077.72 1096.61 1092.68 1106.51 1103.7C1116.63 1114.72 1131.24 1120.23 1150.36 1120.23C1162.73 1120.23 1173.53 1117.53 1182.75 1112.13C1192.19 1106.51 1199.39 1098.86 1204.34 1089.19C1209.51 1079.52 1212.1 1068.28 1212.1 1055.46V866.201H1322.75V1210.3H1227.28V1173.87C1216.26 1186.24 1202.31 1197.15 1185.45 1206.59C1168.58 1215.81 1146.54 1220.42 1119.33 1220.42ZM1632.55 1210.3L1529.66 866.201H1636.6L1692.26 1083.12L1756.36 866.201H1858.24L1919.98 1083.12L1974.97 866.201H2077.86L1974.97 1210.3H1864.99L1805.28 1001.48L1742.53 1210.3H1632.55ZM2128.89 1210.3V866.201H2239.54V1210.3H2128.89ZM2184.21 815.26C2166.45 815.26 2150.93 809.75 2137.66 798.73C2124.61 787.484 2118.09 772.528 2118.09 753.861C2118.09 734.745 2124.61 719.676 2137.66 708.656C2150.93 697.636 2166.45 692.125 2184.21 692.125C2202.2 692.125 2217.72 697.636 2230.77 708.656C2243.81 719.676 2250.33 734.745 2250.33 753.861C2250.33 772.528 2243.81 787.484 2230.77 798.73C2217.72 809.75 2202.2 815.26 2184.21 815.26ZM2331.83 1210.3V724.511H2442.48V1210.3H2331.83ZM2534.77 1210.3V724.511H2645.42V1210.3H2534.77ZM2893.21 1210.3V866.201H3003.86V906.346C3014.2 888.578 3027.92 875.647 3045.02 867.55C3062.11 859.454 3080.66 855.405 3100.68 855.405C3108.33 855.405 3115.19 855.855 3121.26 856.755C3127.33 857.654 3133.29 858.666 3139.14 859.791L3125.98 973.48C3118.33 970.781 3110.24 968.644 3101.69 967.07C3093.15 965.271 3084.6 964.371 3076.05 964.371C3055.14 964.371 3037.82 970.443 3024.1 982.588C3010.61 994.508 3003.86 1012.05 3003.86 1035.22V1210.3H2893.21ZM3348.7 1220.42C3310.91 1220.42 3277.74 1212.89 3249.18 1197.82C3220.62 1182.53 3198.35 1161.27 3182.38 1134.06C3166.41 1106.62 3158.43 1074.57 3158.43 1037.91C3158.43 1011.38 3163.04 986.974 3172.26 964.708C3181.71 942.443 3194.75 923.214 3211.4 907.021C3228.26 890.828 3248.05 878.345 3270.77 869.574C3293.71 860.578 3318.9 856.08 3346.34 856.08C3376.47 856.08 3403.35 861.478 3426.97 872.273C3450.58 882.843 3470.03 897.687 3485.33 916.804C3500.85 935.696 3511.53 958.074 3517.38 983.938C3523.22 1009.58 3523.45 1037.46 3518.05 1067.6H3259.64C3259.86 1081.1 3263.91 1092.9 3271.78 1103.02C3279.65 1113.14 3290.45 1121.13 3304.17 1126.98C3317.89 1132.6 3333.86 1135.41 3352.07 1135.41C3372.31 1135.41 3391.54 1132.82 3409.76 1127.65C3427.98 1122.25 3445.41 1114.04 3462.05 1103.02L3496.8 1177.92C3486.23 1186.01 3472.51 1193.32 3455.64 1199.84C3439 1206.14 3421.23 1211.09 3402.34 1214.69C3383.67 1218.51 3365.79 1220.42 3348.7 1220.42ZM3266.38 993.046H3412.8C3412.35 975.729 3405.94 961.897 3393.57 951.551C3381.2 941.206 3364.44 936.033 3343.3 936.033C3321.94 936.033 3304.17 941.206 3290 951.551C3276.05 961.897 3268.18 975.729 3266.38 993.046ZM3683.19 1220.42C3660.25 1220.42 3639.67 1216.04 3621.45 1207.27C3603.23 1198.27 3588.84 1185.56 3578.27 1169.15C3567.7 1152.5 3562.41 1132.6 3562.41 1109.43C3562.41 1089.64 3567.25 1072.1 3576.92 1056.81C3586.82 1041.51 3601.66 1028.92 3621.45 1019.02C3641.24 1009.13 3666.09 1002.49 3696.01 999.118C3726.14 995.52 3761.34 995.52 3801.6 999.118L3802.61 1067.94C3781.24 1064.12 3761.9 1062.2 3744.58 1062.2C3727.49 1061.98 3712.87 1063.44 3700.73 1066.59C3688.81 1069.51 3679.59 1074.12 3673.07 1080.42C3666.54 1086.72 3663.28 1094.48 3663.28 1103.7C3663.28 1115.62 3667.78 1124.73 3676.78 1131.02C3686 1137.32 3698.25 1140.47 3713.55 1140.47C3726.82 1140.47 3738.74 1138.11 3749.31 1133.39C3760.1 1128.66 3768.65 1121.8 3774.95 1112.81C3781.47 1103.59 3784.73 1092.34 3784.73 1079.07V1000.47C3784.73 988.098 3782.14 977.19 3776.97 967.744C3771.8 958.299 3763.59 950.989 3752.34 945.816C3741.32 940.419 3726.59 937.72 3708.15 937.72C3690.38 937.72 3672.73 940.419 3655.19 945.816C3637.64 950.989 3621.9 958.861 3607.96 969.431L3579.62 893.526C3601.88 879.582 3625.72 869.349 3651.14 862.827C3676.55 856.08 3701.52 852.706 3726.03 852.706C3758.42 852.706 3786.87 857.879 3811.38 868.225C3836.12 878.57 3855.46 894.538 3869.41 916.129C3883.35 937.72 3890.32 965.383 3890.32 999.118V1210.3H3794.85V1173.87C3783.83 1188.71 3768.65 1200.18 3749.31 1208.28C3729.97 1216.38 3707.93 1220.42 3683.19 1220.42ZM4121.46 1220.42C4088.85 1220.42 4059.61 1212.89 4033.75 1197.82C4007.89 1182.53 3987.53 1161.27 3972.69 1134.06C3957.85 1106.62 3950.42 1074.69 3950.42 1038.25C3950.42 1012.39 3954.7 988.436 3963.24 966.395C3971.79 944.355 3983.71 925.125 3999 908.707C4014.52 892.064 4032.85 879.133 4053.99 869.912C4075.13 860.69 4098.3 856.08 4123.49 856.08C4149.8 856.08 4173.53 861.253 4194.67 871.598C4215.81 881.944 4234.25 897.35 4250 917.816L4224.69 943.118V724.511H4335.35V1210.3H4239.87V1120.9L4255.06 1145.87C4245.16 1167.91 4228.63 1185.9 4205.46 1199.84C4182.3 1213.56 4154.3 1220.42 4121.46 1220.42ZM4142.04 1125.29C4157.79 1125.29 4171.95 1121.8 4184.55 1114.83C4197.14 1107.63 4207.04 1097.51 4214.24 1084.47C4221.43 1071.42 4225.03 1056.02 4225.03 1038.25C4225.03 1020.26 4221.43 1004.85 4214.24 992.034C4207.26 978.99 4197.48 968.981 4184.89 962.009C4172.29 954.813 4158.01 951.214 4142.04 951.214C4126.07 951.214 4111.79 954.813 4099.2 962.009C4086.6 968.981 4076.71 978.99 4069.51 992.034C4062.31 1004.85 4058.72 1020.26 4058.72 1038.25C4058.72 1056.02 4062.31 1071.42 4069.51 1084.47C4076.93 1097.51 4086.94 1107.63 4099.54 1114.83C4112.13 1121.8 4126.3 1125.29 4142.04 1125.29ZM322.118 1857.42C283.885 1857.42 253.86 1846.74 232.045 1825.37C210.229 1803.78 199.321 1771.62 199.321 1728.89V1404.69H309.974V1503.2H390.601V1590.91H309.974V1709.66C309.974 1728.1 314.022 1741.04 322.118 1748.46C330.215 1755.88 340.673 1759.59 353.492 1759.59C360.464 1759.59 367.324 1758.8 374.071 1757.23C381.043 1755.43 387.453 1752.84 393.3 1749.47L407.469 1836.17C396.899 1842.02 384.192 1846.97 369.348 1851.01C354.504 1855.29 338.761 1857.42 322.118 1857.42ZM132.525 1590.91V1503.2H209.442V1590.91H132.525ZM473.738 1847.3V1361.51H584.391V1580.12L561.451 1552.79C576.294 1534.57 593.949 1520.07 614.415 1509.27C634.882 1498.48 657.484 1493.08 682.224 1493.08C714.385 1493.08 741.148 1499.49 762.514 1512.31C784.105 1525.13 800.186 1541.88 810.756 1562.58C821.326 1583.27 826.612 1605.53 826.612 1629.37V1847.3H715.959V1660.41C715.959 1640.62 710.224 1624.54 698.754 1612.17C687.284 1599.8 671.203 1593.5 650.512 1593.27C636.568 1593.05 624.648 1595.86 614.753 1601.71C605.082 1607.33 597.548 1615.54 592.15 1626.34C586.977 1636.91 584.391 1649.5 584.391 1664.12V1847.3H473.738ZM915.199 1847.3V1503.2H1025.85V1847.3H915.199ZM970.525 1452.26C952.758 1452.26 937.24 1446.75 923.97 1435.73C910.926 1424.48 904.404 1409.53 904.404 1390.86C904.404 1371.74 910.926 1356.68 923.97 1345.66C937.24 1334.64 952.758 1329.13 970.525 1329.13C988.518 1329.13 1004.04 1334.64 1017.08 1345.66C1030.12 1356.68 1036.65 1371.74 1036.65 1390.86C1036.65 1409.53 1030.12 1424.48 1017.08 1435.73C1004.04 1446.75 988.518 1452.26 970.525 1452.26ZM1247.35 1856.75C1215.41 1856.75 1186.17 1852.81 1159.63 1844.94C1133.32 1837.07 1110.6 1825.94 1091.49 1811.54L1125.9 1735.64C1144.57 1747.56 1164.58 1757 1185.95 1763.98C1207.31 1770.72 1227.55 1774.1 1246.67 1774.1C1264.21 1774.1 1277.6 1771.74 1286.82 1767.01C1296.04 1762.06 1300.65 1754.98 1300.65 1745.76C1300.65 1737.66 1296.37 1731.7 1287.83 1727.88C1279.51 1724.06 1263.09 1719.89 1238.57 1715.4C1192.24 1707.53 1158.28 1694.59 1136.69 1676.6C1115.33 1658.38 1104.64 1633.53 1104.64 1602.05C1104.64 1579.56 1110.83 1559.88 1123.2 1543.01C1135.57 1526.14 1152.66 1513.1 1174.48 1503.88C1196.52 1494.43 1221.82 1489.71 1250.38 1489.71C1278.27 1489.71 1304.58 1493.42 1329.32 1500.84C1354.29 1508.26 1375.65 1518.61 1393.42 1531.88L1360.02 1607.78C1350.8 1600.81 1340.12 1594.62 1327.97 1589.23C1316.05 1583.83 1303.68 1579.67 1290.86 1576.74C1278.05 1573.82 1265.56 1572.36 1253.42 1572.36C1238.35 1572.36 1226.09 1574.72 1216.65 1579.44C1207.43 1583.94 1202.82 1590.24 1202.82 1598.33C1202.82 1606.66 1206.86 1612.84 1214.96 1616.89C1223.06 1620.94 1239.25 1625.55 1263.54 1630.72C1312.57 1640.62 1347.32 1654 1367.78 1670.87C1388.25 1687.51 1398.48 1710.9 1398.48 1741.04C1398.48 1764.43 1392.07 1784.78 1379.25 1802.1C1366.66 1819.41 1349 1832.91 1326.29 1842.58C1303.8 1852.03 1277.48 1856.75 1247.35 1856.75ZM1654.82 1847.3V1471.83C1654.82 1435.17 1665.73 1405.93 1687.55 1384.11C1709.59 1362.3 1740.96 1351.39 1781.67 1351.39C1794.94 1351.39 1807.76 1352.74 1820.13 1355.44C1832.5 1358.14 1844.64 1362.41 1856.56 1368.26L1840.37 1452.26C1833.85 1448.66 1827.55 1446.19 1821.48 1444.84C1815.63 1443.49 1810.01 1442.81 1804.61 1442.81C1792.46 1442.81 1782.79 1445.63 1775.6 1451.25C1768.62 1456.87 1765.14 1465.64 1765.14 1477.56V1503.2H1849.14V1590.91H1765.14V1847.3H1654.82ZM1594.77 1590.91V1503.2H1664.94V1590.91H1594.77ZM1908.51 1847.3V1503.2H2019.17V1847.3H1908.51ZM1963.84 1452.26C1946.07 1452.26 1930.56 1446.75 1917.29 1435.73C1904.24 1424.48 1897.72 1409.53 1897.72 1390.86C1897.72 1371.74 1904.24 1356.68 1917.29 1345.66C1930.56 1334.64 1946.07 1329.13 1963.84 1329.13C1981.83 1329.13 1997.35 1334.64 2010.4 1345.66C2023.44 1356.68 2029.96 1371.74 2029.96 1390.86C2029.96 1409.53 2023.44 1424.48 2010.4 1435.73C1997.35 1446.75 1981.83 1452.26 1963.84 1452.26ZM2111.1 1847.3V1503.2H2221.75V1543.35C2232.09 1525.58 2245.81 1512.65 2262.91 1504.55C2280 1496.45 2298.55 1492.41 2318.57 1492.41C2326.22 1492.41 2333.08 1492.86 2339.15 1493.75C2345.22 1494.65 2351.18 1495.67 2357.03 1496.79L2343.87 1610.48C2336.22 1607.78 2328.13 1605.64 2319.58 1604.07C2311.04 1602.27 2302.49 1601.37 2293.94 1601.37C2273.03 1601.37 2255.71 1607.44 2241.99 1619.59C2228.5 1631.51 2221.75 1649.05 2221.75 1672.22V1847.3H2111.1ZM2539.44 1856.75C2507.51 1856.75 2478.27 1852.81 2451.73 1844.94C2425.42 1837.07 2402.7 1825.94 2383.58 1811.54L2417.99 1735.64C2436.66 1747.56 2456.68 1757 2478.04 1763.98C2499.41 1770.72 2519.65 1774.1 2538.77 1774.1C2556.31 1774.1 2569.69 1771.74 2578.91 1767.01C2588.13 1762.06 2592.74 1754.98 2592.74 1745.76C2592.74 1737.66 2588.47 1731.7 2579.92 1727.88C2571.6 1724.06 2555.19 1719.89 2530.67 1715.4C2484.34 1707.53 2450.38 1694.59 2428.79 1676.6C2407.42 1658.38 2396.74 1633.53 2396.74 1602.05C2396.74 1579.56 2402.93 1559.88 2415.3 1543.01C2427.67 1526.14 2444.76 1513.1 2466.57 1503.88C2488.61 1494.43 2513.92 1489.71 2542.48 1489.71C2570.37 1489.71 2596.68 1493.42 2621.42 1500.84C2646.38 1508.26 2667.75 1518.61 2685.52 1531.88L2652.12 1607.78C2642.9 1600.81 2632.21 1594.62 2620.07 1589.23C2608.15 1583.83 2595.78 1579.67 2582.96 1576.74C2570.14 1573.82 2557.66 1572.36 2545.51 1572.36C2530.45 1572.36 2518.19 1574.72 2508.74 1579.44C2499.52 1583.94 2494.91 1590.24 2494.91 1598.33C2494.91 1606.66 2498.96 1612.84 2507.06 1616.89C2515.15 1620.94 2531.35 1625.55 2555.64 1630.72C2604.66 1640.62 2639.41 1654 2659.88 1670.87C2680.34 1687.51 2690.58 1710.9 2690.58 1741.04C2690.58 1764.43 2684.17 1784.78 2671.35 1802.1C2658.75 1819.41 2641.1 1832.91 2618.38 1842.58C2595.89 1852.03 2569.58 1856.75 2539.44 1856.75ZM2914.22 1857.42C2875.98 1857.42 2845.96 1846.74 2824.14 1825.37C2802.33 1803.78 2791.42 1771.62 2791.42 1728.89V1404.69H2902.07V1503.2H2982.7V1590.91H2902.07V1709.66C2902.07 1728.1 2906.12 1741.04 2914.22 1748.46C2922.31 1755.88 2932.77 1759.59 2945.59 1759.59C2952.56 1759.59 2959.42 1758.8 2966.17 1757.23C2973.14 1755.43 2979.55 1752.84 2985.4 1749.47L2999.57 1836.17C2989 1842.02 2976.29 1846.97 2961.45 1851.01C2946.6 1855.29 2930.86 1857.42 2914.22 1857.42ZM2724.62 1590.91V1503.2H2801.54V1590.91H2724.62Z" fill="black"/>
<path d="M190.492 2469.15V2293.83H132.688V2263.76H281.159V2293.83H223.355V2469.15H190.492ZM311.401 2469.15V2257.89H343.678V2353.54L337.076 2346.36C343.531 2337.36 351.307 2330.66 360.403 2326.26C369.499 2321.76 379.084 2319.51 389.158 2319.51C402.362 2319.51 413.365 2322.2 422.167 2327.58C430.97 2332.86 437.572 2339.71 441.973 2348.12C446.375 2356.53 448.575 2365.28 448.575 2374.38V2469.15H416.299V2383.62C416.299 2373.45 413.12 2365.18 406.763 2358.83C400.405 2352.47 391.75 2349.24 380.795 2349.14C373.558 2349.14 367.151 2350.76 361.576 2353.98C356.001 2357.11 351.6 2361.57 348.372 2367.34C345.243 2373.11 343.678 2379.81 343.678 2387.43V2469.15H311.401ZM558.236 2473.55C542.587 2473.55 528.845 2470.37 517.011 2464.02C505.176 2457.56 495.934 2448.56 489.283 2437.02C482.73 2425.48 479.453 2412.08 479.453 2396.82C479.453 2385.67 481.36 2375.4 485.175 2366.02C488.989 2356.53 494.369 2348.31 501.313 2341.37C508.257 2334.42 516.375 2329.04 525.667 2325.23C535.056 2321.42 545.277 2319.51 556.329 2319.51C568.359 2319.51 579.069 2321.66 588.459 2325.96C597.848 2330.17 605.624 2336.09 611.786 2343.72C618.045 2351.34 622.446 2360.29 624.989 2370.56C627.63 2380.74 628.07 2391.79 626.31 2403.72H510.409C510.213 2412.42 512.121 2420.05 516.131 2426.61C520.141 2433.06 525.862 2438.1 533.296 2441.72C540.827 2445.34 549.678 2447.15 559.85 2447.15C568.066 2447.15 575.988 2445.92 583.617 2443.48C591.344 2440.94 598.337 2437.22 604.597 2432.33L617.067 2455.51C612.372 2459.32 606.7 2462.6 600.049 2465.34C593.398 2467.98 586.454 2469.98 579.216 2471.35C571.978 2472.82 564.985 2473.55 558.236 2473.55ZM512.316 2379.95H594.62C594.327 2369 590.806 2360.39 584.057 2354.13C577.407 2347.87 567.919 2344.74 555.596 2344.74C543.663 2344.74 533.736 2347.87 525.813 2354.13C517.989 2360.39 513.49 2369 512.316 2379.95ZM659.838 2469.15V2323.91H692.114V2342.39C698.178 2334.28 705.22 2328.46 713.24 2324.94C721.26 2321.32 729.574 2319.51 738.181 2319.51C751.482 2319.51 762.486 2322.15 771.191 2327.43C779.895 2332.71 786.351 2339.51 790.556 2347.82C794.86 2356.14 797.011 2364.69 797.011 2373.5V2469.15H764.735V2383.47C764.735 2373.11 761.605 2364.79 755.346 2358.53C749.184 2352.27 740.577 2349.14 729.525 2349.14C722.287 2349.14 715.832 2350.76 710.159 2353.98C704.584 2357.21 700.183 2361.71 696.955 2367.48C693.728 2373.16 692.114 2379.81 692.114 2387.43V2469.15H659.838ZM924.752 2534.88C919.471 2534.88 914.287 2534.29 909.201 2533.12C904.115 2531.94 899.127 2529.94 894.237 2527.1L901.572 2499.52C904.604 2501.48 907.93 2502.94 911.548 2503.92C915.167 2504.9 918.395 2505.39 921.231 2505.39C928.078 2505.39 933.457 2503.78 937.369 2500.55C941.282 2497.32 944.363 2492.33 946.612 2485.58L951.454 2471.5L894.237 2323.91H929.594L969.792 2436.58L1008.96 2323.91H1043.15L980.355 2490.13C975.856 2501.77 970.819 2510.82 965.244 2517.27C959.669 2523.83 953.508 2528.37 946.759 2530.92C940.01 2533.56 932.675 2534.88 924.752 2534.88ZM1133.18 2473.55C1118.02 2473.55 1104.48 2470.08 1092.54 2463.14C1080.71 2456.1 1071.42 2446.75 1064.67 2435.12C1057.92 2423.38 1054.54 2410.52 1054.54 2396.53C1054.54 2386.16 1056.45 2376.38 1060.27 2367.19C1064.18 2357.9 1069.66 2349.68 1076.7 2342.54C1083.84 2335.4 1092.2 2329.78 1101.79 2325.67C1111.37 2321.56 1121.88 2319.51 1133.33 2319.51C1148.49 2319.51 1161.99 2323.03 1173.82 2330.07C1185.75 2337.02 1195.09 2346.36 1201.84 2358.09C1208.59 2369.73 1211.96 2382.54 1211.96 2396.53C1211.96 2406.8 1210.01 2416.58 1206.1 2425.87C1202.28 2435.16 1196.85 2443.38 1189.81 2450.52C1182.77 2457.66 1174.46 2463.28 1164.87 2467.39C1155.29 2471.5 1144.72 2473.55 1133.18 2473.55ZM1133.18 2444.95C1142.18 2444.95 1150.15 2442.99 1157.1 2439.08C1164.14 2435.07 1169.66 2429.44 1173.67 2422.21C1177.68 2414.97 1179.69 2406.41 1179.69 2396.53C1179.69 2386.65 1177.68 2378.09 1173.67 2370.86C1169.66 2363.52 1164.14 2357.9 1157.1 2353.98C1150.15 2350.07 1142.18 2348.12 1133.18 2348.12C1124.18 2348.12 1116.16 2350.07 1109.12 2353.98C1102.18 2357.9 1096.7 2363.52 1092.69 2370.86C1088.78 2378.09 1086.82 2386.65 1086.82 2396.53C1086.82 2406.41 1088.83 2414.97 1092.84 2422.21C1096.85 2429.44 1102.32 2435.07 1109.27 2439.08C1116.31 2442.99 1124.28 2444.95 1133.18 2444.95ZM1300.43 2473.55C1287.42 2473.55 1276.66 2470.96 1268.15 2465.78C1259.74 2460.5 1253.43 2453.55 1249.23 2444.95C1245.02 2436.34 1242.92 2426.95 1242.92 2416.78V2323.91H1275.19V2410.76C1275.19 2420.74 1278.13 2428.76 1284 2434.82C1289.96 2440.79 1298.18 2443.77 1308.64 2443.77C1315.49 2443.77 1321.6 2442.26 1326.98 2439.22C1332.36 2436.09 1336.62 2431.74 1339.75 2426.17C1342.97 2420.59 1344.59 2414.14 1344.59 2406.8V2323.91H1376.86V2469.15H1347.82V2451.99C1342.14 2458.83 1335.39 2464.16 1327.57 2467.98C1319.84 2471.7 1310.8 2473.55 1300.43 2473.55ZM1521.11 2469.15L1475.49 2323.91H1507.62L1538.72 2431.89L1572.75 2323.91H1604.3L1636.13 2431.89L1667.82 2323.91H1698.48L1652.86 2469.15H1619.55L1587.57 2364.84L1554.42 2469.15H1521.11ZM1725.2 2469.15V2323.91H1757.48V2469.15H1725.2ZM1741.34 2297.94C1735.57 2297.94 1730.58 2296.08 1726.38 2292.37C1722.17 2288.65 1720.07 2283.76 1720.07 2277.7C1720.07 2271.73 1722.17 2266.89 1726.38 2263.17C1730.58 2259.36 1735.57 2257.45 1741.34 2257.45C1747.11 2257.45 1752.1 2259.36 1756.31 2263.17C1760.51 2266.89 1762.62 2271.73 1762.62 2277.7C1762.62 2283.76 1760.51 2288.65 1756.31 2292.37C1752.1 2296.08 1747.11 2297.94 1741.34 2297.94ZM1802.28 2469.15V2257.89H1834.56V2469.15H1802.28ZM1879.36 2469.15V2257.89H1911.64V2469.15H1879.36ZM2028.37 2469.15V2323.91H2060.64V2344.01C2066.12 2334.91 2072.77 2328.56 2080.6 2324.94C2088.42 2321.22 2096.83 2319.36 2105.83 2319.36C2108.76 2319.36 2111.55 2319.51 2114.19 2319.8C2116.83 2320.09 2119.38 2320.54 2121.82 2321.12L2117.57 2354.43C2114.63 2353.54 2111.65 2352.86 2108.62 2352.37C2105.59 2351.88 2102.55 2351.64 2099.52 2351.64C2088.27 2351.64 2078.98 2355.11 2071.65 2362.05C2064.31 2368.9 2060.64 2378.24 2060.64 2390.08V2469.15H2028.37ZM2212.16 2473.55C2196.51 2473.55 2182.77 2470.37 2170.94 2464.02C2159.1 2457.56 2149.86 2448.56 2143.21 2437.02C2136.66 2425.48 2133.38 2412.08 2133.38 2396.82C2133.38 2385.67 2135.29 2375.4 2139.1 2366.02C2142.92 2356.53 2148.29 2348.31 2155.24 2341.37C2162.18 2334.42 2170.3 2329.04 2179.59 2325.23C2188.98 2321.42 2199.2 2319.51 2210.26 2319.51C2222.29 2319.51 2233 2321.66 2242.38 2325.96C2251.77 2330.17 2259.55 2336.09 2265.71 2343.72C2271.97 2351.34 2276.37 2360.29 2278.92 2370.56C2281.56 2380.74 2282 2391.79 2280.24 2403.72H2164.34C2164.14 2412.42 2166.05 2420.05 2170.06 2426.61C2174.07 2433.06 2179.79 2438.1 2187.22 2441.72C2194.75 2445.34 2203.6 2447.15 2213.78 2447.15C2221.99 2447.15 2229.91 2445.92 2237.54 2443.48C2245.27 2440.94 2252.26 2437.22 2258.52 2432.33L2270.99 2455.51C2266.3 2459.32 2260.63 2462.6 2253.97 2465.34C2247.32 2467.98 2240.38 2469.98 2233.14 2471.35C2225.9 2472.82 2218.91 2473.55 2212.16 2473.55ZM2166.24 2379.95H2248.55C2248.25 2369 2244.73 2360.39 2237.98 2354.13C2231.33 2347.87 2221.85 2344.74 2209.52 2344.74C2197.59 2344.74 2187.66 2347.87 2179.74 2354.13C2171.92 2360.39 2167.42 2369 2166.24 2379.95ZM2376.67 2473.55C2362.19 2473.55 2349.38 2470.23 2338.23 2463.58C2327.18 2456.83 2318.47 2447.68 2312.12 2436.14C2305.86 2424.5 2302.73 2411.3 2302.73 2396.53C2302.73 2385.48 2304.54 2375.26 2308.15 2365.87C2311.77 2356.48 2316.86 2348.31 2323.41 2341.37C2329.97 2334.42 2337.79 2329.04 2346.89 2325.23C2355.98 2321.42 2365.91 2319.51 2376.67 2319.51C2390.95 2319.51 2402.88 2322.54 2412.47 2328.6C2422.15 2334.67 2429.53 2342.49 2434.62 2352.08L2430.07 2358.97V2323.91H2458.83V2469.15H2430.07V2434.09L2434.62 2440.98C2429.53 2450.57 2422.15 2458.39 2412.47 2464.46C2402.88 2470.52 2390.95 2473.55 2376.67 2473.55ZM2380.92 2444.95C2389.73 2444.95 2397.6 2442.99 2404.54 2439.08C2411.49 2435.07 2416.92 2429.44 2420.83 2422.21C2424.84 2414.97 2426.84 2406.41 2426.84 2396.53C2426.84 2386.65 2424.84 2378.09 2420.83 2370.86C2416.92 2363.52 2411.49 2357.9 2404.54 2353.98C2397.6 2350.07 2389.73 2348.12 2380.92 2348.12C2372.02 2348.12 2364.1 2350.07 2357.16 2353.98C2350.31 2357.9 2344.88 2363.52 2340.87 2370.86C2336.86 2378.09 2334.86 2386.65 2334.86 2396.53C2334.86 2406.41 2336.86 2414.97 2340.87 2422.21C2344.88 2429.44 2350.31 2435.07 2357.16 2439.08C2364.1 2442.99 2372.02 2444.95 2380.92 2444.95ZM2564.04 2473.55C2549.86 2473.55 2537.29 2470.23 2526.34 2463.58C2515.38 2456.83 2506.77 2447.68 2500.51 2436.14C2494.35 2424.5 2491.27 2411.3 2491.27 2396.53C2491.27 2385.87 2493.03 2375.89 2496.55 2366.6C2500.07 2357.21 2505.06 2349 2511.52 2341.95C2518.07 2334.91 2525.8 2329.44 2534.7 2325.52C2543.7 2321.51 2553.62 2319.51 2564.48 2319.51C2577.68 2319.51 2589.13 2322.15 2598.81 2327.43C2608.49 2332.71 2616.56 2340.05 2623.02 2349.44L2616.27 2356.63V2257.89H2648.54V2469.15H2619.5V2434.24L2624.19 2441.57C2618.91 2450.76 2611.33 2458.39 2601.45 2464.46C2591.67 2470.52 2579.2 2473.55 2564.04 2473.55ZM2569.91 2444.95C2578.91 2444.95 2586.88 2442.99 2593.82 2439.08C2600.86 2435.07 2606.39 2429.44 2610.4 2422.21C2614.41 2414.97 2616.42 2406.41 2616.42 2396.53C2616.42 2386.65 2614.41 2378.09 2610.4 2370.86C2606.39 2363.52 2600.86 2357.9 2593.82 2353.98C2586.88 2350.07 2578.91 2348.12 2569.91 2348.12C2560.91 2348.12 2552.94 2350.07 2545.99 2353.98C2539.05 2357.9 2533.57 2363.52 2529.56 2370.86C2525.55 2378.09 2523.55 2386.65 2523.55 2396.53C2523.55 2406.41 2525.55 2414.97 2529.56 2422.21C2533.57 2429.44 2539.05 2435.07 2545.99 2439.08C2553.04 2442.99 2561.01 2444.95 2569.91 2444.95ZM2826.39 2473.55C2812.2 2473.55 2800.86 2469.45 2792.35 2461.23C2783.84 2453.01 2779.59 2440.45 2779.59 2423.53V2281.51H2811.86V2323.91H2852.21V2350.61H2811.86V2416.48C2811.86 2426.66 2813.77 2433.84 2817.58 2438.05C2821.5 2442.16 2826.97 2444.21 2834.02 2444.21C2837.44 2444.21 2840.67 2443.82 2843.7 2443.04C2846.73 2442.26 2849.47 2441.23 2851.91 2439.96L2857.64 2466.07C2853.43 2468.22 2848.59 2469.98 2843.11 2471.35C2837.73 2472.82 2832.16 2473.55 2826.39 2473.55ZM2747.75 2350.61V2323.91H2783.84V2350.61H2747.75ZM2891.43 2469.15V2257.89H2923.71V2353.54L2917.11 2346.36C2923.56 2337.36 2931.34 2330.66 2940.44 2326.26C2949.53 2321.76 2959.12 2319.51 2969.19 2319.51C2982.39 2319.51 2993.4 2322.2 3002.2 2327.58C3011 2332.86 3017.61 2339.71 3022.01 2348.12C3026.41 2356.53 3028.61 2365.28 3028.61 2374.38V2469.15H2996.33V2383.62C2996.33 2373.45 2993.15 2365.18 2986.8 2358.83C2980.44 2352.47 2971.78 2349.24 2960.83 2349.14C2953.59 2349.14 2947.18 2350.76 2941.61 2353.98C2936.03 2357.11 2931.63 2361.57 2928.41 2367.34C2925.28 2373.11 2923.71 2379.81 2923.71 2387.43V2469.15H2891.43ZM3071.96 2469.15V2323.91H3104.23V2469.15H3071.96ZM3088.09 2297.94C3082.32 2297.94 3077.34 2296.08 3073.13 2292.37C3068.92 2288.65 3066.82 2283.76 3066.82 2277.7C3066.82 2271.73 3068.92 2266.89 3073.13 2263.17C3077.34 2259.36 3082.32 2257.45 3088.09 2257.45C3093.87 2257.45 3098.85 2259.36 3103.06 2263.17C3107.26 2266.89 3109.37 2271.73 3109.37 2277.7C3109.37 2283.76 3107.26 2288.65 3103.06 2292.37C3098.85 2296.08 3093.87 2297.94 3088.09 2297.94ZM3198.04 2473.41C3186.01 2473.41 3174.76 2471.7 3164.29 2468.27C3153.83 2464.85 3145.03 2460.25 3137.89 2454.48L3150.06 2430.86C3156.81 2436.14 3164.39 2440.3 3172.8 2443.33C3181.31 2446.36 3189.68 2447.88 3197.89 2447.88C3207.38 2447.88 3214.76 2446.22 3220.04 2442.89C3225.33 2439.57 3227.97 2434.92 3227.97 2428.95C3227.97 2423.28 3225.67 2419.12 3221.07 2416.48C3216.57 2413.74 3207.97 2410.91 3195.25 2407.97C3176.96 2404.16 3163.66 2398.78 3155.35 2391.84C3147.13 2384.79 3143.02 2375.06 3143.02 2362.64C3143.02 2353.94 3145.42 2346.26 3150.21 2339.61C3155.1 2332.86 3161.8 2327.58 3170.31 2323.76C3178.82 2319.95 3188.65 2318.04 3199.8 2318.04C3210.65 2318.04 3220.88 2319.61 3230.46 2322.74C3240.05 2325.77 3248.36 2330.07 3255.4 2335.65L3243.96 2359.41C3240.34 2356.19 3236.13 2353.4 3231.34 2351.05C3226.55 2348.7 3221.46 2346.89 3216.08 2345.62C3210.8 2344.25 3205.52 2343.57 3200.24 2343.57C3192.02 2343.57 3185.32 2345.18 3180.14 2348.41C3175.05 2351.54 3172.51 2355.89 3172.51 2361.47C3172.51 2367.24 3174.96 2371.49 3179.85 2374.23C3184.74 2376.97 3193.15 2379.71 3205.08 2382.45C3223.86 2386.55 3237.31 2392.03 3245.42 2398.88C3253.54 2405.72 3257.6 2415.21 3257.6 2427.34C3257.6 2436.63 3255.11 2444.75 3250.12 2451.69C3245.13 2458.54 3238.14 2463.87 3229.14 2467.69C3220.24 2471.5 3209.87 2473.41 3198.04 2473.41Z" fill="black"/>
<path d="M170.332 3017V2895.46H130.258V2874.61H233.188V2895.46H193.115V3017H170.332ZM254.155 3017V2870.54H276.531V2936.85L271.954 2931.87C276.43 2925.63 281.82 2920.99 288.126 2917.93C294.432 2914.82 301.077 2913.26 308.061 2913.26C317.215 2913.26 324.843 2915.12 330.946 2918.85C337.049 2922.51 341.626 2927.26 344.677 2933.09C347.728 2938.92 349.254 2944.99 349.254 2951.3V3017H326.878V2957.7C326.878 2950.65 324.674 2944.92 320.267 2940.51C315.859 2936.11 309.858 2933.87 302.264 2933.8C297.246 2933.8 292.805 2934.92 288.94 2937.16C285.075 2939.33 282.024 2942.41 279.786 2946.41C277.616 2950.41 276.531 2955.06 276.531 2960.35V3017H254.155ZM425.279 3020.05C414.43 3020.05 404.903 3017.85 396.698 3013.44C388.494 3008.96 382.086 3002.73 377.475 2994.73C372.932 2986.72 370.661 2977.43 370.661 2966.86C370.661 2959.13 371.983 2952.01 374.627 2945.5C377.272 2938.92 381.001 2933.22 385.815 2928.41C390.63 2923.6 396.258 2919.87 402.699 2917.22C409.209 2914.58 416.295 2913.26 423.957 2913.26C432.297 2913.26 439.722 2914.75 446.231 2917.73C452.741 2920.65 458.131 2924.75 462.403 2930.04C466.743 2935.33 469.794 2941.53 471.557 2948.65C473.388 2955.7 473.693 2963.36 472.472 2971.64H392.121C391.986 2977.67 393.308 2982.96 396.088 2987.5C398.868 2991.98 402.835 2995.47 407.988 2997.98C413.209 3000.49 419.346 3001.74 426.398 3001.74C432.094 3001.74 437.586 3000.9 442.875 2999.2C448.231 2997.44 453.08 2994.86 457.419 2991.47L466.065 3007.54C462.81 3010.19 458.877 3012.46 454.266 3014.36C449.655 3016.19 444.841 3017.58 439.823 3018.53C434.806 3019.54 429.958 3020.05 425.279 3020.05ZM393.444 2955.16H450.503C450.3 2947.57 447.859 2941.6 443.18 2937.26C438.569 2932.92 431.992 2930.75 423.448 2930.75C415.176 2930.75 408.293 2932.92 402.801 2937.26C397.376 2941.6 394.257 2947.57 393.444 2955.16ZM495.716 3017V2916.31H518.092V2929.12C522.297 2923.49 527.179 2919.46 532.739 2917.02C538.299 2914.51 544.062 2913.26 550.029 2913.26C559.251 2913.26 566.879 2915.09 572.914 2918.75C578.949 2922.41 583.424 2927.12 586.34 2932.89C589.323 2938.65 590.815 2944.58 590.815 2950.69V3017H568.439V2957.6C568.439 2950.41 566.269 2944.65 561.93 2940.31C557.658 2935.97 551.691 2933.8 544.029 2933.8C539.011 2933.8 534.536 2934.92 530.603 2937.16C526.738 2939.4 523.687 2942.51 521.449 2946.51C519.211 2950.45 518.092 2955.06 518.092 2960.35V3017H495.716ZM713.04 3020.05C703.208 3020.05 695.343 3017.2 689.444 3011.51C683.544 3005.81 680.595 2997.1 680.595 2985.37V2886.91H702.971V2916.31H730.941V2934.82H702.971V2980.49C702.971 2987.54 704.293 2992.52 706.938 2995.44C709.65 2998.29 713.447 2999.71 718.329 2999.71C720.703 2999.71 722.94 2999.44 725.042 2998.9C727.144 2998.35 729.043 2997.64 730.738 2996.76L734.705 3014.86C731.789 3016.36 728.432 3017.58 724.635 3018.53C720.906 3019.54 717.041 3020.05 713.04 3020.05ZM658.524 2934.82V2916.31H683.544V2934.82H658.524ZM758.136 3017V2870.54H780.512V2936.85L775.935 2931.87C780.411 2925.63 785.801 2920.99 792.107 2917.93C798.413 2914.82 805.058 2913.26 812.042 2913.26C821.196 2913.26 828.824 2915.12 834.927 2918.85C841.03 2922.51 845.607 2927.26 848.658 2933.09C851.709 2938.92 853.235 2944.99 853.235 2951.3V3017H830.859V2957.7C830.859 2950.65 828.655 2944.92 824.248 2940.51C819.84 2936.11 813.839 2933.87 806.245 2933.8C801.227 2933.8 796.786 2934.92 792.921 2937.16C789.056 2939.33 786.005 2942.41 783.767 2946.41C781.597 2950.41 780.512 2955.06 780.512 2960.35V3017H758.136ZM883.287 3017V2916.31H905.663V3017H883.287ZM894.475 2898.3C890.475 2898.3 887.016 2897.02 884.101 2894.44C881.185 2891.86 879.727 2888.47 879.727 2884.27C879.727 2880.13 881.185 2876.78 884.101 2874.2C887.016 2871.55 890.475 2870.23 894.475 2870.23C898.476 2870.23 901.934 2871.55 904.85 2874.2C907.765 2876.78 909.223 2880.13 909.223 2884.27C909.223 2888.47 907.765 2891.86 904.85 2894.44C901.934 2897.02 898.476 2898.3 894.475 2898.3ZM970.696 3019.95C962.355 3019.95 954.558 3018.76 947.302 3016.39C940.047 3014.02 933.944 3010.83 928.995 3006.83L937.436 2990.45C942.115 2994.12 947.37 2997 953.201 2999.1C959.101 3001.2 964.898 3002.25 970.594 3002.25C977.171 3002.25 982.291 3001.1 985.952 2998.79C989.614 2996.49 991.444 2993.27 991.444 2989.13C991.444 2985.2 989.851 2982.32 986.664 2980.49C983.545 2978.59 977.578 2976.62 968.763 2974.59C956.083 2971.94 946.862 2968.21 941.098 2963.4C935.402 2958.52 932.554 2951.77 932.554 2943.16C932.554 2937.12 934.216 2931.8 937.538 2927.19C940.928 2922.51 945.573 2918.85 951.472 2916.21C957.372 2913.56 964.186 2912.24 971.916 2912.24C979.443 2912.24 986.528 2913.32 993.174 2915.49C999.819 2917.6 1005.58 2920.58 1010.46 2924.44L1002.53 2940.92C1000.02 2938.68 997.106 2936.75 993.784 2935.12C990.461 2933.5 986.935 2932.24 983.206 2931.36C979.544 2930.41 975.883 2929.94 972.221 2929.94C966.526 2929.94 961.881 2931.06 958.287 2933.29C954.761 2935.46 952.998 2938.48 952.998 2942.34C952.998 2946.35 954.693 2949.3 958.084 2951.19C961.474 2953.09 967.305 2954.99 975.578 2956.89C988.597 2959.74 997.92 2963.53 1003.55 2968.28C1009.18 2973.03 1011.99 2979.6 1011.99 2988.01C1011.99 2994.45 1010.26 3000.08 1006.8 3004.9C1003.34 3009.64 998.496 3013.34 992.258 3015.98C986.088 3018.63 978.9 3019.95 970.696 3019.95Z" fill="black"/>
<path d="M125.957 328.555L156.807 249.161H170.587L202.231 328.555H187.884L180.568 309.614H146.939L139.907 328.555H125.957ZM150.228 298.669H177.166L163.442 264.075L150.228 298.669ZM212.083 328.555V272.412H224.559V279.557C226.903 276.419 229.625 274.17 232.726 272.809C235.826 271.41 239.039 270.71 242.366 270.71C247.508 270.71 251.761 271.731 255.126 273.773C258.491 275.814 260.986 278.442 262.612 281.656C264.275 284.869 265.107 288.177 265.107 291.58V328.555H252.631V295.436C252.631 291.429 251.421 288.215 249.001 285.795C246.619 283.376 243.292 282.166 239.02 282.166C236.223 282.166 233.727 282.79 231.535 284.037C229.38 285.285 227.678 287.024 226.431 289.255C225.183 291.447 224.559 294.018 224.559 296.967V328.555H212.083ZM305.171 330.256C299.689 330.256 294.831 328.971 290.596 326.4C286.362 323.791 283.035 320.256 280.615 315.795C278.234 311.296 277.043 306.192 277.043 300.483C277.043 296.362 277.723 292.506 279.084 288.914C280.445 285.285 282.373 282.109 284.869 279.387C287.402 276.665 290.388 274.548 293.829 273.036C297.307 271.486 301.144 270.71 305.341 270.71C310.445 270.71 314.868 271.731 318.611 273.773C322.354 275.814 325.473 278.65 327.968 282.279L325.36 285.058V246.892H337.836V328.555H326.607V315.058L328.422 317.893C326.38 321.447 323.45 324.396 319.632 326.74C315.851 329.084 311.031 330.256 305.171 330.256ZM307.439 319.198C310.917 319.198 313.999 318.441 316.683 316.929C319.405 315.379 321.541 313.205 323.091 310.407C324.641 307.61 325.416 304.302 325.416 300.483C325.416 296.665 324.641 293.357 323.091 290.559C321.541 287.723 319.405 285.55 316.683 284.037C313.999 282.525 310.917 281.769 307.439 281.769C303.961 281.769 300.88 282.525 298.195 284.037C295.511 285.55 293.394 287.723 291.844 290.559C290.294 293.357 289.519 296.665 289.519 300.483C289.519 304.302 290.294 307.61 291.844 310.407C293.394 313.205 295.511 315.379 298.195 316.929C300.918 318.441 303.999 319.198 307.439 319.198ZM406.58 330.256C401.098 330.256 396.712 328.668 393.423 325.492C390.134 322.317 388.489 317.458 388.489 310.918V256.023H400.965V272.412H416.561V282.733H400.965V308.196C400.965 312.128 401.703 314.906 403.177 316.532C404.689 318.12 406.807 318.914 409.529 318.914C410.852 318.914 412.1 318.763 413.272 318.46C414.444 318.158 415.502 317.761 416.447 317.269L418.659 327.364C417.033 328.196 415.162 328.876 413.045 329.405C410.965 329.972 408.81 330.256 406.58 330.256ZM376.183 282.733V272.412H390.134V282.733H376.183ZM431.724 328.555V246.892H444.2V283.867L441.648 281.088C444.143 277.61 447.149 275.02 450.665 273.319C454.181 271.58 457.886 270.71 461.78 270.71C466.884 270.71 471.137 271.75 474.54 273.83C477.942 275.871 480.494 278.518 482.195 281.769C483.897 285.02 484.747 288.404 484.747 291.92V328.555H472.271V295.493C472.271 291.561 471.043 288.366 468.585 285.909C466.128 283.451 462.782 282.204 458.547 282.166C455.75 282.166 453.273 282.79 451.118 284.037C448.963 285.247 447.262 286.967 446.014 289.198C444.805 291.429 444.2 294.018 444.2 296.967V328.555H431.724ZM501.503 328.555V272.412H513.98V328.555H501.503ZM507.742 262.374C505.511 262.374 503.583 261.656 501.957 260.219C500.331 258.782 499.519 256.892 499.519 254.548C499.519 252.242 500.331 250.37 501.957 248.934C503.583 247.459 505.511 246.722 507.742 246.722C509.972 246.722 511.9 247.459 513.526 248.934C515.152 250.37 515.964 252.242 515.964 254.548C515.964 256.892 515.152 258.782 513.526 260.219C511.9 261.656 509.972 262.374 507.742 262.374ZM550.239 330.199C545.589 330.199 541.241 329.538 537.196 328.214C533.151 326.891 529.748 325.114 526.988 322.884L531.695 313.753C534.304 315.795 537.234 317.402 540.485 318.574C543.775 319.746 547.007 320.332 550.183 320.332C553.85 320.332 556.704 319.689 558.746 318.404C560.788 317.118 561.808 315.322 561.808 313.016C561.808 310.823 560.92 309.217 559.143 308.196C557.404 307.137 554.077 306.041 549.162 304.907C542.092 303.432 536.95 301.353 533.737 298.669C530.561 295.946 528.973 292.185 528.973 287.383C528.973 284.018 529.899 281.051 531.752 278.48C533.642 275.871 536.232 273.83 539.521 272.355C542.81 270.881 546.61 270.143 550.92 270.143C555.117 270.143 559.067 270.748 562.772 271.958C566.477 273.13 569.691 274.794 572.413 276.949L567.99 286.136C566.591 284.888 564.965 283.81 563.113 282.903C561.26 281.996 559.294 281.296 557.215 280.805C555.173 280.276 553.132 280.011 551.09 280.011C547.914 280.011 545.325 280.635 543.321 281.882C541.355 283.092 540.372 284.775 540.372 286.93C540.372 289.16 541.317 290.805 543.207 291.863C545.098 292.922 548.349 293.98 552.962 295.039C560.22 296.627 565.419 298.744 568.557 301.391C571.695 304.037 573.264 307.704 573.264 312.392C573.264 315.984 572.3 319.122 570.372 321.806C568.443 324.453 565.74 326.513 562.262 327.988C558.822 329.462 554.814 330.199 550.239 330.199ZM615.145 328.555V272.412H627.621V328.555H615.145ZM621.383 262.374C619.152 262.374 617.224 261.656 615.599 260.219C613.973 258.782 613.16 256.892 613.16 254.548C613.16 252.242 613.973 250.37 615.599 248.934C617.224 247.459 619.152 246.722 621.383 246.722C623.614 246.722 625.542 247.459 627.167 248.934C628.793 250.37 629.606 252.242 629.606 254.548C629.606 256.892 628.793 258.782 627.167 260.219C625.542 261.656 623.614 262.374 621.383 262.374ZM663.881 330.199C659.231 330.199 654.883 329.538 650.838 328.214C646.792 326.891 643.39 325.114 640.63 322.884L645.337 313.753C647.946 315.795 650.876 317.402 654.127 318.574C657.416 319.746 660.649 320.332 663.824 320.332C667.492 320.332 670.346 319.689 672.388 318.404C674.429 317.118 675.45 315.322 675.45 313.016C675.45 310.823 674.561 309.217 672.784 308.196C671.045 307.137 667.718 306.041 662.804 304.907C655.734 303.432 650.592 301.353 647.378 298.669C644.203 295.946 642.615 292.185 642.615 287.383C642.615 284.018 643.541 281.051 645.394 278.48C647.284 275.871 649.874 273.83 653.163 272.355C656.452 270.881 660.252 270.143 664.562 270.143C668.758 270.143 672.709 270.748 676.414 271.958C680.119 273.13 683.333 274.794 686.055 276.949L681.631 286.136C680.232 284.888 678.607 283.81 676.754 282.903C674.902 281.996 672.936 281.296 670.856 280.805C668.815 280.276 666.773 280.011 664.732 280.011C661.556 280.011 658.966 280.635 656.962 281.882C654.996 283.092 654.013 284.775 654.013 286.93C654.013 289.16 654.959 290.805 656.849 291.863C658.739 292.922 661.991 293.98 666.603 295.039C673.862 296.627 679.06 298.744 682.198 301.391C685.336 304.037 686.905 307.704 686.905 312.392C686.905 315.984 685.941 319.122 684.013 321.806C682.085 324.453 679.382 326.513 675.904 327.988C672.463 329.462 668.456 330.199 663.881 330.199ZM752.378 330.256C746.896 330.256 742.51 328.668 739.221 325.492C735.932 322.317 734.287 317.458 734.287 310.918V256.023H746.764V272.412H762.359V282.733H746.764V308.196C746.764 312.128 747.501 314.906 748.975 316.532C750.488 318.12 752.605 318.914 755.327 318.914C756.65 318.914 757.898 318.763 759.07 318.46C760.242 318.158 761.3 317.761 762.245 317.269L764.457 327.364C762.831 328.196 760.96 328.876 758.843 329.405C756.763 329.972 754.608 330.256 752.378 330.256ZM721.981 282.733V272.412H735.932V282.733H721.981ZM777.522 328.555V246.892H789.998V283.867L787.446 281.088C789.941 277.61 792.947 275.02 796.463 273.319C799.979 271.58 803.684 270.71 807.578 270.71C812.682 270.71 816.935 271.75 820.338 273.83C823.74 275.871 826.292 278.518 827.994 281.769C829.695 285.02 830.546 288.404 830.546 291.92V328.555H818.069V295.493C818.069 291.561 816.841 288.366 814.383 285.909C811.926 283.451 808.58 282.204 804.345 282.166C801.548 282.166 799.071 282.79 796.916 284.037C794.762 285.247 793.06 286.967 791.813 289.198C790.603 291.429 789.998 294.018 789.998 296.967V328.555H777.522ZM872.934 330.256C866.885 330.256 861.574 329.027 856.999 326.57C852.424 324.075 848.852 320.596 846.281 316.135C843.748 311.674 842.481 306.494 842.481 300.597C842.481 296.287 843.218 292.317 844.693 288.688C846.167 285.02 848.247 281.845 850.931 279.16C853.615 276.476 856.753 274.397 860.345 272.922C863.974 271.448 867.925 270.71 872.197 270.71C876.847 270.71 880.987 271.542 884.617 273.206C888.246 274.831 891.252 277.119 893.634 280.068C896.053 283.017 897.755 286.476 898.737 290.446C899.758 294.377 899.928 298.65 899.248 303.262H854.447C854.371 306.627 855.109 309.576 856.659 312.109C858.209 314.604 860.42 316.551 863.294 317.95C866.205 319.349 869.626 320.048 873.558 320.048C876.734 320.048 879.796 319.576 882.745 318.63C885.732 317.647 888.435 316.211 890.855 314.32L895.675 323.281C893.86 324.755 891.668 326.022 889.097 327.08C886.526 328.101 883.842 328.876 881.044 329.405C878.246 329.972 875.543 330.256 872.934 330.256ZM855.184 294.075H886.999C886.885 289.841 885.524 286.514 882.915 284.094C880.345 281.674 876.677 280.465 871.914 280.465C867.301 280.465 863.464 281.674 860.402 284.094C857.377 286.514 855.638 289.841 855.184 294.075ZM940.009 328.555V246.892H952.485V328.555H940.009ZM993.566 330.256C987.97 330.256 983.017 328.971 978.707 326.4C974.435 323.791 971.071 320.256 968.613 315.795C966.193 311.296 964.984 306.192 964.984 300.483C964.984 296.211 965.683 292.26 967.082 288.631C968.481 285.001 970.447 281.845 972.98 279.16C975.513 276.476 978.537 274.397 982.053 272.922C985.569 271.448 989.407 270.71 993.566 270.71C999.085 270.71 1003.7 271.882 1007.4 274.227C1011.15 276.571 1014 279.595 1015.97 283.3L1014.21 285.965V272.412H1025.32V328.555H1014.21V315.001L1015.97 317.666C1014 321.371 1011.15 324.396 1007.4 326.74C1003.7 329.084 999.085 330.256 993.566 330.256ZM995.21 319.198C998.613 319.198 1001.66 318.441 1004.34 316.929C1007.02 315.379 1009.12 313.205 1010.64 310.407C1012.19 307.61 1012.96 304.302 1012.96 300.483C1012.96 296.665 1012.19 293.357 1010.64 290.559C1009.12 287.723 1007.02 285.55 1004.34 284.037C1001.66 282.525 998.613 281.769 995.21 281.769C991.77 281.769 988.707 282.525 986.023 284.037C983.377 285.55 981.278 287.723 979.728 290.559C978.178 293.357 977.403 296.665 977.403 300.483C977.403 304.302 978.178 307.61 979.728 310.407C981.278 313.205 983.377 315.379 986.023 316.929C988.707 318.441 991.77 319.198 995.21 319.198ZM1061.63 330.199C1056.98 330.199 1052.63 329.538 1048.58 328.214C1044.54 326.891 1041.14 325.114 1038.38 322.884L1043.08 313.753C1045.69 315.795 1048.62 317.402 1051.87 318.574C1055.16 319.746 1058.39 320.332 1061.57 320.332C1065.24 320.332 1068.09 319.689 1070.13 318.404C1072.17 317.118 1073.2 315.322 1073.2 313.016C1073.2 310.823 1072.31 309.217 1070.53 308.196C1068.79 307.137 1065.46 306.041 1060.55 304.907C1053.48 303.432 1048.34 301.353 1045.12 298.669C1041.95 295.946 1040.36 292.185 1040.36 287.383C1040.36 284.018 1041.29 281.051 1043.14 278.48C1045.03 275.871 1047.62 273.83 1050.91 272.355C1054.2 270.881 1058 270.143 1062.31 270.143C1066.5 270.143 1070.45 270.748 1074.16 271.958C1077.86 273.13 1081.08 274.794 1083.8 276.949L1079.38 286.136C1077.98 284.888 1076.35 283.81 1074.5 282.903C1072.65 281.996 1070.68 281.296 1068.6 280.805C1066.56 280.276 1064.52 280.011 1062.48 280.011C1059.3 280.011 1056.71 280.635 1054.71 281.882C1052.74 283.092 1051.76 284.775 1051.76 286.93C1051.76 289.16 1052.7 290.805 1054.59 291.863C1056.48 292.922 1059.74 293.98 1064.35 295.039C1071.61 296.627 1076.81 298.744 1079.94 301.391C1083.08 304.037 1084.65 307.704 1084.65 312.392C1084.65 315.984 1083.69 319.122 1081.76 321.806C1079.83 324.453 1077.13 326.513 1073.65 327.988C1070.21 329.462 1066.2 330.199 1061.63 330.199ZM1122.32 330.256C1116.84 330.256 1112.45 328.668 1109.17 325.492C1105.88 322.317 1104.23 317.458 1104.23 310.918V256.023H1116.71V272.412H1132.3V282.733H1116.71V308.196C1116.71 312.128 1117.44 314.906 1118.92 316.532C1120.43 318.12 1122.55 318.914 1125.27 318.914C1126.59 318.914 1127.84 318.763 1129.01 318.46C1130.19 318.158 1131.24 317.761 1132.19 317.269L1134.4 327.364C1132.78 328.196 1130.9 328.876 1128.79 329.405C1126.71 329.972 1124.55 330.256 1122.32 330.256ZM1091.93 282.733V272.412H1105.88V282.733H1091.93ZM1198.86 330.256C1193.38 330.256 1188.99 328.668 1185.7 325.492C1182.41 322.317 1180.77 317.458 1180.77 310.918V256.023H1193.24V272.412H1208.84V282.733H1193.24V308.196C1193.24 312.128 1193.98 314.906 1195.46 316.532C1196.97 318.12 1199.09 318.914 1201.81 318.914C1203.13 318.914 1204.38 318.763 1205.55 318.46C1206.72 318.158 1207.78 317.761 1208.73 317.269L1210.94 327.364C1209.31 328.196 1207.44 328.876 1205.32 329.405C1203.24 329.972 1201.09 330.256 1198.86 330.256ZM1168.46 282.733V272.412H1182.41V282.733H1168.46ZM1224 328.555V246.892H1236.48V283.867L1233.93 281.088C1236.42 277.61 1239.43 275.02 1242.94 273.319C1246.46 271.58 1250.16 270.71 1254.06 270.71C1259.16 270.71 1263.42 271.75 1266.82 273.83C1270.22 275.871 1272.77 278.518 1274.47 281.769C1276.18 285.02 1277.03 288.404 1277.03 291.92V328.555H1264.55V295.493C1264.55 291.561 1263.32 288.366 1260.86 285.909C1258.41 283.451 1255.06 282.204 1250.83 282.166C1248.03 282.166 1245.55 282.79 1243.4 284.037C1241.24 285.247 1239.54 286.967 1238.29 289.198C1237.08 291.429 1236.48 294.018 1236.48 296.967V328.555H1224ZM1293.78 328.555V272.412H1306.26V328.555H1293.78ZM1300.02 262.374C1297.79 262.374 1295.86 261.656 1294.24 260.219C1292.61 258.782 1291.8 256.892 1291.8 254.548C1291.8 252.242 1292.61 250.37 1294.24 248.934C1295.86 247.459 1297.79 246.722 1300.02 246.722C1302.25 246.722 1304.18 247.459 1305.8 248.934C1307.43 250.37 1308.24 252.242 1308.24 254.548C1308.24 256.892 1307.43 258.782 1305.8 260.219C1304.18 261.656 1302.25 262.374 1300.02 262.374ZM1323.58 328.555V272.412H1336.05V279.557C1338.4 276.419 1341.12 274.17 1344.22 272.809C1347.32 271.41 1350.53 270.71 1353.86 270.71C1359 270.71 1363.25 271.731 1366.62 273.773C1369.98 275.814 1372.48 278.442 1374.11 281.656C1375.77 284.869 1376.6 288.177 1376.6 291.58V328.555H1364.12V295.436C1364.12 291.429 1362.91 288.215 1360.5 285.795C1358.11 283.376 1354.79 282.166 1350.51 282.166C1347.72 282.166 1345.22 282.79 1343.03 284.037C1340.87 285.285 1339.17 287.024 1337.92 289.255C1336.68 291.447 1336.05 294.018 1336.05 296.967V328.555H1323.58ZM1417.86 354.074C1414.11 354.074 1410.41 353.715 1406.74 352.997C1403.11 352.278 1399.65 351.069 1396.36 349.367L1399.48 339.046C1402.35 340.445 1405.28 341.466 1408.27 342.108C1411.3 342.751 1414.28 343.072 1417.23 343.072C1423.73 343.072 1428.69 341.522 1432.09 338.422C1435.49 335.36 1437.19 331.258 1437.19 326.116V313.867L1438.89 316.532C1437.04 320.237 1434.26 323.243 1430.56 325.549C1426.89 327.817 1422.3 328.952 1416.78 328.952C1411.11 328.952 1406.14 327.685 1401.86 325.152C1397.63 322.581 1394.32 319.103 1391.94 314.717C1389.6 310.294 1388.42 305.341 1388.42 299.859C1388.42 295.739 1389.1 291.92 1390.46 288.404C1391.83 284.85 1393.75 281.75 1396.25 279.104C1398.74 276.457 1401.73 274.397 1405.21 272.922C1408.69 271.448 1412.54 270.71 1416.78 270.71C1422.3 270.71 1426.89 271.864 1430.56 274.17C1434.26 276.438 1437.04 279.425 1438.89 283.13L1437.19 285.795V272.355H1448.82V323.337C1448.82 333.054 1446.21 340.596 1440.99 345.965C1435.78 351.371 1428.06 354.074 1417.86 354.074ZM1418.65 318.12C1422.09 318.12 1425.15 317.364 1427.84 315.852C1430.52 314.339 1432.62 312.222 1434.13 309.5C1435.64 306.778 1436.4 303.564 1436.4 299.859C1436.4 296.154 1435.64 292.922 1434.13 290.162C1432.62 287.402 1430.52 285.285 1427.84 283.81C1425.15 282.298 1422.09 281.542 1418.65 281.542C1415.17 281.542 1412.09 282.298 1409.41 283.81C1406.76 285.285 1404.68 287.402 1403.17 290.162C1401.66 292.922 1400.9 296.154 1400.9 299.859C1400.9 303.564 1401.66 306.778 1403.17 309.5C1404.68 312.222 1406.76 314.339 1409.41 315.852C1412.09 317.364 1415.17 318.12 1418.65 318.12ZM1498.75 353.961C1496.71 353.961 1494.7 353.734 1492.74 353.28C1490.77 352.827 1488.84 352.052 1486.95 350.955L1489.79 340.294C1490.96 341.05 1492.25 341.617 1493.64 341.995C1495.04 342.373 1496.29 342.562 1497.39 342.562C1500.03 342.562 1502.11 341.938 1503.63 340.691C1505.14 339.443 1506.33 337.515 1507.2 334.906L1509.07 329.462L1486.95 272.412H1500.62L1516.16 315.965L1531.3 272.412H1544.51L1520.24 336.664C1518.5 341.163 1516.56 344.66 1514.4 347.156C1512.25 349.689 1509.86 351.447 1507.26 352.43C1504.65 353.45 1501.81 353.961 1498.75 353.961ZM1579.32 330.256C1573.46 330.256 1568.22 328.914 1563.61 326.23C1559.03 323.507 1555.44 319.897 1552.83 315.398C1550.22 310.861 1548.92 305.89 1548.92 300.483C1548.92 296.476 1549.66 292.695 1551.13 289.141C1552.64 285.55 1554.76 282.374 1557.48 279.614C1560.24 276.854 1563.47 274.68 1567.18 273.092C1570.89 271.504 1574.95 270.71 1579.37 270.71C1585.23 270.71 1590.45 272.072 1595.02 274.794C1599.64 277.478 1603.25 281.088 1605.86 285.625C1608.46 290.124 1609.77 295.077 1609.77 300.483C1609.77 304.453 1609.01 308.234 1607.5 311.825C1606.03 315.417 1603.93 318.593 1601.21 321.353C1598.48 324.112 1595.27 326.286 1591.57 327.874C1587.86 329.462 1583.78 330.256 1579.32 330.256ZM1579.32 319.198C1582.79 319.198 1585.88 318.441 1588.56 316.929C1591.28 315.379 1593.42 313.205 1594.97 310.407C1596.52 307.61 1597.29 304.302 1597.29 300.483C1597.29 296.665 1596.52 293.357 1594.97 290.559C1593.42 287.723 1591.28 285.55 1588.56 284.037C1585.88 282.525 1582.79 281.769 1579.32 281.769C1575.84 281.769 1572.74 282.525 1570.02 284.037C1567.33 285.55 1565.21 287.723 1563.66 290.559C1562.15 293.357 1561.4 296.665 1561.4 300.483C1561.4 304.302 1562.17 307.61 1563.72 310.407C1565.27 313.205 1567.39 315.379 1570.07 316.929C1572.79 318.441 1575.88 319.198 1579.32 319.198ZM1643.96 330.256C1638.94 330.256 1634.78 329.254 1631.49 327.25C1628.24 325.209 1625.8 322.525 1624.17 319.198C1622.55 315.871 1621.73 312.241 1621.73 308.309V272.412H1634.21V305.984C1634.21 309.84 1635.34 312.941 1637.61 315.285C1639.92 317.591 1643.09 318.744 1647.14 318.744C1649.79 318.744 1652.15 318.158 1654.23 316.986C1656.31 315.776 1657.95 314.094 1659.16 311.939C1660.41 309.784 1661.03 307.288 1661.03 304.453V272.412H1673.51V328.555H1662.28V321.92C1660.09 324.566 1657.48 326.627 1654.46 328.101C1651.47 329.538 1647.97 330.256 1643.96 330.256ZM1690.52 278.48L1689.33 249.161H1700.9L1699.71 278.48H1690.52ZM1716.67 328.555V246.892H1729.15V328.555H1716.67ZM1746.47 328.555V246.892H1758.94V328.555H1746.47ZM1804.06 328.555V272.412H1816.54V280.181C1818.65 276.665 1821.23 274.208 1824.25 272.809C1827.27 271.372 1830.53 270.654 1834 270.654C1835.14 270.654 1836.22 270.71 1837.24 270.824C1838.26 270.937 1839.24 271.107 1840.19 271.334L1838.54 284.207C1837.41 283.867 1836.25 283.603 1835.08 283.414C1833.91 283.224 1832.74 283.13 1831.57 283.13C1827.22 283.13 1823.63 284.472 1820.79 287.156C1817.96 289.803 1816.54 293.413 1816.54 297.988V328.555H1804.06ZM1875.11 330.256C1869.06 330.256 1863.75 329.027 1859.17 326.57C1854.6 324.075 1851.02 320.596 1848.45 316.135C1845.92 311.674 1844.65 306.494 1844.65 300.597C1844.65 296.287 1845.39 292.317 1846.86 288.688C1848.34 285.02 1850.42 281.845 1853.1 279.16C1855.79 276.476 1858.93 274.397 1862.52 272.922C1866.15 271.448 1870.1 270.71 1874.37 270.71C1879.02 270.71 1883.16 271.542 1886.79 273.206C1890.42 274.831 1893.42 277.119 1895.81 280.068C1898.23 283.017 1899.93 286.476 1900.91 290.446C1901.93 294.377 1902.1 298.65 1901.42 303.262H1856.62C1856.54 306.627 1857.28 309.576 1858.83 312.109C1860.38 314.604 1862.59 316.551 1865.47 317.95C1868.38 319.349 1871.8 320.048 1875.73 320.048C1878.91 320.048 1881.97 319.576 1884.92 318.63C1887.9 317.647 1890.61 316.211 1893.03 314.32L1897.85 323.281C1896.03 324.755 1893.84 326.022 1891.27 327.08C1888.7 328.101 1886.01 328.876 1883.22 329.405C1880.42 329.972 1877.72 330.256 1875.11 330.256ZM1857.36 294.075H1889.17C1889.06 289.841 1887.7 286.514 1885.09 284.094C1882.52 281.674 1878.85 280.465 1874.09 280.465C1869.47 280.465 1865.64 281.674 1862.57 284.094C1859.55 286.514 1857.81 289.841 1857.36 294.075ZM1938.7 330.256C1933.1 330.256 1928.15 328.971 1923.84 326.4C1919.57 323.791 1916.2 320.256 1913.74 315.795C1911.32 311.296 1910.11 306.192 1910.11 300.483C1910.11 296.211 1910.81 292.26 1912.21 288.631C1913.61 285.001 1915.58 281.845 1918.11 279.16C1920.64 276.476 1923.67 274.397 1927.18 272.922C1930.7 271.448 1934.54 270.71 1938.7 270.71C1944.21 270.71 1948.83 271.882 1952.53 274.227C1956.28 276.571 1959.13 279.595 1961.1 283.3L1959.34 285.965V272.412H1970.45V328.555H1959.34V315.001L1961.1 317.666C1959.13 321.371 1956.28 324.396 1952.53 326.74C1948.83 329.084 1944.21 330.256 1938.7 330.256ZM1940.34 319.198C1943.74 319.198 1946.79 318.441 1949.47 316.929C1952.15 315.379 1954.25 313.205 1955.76 310.407C1957.31 307.61 1958.09 304.302 1958.09 300.483C1958.09 296.665 1957.31 293.357 1955.76 290.559C1954.25 287.723 1952.15 285.55 1949.47 284.037C1946.79 282.525 1943.74 281.769 1940.34 281.769C1936.9 281.769 1933.84 282.525 1931.15 284.037C1928.51 285.55 1926.41 287.723 1924.86 290.559C1923.31 293.357 1922.53 296.665 1922.53 300.483C1922.53 304.302 1923.31 307.61 1924.86 310.407C1926.41 313.205 1928.51 315.379 1931.15 316.929C1933.84 318.441 1936.9 319.198 1940.34 319.198ZM2011.12 330.256C2005.64 330.256 2000.78 328.971 1996.55 326.4C1992.31 323.791 1988.99 320.256 1986.57 315.795C1984.19 311.296 1982.99 306.192 1982.99 300.483C1982.99 296.362 1983.68 292.506 1985.04 288.914C1986.4 285.285 1988.33 282.109 1990.82 279.387C1993.35 276.665 1996.34 274.548 1999.78 273.036C2003.26 271.486 2007.1 270.71 2011.29 270.71C2016.4 270.71 2020.82 271.731 2024.56 273.773C2028.31 275.814 2031.42 278.65 2033.92 282.279L2031.31 285.058V246.892H2043.79V328.555H2032.56V315.058L2034.37 317.893C2032.33 321.447 2029.4 324.396 2025.58 326.74C2021.8 329.084 2016.98 330.256 2011.12 330.256ZM2013.39 319.198C2016.87 319.198 2019.95 318.441 2022.63 316.929C2025.36 315.379 2027.49 313.205 2029.04 310.407C2030.59 307.61 2031.37 304.302 2031.37 300.483C2031.37 296.665 2030.59 293.357 2029.04 290.559C2027.49 287.723 2025.36 285.55 2022.63 284.037C2019.95 282.525 2016.87 281.769 2013.39 281.769C2009.91 281.769 2006.83 282.525 2004.15 284.037C2001.46 285.55 1999.35 287.723 1997.8 290.559C1996.25 293.357 1995.47 296.665 1995.47 300.483C1995.47 304.302 1996.25 307.61 1997.8 310.407C1999.35 313.205 2001.46 315.379 2004.15 316.929C2006.87 318.441 2009.95 319.198 2013.39 319.198ZM2067.72 330.256C2065.3 330.256 2063.2 329.481 2061.42 327.931C2059.68 326.381 2058.81 324.358 2058.81 321.863C2058.81 320.162 2059.21 318.687 2060 317.44C2060.8 316.154 2061.88 315.171 2063.24 314.491C2064.6 313.772 2066.09 313.413 2067.72 313.413C2070.17 313.413 2072.25 314.188 2073.96 315.738C2075.69 317.25 2076.56 319.292 2076.56 321.863C2076.56 323.526 2076.17 325.001 2075.37 326.286C2074.58 327.534 2073.5 328.498 2072.14 329.178C2070.82 329.897 2069.34 330.256 2067.72 330.256Z" fill="black"/>
</g>
<defs>
<clipPath id="clip0_1810_4367">
<rect width="5444" height="3435" fill="white"/>
</clipPath>
</defs>
</svg>
