<svg width="4272" height="1070" viewBox="0 0 4272 1070" fill="none" xmlns="http://www.w3.org/2000/svg">
<g clip-path="url(#clip0_1765_899)">
<path d="M272.674 300.97L244.501 303.565C230.909 218.305 216.205 145.279 200.389 84.4848C192.234 103.761 183.213 130.945 173.328 166.037C163.69 200.883 157.018 223.495 153.311 233.874C152.817 233.874 151.952 233.998 150.716 234.245C149.727 234.245 148.862 234.245 148.121 234.245C144.661 234.245 138.977 233.874 131.069 233.133C123.161 232.391 118.095 232.021 115.871 232.021C115.624 224.854 109.322 201.006 96.9654 160.477C84.609 119.701 77.1951 93.6286 74.7238 82.2607C70.2755 122.296 52.9765 195.199 22.8267 300.97L-0.15625 298.746C3.30355 271.809 11.8295 229.426 25.4216 171.598C39.0137 113.77 47.0454 69.0393 49.5167 37.4068C53.965 36.9125 57.5483 36.6654 60.2668 36.6654C62.738 36.6654 71.8818 37.6539 87.6981 39.631C91.1579 40.1252 96.1004 51.3696 102.526 73.364C109.198 95.1114 115.871 119.083 122.543 145.279C129.216 171.474 133.417 186.92 135.147 191.615C142.066 174.563 150.345 146.885 159.983 108.58C169.868 70.2749 176.788 45.9327 180.742 35.5533C184.696 35.8005 197.176 36.9125 218.182 38.8896C224.607 63.8496 230.786 90.7866 236.717 119.701C242.895 148.615 249.444 181.483 256.364 218.305C263.53 255.127 268.967 282.682 272.674 300.97ZM437.262 265.012L440.969 281.323C430.095 285.277 413.908 289.725 392.408 294.668C371.155 299.363 355.339 301.711 344.959 301.711C334.333 301.711 325.065 298.251 317.157 291.332C309.249 284.165 303.318 275.145 299.364 264.271C295.41 253.15 292.444 242.277 290.467 231.65C288.737 220.776 287.872 210.15 287.872 199.77C287.872 137.988 315.798 107.097 371.649 107.097C384.994 107.097 396.733 111.422 406.865 120.071C416.997 128.474 422.063 139.471 422.063 153.063C422.063 160.477 419.963 167.026 415.762 172.71C411.808 178.394 406.865 182.966 400.934 186.425C395.25 189.638 387.836 192.604 378.692 195.322C369.796 198.041 361.888 200.018 354.968 201.253C348.048 202.489 339.769 203.848 330.131 205.331C320.493 206.814 313.821 207.926 310.114 208.667C310.361 215.834 310.732 222.136 311.226 227.572C311.968 233.009 313.203 238.94 314.933 245.366C316.91 251.544 319.381 256.734 322.347 260.935C325.56 264.889 329.884 268.225 335.321 270.944C340.758 273.662 347.183 275.021 354.597 275.021C363.494 275.021 374.368 274.28 387.218 272.797C400.069 271.067 411.437 269.337 421.322 267.607C431.454 265.877 436.768 265.012 437.262 265.012ZM311.597 185.684C345.206 176.046 372.761 165.914 394.261 155.287C392.532 147.132 390.184 141.201 387.218 137.494C384.253 133.787 379.804 131.934 373.873 131.934C358.798 131.934 345.083 137.123 332.726 147.503C320.617 157.882 313.574 170.609 311.597 185.684ZM456.538 310.237L440.598 301.711C447.023 285.648 463.828 254.51 491.012 208.296C476.679 188.773 460.368 156.276 442.081 110.804H458.391C467.535 130.08 482.981 155.164 504.728 186.055C508.435 180.865 513.254 172.833 519.185 161.96C525.363 151.086 531.294 141.695 536.978 133.787C542.909 125.879 549.582 118.959 556.996 113.028C565.892 117.971 570.341 123.778 570.341 130.451C570.341 134.158 569.476 137.741 567.746 141.201C561.073 149.356 552.547 162.207 542.168 179.753C531.789 197.299 525.363 207.926 522.892 211.633C549.088 248.208 566.757 275.763 575.901 294.297C575.901 303.688 571.7 308.384 563.298 308.384C554.895 308.384 548.47 304.306 544.022 296.151C539.573 281.323 527.835 260.317 508.806 233.133C504.604 240.052 495.955 252.656 482.857 270.944C470.006 288.984 461.233 302.082 456.538 310.237ZM604.074 140.83L596.66 121.925C603.085 115.5 611.241 110.433 621.126 106.726C631.011 102.772 640.772 100.795 650.41 100.795C692.175 100.795 713.058 136.876 713.058 209.038C713.058 218.923 712.44 233.504 711.204 252.78C710.216 272.056 709.721 286.513 709.721 296.151C707.744 303.812 703.914 307.642 698.23 307.642C693.782 307.642 689.704 305.418 685.997 300.97C682.29 296.521 680.437 291.579 680.437 286.142C680.437 284.412 680.56 283.176 680.807 282.435C665.485 297.263 649.175 304.677 631.876 304.677C618.778 304.677 607.286 299.981 597.401 290.59C587.763 280.952 582.944 269.337 582.944 255.745C582.944 232.762 591.841 212.003 609.634 193.469C627.675 174.934 648.063 165.667 670.799 165.667C671.787 165.667 672.776 165.79 673.764 166.037C674.753 166.037 675.865 166.161 677.1 166.408C678.583 166.655 679.695 166.779 680.437 166.779C678.46 137.865 666.968 123.408 645.962 123.408C633.606 123.408 619.643 129.215 604.074 140.83ZM681.549 256.857C682.043 239.558 682.29 226.46 682.29 217.564C682.29 210.15 682.043 199.77 681.549 186.425H678.583C661.037 186.673 644.974 193.222 630.393 206.072C616.06 218.923 608.893 234.492 608.893 252.78C608.893 260.688 611.241 266.99 615.936 271.685C620.879 276.38 626.81 278.728 633.729 278.728C644.603 278.728 660.543 271.438 681.549 256.857ZM853.921 113.028L870.602 116.735L879.128 296.521C876.904 303.935 872.579 307.642 866.154 307.642C861.706 307.642 857.381 305.789 853.18 302.082C848.979 298.622 846.384 294.297 845.395 289.108C845.395 288.366 846.507 267.484 848.731 226.46V223.495C841.812 223.001 831.556 222.753 817.964 222.753C797.452 222.753 782.007 222.136 771.627 220.9C772.863 235.233 774.469 258.34 776.446 290.22C774.222 297.881 769.897 301.711 763.472 301.711C759.024 301.711 754.699 299.981 750.498 296.521C746.544 292.814 744.072 288.366 743.084 283.176C743.825 270.82 744.196 258.464 744.196 246.107C744.196 238.199 744.072 226.337 743.825 210.521C743.578 194.704 743.454 182.966 743.454 175.305C743.454 151.58 744.196 131.686 745.679 115.623L762.36 119.701C767.302 173.328 769.897 200.883 770.144 202.365C812.403 204.589 834.151 205.702 835.386 205.702C845.519 205.702 850.585 205.084 850.585 203.848C850.585 198.906 851.079 183.213 852.068 156.77C853.056 130.327 853.674 115.747 853.921 113.028ZM941.775 270.202C941.775 274.403 942.023 279.964 942.517 286.883C940.293 294.544 935.968 298.375 929.543 298.375C925.094 298.375 920.769 296.645 916.568 293.185C912.614 289.478 910.143 285.03 909.154 279.84C909.896 259.823 910.761 230.538 911.749 191.986C912.985 153.434 913.85 127.362 914.344 113.77L931.396 110.804C934.362 126.62 936.215 147.626 936.956 173.822C937.698 200.018 938.686 219.541 939.922 232.391C944.617 225.472 957.962 207.431 979.957 178.27C1001.95 149.109 1016.9 127.362 1024.81 113.028C1030.25 112.04 1033.71 111.545 1035.19 111.545C1039.89 111.545 1043.1 113.646 1044.83 117.847C1046.81 122.048 1048.04 129.957 1048.54 141.572L1055.58 294.297C1053.35 301.711 1049.03 305.418 1042.6 305.418C1038.16 305.418 1033.83 303.688 1029.63 300.228C1025.68 296.521 1023.2 292.073 1022.22 286.883C1022.46 278.728 1023.08 258.834 1024.07 227.202C1025.3 195.322 1026.29 172.71 1027.03 159.365C984.776 207.555 956.356 244.501 941.775 270.202ZM1107.85 209.408L1106.36 188.65C1107.1 188.65 1108.22 188.773 1109.7 189.02C1111.43 189.02 1112.67 189.02 1113.41 189.02C1138.37 189.02 1150.85 178.147 1150.85 156.399C1148.13 137.37 1137.63 127.856 1119.34 127.856C1112.42 127.856 1102.29 129.833 1088.94 133.787L1082.27 123.037C1092.65 113.399 1107.48 108.58 1126.75 108.58C1140.34 108.58 1151.71 112.04 1160.86 118.959C1170 125.879 1174.57 136.011 1174.57 149.356C1174.57 157.511 1172.96 165.543 1169.75 173.451C1166.54 181.112 1162.34 186.92 1157.15 190.874C1166.54 192.851 1173.83 199.276 1179.02 210.15C1184.46 220.776 1187.17 232.762 1187.17 246.107C1187.17 263.406 1181.61 278.481 1170.49 291.332C1159.37 304.182 1145.04 310.608 1127.49 310.608C1118.84 310.608 1108.46 308.136 1096.35 303.194C1084.25 298.251 1078.19 292.073 1078.19 284.659C1078.19 279.47 1081.53 276.875 1088.2 276.875C1092.65 276.875 1098.46 278.975 1105.62 283.176C1112.79 287.131 1118.72 289.108 1123.42 289.108C1133.79 289.108 1142.94 284.536 1150.85 275.392C1158.75 266.248 1162.71 256.116 1162.71 244.995C1162.71 233.133 1158.51 224.236 1150.11 218.305C1141.95 212.127 1131.45 209.038 1118.6 209.038C1113.65 209.038 1110.07 209.161 1107.85 209.408ZM1362.88 118.218L1388.09 115.994C1400.45 149.356 1413.05 211.509 1425.9 302.452C1421.7 303.441 1417.5 303.935 1413.3 303.935C1409.59 303.935 1405.27 303.317 1400.32 302.082C1396.86 288.49 1392.66 264.518 1387.72 230.167C1383.02 195.816 1378.82 171.474 1375.12 157.141C1363.01 176.911 1346.7 213.239 1326.18 266.125C1324.45 266.372 1321.37 266.866 1316.92 267.607C1312.72 268.349 1309.5 268.719 1307.28 268.719C1304.56 268.719 1301.35 268.349 1297.64 267.607C1293.69 257.475 1287.76 241.288 1279.85 219.047C1272.19 196.558 1266.01 179.629 1261.31 168.262C1237.59 229.055 1222.76 274.033 1216.83 303.194L1202.37 299.116C1203.61 280.334 1210.4 247.59 1222.76 200.883C1235.12 153.928 1242.53 124.025 1245 111.175C1247.97 111.175 1251.3 111.545 1255.01 112.287C1258.97 112.781 1261.93 113.028 1263.91 113.028C1270.33 124.149 1279.11 145.526 1290.23 177.158C1301.35 208.544 1308.76 228.19 1312.47 236.098C1331.25 182.719 1348.06 143.425 1362.88 118.218ZM1442.21 113.028L1458.89 116.735C1459.39 124.643 1460.13 133.911 1461.12 144.537C1462.35 155.164 1463.71 167.273 1465.19 180.865C1475.08 177.9 1484.47 176.417 1493.37 176.417C1503.99 176.417 1513.88 178.517 1523.02 182.719C1532.17 186.673 1539.95 191.986 1546.38 198.658C1552.8 205.331 1557.87 212.992 1561.57 221.641C1565.28 230.044 1567.14 238.693 1567.14 247.59C1567.14 256.239 1565.41 264.148 1561.95 271.314C1558.73 278.481 1554.04 284.659 1547.86 289.849C1541.93 294.792 1534.76 298.622 1526.36 301.34C1518.2 304.306 1509.18 305.789 1499.3 305.789C1493.37 305.789 1487.07 305.418 1480.39 304.677C1473.72 304.182 1467.67 303.441 1462.23 302.452C1456.79 301.464 1452.22 300.352 1448.51 299.116C1445.05 297.633 1443.32 296.027 1443.32 294.297C1443.32 290.343 1443.2 284.659 1442.95 277.245C1442.95 269.831 1442.83 261.676 1442.58 252.78C1442.58 243.883 1442.46 234.492 1442.21 224.607C1441.96 214.722 1441.72 205.207 1441.47 196.064C1441.47 186.92 1441.35 178.641 1441.1 171.227C1441.1 163.566 1441.1 157.388 1441.1 152.692C1441.1 138.853 1441.47 125.632 1442.21 113.028ZM1468.53 203.848L1465.19 278.357C1475.08 281.817 1484.47 283.547 1493.37 283.547C1500.29 283.547 1506.59 282.435 1512.27 280.211C1518.2 277.74 1523.15 274.651 1527.1 270.944C1531.05 266.99 1534.14 262.541 1536.37 257.599C1538.59 252.656 1539.7 247.466 1539.7 242.029C1539.7 236.593 1538.59 231.527 1536.37 226.831C1534.14 221.888 1530.81 217.564 1526.36 213.857C1521.91 210.15 1516.47 207.308 1510.05 205.331C1503.62 203.107 1496.33 201.995 1488.18 201.995C1485.46 201.995 1482.49 202.242 1479.28 202.736C1476.07 202.983 1472.48 203.354 1468.53 203.848ZM1584.19 111.916L1600.87 115.623C1602.6 135.146 1604.45 159.736 1606.43 189.391C1608.41 218.799 1610.51 253.521 1612.73 293.556C1610.51 300.97 1606.18 304.677 1599.76 304.677C1595.31 304.677 1590.98 302.947 1586.78 299.487C1582.83 295.78 1580.36 291.332 1579.37 286.142C1579.62 282.435 1579.74 276.38 1579.74 267.978C1579.99 259.576 1580.23 249.938 1580.48 239.064C1580.73 228.19 1580.97 216.575 1581.22 204.219C1581.47 191.862 1581.72 179.877 1581.96 168.262C1582.21 156.646 1582.46 145.896 1582.7 136.011C1583.2 125.879 1583.69 117.847 1584.19 111.916ZM1753.22 105.985L1773.98 109.692C1773.98 114.882 1774.11 118.712 1774.35 121.183C1787.94 112.534 1801.66 108.209 1815.5 108.209C1837.99 108.209 1855.53 117.847 1868.14 137.123C1880.74 156.399 1887.04 178.27 1887.04 202.736C1887.04 215.092 1886.05 226.955 1884.08 238.323C1882.35 249.443 1879.14 260.935 1874.44 272.797C1869.74 284.412 1862.45 293.803 1852.57 300.97C1842.93 307.889 1831.19 311.349 1817.35 311.349C1804.26 311.349 1791.65 307.889 1779.54 300.97C1780.53 344.217 1781.4 376.344 1782.14 397.35C1779.91 405.011 1775.59 408.841 1769.16 408.841C1764.71 408.841 1760.39 406.988 1756.19 403.281C1752.23 399.821 1749.76 395.497 1748.77 390.307L1753.22 105.985ZM1777.32 145.279L1778.43 265.012C1781.4 270.944 1785.97 275.763 1792.15 279.47C1798.32 282.929 1805.12 284.659 1812.53 284.659C1822.17 284.659 1830.33 281.57 1837 275.392C1843.92 269.214 1848.74 261.058 1851.46 250.926C1854.42 240.547 1856.4 230.909 1857.39 222.012C1858.62 213.115 1859.24 203.725 1859.24 193.839C1859.24 151.827 1845.03 130.822 1816.61 130.822C1807.47 130.822 1798.94 132.181 1791.03 134.899C1783.37 137.37 1778.8 140.83 1777.32 145.279ZM2066.46 265.012L2070.17 281.323C2059.29 285.277 2043.11 289.725 2021.61 294.668C2000.35 299.363 1984.54 301.711 1974.16 301.711C1963.53 301.711 1954.26 298.251 1946.35 291.332C1938.45 284.165 1932.52 275.145 1928.56 264.271C1924.61 253.15 1921.64 242.277 1919.66 231.65C1917.93 220.776 1917.07 210.15 1917.07 199.77C1917.07 137.988 1945 107.097 2000.85 107.097C2014.19 107.097 2025.93 111.422 2036.06 120.071C2046.19 128.474 2051.26 139.471 2051.26 153.063C2051.26 160.477 2049.16 167.026 2044.96 172.71C2041 178.394 2036.06 182.966 2030.13 186.425C2024.45 189.638 2017.03 192.604 2007.89 195.322C1998.99 198.041 1991.08 200.018 1984.17 201.253C1977.25 202.489 1968.97 203.848 1959.33 205.331C1949.69 206.814 1943.02 207.926 1939.31 208.667C1939.56 215.834 1939.93 222.136 1940.42 227.572C1941.16 233.009 1942.4 238.94 1944.13 245.366C1946.11 251.544 1948.58 256.734 1951.54 260.935C1954.76 264.889 1959.08 268.225 1964.52 270.944C1969.96 273.662 1976.38 275.021 1983.79 275.021C1992.69 275.021 2003.56 274.28 2016.42 272.797C2029.27 271.067 2040.63 269.337 2050.52 267.607C2060.65 265.877 2065.96 265.012 2066.46 265.012ZM1940.79 185.684C1974.4 176.046 2001.96 165.914 2023.46 155.287C2021.73 147.132 2019.38 141.201 2016.42 137.494C2013.45 133.787 2009 131.934 2003.07 131.934C1988 131.934 1974.28 137.123 1961.92 147.503C1949.81 157.882 1942.77 170.609 1940.79 185.684ZM2106.86 209.408L2105.38 188.65C2106.12 188.65 2107.24 188.773 2108.72 189.02C2110.45 189.02 2111.68 189.02 2112.42 189.02C2137.38 189.02 2149.86 178.147 2149.86 156.399C2147.15 137.37 2136.64 127.856 2118.36 127.856C2111.44 127.856 2101.3 129.833 2087.96 133.787L2081.29 123.037C2091.67 113.399 2106.49 108.58 2125.77 108.58C2139.36 108.58 2150.73 112.04 2159.87 118.959C2169.02 125.879 2173.59 136.011 2173.59 149.356C2173.59 157.511 2171.98 165.543 2168.77 173.451C2165.56 181.112 2161.36 186.92 2156.17 190.874C2165.56 192.851 2172.85 199.276 2178.04 210.15C2183.47 220.776 2186.19 232.762 2186.19 246.107C2186.19 263.406 2180.63 278.481 2169.51 291.332C2158.39 304.182 2144.06 310.608 2126.51 310.608C2117.86 310.608 2107.48 308.136 2095.37 303.194C2083.26 298.251 2077.21 292.073 2077.21 284.659C2077.21 279.47 2080.55 276.875 2087.22 276.875C2091.67 276.875 2097.47 278.975 2104.64 283.176C2111.81 287.131 2117.74 289.108 2122.43 289.108C2132.81 289.108 2141.96 284.536 2149.86 275.392C2157.77 266.248 2161.73 256.116 2161.73 244.995C2161.73 233.133 2157.53 224.236 2149.12 218.305C2140.97 212.127 2130.47 209.038 2117.61 209.038C2112.67 209.038 2109.09 209.161 2106.86 209.408ZM2249.21 270.202C2249.21 274.403 2249.46 279.964 2249.95 286.883C2247.73 294.544 2243.4 298.375 2236.98 298.375C2232.53 298.375 2228.2 296.645 2224 293.185C2220.05 289.478 2217.58 285.03 2216.59 279.84C2217.33 259.823 2218.2 230.538 2219.18 191.986C2220.42 153.434 2221.28 127.362 2221.78 113.77L2238.83 110.804C2241.8 126.62 2243.65 147.626 2244.39 173.822C2245.13 200.018 2246.12 219.541 2247.36 232.391C2252.05 225.472 2265.4 207.431 2287.39 178.27C2309.39 149.109 2324.34 127.362 2332.25 113.028C2337.68 112.04 2341.14 111.545 2342.63 111.545C2347.32 111.545 2350.53 113.646 2352.26 117.847C2354.24 122.048 2355.48 129.957 2355.97 141.572L2363.01 294.297C2360.79 301.711 2356.46 305.418 2350.04 305.418C2345.59 305.418 2341.27 303.688 2337.06 300.228C2333.11 296.521 2330.64 292.073 2329.65 286.883C2329.9 278.728 2330.52 258.834 2331.5 227.202C2332.74 195.322 2333.73 172.71 2334.47 159.365C2292.21 207.555 2263.79 244.501 2249.21 270.202ZM2518.33 117.106L2516.48 133.046C2506.1 131.563 2497.2 130.822 2489.79 130.822C2472.74 130.822 2458.65 136.011 2447.53 146.391C2436.41 156.523 2428.75 168.632 2424.55 182.719C2420.59 196.558 2418.62 212.003 2418.62 229.055C2418.62 236.963 2419.11 244.007 2420.1 250.185C2421.09 256.363 2422.82 262.418 2425.29 268.349C2428.01 274.28 2432.09 278.975 2437.52 282.435C2443.21 285.648 2450.13 287.254 2458.28 287.254C2469.16 287.254 2482.99 285.153 2499.8 280.952C2504.99 278.975 2509.07 277.987 2512.03 277.987C2517.96 277.987 2521.55 284.906 2522.78 298.746C2501.03 305.665 2480.89 309.125 2462.36 309.125C2435.42 309.125 2417.13 302.576 2407.5 289.478C2398.11 276.133 2393.41 254.633 2393.41 224.978C2393.41 207.679 2394.52 192.604 2396.75 179.753C2399.22 166.655 2403.42 154.546 2409.35 143.425C2415.28 132.057 2423.81 123.408 2434.93 117.477C2446.3 111.545 2460.14 108.58 2476.45 108.58C2494.73 108.58 2508.7 111.422 2518.33 117.106ZM2529.83 130.822L2526.49 114.511C2559.6 112.534 2611.75 109.816 2682.92 106.356C2688.85 106.603 2693.92 108.827 2698.12 113.028C2702.32 117.229 2704.42 121.678 2704.42 126.373C2704.42 133.787 2699.48 137.988 2689.59 138.977L2620.27 135.641C2621.51 154.175 2622.13 181.236 2622.13 216.822C2622.38 252.162 2622.87 277.987 2623.61 294.297C2621.39 301.464 2617.06 305.047 2610.64 305.047C2606.44 305.047 2602.36 303.317 2598.4 299.858C2594.45 296.398 2591.98 292.197 2590.99 287.254C2594.45 226.46 2598.03 175.428 2601.74 134.158L2529.83 130.822ZM2855.66 265.012L2859.37 281.323C2848.5 285.277 2832.31 289.725 2810.81 294.668C2789.56 299.363 2773.74 301.711 2763.36 301.711C2752.74 301.711 2743.47 298.251 2735.56 291.332C2727.65 284.165 2721.72 275.145 2717.77 264.271C2713.81 253.15 2710.85 242.277 2708.87 231.65C2707.14 220.776 2706.28 210.15 2706.28 199.77C2706.28 137.988 2734.2 107.097 2790.05 107.097C2803.4 107.097 2815.14 111.422 2825.27 120.071C2835.4 128.474 2840.47 139.471 2840.47 153.063C2840.47 160.477 2838.37 167.026 2834.16 172.71C2830.21 178.394 2825.27 182.966 2819.34 186.425C2813.65 189.638 2806.24 192.604 2797.1 195.322C2788.2 198.041 2780.29 200.018 2773.37 201.253C2766.45 202.489 2758.17 203.848 2748.53 205.331C2738.9 206.814 2732.22 207.926 2728.52 208.667C2728.76 215.834 2729.13 222.136 2729.63 227.572C2730.37 233.009 2731.61 238.94 2733.34 245.366C2735.31 251.544 2737.78 256.734 2740.75 260.935C2743.96 264.889 2748.29 268.225 2753.72 270.944C2759.16 273.662 2765.59 275.021 2773 275.021C2781.9 275.021 2792.77 274.28 2805.62 272.797C2818.47 271.067 2829.84 269.337 2839.73 267.607C2849.86 265.877 2855.17 265.012 2855.66 265.012ZM2730 185.684C2763.61 176.046 2791.16 165.914 2812.66 155.287C2810.93 147.132 2808.59 141.201 2805.62 137.494C2802.66 133.787 2798.21 131.934 2792.28 131.934C2777.2 131.934 2763.49 137.123 2751.13 147.503C2739.02 157.882 2731.98 170.609 2730 185.684ZM2985.04 113.028L3001.72 116.735L3010.24 296.521C3008.02 303.935 3003.7 307.642 2997.27 307.642C2992.82 307.642 2988.5 305.789 2984.3 302.082C2980.09 298.622 2977.5 294.297 2976.51 289.108C2976.51 288.366 2977.62 267.484 2979.85 226.46V223.495C2972.93 223.001 2962.67 222.753 2949.08 222.753C2928.57 222.753 2913.12 222.136 2902.74 220.9C2903.98 235.233 2905.59 258.34 2907.56 290.22C2905.34 297.881 2901.01 301.711 2894.59 301.711C2890.14 301.711 2885.81 299.981 2881.61 296.521C2877.66 292.814 2875.19 288.366 2874.2 283.176C2874.94 270.82 2875.31 258.464 2875.31 246.107C2875.31 238.199 2875.19 226.337 2874.94 210.521C2874.69 194.704 2874.57 182.966 2874.57 175.305C2874.57 151.58 2875.31 131.686 2876.79 115.623L2893.48 119.701C2898.42 173.328 2901.01 200.883 2901.26 202.365C2943.52 204.589 2965.27 205.702 2966.5 205.702C2976.63 205.702 2981.7 205.084 2981.7 203.848C2981.7 198.906 2982.19 183.213 2983.18 156.77C2984.17 130.327 2984.79 115.747 2985.04 113.028ZM3028.41 130.822L3025.07 114.511C3058.19 112.534 3110.33 109.816 3181.5 106.356C3187.44 106.603 3192.5 108.827 3196.7 113.028C3200.9 117.229 3203 121.678 3203 126.373C3203 133.787 3198.06 137.988 3188.18 138.977L3118.86 135.641C3120.09 154.175 3120.71 181.236 3120.71 216.822C3120.96 252.162 3121.45 277.987 3122.19 294.297C3119.97 301.464 3115.64 305.047 3109.22 305.047C3105.02 305.047 3100.94 303.317 3096.99 299.858C3093.03 296.398 3090.56 292.197 3089.57 287.254C3093.03 226.46 3096.62 175.428 3100.32 134.158L3028.41 130.822ZM3329.04 113.028L3345.72 116.735L3354.25 296.521C3352.02 303.935 3347.7 307.642 3341.27 307.642C3336.82 307.642 3332.5 305.789 3328.3 302.082C3324.1 298.622 3321.5 294.297 3320.51 289.108C3320.51 288.366 3321.63 267.484 3323.85 226.46V223.495C3316.93 223.001 3306.67 222.753 3293.08 222.753C3272.57 222.753 3257.13 222.136 3246.75 220.9C3247.98 235.233 3249.59 258.34 3251.57 290.22C3249.34 297.881 3245.02 301.711 3238.59 301.711C3234.14 301.711 3229.82 299.981 3225.62 296.521C3221.66 292.814 3219.19 288.366 3218.2 283.176C3218.94 270.82 3219.31 258.464 3219.31 246.107C3219.31 238.199 3219.19 226.337 3218.94 210.521C3218.7 194.704 3218.57 182.966 3218.57 175.305C3218.57 151.58 3219.31 131.686 3220.8 115.623L3237.48 119.701C3242.42 173.328 3245.02 200.883 3245.26 202.365C3287.52 204.589 3309.27 205.702 3310.51 205.702C3320.64 205.702 3325.7 205.084 3325.7 203.848C3325.7 198.906 3326.2 183.213 3327.19 156.77C3328.18 130.327 3328.79 115.747 3329.04 113.028ZM3384.27 222.012C3384.27 212.127 3385.26 201.13 3387.24 189.02C3389.46 176.911 3392.68 164.184 3396.88 150.839C3401.08 137.494 3407.38 126.373 3415.78 117.477C3424.18 108.58 3433.95 104.132 3445.07 104.132C3468.79 104.132 3487.82 114.882 3502.15 136.382C3516.49 157.635 3523.65 181.359 3523.65 207.555C3523.65 218.676 3522.42 229.797 3519.95 240.917C3517.72 251.791 3514.14 262.541 3509.2 273.168C3504.25 283.794 3497.09 292.691 3487.7 299.858C3478.55 306.777 3467.8 310.731 3455.45 311.72C3432.71 308.754 3415.16 299.116 3402.81 282.806C3390.45 266.248 3384.27 245.984 3384.27 222.012ZM3447.29 123.408C3438.64 124.396 3431.35 132.304 3425.42 147.132C3419.49 161.96 3415.66 176.417 3413.93 190.503C3412.2 204.342 3411.33 216.575 3411.33 227.202C3411.33 241.041 3415.54 253.892 3423.94 265.754C3432.59 277.369 3442.23 283.176 3452.85 283.176C3460.51 283.176 3467.43 280.211 3473.61 274.28C3479.79 268.349 3484.61 261.058 3488.07 252.409C3491.77 243.512 3494.49 234.616 3496.22 225.719C3498.2 216.822 3499.19 208.914 3499.19 201.995C3499.19 181.73 3494.62 164.06 3485.47 148.985C3476.33 133.911 3463.6 125.385 3447.29 123.408ZM3678.6 117.106L3676.75 133.046C3666.37 131.563 3657.47 130.822 3650.06 130.822C3633.01 130.822 3618.92 136.011 3607.8 146.391C3596.68 156.523 3589.02 168.632 3584.82 182.719C3580.86 196.558 3578.89 212.003 3578.89 229.055C3578.89 236.963 3579.38 244.007 3580.37 250.185C3581.36 256.363 3583.09 262.418 3585.56 268.349C3588.28 274.28 3592.36 278.975 3597.79 282.435C3603.48 285.648 3610.4 287.254 3618.55 287.254C3629.43 287.254 3643.26 285.153 3660.07 280.952C3665.26 278.975 3669.34 277.987 3672.3 277.987C3678.23 277.987 3681.82 284.906 3683.05 298.746C3661.3 305.665 3641.16 309.125 3622.63 309.125C3595.69 309.125 3577.4 302.576 3567.77 289.478C3558.38 276.133 3553.68 254.633 3553.68 224.978C3553.68 207.679 3554.79 192.604 3557.02 179.753C3559.49 166.655 3563.69 154.546 3569.62 143.425C3575.55 132.057 3584.08 123.408 3595.2 117.477C3606.57 111.545 3620.41 108.58 3636.72 108.58C3655 108.58 3668.97 111.422 3678.6 117.106ZM3690.1 130.822L3686.76 114.511C3719.87 112.534 3772.02 109.816 3843.19 106.356C3849.12 106.603 3854.19 108.827 3858.39 113.028C3862.59 117.229 3864.69 121.678 3864.69 126.373C3864.69 133.787 3859.75 137.988 3849.86 138.977L3780.54 135.641C3781.78 154.175 3782.4 181.236 3782.4 216.822C3782.65 252.162 3783.14 277.987 3783.88 294.297C3781.66 301.464 3777.33 305.047 3770.91 305.047C3766.71 305.047 3762.63 303.317 3758.67 299.858C3754.72 296.398 3752.25 292.197 3751.26 287.254C3754.72 226.46 3758.3 175.428 3762.01 134.158L3690.1 130.822ZM3912.51 270.202C3912.51 274.403 3912.76 279.964 3913.25 286.883C3911.03 294.544 3906.7 298.375 3900.28 298.375C3895.83 298.375 3891.51 296.645 3887.3 293.185C3883.35 289.478 3880.88 285.03 3879.89 279.84C3880.63 259.823 3881.5 230.538 3882.49 191.986C3883.72 153.434 3884.59 127.362 3885.08 113.77L3902.13 110.804C3905.1 126.62 3906.95 147.626 3907.69 173.822C3908.43 200.018 3909.42 219.541 3910.66 232.391C3915.35 225.472 3928.7 207.431 3950.69 178.27C3972.69 149.109 3987.64 127.362 3995.55 113.028C4000.98 112.04 4004.44 111.545 4005.93 111.545C4010.62 111.545 4013.83 113.646 4015.56 117.847C4017.54 122.048 4018.78 129.957 4019.27 141.572L4026.31 294.297C4024.09 301.711 4019.77 305.418 4013.34 305.418C4008.89 305.418 4004.57 303.688 4000.37 300.228C3996.41 296.521 3993.94 292.073 3992.95 286.883C3993.2 278.728 3993.82 258.834 3994.81 227.202C3996.04 195.322 3997.03 172.71 3997.77 159.365C3955.51 207.555 3927.09 244.501 3912.51 270.202ZM147.75 709.702L148.862 726.013C142.931 727.496 138.73 728.237 136.259 728.237C126.868 728.237 118.342 725.148 110.681 718.97C103.02 712.792 96.7183 705.254 91.7757 696.357C86.8331 687.461 82.1377 678.564 77.6893 669.668C73.4882 660.771 68.9163 653.233 63.9737 647.055C59.0311 640.877 53.965 637.788 48.7753 637.788C46.7982 637.788 44.9448 638.159 43.2149 638.9C44.2034 653.728 45.9333 677.699 48.4046 710.814C46.1804 718.475 41.8557 722.306 35.4303 722.306C30.982 722.306 26.6572 720.576 22.456 717.116C18.502 713.409 16.0307 708.961 15.0422 703.771C16.0307 662.254 16.5249 623.207 16.5249 586.632C16.5249 559.695 17.637 538.319 19.8612 522.502L36.5424 528.433C38.5194 538.071 39.6315 551.911 39.8786 569.951C40.1258 587.744 40.3729 598.742 40.62 602.943C48.0339 601.707 54.4592 597.877 59.8961 591.451C65.58 585.026 70.1519 577.736 73.6117 569.58C77.3186 561.425 81.1491 553.393 85.1032 545.485C89.0573 537.577 94.1234 530.905 100.302 525.468C106.727 520.031 114.264 517.313 122.914 517.313C127.362 517.313 134.282 518.795 143.673 521.761L142.19 534.364C140.707 534.117 138.73 533.994 136.259 533.994C126.374 533.994 117.724 538.195 110.31 546.597C103.144 554.753 97.7068 563.896 93.9998 574.029C90.54 583.914 86.0917 593.428 80.6549 602.572C75.2181 611.716 69.287 617.029 62.8616 618.512C72.0054 620.736 79.7899 626.914 86.2153 637.047C92.8878 647.179 97.8303 657.682 101.043 668.555C104.503 679.182 109.445 688.944 115.871 697.84C122.296 706.49 130.204 710.814 139.595 710.814C142.066 710.814 144.785 710.444 147.75 709.702ZM294.916 542.52C300.847 537.824 308.261 533.994 317.157 531.028C326.301 527.816 334.333 526.209 341.252 526.209C387.218 526.209 410.201 552.776 410.201 605.908C410.201 617.276 409.336 629.386 407.606 642.236C405.876 654.84 402.787 668.679 398.339 683.754C394.138 698.829 387.342 711.185 377.951 720.823C368.807 730.708 357.686 735.651 344.589 735.651C330.502 735.651 318.516 731.944 308.631 724.53C298.746 717.116 290.962 706.243 285.278 691.909C279.841 677.576 275.887 661.512 273.415 643.719C271.191 625.679 270.079 604.673 270.079 580.701C270.079 556.482 273.045 534.859 278.976 515.83C285.154 496.801 294.421 480.12 306.778 465.786C319.134 451.453 332.973 439.096 348.295 428.717C363.617 418.337 382.152 408.082 403.899 397.949C405.382 399.926 406.989 401.656 408.718 403.139C410.695 404.375 412.425 406.352 413.908 409.07C415.638 411.789 418.233 417.102 421.693 425.01C416.997 427.728 409.46 431.806 399.08 437.243C388.701 442.68 380.052 447.375 373.132 451.329C366.212 455.036 357.933 460.349 348.295 467.269C338.905 473.941 330.996 480.614 324.571 487.286C318.393 493.712 312.462 501.867 306.778 511.752C301.341 521.39 297.387 531.646 294.916 542.52ZM381.658 603.684C381.658 585.397 377.457 571.804 369.054 562.908C360.652 553.764 349.408 549.192 335.321 549.192C322.223 549.192 311.597 554.876 303.442 566.244C295.286 577.365 291.209 590.957 291.209 607.02C291.209 616.658 291.95 626.914 293.433 637.788C295.163 648.662 297.634 659.659 300.847 670.78C304.307 681.653 309.126 690.673 315.304 697.84C321.729 705.007 328.896 708.59 336.804 708.59C366.707 708.59 381.658 673.622 381.658 603.684ZM580.349 683.012L584.056 699.323C573.183 703.277 556.996 707.725 535.496 712.668C514.242 717.363 498.426 719.711 488.047 719.711C477.42 719.711 468.153 716.251 460.245 709.332C452.337 702.165 446.406 693.145 442.452 682.271C438.497 671.15 435.532 660.277 433.555 649.65C431.825 638.776 430.96 628.15 430.96 617.77C430.96 555.988 458.886 525.097 514.737 525.097C528.082 525.097 539.82 529.422 549.953 538.071C560.085 546.474 565.151 557.471 565.151 571.063C565.151 578.477 563.05 585.026 558.849 590.71C554.895 596.394 549.953 600.966 544.022 604.425C538.338 607.638 530.924 610.604 521.78 613.322C512.883 616.041 504.975 618.018 498.056 619.253C491.136 620.489 482.857 621.848 473.219 623.331C463.581 624.814 456.909 625.926 453.202 626.667C453.449 633.834 453.819 640.136 454.314 645.572C455.055 651.009 456.291 656.94 458.021 663.366C459.998 669.544 462.469 674.734 465.435 678.935C468.647 682.889 472.972 686.225 478.409 688.944C483.846 691.662 490.271 693.021 497.685 693.021C506.581 693.021 517.455 692.28 530.306 690.797C543.157 689.067 554.524 687.337 564.41 685.607C574.542 683.877 579.855 683.012 580.349 683.012ZM454.684 603.684C488.294 594.046 515.849 583.914 537.349 573.287C535.619 565.132 533.271 559.201 530.306 555.494C527.34 551.787 522.892 549.934 516.961 549.934C501.886 549.934 488.17 555.123 475.814 565.503C463.705 575.882 456.661 588.609 454.684 603.684ZM559.22 752.332L553.289 736.392C561.444 733.18 568.858 728.113 575.53 721.194C581.956 714.274 587.269 707.108 591.47 699.694C595.671 692.033 599.255 682.518 602.22 671.15C605.186 659.782 607.286 649.897 608.522 641.495C610.005 632.845 611.117 622.219 611.858 609.615C612.6 597.012 612.97 587.621 612.97 581.443C613.218 575.017 613.341 566.491 613.341 555.865C613.341 540.79 614.7 531.77 617.419 528.804C620.879 525.097 640.031 523.244 674.876 523.244C702.308 523.244 717.877 523.12 721.584 522.873C722.078 623.207 723.313 688.326 725.291 718.228C722.819 725.642 718.494 729.349 712.316 729.349C708.115 729.349 704.037 727.619 700.083 724.159C696.129 720.7 693.658 716.498 692.669 711.556C692.422 701.918 692.299 687.584 692.299 668.555C692.299 659.165 692.299 644.955 692.299 625.926C692.546 606.897 692.669 592.563 692.669 582.925C692.669 565.132 692.546 551.787 692.299 542.89C681.919 544.62 671.664 545.609 661.531 545.856C651.399 546.103 644.232 546.474 640.031 546.968C639.29 555.123 638.672 567.233 638.178 583.296C637.683 599.359 637.189 613.569 636.695 625.926C636.448 638.035 634.965 651.874 632.246 667.443C629.528 682.765 625.574 695.863 620.384 706.737C615.442 717.363 607.657 726.878 597.031 735.28C586.651 743.93 574.048 749.614 559.22 752.332ZM755.317 640.012C755.317 630.127 756.305 619.13 758.282 607.02C760.506 594.911 763.719 582.184 767.92 568.839C772.121 555.494 778.423 544.373 786.826 535.477C795.228 526.58 804.99 522.132 816.11 522.132C839.835 522.132 858.864 532.882 873.197 554.382C887.531 575.635 894.697 599.359 894.697 625.555C894.697 636.676 893.462 647.797 890.99 658.917C888.766 669.791 885.183 680.541 880.24 691.168C875.298 701.794 868.131 710.691 858.74 717.858C849.596 724.777 838.846 728.731 826.49 729.72C803.754 726.754 786.208 717.116 773.851 700.806C761.495 684.248 755.317 663.984 755.317 640.012ZM818.335 541.408C809.685 542.396 802.395 550.304 796.464 565.132C790.533 579.96 786.702 594.417 784.972 608.503C783.242 622.342 782.377 634.575 782.377 645.202C782.377 659.041 786.579 671.892 794.981 683.754C803.63 695.369 813.268 701.176 823.895 701.176C831.556 701.176 838.476 698.211 844.654 692.28C850.832 686.349 855.651 679.058 859.111 670.409C862.818 661.512 865.536 652.616 867.266 643.719C869.243 634.822 870.232 626.914 870.232 619.995C870.232 599.73 865.66 582.06 856.516 566.985C847.372 551.911 834.645 543.385 818.335 541.408ZM1070.04 536.218L1095.24 533.994C1107.6 567.356 1120.2 629.509 1133.05 720.452C1128.85 721.441 1124.65 721.935 1120.45 721.935C1116.74 721.935 1112.42 721.317 1107.48 720.082C1104.02 706.49 1099.81 682.518 1094.87 648.167C1090.18 613.816 1085.98 589.474 1082.27 575.141C1070.16 594.911 1053.85 631.239 1033.34 684.125C1031.61 684.372 1028.52 684.866 1024.07 685.607C1019.87 686.349 1016.66 686.719 1014.43 686.719C1011.71 686.719 1008.5 686.349 1004.79 685.607C1000.84 675.475 994.908 659.288 987 637.047C979.339 614.558 973.161 597.629 968.465 586.262C944.741 647.055 929.913 692.033 923.982 721.194L909.525 717.116C910.761 698.334 917.557 665.59 929.913 618.883C942.27 571.928 949.684 542.025 952.155 529.175C955.12 529.175 958.457 529.545 962.164 530.287C966.118 530.781 969.083 531.028 971.06 531.028C977.486 542.149 986.259 563.526 997.379 595.158C1008.5 626.544 1015.91 646.19 1019.62 654.098C1038.4 600.719 1055.21 561.425 1070.04 536.218ZM1174.94 828.695L1151.96 815.721C1162.09 798.175 1180.01 764.812 1205.71 715.633C1185.69 697.84 1170.37 670.903 1159.74 634.822C1149.12 598.742 1142.69 562.661 1140.47 526.58L1161.97 527.692C1163.2 533.623 1165.8 547.215 1169.75 568.468C1173.95 589.474 1177.29 605.043 1179.76 615.176C1182.23 625.308 1186.56 638.035 1192.73 653.357C1199.16 668.432 1206.45 681.159 1214.61 691.538C1248.96 625.555 1266.13 571.434 1266.13 529.175V525.097C1278.98 527.074 1288.62 529.422 1295.05 532.14C1291.09 558.089 1284.91 584.532 1276.51 611.469C1268.11 638.406 1257.61 665.59 1245 693.021C1232.4 720.205 1221.15 743.065 1211.27 761.599C1201.63 780.134 1189.52 802.499 1174.94 828.695ZM1511.53 822.393L1492.63 818.686C1491.64 799.163 1491.14 766.295 1491.14 720.082C1465.69 720.082 1445.55 713.162 1430.72 699.323C1415.89 685.237 1408.48 666.208 1408.48 642.236C1408.48 613.569 1416.14 587.991 1431.46 565.503C1447.03 542.767 1468.28 531.275 1495.22 531.028C1494.97 525.344 1494.85 518.548 1494.85 510.64C1494.85 502.485 1495.34 489.263 1496.33 470.976V468.01C1499.55 465.539 1503.62 464.303 1508.57 464.303C1514 464.303 1518.94 465.539 1523.39 468.01C1521.91 491.24 1521.17 509.157 1521.17 521.761V532.14H1523.76C1543.78 532.14 1561.45 544.25 1576.77 568.468C1592.34 592.687 1600.13 618.018 1600.13 644.46C1600.13 665.713 1592.59 683.877 1577.51 698.952C1562.44 713.78 1544.03 721.194 1522.28 721.194C1519.07 721.194 1516.72 721.07 1515.24 720.823C1514.74 736.887 1514.13 753.568 1513.38 770.867C1512.64 788.413 1512.03 805.588 1511.53 822.393ZM1491.14 696.357C1491.14 684.495 1492.01 666.455 1493.74 642.236C1495.71 617.77 1496.7 599.359 1496.7 587.003C1496.7 574.152 1496.09 563.031 1494.85 553.641C1494.6 553.641 1493.49 553.517 1491.51 553.27C1489.78 552.776 1488.42 552.528 1487.44 552.528C1471.13 552.528 1457.53 561.302 1446.66 578.848C1436.03 596.394 1430.72 615.793 1430.72 637.047C1430.72 654.346 1434.8 668.803 1442.95 680.418C1451.11 691.786 1463.09 697.47 1478.91 697.47C1482.86 697.47 1486.94 697.099 1491.14 696.357ZM1520.06 557.347L1515.24 697.099H1518.57C1537.6 697.099 1551.69 691.786 1560.83 681.159C1569.98 670.285 1574.55 656.57 1574.55 640.012C1574.55 620.489 1569.11 602.078 1558.24 584.779C1547.36 567.48 1534.64 558.336 1520.06 557.347ZM1622.74 640.012C1622.74 630.127 1623.73 619.13 1625.7 607.02C1627.93 594.911 1631.14 582.184 1635.34 568.839C1639.54 555.494 1645.85 544.373 1654.25 535.477C1662.65 526.58 1672.41 522.132 1683.53 522.132C1707.26 522.132 1726.29 532.882 1740.62 554.382C1754.95 575.635 1762.12 599.359 1762.12 625.555C1762.12 636.676 1760.88 647.797 1758.41 658.917C1756.19 669.791 1752.61 680.541 1747.66 691.168C1742.72 701.794 1735.55 710.691 1726.16 717.858C1717.02 724.777 1706.27 728.731 1693.91 729.72C1671.18 726.754 1653.63 717.116 1641.27 700.806C1628.92 684.248 1622.74 663.984 1622.74 640.012ZM1685.76 541.408C1677.11 542.396 1669.82 550.304 1663.89 565.132C1657.95 579.96 1654.12 594.417 1652.39 608.503C1650.66 622.342 1649.8 634.575 1649.8 645.202C1649.8 659.041 1654 671.892 1662.4 683.754C1671.05 695.369 1680.69 701.176 1691.32 701.176C1698.98 701.176 1705.9 698.211 1712.08 692.28C1718.25 686.349 1723.07 679.058 1726.53 670.409C1730.24 661.512 1732.96 652.616 1734.69 643.719C1736.67 634.822 1737.65 626.914 1737.65 619.995C1737.65 599.73 1733.08 582.06 1723.94 566.985C1714.79 551.911 1702.07 543.385 1685.76 541.408ZM1917.07 535.106L1915.22 551.046C1904.84 549.563 1895.94 548.822 1888.53 548.822C1871.47 548.822 1857.39 554.011 1846.27 564.391C1835.15 574.523 1827.49 586.632 1823.28 600.719C1819.33 614.558 1817.35 630.003 1817.35 647.055C1817.35 654.963 1817.85 662.007 1818.84 668.185C1819.82 674.363 1821.55 680.418 1824.03 686.349C1826.74 692.28 1830.82 696.975 1836.26 700.435C1841.94 703.648 1848.86 705.254 1857.02 705.254C1867.89 705.254 1881.73 703.153 1898.53 698.952C1903.72 696.975 1907.8 695.987 1910.77 695.987C1916.7 695.987 1920.28 702.906 1921.52 716.746C1899.77 723.665 1879.63 727.125 1861.09 727.125C1834.16 727.125 1815.87 720.576 1806.23 707.478C1796.84 694.133 1792.15 672.633 1792.15 642.978C1792.15 625.679 1793.26 610.604 1795.48 597.753C1797.95 584.655 1802.15 572.546 1808.09 561.425C1814.02 550.057 1822.54 541.408 1833.66 535.477C1845.03 529.545 1858.87 526.58 1875.18 526.58C1893.47 526.58 1907.43 529.422 1917.07 535.106ZM2035.69 822.393L2016.79 818.686C2015.8 799.163 2015.3 766.295 2015.3 720.082C1989.85 720.082 1969.71 713.162 1954.88 699.323C1940.05 685.237 1932.64 666.208 1932.64 642.236C1932.64 613.569 1940.3 587.991 1955.62 565.503C1971.19 542.767 1992.44 531.275 2019.38 531.028C2019.13 525.344 2019.01 518.548 2019.01 510.64C2019.01 502.485 2019.5 489.263 2020.49 470.976V468.01C2023.71 465.539 2027.78 464.303 2032.73 464.303C2038.16 464.303 2043.11 465.539 2047.55 468.01C2046.07 491.24 2045.33 509.157 2045.33 521.761V532.14H2047.92C2067.94 532.14 2085.61 544.25 2100.93 568.468C2116.5 592.687 2124.29 618.018 2124.29 644.46C2124.29 665.713 2116.75 683.877 2101.67 698.952C2086.6 713.78 2068.19 721.194 2046.44 721.194C2043.23 721.194 2040.88 721.07 2039.4 720.823C2038.9 736.887 2038.29 753.568 2037.54 770.867C2036.8 788.413 2036.19 805.588 2035.69 822.393ZM2015.3 696.357C2015.3 684.495 2016.17 666.455 2017.9 642.236C2019.88 617.77 2020.86 599.359 2020.86 587.003C2020.86 574.152 2020.25 563.031 2019.01 553.641C2018.76 553.641 2017.65 553.517 2015.67 553.27C2013.94 552.776 2012.58 552.528 2011.6 552.528C1995.29 552.528 1981.69 561.302 1970.82 578.848C1960.19 596.394 1954.88 615.793 1954.88 637.047C1954.88 654.346 1958.96 668.803 1967.11 680.418C1975.27 691.786 1987.25 697.47 2003.07 697.47C2007.02 697.47 2011.1 697.099 2015.3 696.357ZM2044.22 557.347L2039.4 697.099H2042.73C2061.76 697.099 2075.85 691.786 2084.99 681.159C2094.14 670.285 2098.71 656.57 2098.71 640.012C2098.71 620.489 2093.27 602.078 2082.4 584.779C2071.53 567.48 2058.8 558.336 2044.22 557.347ZM2146.9 640.012C2146.9 630.127 2147.89 619.13 2149.86 607.02C2152.09 594.911 2155.3 582.184 2159.5 568.839C2163.7 555.494 2170.01 544.373 2178.41 535.477C2186.81 526.58 2196.57 522.132 2207.69 522.132C2231.42 522.132 2250.45 532.882 2264.78 554.382C2279.11 575.635 2286.28 599.359 2286.28 625.555C2286.28 636.676 2285.04 647.797 2282.57 658.917C2280.35 669.791 2276.77 680.541 2271.82 691.168C2266.88 701.794 2259.71 710.691 2250.32 717.858C2241.18 724.777 2230.43 728.731 2218.07 729.72C2195.34 726.754 2177.79 717.116 2165.43 700.806C2153.08 684.248 2146.9 663.984 2146.9 640.012ZM2209.92 541.408C2201.27 542.396 2193.98 550.304 2188.05 565.132C2182.12 579.96 2178.28 594.417 2176.55 608.503C2174.82 622.342 2173.96 634.575 2173.96 645.202C2173.96 659.041 2178.16 671.892 2186.56 683.754C2195.21 695.369 2204.85 701.176 2215.48 701.176C2223.14 701.176 2230.06 698.211 2236.24 692.28C2242.41 686.349 2247.23 679.058 2250.69 670.409C2254.4 661.512 2257.12 652.616 2258.85 643.719C2260.83 634.822 2261.81 626.914 2261.81 619.995C2261.81 599.73 2257.24 582.06 2248.1 566.985C2238.95 551.911 2226.23 543.385 2209.92 541.408ZM2320.75 523.985L2341.51 527.692C2341.51 532.882 2341.64 536.712 2341.88 539.183C2355.48 530.534 2369.19 526.209 2383.03 526.209C2405.52 526.209 2423.07 535.847 2435.67 555.123C2448.27 574.399 2454.57 596.27 2454.57 620.736C2454.57 633.092 2453.59 644.955 2451.61 656.323C2449.88 667.443 2446.67 678.935 2441.97 690.797C2437.28 702.412 2429.99 711.803 2420.1 718.97C2410.46 725.889 2398.72 729.349 2384.88 729.349C2371.79 729.349 2359.18 725.889 2347.07 718.97C2348.06 762.217 2348.93 794.344 2349.67 815.35C2347.44 823.011 2343.12 826.841 2336.69 826.841C2332.25 826.841 2327.92 824.988 2323.72 821.281C2319.77 817.821 2317.29 813.497 2316.31 808.307L2320.75 523.985ZM2344.85 563.279L2345.96 683.012C2348.93 688.944 2353.5 693.763 2359.68 697.47C2365.86 700.929 2372.65 702.659 2380.07 702.659C2389.7 702.659 2397.86 699.57 2404.53 693.392C2411.45 687.214 2416.27 679.058 2418.99 668.926C2421.95 658.547 2423.93 648.909 2424.92 640.012C2426.15 631.115 2426.77 621.725 2426.77 611.839C2426.77 569.827 2412.56 548.822 2384.14 548.822C2375 548.822 2366.47 550.181 2358.57 552.899C2350.9 555.37 2346.33 558.83 2344.85 563.279ZM2511.29 828.695L2488.31 815.721C2498.44 798.175 2516.36 764.812 2542.06 715.633C2522.04 697.84 2506.72 670.903 2496.09 634.822C2485.47 598.742 2479.04 562.661 2476.82 526.58L2498.32 527.692C2499.55 533.623 2502.15 547.215 2506.1 568.468C2510.3 589.474 2513.64 605.043 2516.11 615.176C2518.58 625.308 2522.91 638.035 2529.08 653.357C2535.51 668.432 2542.8 681.159 2550.95 691.538C2585.31 625.555 2602.48 571.434 2602.48 529.175V525.097C2615.33 527.074 2624.97 529.422 2631.4 532.14C2627.44 558.089 2621.26 584.532 2612.86 611.469C2604.46 638.406 2593.96 665.59 2581.35 693.021C2568.75 720.205 2557.5 743.065 2547.62 761.599C2537.98 780.134 2525.87 802.499 2511.29 828.695Z" fill="black"/>
</g>
<defs>
<clipPath id="clip0_1765_899">
<rect width="4272" height="1070" fill="white"/>
</clipPath>
</defs>
</svg>
