<svg width="231" height="88" viewBox="0 0 231 88" fill="none" xmlns="http://www.w3.org/2000/svg">
<path d="M59.1247 23.5388C57.9898 23.5388 56.8858 23.3806 55.8127 23.064C54.7473 22.7398 53.817 22.2688 53.0218 21.6512L54.2493 19.5783C54.9673 20.1187 55.7432 20.5163 56.577 20.7711C57.4185 21.0182 58.2832 21.1417 59.171 21.1417C60.3445 21.1417 61.3597 20.9101 62.2167 20.4469C63.0813 19.9759 63.7453 19.2811 64.2085 18.3624C64.6717 17.4437 64.9033 16.2972 64.9033 14.923C64.9033 13.6492 64.6678 12.5722 64.1969 11.6921C63.7337 10.812 63.0775 10.1442 62.2282 9.68867C61.3867 9.23317 60.3985 9.00542 59.2637 9.00542C58.3604 9.00542 57.5305 9.12509 56.7739 9.36442C56.025 9.60374 55.3572 9.96274 54.7705 10.4414L53.5314 8.53063C54.2185 7.93617 55.0561 7.47295 56.0443 7.14098C57.0325 6.80129 58.1288 6.63144 59.3331 6.63144C60.9544 6.63144 62.3711 6.97885 63.5831 7.67368C64.8029 8.36078 65.7487 9.32581 66.4203 10.5688C67.0997 11.8117 67.4394 13.2593 67.4394 14.9114C67.4394 16.2239 67.2387 17.4128 66.8372 18.4782C66.4435 19.5436 65.8761 20.4546 65.1349 21.2112C64.4015 21.96 63.5252 22.5352 62.5062 22.9366C61.4948 23.3381 60.3677 23.5388 59.1247 23.5388ZM56.2064 15.7684V13.6723H65.5402V15.7684H56.2064ZM70.3175 23.1914V11.7268H72.8652V16.1505H78.6091V11.7268H81.1568V23.1914H78.6091V18.2582H72.8652V23.1914H70.3175ZM84.7025 23.1914V11.7268H87.2502V21.0838H92.7277V11.7268H95.2754V23.1914H84.7025ZM95.8776 26.6655V23.1914H94.0016V21.0838H98.2168V26.6655H95.8776ZM100.467 23.1914V11.7268H102.934V19.4625L109.153 11.7268H111.376V23.1914H108.921V15.3631L102.644 23.1914H100.467ZM122.54 23.1914L118.742 17.1001L122.274 11.7268H124.995L121.486 16.9843L125.586 23.1914H122.54ZM114.92 23.1914V11.7268H117.468V16.1505H120.919V18.2582H117.468V23.1914H114.92ZM127.418 23.3883L126.526 21.0954C127.314 20.8946 127.889 20.5781 128.252 20.1458C128.622 19.7134 128.854 19.1112 128.947 18.3392C129.047 17.5672 129.097 16.5713 129.097 15.3515V11.7268H138.419V23.1914H135.872V13.8344H131.471V15.3515C131.471 16.579 131.413 17.6483 131.298 18.5592C131.189 19.4702 130.989 20.2461 130.695 20.8869C130.402 21.5277 129.989 22.0527 129.456 22.4618C128.931 22.8633 128.252 23.1721 127.418 23.3883ZM147.194 23.5388C145.997 23.5388 144.928 23.2647 143.986 22.7166C143.052 22.1608 142.319 21.4235 141.786 20.5048C141.253 19.5783 140.987 18.5631 140.987 17.4591C140.987 16.6408 141.137 15.8687 141.438 15.143C141.747 14.4096 142.18 13.7611 142.736 13.1975C143.299 12.6339 143.959 12.19 144.716 11.8658C145.472 11.5415 146.302 11.3794 147.206 11.3794C148.402 11.3794 149.468 11.6573 150.402 12.2132C151.344 12.7613 152.081 13.4986 152.614 14.425C153.146 15.3438 153.413 16.3551 153.413 17.4591C153.413 18.2697 153.258 19.0418 152.949 19.7752C152.648 20.5086 152.22 21.1571 151.664 21.7207C151.108 22.2843 150.452 22.7282 149.695 23.0524C148.939 23.3767 148.105 23.5388 147.194 23.5388ZM147.194 21.2806C147.904 21.2806 148.533 21.1262 149.082 20.8174C149.637 20.5009 150.074 20.057 150.39 19.4857C150.707 18.9144 150.865 18.2389 150.865 17.4591C150.865 16.6794 150.707 16.0038 150.39 15.4325C150.074 14.8535 149.637 14.4096 149.082 14.1008C148.533 13.792 147.904 13.6376 147.194 13.6376C146.484 13.6376 145.851 13.792 145.295 14.1008C144.747 14.4096 144.314 14.8535 143.998 15.4325C143.689 16.0038 143.535 16.6794 143.535 17.4591C143.535 18.2389 143.693 18.9144 144.009 19.4857C144.326 20.057 144.758 20.5009 145.306 20.8174C145.862 21.1262 146.491 21.2806 147.194 21.2806ZM155.972 23.1914V11.7268H166.799V23.1914H164.252V13.8344H158.519V23.1914H155.972ZM175.568 23.5388C174.333 23.5388 173.249 23.2879 172.314 22.7861C171.38 22.2766 170.651 21.5663 170.126 20.6553C169.608 19.7443 169.35 18.6866 169.35 17.4823C169.35 16.6022 169.5 15.7915 169.801 15.0504C170.103 14.3015 170.527 13.653 171.075 13.1049C171.623 12.5567 172.264 12.1321 172.998 11.831C173.739 11.5299 174.546 11.3794 175.418 11.3794C176.367 11.3794 177.213 11.5492 177.954 11.8889C178.695 12.2209 179.309 12.688 179.795 13.2902C180.289 13.8923 180.637 14.5988 180.838 15.4094C181.046 16.2123 181.081 17.0847 180.942 18.0266H171.793C171.778 18.7137 171.928 19.3158 172.245 19.8331C172.561 20.3426 173.013 20.7402 173.6 21.0259C174.194 21.3115 174.893 21.4543 175.696 21.4543C176.344 21.4543 176.97 21.3578 177.572 21.1648C178.182 20.9641 178.734 20.6707 179.228 20.2847L180.212 22.1144C179.842 22.4155 179.394 22.6741 178.869 22.8903C178.344 23.0988 177.796 23.257 177.224 23.3651C176.653 23.4809 176.101 23.5388 175.568 23.5388ZM171.944 16.1505H178.44C178.417 15.2859 178.139 14.6065 177.607 14.1124C177.082 13.6183 176.333 13.3712 175.36 13.3712C174.418 13.3712 173.635 13.6183 173.009 14.1124C172.392 14.6065 172.036 15.2859 171.944 16.1505ZM191.915 23.1914V13.8344H187.282V15.3515C187.282 16.3937 187.221 17.3356 187.097 18.1771C186.974 19.0186 186.754 19.7597 186.437 20.4005C186.12 21.0336 185.677 21.5586 185.105 21.9755C184.542 22.3924 183.82 22.6973 182.94 22.8903L182.314 21.1648C183.048 20.9873 183.6 20.6553 183.97 20.1689C184.341 19.6825 184.588 19.0418 184.712 18.2466C184.843 17.4437 184.908 16.4786 184.908 15.3515V11.7268H194.462V23.1914H191.915ZM182.314 26.6655V21.1648L183.889 21.327L184.283 21.0838H196.767V26.6655H194.439V23.1914H184.642V26.6655H182.314ZM199.014 23.1914V11.7268H201.48V19.4625L207.699 11.7268H209.922V23.1914H207.467V15.3631L201.191 23.1914H199.014ZM212.668 23.1914L217.068 17.3201L217.624 18.9646C216.674 18.9723 215.864 18.8333 215.192 18.5477C214.52 18.2543 214.007 17.8451 213.652 17.3201C213.304 16.7874 213.131 16.1582 213.131 15.4325C213.131 14.6528 213.328 13.9889 213.721 13.4407C214.115 12.8849 214.671 12.4602 215.389 12.1669C216.107 11.8735 216.948 11.7268 217.913 11.7268H222.858V23.1914H220.403V13.6607H218.168C217.35 13.6607 216.728 13.8036 216.304 14.0892C215.887 14.3749 215.678 14.8033 215.678 15.3746C215.678 15.9305 215.871 16.3628 216.257 16.6716C216.651 16.9727 217.219 17.1233 217.96 17.1233H220.727V18.9761H218.712L215.574 23.1914H212.668ZM54.5041 52.1914V35.9789H57.0981V42.4176H64.9496V35.9789H67.5436V52.1914H64.9496V44.8031H57.0981V52.1914H54.5041ZM74.6104 52.5388C73.8152 52.5388 73.1165 52.3921 72.5143 52.0988C71.9122 51.7977 71.4412 51.3769 71.1015 50.8365C70.7696 50.2884 70.6036 49.6437 70.6036 48.9026C70.6036 48.2772 70.7618 47.7137 71.0784 47.2118C71.3949 46.7023 71.8851 46.2815 72.5491 45.9496C73.2207 45.6176 74.0816 45.3976 75.1315 45.2895C76.1815 45.1737 77.4437 45.1891 78.9183 45.3358L78.9646 47.096C77.9147 46.9493 77.0114 46.8876 76.2548 46.9107C75.4982 46.9339 74.8767 47.0304 74.3904 47.2003C73.9117 47.3624 73.5566 47.5824 73.325 47.8603C73.1011 48.1305 72.9891 48.4432 72.9891 48.7984C72.9891 49.3542 73.186 49.7827 73.5797 50.0838C73.9812 50.3849 74.5293 50.5354 75.2242 50.5354C75.8186 50.5354 76.3513 50.4273 76.8222 50.2112C77.2932 49.995 77.6638 49.69 77.934 49.2963C78.2119 48.9026 78.3509 48.4394 78.3509 47.9067V44.861C78.3509 44.3515 78.2428 43.9114 78.0266 43.5409C77.8104 43.1626 77.4823 42.8692 77.0423 42.6607C76.6022 42.4523 76.0541 42.3481 75.3979 42.3481C74.7957 42.3481 74.2012 42.4407 73.6145 42.626C73.0277 42.8036 72.468 43.0854 71.9353 43.4714L71.2173 41.5953C71.9353 41.109 72.6842 40.7654 73.4639 40.5647C74.2437 40.364 74.9925 40.2636 75.7105 40.2636C76.7759 40.2636 77.6869 40.4334 78.4435 40.7731C79.2078 41.1051 79.7946 41.6108 80.2037 42.2902C80.6129 42.9618 80.8175 43.8111 80.8175 44.8379V52.1914H78.5246V50.8365C78.1386 51.3846 77.602 51.8054 76.9149 52.0988C76.2278 52.3921 75.4596 52.5388 74.6104 52.5388ZM84.9631 57.3794C84.5462 57.3794 84.137 57.3331 83.7356 57.2405C83.3341 57.1478 82.9404 56.9895 82.5544 56.7657L83.1334 54.5885C83.3727 54.743 83.6352 54.8588 83.9208 54.936C84.2065 55.0132 84.4613 55.0518 84.6852 55.0518C85.2256 55.0518 85.6502 54.9244 85.959 54.6696C86.2678 54.4148 86.511 54.0211 86.6886 53.4884L87.0707 52.3767L82.5544 40.7268H85.3452L88.5183 49.6206L91.6102 40.7268H94.3085L89.3521 53.8474C88.9969 54.7661 88.5993 55.4802 88.1593 55.9898C87.7192 56.507 87.2328 56.866 86.7001 57.0668C86.1674 57.2752 85.5884 57.3794 84.9631 57.3794ZM103.486 52.1914V47.7098C102.946 47.8488 102.432 47.953 101.946 48.0225C101.467 48.0919 100.962 48.1267 100.429 48.1267C99.4021 48.1267 98.5374 47.9684 97.8349 47.6519C97.1323 47.3354 96.6035 46.8567 96.2484 46.2159C95.8932 45.5751 95.7157 44.7684 95.7157 43.7956V40.7268H98.2634V43.4366C98.2634 44.255 98.4602 44.8765 98.854 45.3011C99.2477 45.7257 99.9193 45.938 100.869 45.938C101.417 45.938 101.896 45.9148 102.305 45.8685C102.722 45.8145 103.116 45.7488 103.486 45.6716V40.7268H106.034V52.1914H103.486ZM109.582 52.1914V40.7268H112.13V45.1505H117.874V40.7268H120.422V52.1914H117.874V47.2582H112.13V52.1914H109.582ZM129.19 52.5388C127.993 52.5388 126.924 52.2647 125.982 51.7166C125.048 51.1608 124.315 50.4235 123.782 49.5048C123.249 48.5783 122.983 47.5631 122.983 46.4591C122.983 45.6408 123.134 44.8687 123.435 44.143C123.743 43.4096 124.176 42.7611 124.732 42.1975C125.295 41.6339 125.955 41.19 126.712 40.8658C127.468 40.5415 128.298 40.3794 129.202 40.3794C130.398 40.3794 131.464 40.6573 132.398 41.2132C133.34 41.7613 134.077 42.4986 134.61 43.425C135.142 44.3438 135.409 45.3551 135.409 46.4591C135.409 47.2697 135.254 48.0418 134.946 48.7752C134.644 49.5086 134.216 50.1571 133.66 50.7207C133.104 51.2843 132.448 51.7282 131.691 52.0524C130.935 52.3767 130.101 52.5388 129.19 52.5388ZM129.19 50.2806C129.9 50.2806 130.53 50.1262 131.078 49.8174C131.634 49.5009 132.07 49.057 132.386 48.4857C132.703 47.9144 132.861 47.2389 132.861 46.4591C132.861 45.6794 132.703 45.0038 132.386 44.4325C132.07 43.8535 131.634 43.4096 131.078 43.1008C130.53 42.792 129.9 42.6376 129.19 42.6376C128.48 42.6376 127.847 42.792 127.291 43.1008C126.743 43.4096 126.31 43.8535 125.994 44.4325C125.685 45.0038 125.531 45.6794 125.531 46.4591C125.531 47.2389 125.689 47.9144 126.005 48.4857C126.322 49.057 126.754 49.5009 127.302 49.8174C127.858 50.1262 128.488 50.2806 129.19 50.2806ZM137.968 52.1914V40.7268H145.518V42.8344H140.516V52.1914H137.968ZM153.097 52.5388C151.901 52.5388 150.831 52.2647 149.889 51.7166C148.955 51.1608 148.222 50.4235 147.689 49.5048C147.156 48.5783 146.89 47.5631 146.89 46.4591C146.89 45.6408 147.041 44.8687 147.342 44.143C147.651 43.4096 148.083 42.7611 148.639 42.1975C149.202 41.6339 149.862 41.19 150.619 40.8658C151.376 40.5415 152.206 40.3794 153.109 40.3794C154.305 40.3794 155.371 40.6573 156.305 41.2132C157.247 41.7613 157.984 42.4986 158.517 43.425C159.05 44.3438 159.316 45.3551 159.316 46.4591C159.316 47.2697 159.162 48.0418 158.853 48.7752C158.552 49.5086 158.123 50.1571 157.567 50.7207C157.011 51.2843 156.355 51.7282 155.599 52.0524C154.842 52.3767 154.008 52.5388 153.097 52.5388ZM153.097 50.2806C153.807 50.2806 154.437 50.1262 154.985 49.8174C155.541 49.5009 155.977 49.057 156.293 48.4857C156.61 47.9144 156.768 47.2389 156.768 46.4591C156.768 45.6794 156.61 45.0038 156.293 44.4325C155.977 43.8535 155.541 43.4096 154.985 43.1008C154.437 42.792 153.807 42.6376 153.097 42.6376C152.387 42.6376 151.754 42.792 151.198 43.1008C150.65 43.4096 150.218 43.8535 149.901 44.4325C149.592 45.0038 149.438 45.6794 149.438 46.4591C149.438 47.2389 149.596 47.9144 149.913 48.4857C150.229 49.057 150.661 49.5009 151.21 49.8174C151.765 50.1262 152.395 50.2806 153.097 50.2806ZM54.5041 81.1914V64.9789H67.5436V81.1914H64.9496V67.3528H57.0981V81.1914H54.5041ZM71.0089 81.3883L70.1172 79.0954C70.9047 78.8946 71.4798 78.5781 71.8427 78.1458C72.2133 77.7134 72.4449 77.1112 72.5375 76.3392C72.6379 75.5672 72.688 74.5713 72.688 73.3515V69.7268H82.0103V81.1914H79.4626V71.8344H75.062V73.3515C75.062 74.579 75.0041 75.6483 74.8883 76.5592C74.7802 77.4702 74.5795 78.2461 74.2861 78.8869C73.9928 79.5277 73.5797 80.0527 73.047 80.4618C72.5221 80.8633 71.8427 81.1721 71.0089 81.3883ZM88.7466 81.5388C87.9514 81.5388 87.2527 81.3921 86.6506 81.0988C86.0484 80.7977 85.5774 80.3769 85.2378 79.8365C84.9058 79.2884 84.7398 78.6437 84.7398 77.9026C84.7398 77.2772 84.8981 76.7137 85.2146 76.2118C85.5311 75.7023 86.0214 75.2815 86.6853 74.9496C87.357 74.6176 88.2178 74.3976 89.2677 74.2895C90.3177 74.1737 91.58 74.1891 93.0545 74.3358L93.1008 76.096C92.0509 75.9493 91.1476 75.8876 90.391 75.9107C89.6344 75.9339 89.013 76.0304 88.5266 76.2003C88.0479 76.3624 87.6928 76.5824 87.4612 76.8603C87.2373 77.1305 87.1254 77.4432 87.1254 77.7984C87.1254 78.3542 87.3222 78.7827 87.716 79.0838C88.1174 79.3849 88.6656 79.5354 89.3604 79.5354C89.9548 79.5354 90.4875 79.4273 90.9585 79.2112C91.4294 78.995 91.8 78.69 92.0702 78.2963C92.3481 77.9026 92.4871 77.4394 92.4871 76.9067V73.861C92.4871 73.3515 92.379 72.9114 92.1628 72.5409C91.9467 72.1626 91.6186 71.8692 91.1785 71.6607C90.7384 71.4523 90.1903 71.3481 89.5341 71.3481C88.9319 71.3481 88.3374 71.4407 87.7507 71.626C87.164 71.8036 86.6042 72.0854 86.0715 72.4714L85.3536 70.5953C86.0715 70.109 86.8204 69.7654 87.6002 69.5647C88.3799 69.364 89.1288 69.2636 89.8468 69.2636C90.9122 69.2636 91.8231 69.4334 92.5797 69.7731C93.344 70.1051 93.9308 70.6108 94.3399 71.2902C94.7491 71.9618 94.9537 72.8111 94.9537 73.8379V81.1914H92.6608V79.8365C92.2748 80.3846 91.7382 80.8054 91.0511 81.0988C90.364 81.3921 89.5958 81.5388 88.7466 81.5388ZM105.961 81.1914L102.163 75.1001L105.695 69.7268H108.416L104.907 74.9843L109.007 81.1914H105.961ZM98.3412 81.1914V69.7268H100.889V74.1505H104.34V76.2582H100.889V81.1914H98.3412ZM114.441 81.5388C113.645 81.5388 112.947 81.3921 112.345 81.0988C111.742 80.7977 111.271 80.3769 110.932 79.8365C110.6 79.2884 110.434 78.6437 110.434 77.9026C110.434 77.2772 110.592 76.7137 110.909 76.2118C111.225 75.7023 111.715 75.2815 112.379 74.9496C113.051 74.6176 113.912 74.3976 114.962 74.2895C116.012 74.1737 117.274 74.1891 118.749 74.3358L118.795 76.096C117.745 75.9493 116.842 75.8876 116.085 75.9107C115.328 75.9339 114.707 76.0304 114.221 76.2003C113.742 76.3624 113.387 76.5824 113.155 76.8603C112.931 77.1305 112.819 77.4432 112.819 77.7984C112.819 78.3542 113.016 78.7827 113.41 79.0838C113.811 79.3849 114.36 79.5354 115.054 79.5354C115.649 79.5354 116.182 79.4273 116.652 79.2112C117.123 78.995 117.494 78.69 117.764 78.2963C118.042 77.9026 118.181 77.4394 118.181 76.9067V73.861C118.181 73.3515 118.073 72.9114 117.857 72.5409C117.641 72.1626 117.313 71.8692 116.872 71.6607C116.432 71.4523 115.884 71.3481 115.228 71.3481C114.626 71.3481 114.031 71.4407 113.445 71.626C112.858 71.8036 112.298 72.0854 111.766 72.4714L111.048 70.5953C111.766 70.109 112.514 69.7654 113.294 69.5647C114.074 69.364 114.823 69.2636 115.541 69.2636C116.606 69.2636 117.517 69.4334 118.274 69.7731C119.038 70.1051 119.625 70.6108 120.034 71.2902C120.443 71.9618 120.648 72.8111 120.648 73.8379V81.1914H118.355V79.8365C117.969 80.3846 117.432 80.8054 116.745 81.0988C116.058 81.3921 115.29 81.5388 114.441 81.5388ZM126.187 81.1914V71.8344H122.424V69.7268H132.51V71.8344H128.735V81.1914H126.187ZM138.031 81.5388C137.236 81.5388 136.537 81.3921 135.935 81.0988C135.333 80.7977 134.862 80.3769 134.522 79.8365C134.19 79.2884 134.024 78.6437 134.024 77.9026C134.024 77.2772 134.183 76.7137 134.499 76.2118C134.816 75.7023 135.306 75.2815 135.97 74.9496C136.641 74.6176 137.502 74.3976 138.552 74.2895C139.602 74.1737 140.864 74.1891 142.339 74.3358L142.385 76.096C141.335 75.9493 140.432 75.8876 139.676 75.9107C138.919 75.9339 138.297 76.0304 137.811 76.2003C137.332 76.3624 136.977 76.5824 136.746 76.8603C136.522 77.1305 136.41 77.4432 136.41 77.7984C136.41 78.3542 136.607 78.7827 137 79.0838C137.402 79.3849 137.95 79.5354 138.645 79.5354C139.239 79.5354 139.772 79.4273 140.243 79.2112C140.714 78.995 141.085 78.69 141.355 78.2963C141.633 77.9026 141.772 77.4394 141.772 76.9067V73.861C141.772 73.3515 141.664 72.9114 141.447 72.5409C141.231 72.1626 140.903 71.8692 140.463 71.6607C140.023 71.4523 139.475 71.3481 138.819 71.3481C138.216 71.3481 137.622 71.4407 137.035 71.626C136.448 71.8036 135.889 72.0854 135.356 72.4714L134.638 70.5953C135.356 70.109 136.105 69.7654 136.885 69.5647C137.664 69.364 138.413 69.2636 139.131 69.2636C140.197 69.2636 141.108 69.4334 141.864 69.7731C142.629 70.1051 143.215 70.6108 143.624 71.2902C144.034 71.9618 144.238 72.8111 144.238 73.8379V81.1914H141.945V79.8365C141.559 80.3846 141.023 80.8054 140.336 81.0988C139.649 81.3921 138.88 81.5388 138.031 81.5388Z" fill="#00AF64"/>
<path fill-rule="evenodd" clip-rule="evenodd" d="M24.4057 6.11719H23.5702V18.3599H20.3501V27.3253L8.09195 58.2081L9.16871 58.7492L6.55943 64.9828L5.53817 64.6605L2.39494 72.9636L0.529297 81.4636L5.92062 74.0243L9.05425 65.9188L7.99326 65.4624L10.6891 59.2344L11.5024 59.5185L22.5394 32.8628H25.2923V49.1693L12.2928 81.8711H42.4061V6.11719L28.9492 39.9698L28.9493 18.3599H26.0336V6.11719H24.4057ZM25.2923 59.1549L23.8474 62.8868L18.4197 77.7134H25.2923V59.1549ZM28.9491 77.7134L28.9492 49.71L38.7963 24.2773V50.017V77.7134H28.9491Z" fill="#00AF64"/>
</svg>
