<svg width="4489" height="1285" viewBox="0 0 4489 1285" fill="none" xmlns="http://www.w3.org/2000/svg">
<g clip-path="url(#clip0_1765_892)">
<path d="M185.922 1013.08V955.872H211.8C229.96 955.872 244.488 953.148 255.384 947.7C266.28 942.252 276.268 931.81 285.348 916.374C294.428 900.938 304.416 878.692 315.312 849.636L617.676 40.6067H723.913L1031.73 883.686C1038.99 902.754 1046.71 917.736 1054.88 928.632C1063.05 938.62 1073.04 945.884 1084.84 950.424C1096.65 954.056 1111.18 955.872 1128.43 955.872H1146.13V1013.08H771.583V955.872H802.909C830.149 955.872 850.579 950.878 864.199 940.89C877.819 929.994 884.629 913.196 884.629 890.496C884.629 885.048 884.175 880.054 883.267 875.514C882.359 870.066 880.997 864.618 879.181 859.17C878.273 852.814 876.457 846.458 873.733 840.102L819.253 687.558H461.046L409.29 830.568C406.566 837.832 404.296 845.096 402.48 852.36C400.664 859.624 399.302 866.434 398.394 872.79C397.486 878.238 397.032 883.686 397.032 889.134C397.032 911.834 404.296 928.632 418.824 939.528C434.26 950.424 456.96 955.872 486.924 955.872H518.25V1013.08H185.922ZM486.924 619.458H794.737L710.293 381.107C701.213 353.867 692.133 327.989 683.053 303.473C674.881 278.957 667.163 255.349 659.899 232.649C653.543 209.949 647.641 187.703 642.193 165.911C638.561 182.255 634.475 198.145 629.935 213.581C626.303 229.017 621.763 244.907 616.315 261.251C611.775 276.687 606.327 293.485 599.97 311.645C594.522 328.897 587.712 347.965 579.54 368.849L486.924 619.458ZM1425.45 1026.7C1385.5 1026.7 1349.18 1018.98 1316.49 1003.54C1284.71 987.198 1259.74 963.136 1241.58 931.356C1223.42 898.668 1214.34 857.808 1214.34 808.776C1214.34 736.136 1239.76 682.564 1290.61 648.06C1342.37 613.556 1420.46 594.488 1524.88 590.856L1637.92 586.77V505.049C1637.92 472.361 1635.2 443.759 1629.75 419.243C1624.3 393.819 1612.5 373.843 1594.34 359.315C1576.18 344.787 1548.48 337.523 1511.26 337.523C1476.75 337.523 1450.42 343.879 1432.26 356.591C1414.1 369.303 1401.84 387.009 1395.49 409.709C1390.04 431.501 1387.31 456.925 1387.31 485.981C1349.18 485.981 1320.12 479.625 1300.15 466.913C1281.08 453.293 1271.54 431.047 1271.54 400.175C1271.54 368.395 1282.44 342.971 1304.23 323.903C1326.93 304.835 1356.9 291.215 1394.12 283.043C1431.35 273.963 1472.21 269.423 1516.7 269.423C1600.24 269.423 1662.44 287.129 1703.3 322.541C1745.07 357.953 1765.95 418.789 1765.95 505.049V857.808C1765.95 883.232 1768.67 903.208 1774.12 917.736C1779.57 931.356 1788.65 941.344 1801.36 947.7C1814.07 953.148 1830.42 955.872 1850.39 955.872H1854.48V1013.08H1670.61L1648.82 895.944H1637.92C1618.85 921.368 1600.24 944.068 1582.08 964.044C1563.92 983.112 1542.58 998.548 1518.07 1010.35C1494.46 1021.25 1463.59 1026.7 1425.45 1026.7ZM1456.78 942.252C1494 942.252 1525.78 934.534 1552.12 919.098C1579.36 903.662 1600.24 881.87 1614.77 853.722C1630.2 824.666 1637.92 791.07 1637.92 752.934V642.612L1550.75 646.698C1499 648.514 1458.14 656.232 1428.17 669.852C1399.12 683.472 1378.23 702.54 1365.52 727.056C1352.81 750.664 1346.45 780.174 1346.45 815.586C1346.45 843.734 1350.54 867.342 1358.71 886.41C1366.88 904.57 1379.14 918.644 1395.49 928.632C1411.83 937.712 1432.26 942.252 1456.78 942.252Z" fill="black"/>
<path d="M3228.55 1013.08L3111.42 712.074H2725.97L2610.2 1013.08H2486.26L2866.26 36.5208H2976.58L3355.22 1013.08H3228.55ZM2965.68 308.921C2962.96 301.657 2958.42 288.491 2952.06 269.423C2945.71 250.355 2939.35 230.833 2932.99 210.857C2927.55 189.973 2923.01 174.083 2919.37 163.187C2914.83 181.347 2909.84 199.961 2904.39 219.029C2899.85 237.189 2894.86 253.987 2889.41 269.423C2884.87 284.859 2880.78 298.025 2877.15 308.921L2766.83 603.114H3074.64L2965.68 308.921ZM3748.39 270.785C3837.37 270.785 3903.2 290.307 3945.88 329.351C3988.55 368.395 4009.89 430.593 4009.89 515.945V1013.08H3922.72L3899.57 909.564H3894.12C3873.24 935.896 3851.44 958.142 3828.74 976.302C3806.95 993.554 3781.53 1006.27 3752.47 1014.44C3724.32 1022.61 3689.82 1026.7 3648.96 1026.7C3605.38 1026.7 3565.88 1018.98 3530.47 1003.54C3495.96 988.106 3468.72 964.498 3448.75 932.718C3428.77 900.03 3418.78 859.17 3418.78 810.138C3418.78 737.498 3447.38 681.656 3504.59 642.612C3561.79 602.66 3649.87 580.868 3768.82 577.236L3892.76 573.15V529.565C3892.76 468.729 3879.59 426.507 3853.26 402.899C3826.93 379.291 3789.7 367.487 3741.58 367.487C3703.44 367.487 3667.12 373.389 3632.62 385.193C3598.11 396.089 3565.88 408.801 3535.91 423.329L3499.14 333.437C3530.92 316.185 3568.6 301.657 3612.19 289.853C3655.77 277.141 3701.17 270.785 3748.39 270.785ZM3783.8 660.318C3693 663.95 3629.89 678.478 3594.48 703.902C3559.98 729.326 3542.72 765.192 3542.72 811.5C3542.72 852.36 3554.98 882.324 3579.5 901.392C3604.92 920.46 3637.16 929.994 3676.2 929.994C3737.94 929.994 3789.25 913.196 3830.11 879.6C3870.97 845.096 3891.4 792.432 3891.4 721.608V656.232L3783.8 660.318Z" fill="black"/>
</g>
<defs>
<clipPath id="clip0_1765_892">
<rect width="4489" height="1285" fill="white"/>
</clipPath>
</defs>
</svg>
