<svg width="6778" height="3252" viewBox="0 0 6778 3252" fill="none" xmlns="http://www.w3.org/2000/svg">
<g clip-path="url(#clip0_1784_2699)">
<path d="M3030.07 1514.44C3030.07 1713.35 2990.89 1910.32 2914.77 2094.1C2838.64 2277.88 2727.07 2444.86 2586.41 2585.52L1515.34 1514.44H3030.07Z" fill="#D9D9D9"/>
<circle cx="1515.34" cy="1514.44" r="1514.73" fill="#FEEF01"/>
<path d="M3030.07 1514.44C3030.07 1881.92 2896.47 2236.88 2654.17 2513.17C2411.87 2789.46 2077.39 2968.25 1713.05 3016.21C1348.7 3064.18 979.349 2978.06 673.794 2773.89C368.24 2569.73 147.328 2261.44 52.2149 1906.48C-42.8977 1551.51 -5.72343 1174.08 156.812 844.488C319.347 514.898 596.158 255.637 935.672 115.005C1275.19 -25.6257 1654.25 -38.035 2002.23 80.0898C2350.21 198.215 2643.39 438.817 2827.13 757.07L1515.34 1514.44H3030.07Z" fill="#7FD200"/>
<path d="M3030.07 1514.44C3030.07 1847.88 2920.04 2172.01 2717.05 2436.55C2514.07 2701.09 2229.46 2891.26 1907.38 2977.56C1585.29 3063.86 1243.73 3041.47 935.672 2913.87C627.609 2786.26 370.26 2560.58 203.537 2271.8C36.8151 1983.03 -29.9629 1647.32 13.5603 1316.72C57.0836 986.133 208.476 679.14 444.257 443.358C680.038 207.577 987.031 56.1852 1317.62 12.6619C1648.21 -30.8614 1983.93 35.9166 2272.7 202.639L1515.34 1514.44H3030.07Z" fill="#00B500"/>
<path d="M3030.07 1514.44C3030.07 1814.02 2941.23 2106.88 2774.79 2355.98C2608.35 2605.07 2371.78 2799.22 2095 2913.87C1818.22 3028.52 1513.66 3058.51 1219.83 3000.07C925.996 2941.62 656.096 2797.35 444.257 2585.52C232.418 2373.68 88.1531 2103.78 29.7067 1809.95C-28.7396 1516.12 1.25719 1211.55 115.904 934.773C230.55 657.992 424.698 421.423 673.794 254.982C922.891 88.5407 1215.75 -0.296879 1515.34 -0.296875L1515.34 1514.44H3030.07Z" fill="#00C2AF"/>
<path d="M3030.07 1514.44C3030.07 1780.33 2960.08 2041.54 2827.13 2271.8C2694.19 2502.07 2502.97 2693.29 2272.7 2826.24C2042.43 2959.18 1781.23 3029.17 1515.34 3029.17C1249.44 3029.17 988.237 2959.18 757.968 2826.23C527.7 2693.29 336.483 2502.07 203.537 2271.8C70.5917 2041.54 0.601539 1780.33 0.601563 1514.44C0.601586 1248.55 70.5918 987.339 203.538 757.07C336.483 526.801 527.7 335.585 757.969 202.639L1515.34 1514.44H3030.07Z" fill="#0170C4"/>
<path d="M3030.07 1514.44C3030.07 1746.78 2976.62 1976.01 2873.86 2184.39C2771.1 2392.77 2621.78 2574.72 2437.45 2716.16C2253.12 2857.6 2038.72 2954.74 1810.85 3000.07C1582.97 3045.39 1347.72 3037.69 1123.29 2977.56C898.869 2917.42 691.286 2806.47 516.602 2653.27C341.918 2500.08 204.817 2308.76 115.904 2094.1C26.9906 1879.45 -11.3511 1647.21 3.84472 1415.37C19.0406 1183.52 87.3667 958.284 203.537 757.07L1515.34 1514.44H3030.07Z" fill="#3A48B9"/>
<path d="M3030.07 1514.44C3030.07 1916.17 2870.48 2301.45 2586.41 2585.52C2302.35 2869.58 1917.07 3029.17 1515.34 3029.17C1113.6 3029.17 728.325 2869.58 444.257 2585.52C160.189 2301.45 0.601623 1916.17 0.601563 1514.44L1515.34 1514.44H3030.07Z" fill="#7420B0"/>
<path d="M3030.07 1514.44C3030.07 1847.88 2920.04 2172.01 2717.05 2436.55C2514.07 2701.09 2229.46 2891.26 1907.38 2977.56C1585.29 3063.86 1243.73 3041.47 935.672 2913.87C627.609 2786.26 370.26 2560.58 203.537 2271.8L1515.34 1514.44H3030.07Z" fill="#D2298E"/>
<path d="M3030.07 1514.44C3030.07 1780.33 2960.08 2041.54 2827.13 2271.8C2694.19 2502.07 2502.97 2693.29 2272.7 2826.24C2042.43 2959.18 1781.23 3029.17 1515.34 3029.17C1249.44 3029.17 988.237 2959.18 757.968 2826.23L1515.34 1514.44H3030.07Z" fill="#FF2600"/>
<path d="M3030.07 1514.44C3030.07 1713.35 2990.89 1910.32 2914.77 2094.1C2838.64 2277.88 2727.07 2444.86 2586.41 2585.52C2445.76 2726.17 2278.77 2837.75 2095 2913.87C1911.22 2989.99 1714.25 3029.17 1515.34 3029.17L1515.34 1514.44H3030.07Z" fill="#FC6212"/>
<path d="M3030.07 1514.44C3030.07 1780.33 2960.08 2041.54 2827.13 2271.8C2694.19 2502.07 2502.97 2693.29 2272.7 2826.24L1515.34 1514.44H3030.07Z" fill="#F79F23"/>
<path d="M3030.07 1514.44C3030.07 1780.33 2960.08 2041.54 2827.13 2271.8L1515.34 1514.44H3030.07Z" fill="#FAC713"/>
<path d="M6777.6 1514.73C6777.6 1713.65 6738.42 1910.62 6662.3 2094.4C6586.18 2278.17 6474.6 2445.16 6333.95 2585.81L5262.87 1514.73H6777.6Z" fill="#D9D9D9"/>
<circle cx="5262.87" cy="1514.73" r="1514.73" fill="#FEEF01"/>
<path d="M6777.6 1514.73C6777.6 1882.22 6644 2237.18 6401.7 2513.47C6159.4 2789.76 5824.92 2968.54 5460.58 3016.51C5096.24 3064.48 4726.88 2978.35 4421.33 2774.19C4115.77 2570.02 3894.86 2261.74 3799.75 1906.78C3704.63 1551.81 3741.81 1174.37 3904.34 844.784C4066.88 515.195 4343.69 255.934 4683.2 115.302C5022.72 -25.3289 5401.78 -37.7381 5749.76 80.3866C6097.75 198.511 6390.92 439.114 6574.66 757.367L5262.87 1514.73H6777.6Z" fill="#7FD200"/>
<path d="M6777.6 1514.73C6777.6 1848.18 6667.57 2172.31 6464.59 2436.85C6261.6 2701.38 5976.99 2891.55 5654.91 2977.85C5332.83 3064.16 4991.27 3041.77 4683.2 2914.17C4375.14 2786.56 4117.79 2560.87 3951.07 2272.1C3784.35 1983.33 3717.57 1647.61 3761.09 1317.02C3804.61 986.429 3956.01 679.436 4191.79 443.655C4427.57 207.874 4734.56 56.4821 5065.15 12.9588C5395.75 -30.5645 5731.46 36.2134 6020.23 202.936L5262.87 1514.73H6777.6Z" fill="#00B500"/>
<path d="M6777.6 1514.73C6777.6 1814.32 6688.76 2107.18 6522.32 2356.27C6355.88 2605.37 6119.31 2799.52 5842.53 2914.17C5565.75 3028.81 5261.19 3058.81 4967.36 3000.36C4673.53 2941.92 4403.63 2797.65 4191.79 2585.81C3979.95 2373.97 3835.68 2104.07 3777.24 1810.24C3718.79 1516.41 3748.79 1211.85 3863.44 935.07C3978.08 658.289 4172.23 421.72 4421.33 255.279C4670.42 88.8376 4963.28 -3.57253e-06 5262.87 0L5262.87 1514.73H6777.6Z" fill="#00C2AF"/>
<path d="M6777.6 1514.73C6777.6 1780.63 6707.61 2041.83 6574.66 2272.1C6441.72 2502.37 6250.5 2693.59 6020.23 2826.53C5789.96 2959.48 5528.76 3029.47 5262.87 3029.47C4996.98 3029.47 4735.77 2959.48 4505.5 2826.53C4275.23 2693.59 4084.01 2502.37 3951.07 2272.1C3818.12 2041.83 3748.13 1780.63 3748.13 1514.73C3748.13 1248.84 3818.12 987.635 3951.07 757.367C4084.01 527.098 4275.23 335.881 4505.5 202.936L5262.87 1514.73H6777.6Z" fill="#0170C4"/>
<path d="M6777.6 1514.73C6777.6 1747.08 6724.15 1976.3 6621.39 2184.68C6518.63 2393.06 6369.31 2575.01 6184.98 2716.45C6000.65 2857.89 5786.25 2955.04 5558.38 3000.36C5330.5 3045.69 5095.25 3037.99 4870.82 2977.85C4646.4 2917.72 4438.82 2806.76 4264.13 2653.57C4089.45 2500.38 3952.35 2309.05 3863.44 2094.4C3774.52 1879.74 3736.18 1647.51 3751.38 1415.67C3766.57 1183.82 3834.9 958.581 3951.07 757.367L5262.87 1514.73H6777.6Z" fill="#3A48B9"/>
<path d="M6777.6 1514.73C6777.6 1916.47 6618.01 2301.74 6333.95 2585.81C6049.88 2869.88 5664.6 3029.47 5262.87 3029.47C4861.13 3029.47 4475.86 2869.88 4191.79 2585.81C3907.72 2301.74 3748.13 1916.47 3748.13 1514.73L5262.87 1514.73H6777.6Z" fill="#7420B0"/>
<path d="M6777.6 1514.73C6777.6 1848.18 6667.57 2172.31 6464.59 2436.85C6261.6 2701.38 5976.99 2891.55 5654.91 2977.85C5332.83 3064.16 4991.27 3041.77 4683.2 2914.17C4375.14 2786.56 4117.79 2560.87 3951.07 2272.1L5262.87 1514.73H6777.6Z" fill="#D2298E"/>
<path d="M6777.6 1514.73C6777.6 1780.63 6707.61 2041.83 6574.66 2272.1C6441.72 2502.37 6250.5 2693.59 6020.23 2826.53C5789.96 2959.48 5528.76 3029.47 5262.87 3029.47C4996.98 3029.47 4735.77 2959.48 4505.5 2826.53L5262.87 1514.73H6777.6Z" fill="#FF2600"/>
<path d="M6777.6 1514.73C6777.6 1713.65 6738.42 1910.62 6662.3 2094.4C6586.18 2278.17 6474.6 2445.16 6333.95 2585.81C6193.29 2726.47 6026.31 2838.04 5842.53 2914.17C5658.75 2990.29 5461.78 3029.47 5262.87 3029.47L5262.87 1514.73H6777.6Z" fill="#FC6212"/>
<path d="M6777.6 1514.73C6777.6 1780.63 6707.61 2041.83 6574.66 2272.1C6441.72 2502.37 6250.5 2693.59 6020.23 2826.53L5262.87 1514.73H6777.6Z" fill="#F79F23"/>
<path d="M6777.6 1514.73C6777.6 1780.63 6707.61 2041.83 6574.66 2272.1L5262.87 1514.73H6777.6Z" fill="#FAC713"/>
<g style="mix-blend-mode:hue">
<circle cx="5263.13" cy="1514.73" r="1514.73" fill="white"/>
</g>
</g>
<defs>
<clipPath id="clip0_1784_2699">
<rect width="6777.38" height="3252" fill="white" transform="translate(0.492188)"/>
</clipPath>
</defs>
</svg>
