<svg width="790" height="1071" viewBox="0 0 790 1071" fill="none" xmlns="http://www.w3.org/2000/svg">
<g clip-path="url(#clip0_1765_2387)">
<rect x="0.679688" y="0.949219" width="788.695" height="1069.59" fill="#E7FFFD"/>
<line x1="56.0006" y1="2.49902" x2="56.0005" y2="1070.54" stroke="#006CB4" stroke-width="0.782435"/>
<line x1="27.9381" y1="2.49902" x2="27.938" y2="1070.54" stroke="#006CB4" stroke-width="0.782435"/>
<line x1="409.68" y1="2.49902" x2="409.68" y2="1070.54" stroke="#006CB4" stroke-width="0.782435"/>
<line x1="381.594" y1="2.49902" x2="381.594" y2="1070.54" stroke="#006CB4" stroke-width="0.782435"/>
<line x1="232.837" y1="2.49902" x2="232.836" y2="1070.54" stroke="#006CB4" stroke-width="0.782435"/>
<line x1="204.766" y1="2.49902" x2="204.766" y2="1070.54" stroke="#006CB4" stroke-width="0.782435"/>
<line x1="760.672" y1="0.949219" x2="760.672" y2="1068.99" stroke="#006CB4" stroke-width="0.782435"/>
<line x1="735.258" y1="2.49902" x2="735.258" y2="1070.54" stroke="#006CB4" stroke-width="0.782435"/>
<line x1="586.493" y1="2.49902" x2="586.493" y2="1070.54" stroke="#006CB4" stroke-width="0.782435"/>
<line x1="558.43" y1="2.49902" x2="558.43" y2="1070.54" stroke="#006CB4" stroke-width="0.782435"/>
<line x1="789.383" y1="56.608" x2="0.688232" y2="56.608" stroke="#006CB4" stroke-width="0.782435"/>
<line x1="789.383" y1="29.4781" x2="0.688232" y2="29.4781" stroke="#006CB4" stroke-width="0.782435"/>
<line x1="789.383" y1="451.158" x2="0.688232" y2="451.158" stroke="#006CB4" stroke-width="0.782435"/>
<line x1="789.383" y1="424.03" x2="0.688232" y2="424.03" stroke="#006CB4" stroke-width="0.782435"/>
<line x1="789.383" y1="648.434" x2="0.688232" y2="648.434" stroke="#006CB4" stroke-width="0.782435"/>
<line x1="789.383" y1="621.305" x2="0.688232" y2="621.305" stroke="#006CB4" stroke-width="0.782435"/>
<line x1="789.383" y1="845.71" x2="0.688232" y2="845.71" stroke="#006CB4" stroke-width="0.782435"/>
<line x1="789.383" y1="818.582" x2="0.688232" y2="818.582" stroke="#006CB4" stroke-width="0.782435"/>
<line x1="789.383" y1="253.883" x2="0.688232" y2="253.883" stroke="#006CB4" stroke-width="0.782435"/>
<line x1="789.383" y1="226.754" x2="0.688232" y2="226.755" stroke="#006CB4" stroke-width="0.782435"/>
<line x1="789.383" y1="1042.98" x2="0.688232" y2="1042.98" stroke="#006CB4" stroke-width="0.782435"/>
<line x1="789.383" y1="1015.86" x2="0.688232" y2="1015.86" stroke="#006CB4" stroke-width="0.782435"/>
<rect x="14.7635" y="15.0331" width="760.527" height="1041.42" stroke="#FF0000" stroke-opacity="0.2" stroke-width="28.1677"/>
</g>
<rect x="0.875296" y="1.14483" width="788.303" height="1069.2" stroke="#006CB4" stroke-width="0.391218"/>
<defs>
<clipPath id="clip0_1765_2387">
<rect x="0.679688" y="0.949219" width="788.695" height="1069.59" fill="white"/>
</clipPath>
</defs>
</svg>
