<svg width="4308" height="2879" viewBox="0 0 4308 2879" fill="none" xmlns="http://www.w3.org/2000/svg">
<g clip-path="url(#clip0_1785_2714)">
<rect x="-18.9766" y="2879" width="959.667" height="1310.01" transform="rotate(-90 -18.9766 2879)" fill="#FEEF01"/>
<rect x="-18.9766" y="1919.33" width="959.667" height="1310.01" transform="rotate(-90 -18.9766 1919.33)" fill="#D2298E"/>
<rect x="-18.9766" y="959.668" width="959.667" height="1310.01" transform="rotate(-90 -18.9766 959.668)" fill="#7420B0"/>
<path d="M3711.7 1512.92C3711.7 1623.49 3689.92 1732.97 3647.61 1835.12C3605.3 1937.27 3543.28 2030.09 3465.1 2108.27L2869.74 1512.92H3711.7Z" fill="#D9D9D9"/>
<circle cx="2869.74" cy="1512.92" r="841.959" fill="#FEEF01"/>
<path d="M3711.7 1512.92C3711.7 1717.19 3637.44 1914.49 3502.76 2068.06C3368.08 2221.64 3182.16 2321.01 2979.64 2347.68C2777.12 2374.34 2571.81 2326.47 2401.97 2212.98C2232.13 2099.5 2109.34 1928.14 2056.47 1730.84C2003.6 1533.53 2024.27 1323.73 2114.61 1140.53C2204.95 957.33 2358.82 813.221 2547.54 735.051C2736.25 656.882 2946.95 649.984 3140.38 715.644C3333.8 781.303 3496.76 915.041 3598.9 1091.94L2869.74 1512.92H3711.7Z" fill="#7FD200"/>
<path d="M3711.7 1512.92C3711.7 1698.26 3650.54 1878.43 3537.71 2025.47C3424.88 2172.52 3266.68 2278.22 3087.66 2326.19C2908.63 2374.16 2718.77 2361.72 2547.54 2290.79C2376.3 2219.86 2233.25 2094.41 2140.58 1933.9C2047.91 1773.39 2010.79 1586.78 2034.98 1403.02C2059.18 1219.26 2143.33 1048.62 2274.39 917.565C2405.44 786.507 2576.08 702.356 2759.84 678.164C2943.6 653.972 3130.21 691.09 3290.72 783.762L2869.74 1512.92H3711.7Z" fill="#00B500"/>
<path d="M3711.7 1512.92C3711.7 1679.44 3662.32 1842.23 3569.8 1980.69C3477.29 2119.15 3345.79 2227.06 3191.94 2290.79C3038.1 2354.51 2868.81 2371.19 2705.48 2338.7C2542.16 2306.21 2392.14 2226.02 2274.39 2108.27C2156.64 1990.52 2076.45 1840.5 2043.96 1677.18C2011.47 1513.85 2028.15 1344.56 2091.87 1190.72C2155.6 1036.87 2263.51 905.372 2401.97 812.857C2540.43 720.341 2703.22 670.961 2869.74 670.961L2869.74 1512.92H3711.7Z" fill="#00C2AF"/>
<path d="M3711.7 1512.92C3711.7 1660.71 3672.8 1805.91 3598.9 1933.9C3525 2061.89 3418.71 2168.18 3290.72 2242.08C3162.73 2315.98 3017.53 2354.88 2869.74 2354.88C2721.95 2354.88 2576.75 2315.98 2448.76 2242.08C2320.77 2168.18 2214.48 2061.89 2140.58 1933.9C2066.69 1805.91 2027.78 1660.71 2027.78 1512.92C2027.78 1365.13 2066.69 1219.93 2140.58 1091.94C2214.48 963.946 2320.77 857.659 2448.76 783.762L2869.74 1512.92H3711.7Z" fill="#0170C4"/>
<path d="M3711.7 1512.92C3711.7 1642.07 3681.99 1769.48 3624.87 1885.31C3567.75 2001.14 3484.75 2102.27 3382.29 2180.89C3279.83 2259.51 3160.66 2313.51 3034 2338.7C2907.33 2363.9 2776.57 2359.62 2651.83 2326.19C2527.08 2292.76 2411.7 2231.09 2314.6 2145.94C2217.5 2060.79 2141.29 1954.44 2091.87 1835.12C2042.45 1715.81 2021.14 1586.72 2029.58 1457.85C2038.03 1328.98 2076.01 1203.78 2140.58 1091.94L2869.74 1512.92H3711.7Z" fill="#3A48B9"/>
<path d="M3711.7 1512.92C3711.7 1736.22 3622.99 1950.38 3465.1 2108.27C3307.2 2266.17 3093.04 2354.88 2869.74 2354.88C2646.44 2354.88 2432.28 2266.17 2274.39 2108.27C2116.49 1950.38 2027.78 1736.22 2027.78 1512.92L2869.74 1512.92H3711.7Z" fill="#7420B0"/>
<path d="M3711.7 1512.92C3711.7 1698.26 3650.54 1878.43 3537.71 2025.47C3424.88 2172.52 3266.68 2278.22 3087.66 2326.19C2908.63 2374.16 2718.77 2361.72 2547.54 2290.79C2376.3 2219.86 2233.25 2094.41 2140.58 1933.9L2869.74 1512.92H3711.7Z" fill="#D2298E"/>
<path d="M3711.7 1512.92C3711.7 1660.71 3672.8 1805.91 3598.9 1933.9C3525 2061.89 3418.71 2168.18 3290.72 2242.08C3162.73 2315.98 3017.53 2354.88 2869.74 2354.88C2721.95 2354.88 2576.75 2315.98 2448.76 2242.08L2869.74 1512.92H3711.7Z" fill="#FF2600"/>
<path d="M3711.7 1512.92C3711.7 1623.49 3689.92 1732.97 3647.61 1835.12C3605.3 1937.27 3543.28 2030.09 3465.1 2108.27C3386.91 2186.46 3294.1 2248.48 3191.94 2290.79C3089.79 2333.1 2980.31 2354.88 2869.74 2354.88L2869.74 1512.92H3711.7Z" fill="#FC6212"/>
<path d="M3711.7 1512.92C3711.7 1660.71 3672.8 1805.91 3598.9 1933.9C3525 2061.89 3418.71 2168.18 3290.72 2242.08L2869.74 1512.92H3711.7Z" fill="#F79F23"/>
<path d="M3711.7 1512.92C3711.7 1660.71 3672.8 1805.91 3598.9 1933.9L2869.74 1512.92H3711.7Z" fill="#FAC713"/>
<path d="M2088.24 2120.86L1902.99 1606.26L3919.64 1170.94L2088.24 2120.86Z" stroke="black" stroke-width="6"/>
<circle cx="1770.81" cy="1616.82" r="49.4023" transform="rotate(0.919457 1770.81 1616.82)" fill="#7420B0"/>
<circle cx="4004.92" cy="1146.17" r="49.4023" transform="rotate(0.919457 4004.92 1146.17)" fill="#FEEF01"/>
<circle cx="2028.74" cy="2218.7" r="49.4023" transform="rotate(0.919457 2028.74 2218.7)" fill="#D2298E"/>
</g>
<defs>
<clipPath id="clip0_1785_2714">
<rect width="4308" height="2879" fill="white"/>
</clipPath>
</defs>
</svg>
