<svg width="4256" height="1579" viewBox="0 0 4256 1579" fill="none" xmlns="http://www.w3.org/2000/svg">
<g clip-path="url(#clip0_1783_2697)">
<rect width="4256" height="1579" fill="#A5C5B5"/>
<path d="M421.826 1284.5H197.406L539.357 293.953H809.242L1150.71 1284.5H926.289L678.169 520.309H670.43L421.826 1284.5ZM407.8 895.149H937.897V1058.63H407.8V895.149ZM1477.91 1298.53C1430.51 1298.53 1388.27 1290.3 1351.19 1273.86C1314.11 1257.09 1284.77 1232.43 1263.16 1199.86C1241.88 1166.97 1231.24 1126.02 1231.24 1077.01C1231.24 1035.73 1238.82 1001.07 1253.97 973.019C1269.13 944.967 1289.76 922.396 1315.88 905.306C1342 888.217 1371.66 875.319 1404.88 866.613C1438.41 857.907 1473.56 851.781 1510.32 848.234C1553.52 843.72 1588.35 839.528 1614.79 835.658C1641.23 831.467 1660.41 825.34 1672.34 817.279C1684.27 809.218 1690.24 797.288 1690.24 781.488V778.586C1690.24 747.954 1680.57 724.254 1661.22 707.487C1642.19 690.72 1615.11 682.336 1579.96 682.336C1542.88 682.336 1513.38 690.559 1491.45 707.003C1469.53 723.126 1455.02 743.44 1447.92 767.945L1257.36 752.468C1267.03 707.326 1286.06 668.31 1314.43 635.421C1342.81 602.209 1379.4 576.736 1424.22 559.002C1469.37 540.945 1521.6 531.917 1580.93 531.917C1622.2 531.917 1661.7 536.753 1699.43 546.426C1737.48 556.1 1771.17 571.093 1800.51 591.407C1830.18 611.721 1853.56 637.839 1870.65 669.761C1887.74 701.361 1896.28 739.248 1896.28 783.423V1284.5H1700.88V1181.48H1695.08C1683.15 1204.7 1667.18 1225.17 1647.19 1242.9C1627.2 1260.32 1603.18 1274.02 1575.13 1284.02C1547.07 1293.69 1514.67 1298.53 1477.91 1298.53ZM1536.92 1156.33C1567.23 1156.33 1593.99 1150.36 1617.21 1138.43C1640.42 1126.18 1658.64 1109.74 1671.86 1089.1C1685.08 1068.46 1691.69 1045.09 1691.69 1018.97V940.13C1685.24 944.322 1676.37 948.191 1665.09 951.738C1654.13 954.963 1641.71 958.026 1627.85 960.928C1613.98 963.507 1600.12 965.926 1586.25 968.183C1572.39 970.117 1559.81 971.891 1548.53 973.503C1524.34 977.05 1503.22 982.693 1485.16 990.431C1467.11 998.17 1453.08 1008.65 1443.09 1021.87C1433.09 1034.77 1428.09 1050.89 1428.09 1070.24C1428.09 1098.29 1438.25 1119.73 1458.56 1134.56C1479.2 1149.07 1505.32 1156.33 1536.92 1156.33ZM2154.08 935.409V1284.5H2080.27V1005.47H2078.23L1998.28 1055.58V990.125L2084.7 935.409H2154.08ZM2261.42 1288.93C2250.17 1288.93 2240.51 1284.95 2232.45 1277C2224.49 1268.93 2220.51 1259.27 2220.51 1248.02C2220.51 1236.89 2224.49 1227.34 2232.45 1219.39C2240.51 1211.43 2250.17 1207.45 2261.42 1207.45C2272.33 1207.45 2281.88 1211.43 2290.06 1219.39C2298.24 1227.34 2302.33 1236.89 2302.33 1248.02C2302.33 1255.52 2300.4 1262.4 2296.54 1268.65C2292.79 1274.78 2287.84 1279.73 2281.71 1283.48C2275.57 1287.11 2268.81 1288.93 2261.42 1288.93ZM2469.55 935.409V1284.5H2395.74V1005.47H2393.7L2313.75 1055.58V990.125L2400.17 935.409H2469.55ZM2566.32 1284.5L2711.04 998.136V995.75H2542.46V935.409H2787.4V996.602L2642.52 1284.5H2566.32ZM2832.45 1284.5V1022.68H3005.8V1068.32H2887.8V1130.71H2994.29V1176.35H2887.8V1284.5H2832.45ZM3095.54 1288.21C3083.01 1288.21 3071.85 1286.03 3062.05 1281.69C3052.25 1277.26 3044.49 1270.74 3038.78 1262.13C3033.16 1253.43 3030.34 1242.61 3030.34 1229.66C3030.34 1218.75 3032.35 1209.59 3036.35 1202.17C3040.36 1194.76 3045.81 1188.79 3052.72 1184.27C3059.62 1179.76 3067.46 1176.35 3076.24 1174.05C3085.1 1171.74 3094.39 1170.12 3104.11 1169.19C3115.53 1167.99 3124.73 1166.89 3131.72 1165.86C3138.71 1164.76 3143.78 1163.14 3146.93 1161.01C3150.09 1158.87 3151.66 1155.72 3151.66 1151.55V1150.78C3151.66 1142.68 3149.11 1136.42 3143.99 1131.99C3138.97 1127.55 3131.81 1125.34 3122.52 1125.34C3112.72 1125.34 3104.92 1127.51 3099.12 1131.86C3093.33 1136.12 3089.49 1141.49 3087.62 1147.97L3037.25 1143.88C3039.8 1131.94 3044.83 1121.63 3052.33 1112.94C3059.83 1104.16 3069.51 1097.43 3081.35 1092.74C3093.28 1087.97 3107.09 1085.58 3122.77 1085.58C3133.68 1085.58 3144.12 1086.86 3154.09 1089.41C3164.15 1091.97 3173.06 1095.93 3180.81 1101.3C3188.65 1106.67 3194.83 1113.58 3199.35 1122.01C3203.87 1130.37 3206.12 1140.38 3206.12 1152.06V1284.5H3154.48V1257.27H3152.94C3149.79 1263.41 3145.57 1268.82 3140.29 1273.51C3135 1278.11 3128.65 1281.73 3121.24 1284.37C3113.82 1286.93 3105.26 1288.21 3095.54 1288.21ZM3111.14 1250.62C3119.15 1250.62 3126.22 1249.05 3132.36 1245.89C3138.5 1242.65 3143.31 1238.31 3146.81 1232.85C3150.3 1227.4 3152.05 1221.22 3152.05 1214.32V1193.48C3150.34 1194.59 3148 1195.61 3145.02 1196.55C3142.12 1197.4 3138.84 1198.21 3135.17 1198.97C3131.51 1199.66 3127.84 1200.3 3124.18 1200.89C3120.51 1201.4 3117.19 1201.87 3114.21 1202.3C3107.82 1203.24 3102.23 1204.73 3097.46 1206.77C3092.69 1208.82 3088.98 1211.59 3086.34 1215.08C3083.7 1218.49 3082.37 1222.75 3082.37 1227.87C3082.37 1235.28 3085.06 1240.95 3090.43 1244.87C3095.88 1248.7 3102.79 1250.62 3111.14 1250.62ZM3248.38 1284.5V1088.14H3302.84V1284.5H3248.38ZM3275.73 1062.82C3267.64 1062.82 3260.69 1060.14 3254.9 1054.77C3249.19 1049.32 3246.33 1042.8 3246.33 1035.21C3246.33 1027.71 3249.19 1021.28 3254.9 1015.91C3260.69 1010.45 3267.64 1007.72 3275.73 1007.72C3283.83 1007.72 3290.73 1010.45 3296.44 1015.91C3302.24 1021.28 3305.14 1027.71 3305.14 1035.21C3305.14 1042.8 3302.24 1049.32 3296.44 1054.77C3290.73 1060.14 3283.83 1062.82 3275.73 1062.82ZM3400.92 1022.68V1284.5H3346.46V1022.68H3400.92Z" fill="#C8D60F"/>
</g>
<defs>
<clipPath id="clip0_1783_2697">
<rect width="4256" height="1579" fill="white"/>
</clipPath>
</defs>
</svg>
