<svg width="3926" height="1201" viewBox="0 0 3926 1201" fill="none" xmlns="http://www.w3.org/2000/svg">
<g clip-path="url(#clip0_1783_2693)">
<path d="M256.826 1032H32.4056L374.357 41.4531H644.242L985.71 1032H761.289L513.169 267.809H505.43L256.826 1032ZM242.8 642.649H772.897V806.128H242.8V642.649ZM1312.91 1046.03C1265.51 1046.03 1223.27 1037.8 1186.19 1021.36C1149.11 1004.59 1119.77 979.925 1098.16 947.359C1076.88 914.469 1066.24 873.519 1066.24 824.508C1066.24 783.235 1073.82 748.572 1088.97 720.519C1104.13 692.467 1124.76 669.896 1150.88 652.806C1177 635.717 1206.66 622.819 1239.88 614.113C1273.41 605.407 1308.56 599.281 1345.32 595.734C1388.52 591.22 1423.35 587.028 1449.79 583.158C1476.23 578.967 1495.41 572.84 1507.34 564.779C1519.27 556.718 1525.24 544.788 1525.24 528.988V526.086C1525.24 495.454 1515.57 471.754 1496.22 454.987C1477.19 438.22 1450.11 429.836 1414.96 429.836C1377.88 429.836 1348.38 438.059 1326.45 454.503C1304.53 470.626 1290.02 490.94 1282.92 515.445L1092.36 499.968C1102.03 454.826 1121.06 415.81 1149.43 382.921C1177.81 349.709 1214.4 324.236 1259.22 306.502C1304.37 288.445 1356.6 279.417 1415.93 279.417C1457.2 279.417 1496.7 284.253 1534.43 293.926C1572.48 303.6 1606.17 318.593 1635.51 338.907C1665.18 359.221 1688.56 385.339 1705.65 417.261C1722.74 448.861 1731.28 486.748 1731.28 530.923V1032H1535.88V928.979H1530.08C1518.15 952.195 1502.18 972.67 1482.19 990.405C1462.2 1007.82 1438.18 1021.52 1410.13 1031.52C1382.07 1041.19 1349.67 1046.03 1312.91 1046.03ZM1371.92 903.829C1402.23 903.829 1428.99 897.863 1452.21 885.933C1475.42 873.68 1493.64 857.236 1506.86 836.599C1520.08 815.963 1526.69 792.586 1526.69 766.468V687.63C1520.24 691.822 1511.37 695.691 1500.09 699.238C1489.13 702.463 1476.71 705.526 1462.85 708.428C1448.98 711.007 1435.12 713.426 1421.25 715.683C1407.39 717.617 1394.81 719.391 1383.53 721.003C1359.34 724.55 1338.22 730.193 1320.16 737.931C1302.11 745.67 1288.08 756.149 1278.09 769.37C1268.09 782.267 1263.09 798.39 1263.09 817.736C1263.09 845.789 1273.25 867.231 1293.56 882.064C1314.2 896.574 1340.32 903.829 1371.92 903.829ZM1837.2 1032V978.818L1961.47 863.761C1972.03 853.534 1980.9 844.33 1988.06 836.148C1995.33 827.966 2000.84 819.955 2004.59 812.114C2008.34 804.159 2010.22 795.58 2010.22 786.375C2010.22 776.148 2007.89 767.341 2003.23 759.955C1998.57 752.455 1992.2 746.716 1984.14 742.739C1976.07 738.648 1966.92 736.602 1956.69 736.602C1946.01 736.602 1936.69 738.761 1928.74 743.08C1920.78 747.398 1914.65 753.591 1910.33 761.659C1906.01 769.727 1903.85 779.33 1903.85 790.466H1833.8C1833.8 767.625 1838.97 747.795 1849.31 730.977C1859.65 714.159 1874.14 701.148 1892.77 691.943C1911.41 682.739 1932.89 678.136 1957.2 678.136C1982.2 678.136 2003.97 682.568 2022.49 691.432C2041.12 700.182 2055.61 712.341 2065.95 727.909C2076.3 743.477 2081.47 761.318 2081.47 781.432C2081.47 794.614 2078.85 807.625 2073.62 820.466C2068.51 833.307 2059.36 847.568 2046.18 863.25C2033 878.818 2014.42 897.511 1990.44 919.33L1939.48 969.273V971.659H2086.07V1032H1837.2ZM2291.42 682.909V1032H2217.62V752.966H2215.57L2135.63 803.08V737.625L2222.05 682.909H2291.42ZM2398.77 1036.43C2387.52 1036.43 2377.86 1032.45 2369.79 1024.5C2361.84 1016.43 2357.86 1006.77 2357.86 995.523C2357.86 984.386 2361.84 974.841 2369.79 966.886C2377.86 958.932 2387.52 954.955 2398.77 954.955C2409.68 954.955 2419.22 958.932 2427.4 966.886C2435.59 974.841 2439.68 984.386 2439.68 995.523C2439.68 1003.02 2437.74 1009.9 2433.88 1016.15C2430.13 1022.28 2425.19 1027.23 2419.05 1030.98C2412.91 1034.61 2406.15 1036.43 2398.77 1036.43ZM2621.42 1039.67C2592.1 1039.56 2566.88 1032.34 2545.74 1018.02C2524.72 1003.7 2508.53 982.966 2497.16 955.807C2485.91 928.648 2480.34 895.977 2480.46 857.795C2480.46 819.727 2486.08 787.284 2497.33 760.466C2508.7 733.648 2524.89 713.25 2545.91 699.273C2567.05 685.182 2592.22 678.136 2621.42 678.136C2650.63 678.136 2675.74 685.182 2696.76 699.273C2717.9 713.364 2734.15 733.818 2745.51 760.636C2756.88 787.341 2762.5 819.727 2762.39 857.795C2762.39 896.091 2756.71 928.818 2745.34 955.977C2734.09 983.136 2717.96 1003.87 2696.93 1018.19C2675.91 1032.51 2650.74 1039.67 2621.42 1039.67ZM2621.42 978.477C2641.42 978.477 2657.39 968.42 2669.32 948.307C2681.25 928.193 2687.16 898.023 2687.05 857.795C2687.05 831.318 2684.32 809.273 2678.87 791.659C2673.53 774.045 2665.91 760.807 2656.03 751.943C2646.25 743.08 2634.72 738.648 2621.42 738.648C2601.54 738.648 2585.63 748.591 2573.7 768.477C2561.76 788.364 2555.74 818.136 2555.63 857.795C2555.63 884.614 2558.3 907 2563.64 924.955C2569.09 942.795 2576.76 956.205 2586.65 965.182C2596.54 974.045 2608.13 978.477 2621.42 978.477ZM2951.89 1039.67C2922.57 1039.56 2897.35 1032.34 2876.21 1018.02C2855.19 1003.7 2838.99 982.966 2827.63 955.807C2816.38 928.648 2810.81 895.977 2810.93 857.795C2810.93 819.727 2816.55 787.284 2827.8 760.466C2839.16 733.648 2855.36 713.25 2876.38 699.273C2897.52 685.182 2922.69 678.136 2951.89 678.136C2981.1 678.136 3006.21 685.182 3027.23 699.273C3048.37 713.364 3064.62 733.818 3075.98 760.636C3087.35 787.341 3092.97 819.727 3092.86 857.795C3092.86 896.091 3087.18 928.818 3075.81 955.977C3064.56 983.136 3048.43 1003.87 3027.4 1018.19C3006.38 1032.51 2981.21 1039.67 2951.89 1039.67ZM2951.89 978.477C2971.89 978.477 2987.86 968.42 2999.79 948.307C3011.72 928.193 3017.63 898.023 3017.52 857.795C3017.52 831.318 3014.79 809.273 3009.34 791.659C3003.99 774.045 2996.38 760.807 2986.49 751.943C2976.72 743.08 2965.19 738.648 2951.89 738.648C2932.01 738.648 2916.1 748.591 2904.16 768.477C2892.23 788.364 2886.21 818.136 2886.1 857.795C2886.1 884.614 2888.77 907 2894.11 924.955C2899.56 942.795 2907.23 956.205 2917.12 965.182C2927.01 974.045 2938.6 978.477 2951.89 978.477ZM3185.07 1032H3125.76L3216.14 770.182H3287.47L3377.73 1032H3318.41L3252.83 830.011H3250.78L3185.07 1032ZM3181.37 929.088H3321.48V972.298H3181.37V929.088ZM3454.37 1032H3395.05L3485.44 770.182H3556.77L3647.03 1032H3587.71L3522.13 830.011H3520.08L3454.37 1032ZM3450.66 929.088H3590.78V972.298H3450.66V929.088ZM3723.67 1032H3664.35L3754.73 770.182H3826.07L3916.32 1032H3857.01L3791.42 830.011H3789.38L3723.67 1032ZM3719.96 929.088H3860.07V972.298H3719.96V929.088Z" fill="black"/>
</g>
<defs>
<clipPath id="clip0_1783_2693">
<rect width="3926" height="1201" fill="white"/>
</clipPath>
</defs>
</svg>
