<svg width="137" height="52" viewBox="0 0 137 52" fill="none" xmlns="http://www.w3.org/2000/svg">
<path d="M35.7566 13.6884C35.0913 13.6884 34.4441 13.5956 33.8151 13.4101C33.1906 13.22 32.6452 12.9439 32.1791 12.5819L32.8986 11.3668C33.3195 11.6835 33.7744 11.9166 34.2631 12.066C34.7564 12.2108 35.2633 12.2832 35.7837 12.2832C36.4716 12.2832 37.0667 12.1474 37.5691 11.8759C38.076 11.5998 38.4652 11.1925 38.7367 10.654C39.0082 10.1154 39.144 9.44336 39.144 8.6378C39.144 7.89107 39.006 7.25975 38.7299 6.74383C38.4584 6.22791 38.0737 5.83644 37.5759 5.56943C37.0826 5.30242 36.5033 5.16891 35.838 5.16891C35.3085 5.16891 34.822 5.23906 34.3785 5.37936C33.9395 5.51965 33.5481 5.73009 33.2041 6.01068L32.4778 4.89059C32.8805 4.54212 33.3716 4.27058 33.9509 4.07598C34.5301 3.87685 35.1728 3.77729 35.8788 3.77729C36.8291 3.77729 37.6596 3.98094 38.3701 4.38825C39.0852 4.79103 39.6396 5.35673 40.0333 6.08535C40.4315 6.81398 40.6307 7.66253 40.6307 8.63101C40.6307 9.40037 40.513 10.0973 40.2777 10.7219C40.0469 11.3464 39.7142 11.8804 39.2798 12.3239C38.8498 12.7629 38.3362 13.1001 37.7388 13.3354C37.1459 13.5707 36.4852 13.6884 35.7566 13.6884ZM34.0459 9.13336V7.90465H39.5174V9.13336H34.0459ZM42.3178 13.4847V6.7642H43.8113V9.35738H47.1783V6.7642H48.6718V13.4847H47.1783V10.5929H43.8113V13.4847H42.3178ZM50.7503 13.4847V6.7642H52.2438V12.2492H55.4547V6.7642H56.9481V13.4847H50.7503ZM57.3011 15.5213V13.4847H56.2014V12.2492H58.6724V15.5213H57.3011ZM59.9916 13.4847V6.7642H61.4375V11.2989L65.0829 6.7642H66.3863V13.4847H64.9471V8.89576L61.2678 13.4847H59.9916ZM72.9307 13.4847L70.7041 9.91403L72.7745 6.7642H74.3698L72.3129 9.84614L74.716 13.4847H72.9307ZM68.4639 13.4847V6.7642H69.9573V9.35738H71.9803V10.5929H69.9573V13.4847H68.4639ZM75.7902 13.6001L75.2675 12.256C75.7291 12.1384 76.0662 11.9528 76.2789 11.6994C76.4962 11.4459 76.6319 11.093 76.6862 10.6404C76.7451 10.1878 76.7745 9.60402 76.7745 8.88897V6.7642H82.2392V13.4847H80.7457V7.99969H78.1661V8.88897C78.1661 9.60855 78.1322 10.2353 78.0643 10.7694C78.0009 11.3034 77.8833 11.7582 77.7113 12.1338C77.5393 12.5095 77.2972 12.8172 76.9849 13.0571C76.6772 13.2924 76.2789 13.4734 75.7902 13.6001ZM87.3828 13.6884C86.6813 13.6884 86.0545 13.5277 85.5024 13.2064C84.9548 12.8806 84.5249 12.4484 84.2126 11.9098C83.9003 11.3668 83.7442 10.7716 83.7442 10.1245C83.7442 9.64475 83.8324 9.19219 84.0089 8.76678C84.19 8.33685 84.4434 7.9567 84.7693 7.62633C85.0996 7.29596 85.4866 7.03573 85.9301 6.84566C86.3736 6.65558 86.8601 6.56054 87.3896 6.56054C88.0911 6.56054 88.7156 6.72346 89.2632 7.04931C89.8153 7.37063 90.2475 7.80283 90.5598 8.3459C90.872 8.88445 91.0282 9.4773 91.0282 10.1245C91.0282 10.5997 90.9377 11.0522 90.7566 11.4822C90.5801 11.9121 90.329 12.2922 90.0031 12.6226C89.6773 12.953 89.2926 13.2132 88.8491 13.4033C88.4056 13.5934 87.9168 13.6884 87.3828 13.6884ZM87.3828 12.3647C87.7992 12.3647 88.168 12.2741 88.4893 12.0931C88.8152 11.9076 89.0709 11.6473 89.2564 11.3124C89.442 10.9775 89.5347 10.5816 89.5347 10.1245C89.5347 9.66738 89.442 9.27139 89.2564 8.93649C89.0709 8.59707 88.8152 8.33685 88.4893 8.15582C88.168 7.9748 87.7992 7.88429 87.3828 7.88429C86.9664 7.88429 86.5953 7.9748 86.2695 8.15582C85.9482 8.33685 85.6947 8.59707 85.5092 8.93649C85.3282 9.27139 85.2377 9.66738 85.2377 10.1245C85.2377 10.5816 85.3304 10.9775 85.516 11.3124C85.7015 11.6473 85.955 11.9076 86.2763 12.0931C86.6021 12.2741 86.971 12.3647 87.3828 12.3647ZM92.5283 13.4847V6.7642H98.8755V13.4847H97.382V7.99969H94.0218V13.4847H92.5283ZM104.016 13.6884C103.292 13.6884 102.656 13.5413 102.108 13.2471C101.561 12.9485 101.133 12.5321 100.825 11.9981C100.522 11.4641 100.371 10.844 100.371 10.138C100.371 9.62212 100.459 9.14693 100.635 8.71248C100.812 8.27349 101.061 7.89334 101.382 7.57202C101.703 7.2507 102.079 7.00179 102.509 6.82529C102.943 6.64879 103.416 6.56054 103.928 6.56054C104.484 6.56054 104.98 6.66011 105.414 6.85923C105.849 7.05384 106.209 7.32764 106.494 7.68063C106.783 8.03363 106.987 8.44773 107.105 8.92292C107.227 9.39358 107.247 9.90498 107.166 10.4571H101.803C101.794 10.8599 101.882 11.2129 102.068 11.5161C102.253 11.8148 102.518 12.0479 102.862 12.2153C103.21 12.3828 103.62 12.4665 104.091 12.4665C104.471 12.4665 104.837 12.4099 105.19 12.2968C105.548 12.1791 105.871 12.0071 106.161 11.7808L106.738 12.8534C106.521 13.0299 106.258 13.1815 105.951 13.3082C105.643 13.4304 105.322 13.5232 104.987 13.5866C104.652 13.6545 104.328 13.6884 104.016 13.6884ZM101.891 9.35738H105.699C105.686 8.85051 105.523 8.45225 105.211 8.16261C104.903 7.87297 104.464 7.72815 103.894 7.72815C103.342 7.72815 102.882 7.87297 102.516 8.16261C102.154 8.45225 101.945 8.85051 101.891 9.35738ZM113.598 13.4847V7.99969H110.883V8.88897C110.883 9.49993 110.846 10.0521 110.774 10.5454C110.702 11.0386 110.573 11.4731 110.387 11.8487C110.202 12.2198 109.941 12.5276 109.606 12.772C109.276 13.0163 108.853 13.1951 108.337 13.3082L107.97 12.2968C108.4 12.1927 108.724 11.9981 108.941 11.713C109.158 11.4278 109.303 11.0522 109.376 10.5861C109.453 10.1154 109.491 9.54971 109.491 8.88897V6.7642H115.091V13.4847H113.598ZM107.97 15.5213V12.2968L108.894 12.3918L109.124 12.2492H116.442V15.5213H115.078V13.4847H109.335V15.5213H107.97ZM117.76 13.4847V6.7642H119.205V11.2989L122.851 6.7642H124.154V13.4847H122.715V8.89576L119.036 13.4847H117.76ZM125.763 13.4847L128.343 10.043L128.669 11.007C128.112 11.0115 127.637 10.93 127.243 10.7626C126.85 10.5906 126.549 10.3507 126.34 10.043C126.137 9.73074 126.035 9.3619 126.035 8.93649C126.035 8.47941 126.15 8.0902 126.381 7.76888C126.612 7.44304 126.938 7.19413 127.359 7.02216C127.78 6.85018 128.273 6.7642 128.839 6.7642H131.737V13.4847H130.298V7.89786H128.988C128.508 7.89786 128.144 7.98159 127.895 8.14904C127.651 8.31648 127.528 8.56766 127.528 8.90255C127.528 9.2284 127.642 9.48183 127.868 9.66286C128.099 9.83935 128.431 9.9276 128.866 9.9276H130.488V11.0138H129.307L127.467 13.4847H125.763ZM33.048 30.4847V20.9809H34.5686V24.7553H39.1712V20.9809H40.6918V30.4847H39.1712V26.1537H34.5686V30.4847H33.048ZM45.8118 30.6884C45.142 30.6884 44.5492 30.5345 44.0333 30.2268C43.5219 29.9145 43.1191 29.4914 42.8249 28.9573C42.5353 28.4188 42.3905 27.8078 42.3905 27.1245C42.3905 26.6131 42.4742 26.1401 42.6416 25.7057C42.8091 25.2712 43.0444 24.8933 43.3476 24.572C43.6508 24.2507 44.0129 24.0018 44.4338 23.8253C44.8547 23.6488 45.314 23.5605 45.8118 23.5605C46.4726 23.5605 47.0247 23.7008 47.4682 23.9814C47.9162 24.262 48.2579 24.6241 48.4933 25.0676L48.2828 25.3866V23.7642H49.6134V30.4847H48.2828V28.8623L48.4933 29.1814C48.2579 29.6249 47.9162 29.9869 47.4682 30.2675C47.0247 30.5481 46.4726 30.6884 45.8118 30.6884ZM46.0087 29.3647C46.416 29.3647 46.7803 29.2741 47.1016 29.0931C47.423 28.9076 47.6741 28.6473 47.8552 28.3124C48.0407 27.9775 48.1335 27.5816 48.1335 27.1245C48.1335 26.6674 48.0407 26.2714 47.8552 25.9365C47.6741 25.5971 47.423 25.3368 47.1016 25.1558C46.7803 24.9748 46.416 24.8843 46.0087 24.8843C45.5969 24.8843 45.2303 24.9748 44.909 25.1558C44.5922 25.3368 44.341 25.5971 44.1555 25.9365C43.9699 26.2714 43.8771 26.6674 43.8771 27.1245C43.8771 27.5816 43.9699 27.9775 44.1555 28.3124C44.341 28.6473 44.5922 28.9076 44.909 29.0931C45.2303 29.2741 45.5969 29.3647 46.0087 29.3647ZM52.2687 33.526C52.0243 33.526 51.7844 33.4988 51.5491 33.4445C51.3138 33.3902 51.083 33.2974 50.8567 33.1662L51.1961 31.8899C51.3364 31.9805 51.4903 32.0483 51.6577 32.0936C51.8252 32.1389 51.9745 32.1615 52.1058 32.1615C52.4226 32.1615 52.6715 32.0868 52.8525 31.9375C53.0335 31.7881 53.1761 31.5573 53.2802 31.245L53.5042 30.5934L50.8567 23.7642H52.4927L54.3527 28.9777L56.1652 23.7642H57.747L54.8415 31.4555C54.6333 31.994 54.4003 32.4127 54.1423 32.7113C53.8843 33.0146 53.5992 33.225 53.287 33.3427C52.9747 33.4649 52.6353 33.526 52.2687 33.526ZM63.1269 30.4847V27.8576C62.8101 27.9391 62.5091 28.0002 62.224 28.0409C61.9434 28.0816 61.647 28.102 61.3347 28.102C60.7328 28.102 60.226 28.0092 59.8141 27.8237C59.4023 27.6381 59.0923 27.3575 58.8841 26.9819C58.6759 26.6063 58.5719 26.1334 58.5719 25.5631V23.7642H60.0653V25.3527C60.0653 25.8324 60.1807 26.1967 60.4115 26.4456C60.6423 26.6945 61.0361 26.819 61.5927 26.819C61.914 26.819 62.1946 26.8054 62.4345 26.7783C62.6789 26.7466 62.9097 26.7081 63.1269 26.6629V23.7642H64.6203V30.4847H63.1269ZM66.7005 30.4847V23.7642H68.1939V26.3574H71.561V23.7642H73.0544V30.4847H71.561V27.5929H68.1939V30.4847H66.7005ZM78.1946 30.6884C77.4931 30.6884 76.8663 30.5277 76.3142 30.2064C75.7666 29.8806 75.3366 29.4484 75.0244 28.9098C74.7121 28.3668 74.556 27.7716 74.556 27.1245C74.556 26.6448 74.6442 26.1922 74.8207 25.7668C75.0017 25.3368 75.2552 24.9567 75.581 24.6263C75.9114 24.296 76.2983 24.0357 76.7418 23.8457C77.1853 23.6556 77.6718 23.5605 78.2013 23.5605C78.9028 23.5605 79.5273 23.7235 80.0749 24.0493C80.6271 24.3706 81.0593 24.8028 81.3715 25.3459C81.6838 25.8844 81.8399 26.4773 81.8399 27.1245C81.8399 27.5997 81.7494 28.0522 81.5684 28.4822C81.3919 28.9121 81.1407 29.2922 80.8149 29.6226C80.489 29.953 80.1044 30.2132 79.6609 30.4033C79.2173 30.5934 78.7286 30.6884 78.1946 30.6884ZM78.1946 29.3647C78.6109 29.3647 78.9797 29.2741 79.3011 29.0931C79.6269 28.9076 79.8826 28.6473 80.0682 28.3124C80.2537 27.9775 80.3465 27.5816 80.3465 27.1245C80.3465 26.6674 80.2537 26.2714 80.0682 25.9365C79.8826 25.5971 79.6269 25.3368 79.3011 25.1558C78.9797 24.9748 78.6109 24.8843 78.1946 24.8843C77.7782 24.8843 77.4071 24.9748 77.0813 25.1558C76.7599 25.3368 76.5065 25.5971 76.3209 25.9365C76.1399 26.2714 76.0494 26.6674 76.0494 27.1245C76.0494 27.5816 76.1422 27.9775 76.3277 28.3124C76.5133 28.6473 76.7667 28.9076 77.088 29.0931C77.4139 29.2741 77.7827 29.3647 78.1946 29.3647ZM83.3401 30.4847V23.7642H87.7661V24.9997H84.8335V30.4847H83.3401ZM92.2089 30.6884C91.5075 30.6884 90.8807 30.5277 90.3286 30.2064C89.781 29.8806 89.351 29.4484 89.0387 28.9098C88.7265 28.3668 88.5703 27.7716 88.5703 27.1245C88.5703 26.6448 88.6586 26.1922 88.8351 25.7668C89.0161 25.3368 89.2696 24.9567 89.5954 24.6263C89.9258 24.296 90.3127 24.0357 90.7562 23.8457C91.1997 23.6556 91.6862 23.5605 92.2157 23.5605C92.9172 23.5605 93.5417 23.7235 94.0893 24.0493C94.6415 24.3706 95.0737 24.8028 95.3859 25.3459C95.6982 25.8844 95.8543 26.4773 95.8543 27.1245C95.8543 27.5997 95.7638 28.0522 95.5828 28.4822C95.4063 28.9121 95.1551 29.2922 94.8293 29.6226C94.5034 29.953 94.1188 30.2132 93.6752 30.4033C93.2317 30.5934 92.743 30.6884 92.2089 30.6884ZM92.2089 29.3647C92.6253 29.3647 92.9941 29.2741 93.3155 29.0931C93.6413 28.9076 93.897 28.6473 94.0826 28.3124C94.2681 27.9775 94.3609 27.5816 94.3609 27.1245C94.3609 26.6674 94.2681 26.2714 94.0826 25.9365C93.897 25.5971 93.6413 25.3368 93.3155 25.1558C92.9941 24.9748 92.6253 24.8843 92.2089 24.8843C91.7926 24.8843 91.4215 24.9748 91.0956 25.1558C90.7743 25.3368 90.5209 25.5971 90.3353 25.9365C90.1543 26.2714 90.0638 26.6674 90.0638 27.1245C90.0638 27.5816 90.1566 27.9775 90.3421 28.3124C90.5277 28.6473 90.7811 28.9076 91.1024 29.0931C91.4283 29.2741 91.7971 29.3647 92.2089 29.3647ZM33.048 47.4847V37.9809H40.6918V47.4847H39.1712V39.3726H34.5686V47.4847H33.048ZM42.7231 47.6001L42.2004 46.256C42.662 46.1384 42.9992 45.9528 43.2119 45.6994C43.4291 45.4459 43.5649 45.093 43.6192 44.6404C43.678 44.1878 43.7074 43.604 43.7074 42.889V40.7642H49.1721V47.4847H47.6787V41.9997H45.099V42.889C45.099 43.6085 45.0651 44.2353 44.9972 44.7694C44.9339 45.3034 44.8162 45.7582 44.6442 46.1338C44.4722 46.5095 44.2301 46.8172 43.9179 47.0571C43.6101 47.2924 43.2119 47.4734 42.7231 47.6001ZM54.0985 47.6884C53.4287 47.6884 52.8358 47.5345 52.3199 47.2268C51.8085 46.9145 51.4057 46.4914 51.1116 45.9573C50.8219 45.4188 50.6771 44.8078 50.6771 44.1245C50.6771 43.6131 50.7608 43.1401 50.9283 42.7057C51.0957 42.2712 51.3311 41.8933 51.6343 41.572C51.9375 41.2507 52.2996 41.0018 52.7204 40.8253C53.1413 40.6488 53.6007 40.5605 54.0985 40.5605C54.7592 40.5605 55.3114 40.7008 55.7549 40.9814C56.2029 41.262 56.5446 41.6241 56.7799 42.0676L56.5695 42.3866V40.7642H57.9V47.4847H56.5695V45.8623L56.7799 46.1814C56.5446 46.6249 56.2029 46.9869 55.7549 47.2675C55.3114 47.5481 54.7592 47.6884 54.0985 47.6884ZM54.2954 46.3647C54.7027 46.3647 55.067 46.2741 55.3883 46.0931C55.7096 45.9076 55.9608 45.6473 56.1418 45.3124C56.3274 44.9775 56.4201 44.5816 56.4201 44.1245C56.4201 43.6674 56.3274 43.2714 56.1418 42.9365C55.9608 42.5971 55.7096 42.3368 55.3883 42.1558C55.067 41.9748 54.7027 41.8843 54.2954 41.8843C53.8835 41.8843 53.5169 41.9748 53.1956 42.1558C52.8788 42.3368 52.6277 42.5971 52.4421 42.9365C52.2566 43.2714 52.1638 43.6674 52.1638 44.1245C52.1638 44.5816 52.2566 44.9775 52.4421 45.3124C52.6277 45.6473 52.8788 45.9076 53.1956 46.0931C53.5169 46.2741 53.8835 46.3647 54.2954 46.3647ZM64.4451 47.4847L62.2185 43.914L64.289 40.7642H65.8843L63.8274 43.8461L66.2305 47.4847H64.4451ZM59.9783 47.4847V40.7642H61.4718V43.3574H63.4947V44.5929H61.4718V47.4847H59.9783ZM70.2608 47.6884C69.591 47.6884 68.9981 47.5345 68.4822 47.2268C67.9708 46.9145 67.568 46.4914 67.2739 45.9573C66.9842 45.4188 66.8394 44.8078 66.8394 44.1245C66.8394 43.6131 66.9231 43.1401 67.0906 42.7057C67.258 42.2712 67.4934 41.8933 67.7966 41.572C68.0998 41.2507 68.4619 41.0018 68.8827 40.8253C69.3036 40.6488 69.763 40.5605 70.2608 40.5605C70.9215 40.5605 71.4737 40.7008 71.9172 40.9814C72.3652 41.262 72.7069 41.6241 72.9422 42.0676L72.7318 42.3866V40.7642H74.0623V47.4847H72.7318V45.8623L72.9422 46.1814C72.7069 46.6249 72.3652 46.9869 71.9172 47.2675C71.4737 47.5481 70.9215 47.6884 70.2608 47.6884ZM70.4577 46.3647C70.865 46.3647 71.2293 46.2741 71.5506 46.0931C71.8719 45.9076 72.1231 45.6473 72.3041 45.3124C72.4897 44.9775 72.5824 44.5816 72.5824 44.1245C72.5824 43.6674 72.4897 43.2714 72.3041 42.9365C72.1231 42.5971 71.8719 42.3368 71.5506 42.1558C71.2293 41.9748 70.865 41.8843 70.4577 41.8843C70.0458 41.8843 69.6792 41.9748 69.3579 42.1558C69.0411 42.3368 68.79 42.5971 68.6044 42.9365C68.4189 43.2714 68.3261 43.6674 68.3261 44.1245C68.3261 44.5816 68.4189 44.9775 68.6044 45.3124C68.79 45.6473 69.0411 45.9076 69.3579 46.0931C69.6792 46.2741 70.0458 46.3647 70.4577 46.3647ZM77.6409 47.4847V41.9997H75.4346V40.7642H81.3474V41.9997H79.1343V47.4847H77.6409ZM85.5613 47.6884C84.8915 47.6884 84.2986 47.5345 83.7827 47.2268C83.2713 46.9145 82.8685 46.4914 82.5744 45.9573C82.2847 45.4188 82.1399 44.8078 82.1399 44.1245C82.1399 43.6131 82.2236 43.1401 82.3911 42.7057C82.5585 42.2712 82.7939 41.8933 83.0971 41.572C83.4003 41.2507 83.7623 41.0018 84.1832 40.8253C84.6041 40.6488 85.0635 40.5605 85.5613 40.5605C86.222 40.5605 86.7741 40.7008 87.2176 40.9814C87.6657 41.262 88.0074 41.6241 88.2427 42.0676L88.0323 42.3866V40.7642H89.3628V47.4847H88.0323V45.8623L88.2427 46.1814C88.0074 46.6249 87.6657 46.9869 87.2176 47.2675C86.7741 47.5481 86.222 47.6884 85.5613 47.6884ZM85.7581 46.3647C86.1654 46.3647 86.5298 46.2741 86.8511 46.0931C87.1724 45.9076 87.4236 45.6473 87.6046 45.3124C87.7901 44.9775 87.8829 44.5816 87.8829 44.1245C87.8829 43.6674 87.7901 43.2714 87.6046 42.9365C87.4236 42.5971 87.1724 42.3368 86.8511 42.1558C86.5298 41.9748 86.1654 41.8843 85.7581 41.8843C85.3463 41.8843 84.9797 41.9748 84.6584 42.1558C84.3416 42.3368 84.0904 42.5971 83.9049 42.9365C83.7193 43.2714 83.6266 43.6674 83.6266 44.1245C83.6266 44.5816 83.7193 44.9775 83.9049 45.3124C84.0904 45.6473 84.3416 45.9076 84.6584 46.0931C84.9797 46.2741 85.3463 46.3647 85.7581 46.3647Z" fill="#00AF64"/>
<path d="M15.8799 11.1353H17.5889V23.811L25.4805 3.9585V48.3657H7.82812L15.4453 29.2026V19.6372H13.832L7.3623 35.2622L6.88477 35.0962L5.30469 38.7466L5.92676 39.0142L4.08984 43.7661L0.929688 48.1265L2.02344 43.144L3.86523 38.2769L4.46484 38.4653L5.99414 34.811L5.3623 34.4946L12.5488 16.3911V11.1353H14.4365V3.9585H15.8799V11.1353ZM17.5889 29.5181V45.9302H23.3623V14.606L17.5889 29.5181ZM14.5996 37.2388L11.418 45.9302H15.4453V35.0552L14.5996 37.2388Z" fill="#00AF64"/>
</svg>
