<svg width="157" height="61" viewBox="0 0 157 61" fill="none" xmlns="http://www.w3.org/2000/svg">
<path d="M40.0056 15.4259C39.2397 15.4259 38.4946 15.3191 37.7704 15.1054C37.0514 14.8866 36.4235 14.5688 35.8869 14.152L36.7153 12.753C37.1999 13.1177 37.7235 13.386 38.2862 13.558C38.8541 13.7247 39.4377 13.8081 40.0369 13.8081C40.8288 13.8081 41.514 13.6518 42.0923 13.3392C42.6759 13.0213 43.1239 12.5524 43.4366 11.9324C43.7492 11.3124 43.9055 10.5386 43.9055 9.6112C43.9055 8.7515 43.7466 8.02467 43.4288 7.4307C43.1161 6.83673 42.6733 6.38604 42.1001 6.07863C41.5322 5.77123 40.8653 5.61752 40.0994 5.61752C39.4898 5.61752 38.9297 5.69828 38.4191 5.8598C37.9137 6.02132 37.463 6.2636 37.067 6.58663L36.2308 5.29709C36.6945 4.8959 37.2598 4.58328 37.9267 4.35924C38.5936 4.12999 39.3335 4.01536 40.1463 4.01536C41.2404 4.01536 42.1965 4.24983 43.0145 4.71875C43.8378 5.18247 44.476 5.83375 44.9293 6.6726C45.3878 7.51146 45.6171 8.48839 45.6171 9.60339C45.6171 10.4891 45.4816 11.2915 45.2107 12.0105C44.9449 12.7296 44.562 13.3444 44.0618 13.855C43.5668 14.3604 42.9755 14.7485 42.2877 15.0195C41.6052 15.2904 40.8445 15.4259 40.0056 15.4259ZM38.0361 10.1817V8.76714H44.3353V10.1817H38.0361ZM47.5594 15.1914V7.45415H49.2788V10.4396H53.1553V7.45415H54.8747V15.1914H53.1553V11.862H49.2788V15.1914H47.5594ZM57.2677 15.1914V7.45415H58.987V13.769H62.6837V7.45415H64.4031V15.1914H57.2677ZM64.8095 17.536V15.1914H63.5434V13.769H66.3882V17.536H64.8095ZM67.907 15.1914V7.45415H69.5717V12.6748L73.7686 7.45415H75.2691V15.1914H73.6122V9.90819L69.3763 15.1914H67.907ZM82.8035 15.1914L80.2401 11.0805L82.6238 7.45415H84.4604L82.0923 11.0023L84.859 15.1914H82.8035ZM77.661 15.1914V7.45415H79.3804V10.4396H81.7094V11.862H79.3804V15.1914H77.661ZM86.0957 15.3243L85.4939 13.7768C86.0253 13.6413 86.4135 13.4277 86.6584 13.136C86.9085 12.8442 87.0648 12.4378 87.1273 11.9167C87.195 11.3957 87.2289 10.7236 87.2289 9.90037V7.45415H93.5203V15.1914H91.8009V8.87655H88.8311V9.90037C88.8311 10.7288 88.792 11.4504 88.7138 12.0652C88.6409 12.6801 88.5054 13.2037 88.3074 13.6361C88.1094 14.0686 87.8307 14.4229 87.4712 14.699C87.1169 14.97 86.6584 15.1784 86.0957 15.3243ZM99.4421 15.4259C98.6345 15.4259 97.9129 15.2409 97.2772 14.871C96.6468 14.4958 96.1518 13.9983 95.7923 13.3782C95.4328 12.753 95.253 12.0678 95.253 11.3228C95.253 10.7705 95.3546 10.2495 95.5578 9.75969C95.7662 9.26472 96.058 8.82705 96.4331 8.4467C96.8135 8.06635 97.259 7.76676 97.7696 7.54793C98.2802 7.3291 98.8403 7.21968 99.4499 7.21968C100.257 7.21968 100.976 7.40725 101.607 7.78239C102.243 8.15232 102.74 8.6499 103.1 9.27514C103.459 9.89516 103.639 10.5777 103.639 11.3228C103.639 11.8699 103.535 12.3909 103.326 12.8859C103.123 13.3808 102.834 13.8185 102.459 14.1988C102.084 14.5792 101.641 14.8788 101.13 15.0976C100.62 15.3165 100.057 15.4259 99.4421 15.4259ZM99.4421 13.9019C99.9214 13.9019 100.346 13.7977 100.716 13.5892C101.091 13.3756 101.386 13.076 101.599 12.6905C101.813 12.3049 101.92 11.849 101.92 11.3228C101.92 10.7965 101.813 10.3406 101.599 9.95508C101.386 9.56431 101.091 9.26472 100.716 9.05631C100.346 8.84789 99.9214 8.74369 99.4421 8.74369C98.9627 8.74369 98.5355 8.84789 98.1603 9.05631C97.7904 9.26472 97.4986 9.56431 97.285 9.95508C97.0766 10.3406 96.9724 10.7965 96.9724 11.3228C96.9724 11.849 97.0792 12.3049 97.2928 12.6905C97.5065 13.076 97.7982 13.3756 98.1682 13.5892C98.5433 13.7977 98.9679 13.9019 99.4421 13.9019ZM105.366 15.1914V7.45415H112.673V15.1914H110.954V8.87655H107.085V15.1914H105.366ZM118.592 15.4259C117.758 15.4259 117.026 15.2565 116.395 14.9179C115.765 14.574 115.273 14.0946 114.918 13.4798C114.569 12.865 114.395 12.1512 114.395 11.3384C114.395 10.7444 114.496 10.1974 114.699 9.69717C114.903 9.19177 115.189 8.75411 115.559 8.38418C115.929 8.01425 116.362 7.72769 116.857 7.52448C117.357 7.32128 117.901 7.21968 118.49 7.21968C119.131 7.21968 119.701 7.33431 120.202 7.56356C120.702 7.7876 121.116 8.10283 121.444 8.50923C121.778 8.91563 122.012 9.39237 122.148 9.93945C122.288 10.4813 122.312 11.0701 122.218 11.7057H116.044C116.033 12.1694 116.135 12.5758 116.349 12.9249C116.562 13.2688 116.867 13.5371 117.263 13.7299C117.664 13.9227 118.136 14.0191 118.678 14.0191C119.115 14.0191 119.537 13.954 119.944 13.8237C120.355 13.6882 120.728 13.4903 121.061 13.2297L121.726 14.4646C121.475 14.6678 121.173 14.8423 120.819 14.9882C120.465 15.1289 120.095 15.2357 119.709 15.3086C119.324 15.3868 118.951 15.4259 118.592 15.4259ZM116.145 10.4396H120.53C120.514 9.85608 120.327 9.39758 119.967 9.06412C119.613 8.73066 119.107 8.56393 118.451 8.56393C117.815 8.56393 117.286 8.73066 116.864 9.06412C116.448 9.39758 116.208 9.85608 116.145 10.4396ZM129.623 15.1914V8.87655H126.497V9.90037C126.497 10.6038 126.455 11.2394 126.372 11.8073C126.289 12.3753 126.14 12.8754 125.927 13.3079C125.713 13.7351 125.413 14.0894 125.028 14.3708C124.647 14.6521 124.16 14.8579 123.566 14.9882L123.144 13.8237C123.639 13.7039 124.012 13.4798 124.262 13.1516C124.512 12.8233 124.679 12.3909 124.762 11.8542C124.851 11.3124 124.895 10.6611 124.895 9.90037V7.45415H131.343V15.1914H129.623ZM123.144 17.536V13.8237L124.207 13.9331L124.473 13.769H132.898V17.536H131.327V15.1914H124.715V17.536H123.144ZM134.414 15.1914V7.45415H136.079V12.6748L140.276 7.45415H141.776V15.1914H140.12V9.90819L135.884 15.1914H134.414ZM143.629 15.1914L146.599 11.229L146.974 12.3388C146.333 12.344 145.786 12.2502 145.333 12.0574C144.88 11.8594 144.533 11.5833 144.293 11.229C144.059 10.8695 143.942 10.4448 143.942 9.95508C143.942 9.42884 144.075 8.98076 144.34 8.61083C144.606 8.23569 144.981 7.94912 145.466 7.75113C145.95 7.55314 146.518 7.45415 147.169 7.45415H150.507V15.1914H148.85V8.75932H147.341C146.789 8.75932 146.37 8.85571 146.083 9.04849C145.802 9.24127 145.661 9.53044 145.661 9.916C145.661 10.2911 145.791 10.5829 146.052 10.7913C146.318 10.9945 146.701 11.0961 147.201 11.0961H149.069V12.3466H147.709L145.591 15.1914H143.629ZM36.8872 35.1914V24.2498H38.6379V28.5952H43.9368V24.2498H45.6874V35.1914H43.9368V30.2052H38.6379V35.1914H36.8872ZM50.4566 35.4259C49.92 35.4259 49.4485 35.3269 49.042 35.1289C48.6356 34.9257 48.3178 34.6417 48.0886 34.277C47.8645 33.9071 47.7525 33.472 47.7525 32.9718C47.7525 32.5498 47.8593 32.1694 48.0729 31.8308C48.2866 31.4869 48.6174 31.2029 49.0655 30.9789C49.5188 30.7549 50.0997 30.6064 50.8083 30.5334C51.5169 30.4553 52.3688 30.4657 53.364 30.5647L53.3952 31.7526C52.6866 31.6536 52.077 31.6119 51.5664 31.6276C51.0558 31.6432 50.6364 31.7083 50.3081 31.823C49.9851 31.9324 49.7454 32.0809 49.5891 32.2684C49.438 32.4508 49.3625 32.6618 49.3625 32.9015C49.3625 33.2766 49.4953 33.5658 49.7611 33.769C50.032 33.9722 50.4019 34.0738 50.8709 34.0738C51.272 34.0738 51.6316 34.0009 51.9494 33.855C52.2672 33.7091 52.5173 33.5033 52.6997 33.2376C52.8872 32.9718 52.981 32.6592 52.981 32.2997V30.2442C52.981 29.9004 52.9081 29.6034 52.7622 29.3533C52.6163 29.098 52.3949 28.9 52.0979 28.7593C51.8009 28.6186 51.431 28.5483 50.9881 28.5483C50.5817 28.5483 50.1805 28.6108 49.7845 28.7359C49.3885 28.8557 49.0108 29.0459 48.6513 29.3064L48.1667 28.0403C48.6513 27.7121 49.1567 27.4802 49.6829 27.3447C50.2092 27.2093 50.7145 27.1415 51.1991 27.1415C51.9181 27.1415 52.5329 27.2562 53.0435 27.4854C53.5594 27.7094 53.9553 28.0507 54.2315 28.5092C54.5076 28.9625 54.6457 29.5357 54.6457 30.2286V35.1914H53.0982V34.277C52.8377 34.6469 52.4756 34.9309 52.0119 35.1289C51.5482 35.3269 51.0298 35.4259 50.4566 35.4259ZM57.4435 38.6927C57.1621 38.6927 56.886 38.6615 56.6151 38.5989C56.3441 38.5364 56.0784 38.4296 55.8179 38.2785L56.2087 36.8092C56.3702 36.9134 56.5473 36.9916 56.7401 37.0437C56.9329 37.0958 57.1048 37.1218 57.2559 37.1218C57.6206 37.1218 57.9072 37.0358 58.1156 36.8639C58.324 36.692 58.4882 36.4262 58.608 36.0667L58.8659 35.3165L55.8179 27.4541H57.7014L59.8428 33.4564L61.9295 27.4541H63.7505L60.4055 36.309C60.1659 36.929 59.8975 37.411 59.6006 37.7549C59.3036 38.104 58.9753 38.3462 58.6158 38.4817C58.2563 38.6224 57.8655 38.6927 57.4435 38.6927ZM69.9444 35.1914V32.1668C69.5797 32.2606 69.2332 32.331 68.9049 32.3779C68.5819 32.4247 68.2406 32.4482 67.8811 32.4482C67.1881 32.4482 66.6046 32.3414 66.1305 32.1278C65.6563 31.9141 65.2994 31.5911 65.0597 31.1587C64.8201 30.7262 64.7002 30.1817 64.7002 29.5252V27.4541H66.4196V29.283C66.4196 29.8352 66.5525 30.2547 66.8182 30.5412C67.0839 30.8278 67.5372 30.9711 68.1781 30.9711C68.548 30.9711 68.8711 30.9555 69.1472 30.9242C69.4286 30.8877 69.6943 30.8434 69.9444 30.7913V27.4541H71.6638V35.1914H69.9444ZM74.0586 35.1914V27.4541H75.778V30.4396H79.6544V27.4541H81.3738V35.1914H79.6544V31.862H75.778V35.1914H74.0586ZM87.2915 35.4259C86.4839 35.4259 85.7623 35.2409 85.1267 34.871C84.4962 34.4958 84.0013 33.9983 83.6417 33.3782C83.2822 32.753 83.1025 32.0678 83.1025 31.3228C83.1025 30.7705 83.2041 30.2495 83.4073 29.7597C83.6157 29.2647 83.9075 28.8271 84.2826 28.4467C84.663 28.0664 85.1084 27.7668 85.619 27.5479C86.1296 27.3291 86.6898 27.2197 87.2994 27.2197C88.1069 27.2197 88.826 27.4073 89.4564 27.7824C90.0921 28.1523 90.5896 28.6499 90.9492 29.2751C91.3087 29.8952 91.4884 30.5777 91.4884 31.3228C91.4884 31.8699 91.3842 32.3909 91.1758 32.8859C90.9726 33.3808 90.6834 33.8185 90.3083 34.1988C89.9332 34.5792 89.4903 34.8788 88.9797 35.0976C88.4691 35.3165 87.9064 35.4259 87.2915 35.4259ZM87.2915 33.9019C87.7709 33.9019 88.1955 33.7977 88.5655 33.5892C88.9406 33.3756 89.235 33.076 89.4486 32.6905C89.6622 32.3049 89.769 31.849 89.769 31.3228C89.769 30.7965 89.6622 30.3406 89.4486 29.9551C89.235 29.5643 88.9406 29.2647 88.5655 29.0563C88.1955 28.8479 87.7709 28.7437 87.2915 28.7437C86.8122 28.7437 86.385 28.8479 86.0098 29.0563C85.6399 29.2647 85.3481 29.5643 85.1345 29.9551C84.9261 30.3406 84.8219 30.7965 84.8219 31.3228C84.8219 31.849 84.9287 32.3049 85.1423 32.6905C85.3559 33.076 85.6477 33.3756 86.0176 33.5892C86.3928 33.7977 86.8174 33.9019 87.2915 33.9019ZM93.2155 35.1914V27.4541H98.3112V28.8766H94.9349V35.1914H93.2155ZM103.426 35.4259C102.619 35.4259 101.897 35.2409 101.261 34.871C100.631 34.4958 100.136 33.9983 99.7763 33.3782C99.4168 32.753 99.237 32.0678 99.237 31.3228C99.237 30.7705 99.3386 30.2495 99.5418 29.7597C99.7502 29.2647 100.042 28.8271 100.417 28.4467C100.798 28.0664 101.243 27.7668 101.754 27.5479C102.264 27.3291 102.824 27.2197 103.434 27.2197C104.242 27.2197 104.961 27.4073 105.591 27.7824C106.227 28.1523 106.724 28.6499 107.084 29.2751C107.443 29.8952 107.623 30.5777 107.623 31.3228C107.623 31.8699 107.519 32.3909 107.31 32.8859C107.107 33.3808 106.818 33.8185 106.443 34.1988C106.068 34.5792 105.625 34.8788 105.114 35.0976C104.604 35.3165 104.041 35.4259 103.426 35.4259ZM103.426 33.9019C103.905 33.9019 104.33 33.7977 104.7 33.5892C105.075 33.3756 105.37 33.076 105.583 32.6905C105.797 32.3049 105.904 31.849 105.904 31.3228C105.904 30.7965 105.797 30.3406 105.583 29.9551C105.37 29.5643 105.075 29.2647 104.7 29.0563C104.33 28.8479 103.905 28.7437 103.426 28.7437C102.947 28.7437 102.52 28.8479 102.144 29.0563C101.774 29.2647 101.483 29.5643 101.269 29.9551C101.061 30.3406 100.956 30.7965 100.956 31.3228C100.956 31.849 101.063 32.3049 101.277 32.6905C101.49 33.076 101.782 33.3756 102.152 33.5892C102.527 33.7977 102.952 33.9019 103.426 33.9019ZM36.8872 55.1914V44.2498H45.6874V55.1914H43.9368V45.852H38.6379V55.1914H36.8872ZM48.026 55.3243L47.4243 53.7768C47.9557 53.6413 48.3439 53.4277 48.5888 53.136C48.8388 52.8442 48.9952 52.4378 49.0577 51.9167C49.1254 51.3957 49.1593 50.7236 49.1593 49.9004V47.4541H55.4507V55.1914H53.7313V48.8766H50.7614V49.9004C50.7614 50.7288 50.7224 51.4504 50.6442 52.0652C50.5713 52.6801 50.4358 53.2037 50.2378 53.6361C50.0398 54.0686 49.7611 54.4229 49.4016 54.699C49.0473 54.97 48.5888 55.1784 48.026 55.3243ZM59.9969 55.4259C59.4603 55.4259 58.9888 55.3269 58.5824 55.1289C58.1759 54.9257 57.8581 54.6417 57.6289 54.277C57.4048 53.9071 57.2928 53.472 57.2928 52.9718C57.2928 52.5498 57.3996 52.1694 57.6132 51.8308C57.8269 51.4869 58.1577 51.2029 58.6058 50.9789C59.0591 50.7549 59.64 50.6064 60.3486 50.5334C61.0572 50.4553 61.9091 50.4657 62.9043 50.5647L62.9355 51.7526C62.2269 51.6536 61.6173 51.6119 61.1067 51.6276C60.5961 51.6432 60.1767 51.7083 59.8484 51.823C59.5254 51.9324 59.2857 52.0809 59.1294 52.2684C58.9783 52.4508 58.9028 52.6618 58.9028 52.9015C58.9028 53.2766 59.0356 53.5658 59.3014 53.769C59.5723 53.9722 59.9422 54.0738 60.4112 54.0738C60.8123 54.0738 61.1719 54.0009 61.4897 53.855C61.8075 53.7091 62.0576 53.5033 62.24 53.2376C62.4275 52.9718 62.5213 52.6592 62.5213 52.2997V50.2442C62.5213 49.9004 62.4484 49.6034 62.3025 49.3533C62.1566 49.098 61.9352 48.9 61.6382 48.7593C61.3412 48.6186 60.9713 48.5483 60.5284 48.5483C60.122 48.5483 59.7208 48.6108 59.3248 48.7359C58.9288 48.8557 58.5511 49.0459 58.1916 49.3064L57.707 48.0403C58.1916 47.7121 58.697 47.4802 59.2232 47.3447C59.7495 47.2093 60.2548 47.1415 60.7394 47.1415C61.4584 47.1415 62.0732 47.2562 62.5838 47.4854C63.0997 47.7094 63.4956 48.0507 63.7718 48.5092C64.0479 48.9625 64.186 49.5357 64.186 50.2286V55.1914H62.6386V54.277C62.378 54.6469 62.0159 54.9309 61.5522 55.1289C61.0885 55.3269 60.5701 55.4259 59.9969 55.4259ZM71.6147 55.1914L69.0512 51.0805L71.4349 47.4541H73.2715L70.9035 51.0023L73.6701 55.1914H71.6147ZM66.4721 55.1914V47.4541H68.1915V50.4396H70.5205V51.862H68.1915V55.1914H66.4721ZM77.3374 55.4259C76.8007 55.4259 76.3292 55.3269 75.9228 55.1289C75.5164 54.9257 75.1986 54.6417 74.9693 54.277C74.7453 53.9071 74.6333 53.472 74.6333 52.9718C74.6333 52.5498 74.7401 52.1694 74.9537 51.8308C75.1673 51.4869 75.4982 51.2029 75.9462 50.9789C76.3995 50.7549 76.9805 50.6064 77.6891 50.5334C78.3977 50.4553 79.2496 50.4657 80.2447 50.5647L80.276 51.7526C79.5674 51.6536 78.9578 51.6119 78.4472 51.6276C77.9366 51.6432 77.5171 51.7083 77.1889 51.823C76.8659 51.9324 76.6262 52.0809 76.4699 52.2684C76.3188 52.4508 76.2432 52.6618 76.2432 52.9015C76.2432 53.2766 76.3761 53.5658 76.6418 53.769C76.9128 53.9722 77.2827 54.0738 77.7516 54.0738C78.1528 54.0738 78.5123 54.0009 78.8301 53.855C79.148 53.7091 79.3981 53.5033 79.5804 53.2376C79.768 52.9718 79.8618 52.6592 79.8618 52.2997V50.2442C79.8618 49.9004 79.7888 49.6034 79.6429 49.3533C79.4971 49.098 79.2756 48.9 78.9786 48.7593C78.6816 48.6186 78.3117 48.5483 77.8688 48.5483C77.4624 48.5483 77.0612 48.6108 76.6653 48.7359C76.2693 48.8557 75.8915 49.0459 75.532 49.3064L75.0475 48.0403C75.532 47.7121 76.0374 47.4802 76.5637 47.3447C77.0899 47.2093 77.5953 47.1415 78.0799 47.1415C78.7989 47.1415 79.4137 47.2562 79.9243 47.4854C80.4401 47.7094 80.8361 48.0507 81.1122 48.5092C81.3884 48.9625 81.5265 49.5357 81.5265 50.2286V55.1914H79.979V54.277C79.7185 54.6469 79.3564 54.9309 78.8927 55.1289C78.4289 55.3269 77.9105 55.4259 77.3374 55.4259ZM85.265 55.1914V48.8766H82.725V47.4541H89.5322V48.8766H86.9844V55.1914H85.265ZM93.2582 55.4259C92.7216 55.4259 92.2501 55.3269 91.8437 55.1289C91.4373 54.9257 91.1194 54.6417 90.8902 54.277C90.6661 53.9071 90.5541 53.472 90.5541 52.9718C90.5541 52.5498 90.6609 52.1694 90.8745 51.8308C91.0882 51.4869 91.419 51.2029 91.8671 50.9789C92.3204 50.7549 92.9013 50.6064 93.6099 50.5334C94.3185 50.4553 95.1704 50.4657 96.1656 50.5647L96.1968 51.7526C95.4882 51.6536 94.8786 51.6119 94.368 51.6276C93.8574 51.6432 93.438 51.7083 93.1098 51.823C92.7867 51.9324 92.547 52.0809 92.3907 52.2684C92.2396 52.4508 92.1641 52.6618 92.1641 52.9015C92.1641 53.2766 92.2969 53.5658 92.5627 53.769C92.8336 53.9722 93.2035 54.0738 93.6725 54.0738C94.0737 54.0738 94.4332 54.0009 94.751 53.855C95.0688 53.7091 95.3189 53.5033 95.5013 53.2376C95.6888 52.9718 95.7826 52.6592 95.7826 52.2997V50.2442C95.7826 49.9004 95.7097 49.6034 95.5638 49.3533C95.4179 49.098 95.1965 48.9 94.8995 48.7593C94.6025 48.6186 94.2326 48.5483 93.7897 48.5483C93.3833 48.5483 92.9821 48.6108 92.5861 48.7359C92.1901 48.8557 91.8124 49.0459 91.4529 49.3064L90.9683 48.0403C91.4529 47.7121 91.9583 47.4802 92.4845 47.3447C93.0108 47.2093 93.5162 47.1415 94.0007 47.1415C94.7197 47.1415 95.3345 47.2562 95.8451 47.4854C96.361 47.7094 96.7569 48.0507 97.0331 48.5092C97.3092 48.9625 97.4473 49.5357 97.4473 50.2286V55.1914H95.8999V54.277C95.6393 54.6469 95.2772 54.9309 94.8135 55.1289C94.3498 55.3269 93.8314 55.4259 93.2582 55.4259Z" fill="#00AF64"/>
<path fill-rule="evenodd" clip-rule="evenodd" d="M28.7224 4.1875V55.3126H8.39939L17.1731 33.2413V22.2384H15.3152L7.8665 40.228L7.31763 40.0362L5.49824 44.2394L6.21428 44.5474L4.09945 50.0177L0.460938 55.0383L1.72003 49.3018L3.84134 43.6982L4.53058 43.9157L6.29153 39.7087L5.56485 39.3436L13.8377 18.5013V12.4507H16.0109V4.18829H16.5747H17.6734V12.4507H19.6411L19.6411 27.0327L28.7224 4.1875ZM17.1731 39.9804L16.1974 42.5003L12.5344 52.5066H17.1731V39.9804ZM19.641 52.5066H26.2862V33.8147V16.4435L19.641 33.6062L19.641 52.5066Z" fill="#00AF64"/>
</svg>
