<svg width="4352" height="1785" viewBox="0 0 4352 1785" fill="none" xmlns="http://www.w3.org/2000/svg">
<g clip-path="url(#clip0_1765_908)">
<path d="M51.4611 297.635V285.934H55.0826C59.1685 285.934 62.8829 285.563 66.2259 284.82C69.7546 283.891 72.5404 282.127 74.5833 279.527C76.8119 276.741 77.9263 272.655 77.9263 267.269V129.372C77.9263 123.8 76.8119 119.714 74.5833 117.114C72.5404 114.329 69.7546 112.564 66.2259 111.821C62.8829 110.893 59.1685 110.428 55.0826 110.428H51.4611V98.728H114.978L172.644 258.076L229.753 98.728H291.598V110.428H287.976C283.89 110.428 280.083 110.893 276.554 111.821C273.026 112.75 270.24 114.607 268.197 117.393C266.154 120.179 265.133 124.543 265.133 130.486V265.877C265.133 271.634 266.154 275.998 268.197 278.97C270.24 281.756 273.026 283.613 276.554 284.541C280.083 285.47 283.89 285.934 287.976 285.934H291.598V297.635H217.495V285.934H218.331C222.417 285.934 225.853 285.563 228.639 284.82C231.61 283.891 233.932 282.22 235.603 279.806C237.275 277.205 238.203 273.398 238.389 268.384V119.622L174.594 297.635H159.55L94.9197 120.179V265.877C94.9197 271.634 95.6626 275.998 97.1483 278.97C98.8198 281.756 101.141 283.613 104.113 284.541C107.27 285.47 110.892 285.934 114.978 285.934H115.813V297.635H51.4611ZM382.269 300.421C362.026 300.421 346.147 293.735 334.632 280.363C323.303 266.991 317.639 248.233 317.639 224.089C317.639 198.089 323.024 178.495 333.796 165.309C344.568 152.123 359.797 145.53 379.484 145.53C397.498 145.53 411.613 151.101 421.828 162.244C432.228 173.388 437.428 190.01 437.428 212.11V224.925H344.661C345.032 238.483 346.797 249.533 349.954 258.076C353.111 266.619 357.661 272.934 363.604 277.02C369.733 280.92 377.255 282.87 386.17 282.87C392.67 282.87 398.427 281.941 403.442 280.084C408.642 278.227 413.099 275.813 416.813 272.841C420.714 269.87 423.778 266.712 426.007 263.369C427.307 263.926 428.514 265.041 429.628 266.712C430.742 268.384 431.3 270.427 431.3 272.841C431.3 276.555 429.535 280.548 426.007 284.82C422.478 289.092 417.092 292.806 409.849 295.963C402.606 298.935 393.413 300.421 382.269 300.421ZM409.292 209.882C409.292 200.039 408.27 191.403 406.227 183.974C404.37 176.545 401.213 170.788 396.756 166.702C392.298 162.616 386.355 160.573 378.926 160.573C372.055 160.573 366.205 162.523 361.376 166.423C356.733 170.138 353.018 175.616 350.233 182.859C347.632 190.103 345.961 199.11 345.218 209.882H409.292ZM452.794 297.635V285.934H455.301C459.758 285.934 463.566 285.47 466.723 284.541C469.88 283.427 472.945 281.57 475.916 278.97C478.888 276.37 482.138 272.748 485.666 268.105L520.768 222.696L485.666 174.781C483.066 171.623 480.373 168.93 477.588 166.702C474.987 164.473 472.387 162.802 469.787 161.687C467.187 160.573 464.494 160.016 461.708 160.016H458.087V148.315H528.846V160.016H528.011C521.696 160.016 517.425 160.852 515.196 162.523C513.153 164.009 512.132 165.866 512.132 168.095C512.132 169.952 512.689 171.809 513.803 173.666C514.917 175.523 516.496 177.938 518.539 180.909L536.925 205.982L551.411 185.088C553.454 181.931 555.126 178.959 556.426 176.173C557.726 173.202 558.376 170.509 558.376 168.095C558.376 164.752 556.89 162.616 553.919 161.687C551.133 160.573 547.604 160.016 543.333 160.016H542.497V148.315H603.506V160.016H600.999C597.47 160.016 594.22 160.48 591.249 161.409C588.463 162.152 585.584 163.823 582.613 166.423C579.827 169.023 576.577 172.831 572.862 177.845L544.168 216.011L585.12 271.17C587.906 274.698 590.506 277.577 592.92 279.806C595.52 282.034 598.027 283.613 600.442 284.541C602.856 285.47 605.178 285.934 607.406 285.934H611.028V297.635H539.154V285.934H540.547C546.118 285.934 550.297 285.191 553.083 283.706C555.869 282.034 557.262 279.713 557.262 276.741C557.262 274.698 556.519 272.47 555.033 270.055C553.733 267.455 550.947 263.276 546.676 257.519L528.011 232.447L508.51 259.748C506.839 261.976 505.167 264.762 503.496 268.105C501.824 271.262 500.988 274.327 500.988 277.298C500.988 280.27 502.288 282.499 504.888 283.984C507.674 285.284 512.132 285.934 518.26 285.934H519.096V297.635H452.794ZM664.124 300.421C655.952 300.421 648.523 298.842 641.837 295.685C635.337 292.342 630.23 287.42 626.515 280.92C622.801 274.234 620.944 265.877 620.944 255.848C620.944 240.99 626.144 230.032 636.544 222.975C647.13 215.918 663.102 212.018 684.46 211.275L707.582 210.439V193.724C707.582 187.038 707.025 181.188 705.911 176.173C704.796 170.973 702.382 166.887 698.668 163.916C694.953 160.944 689.289 159.459 681.674 159.459C674.617 159.459 669.231 160.759 665.517 163.359C661.802 165.959 659.295 169.58 657.995 174.223C656.881 178.681 656.323 183.881 656.323 189.824C648.523 189.824 642.58 188.524 638.494 185.924C634.594 183.138 632.644 178.588 632.644 172.273C632.644 165.773 634.873 160.573 639.33 156.673C643.973 152.773 650.102 149.987 657.716 148.315C665.331 146.458 673.688 145.53 682.789 145.53C699.875 145.53 712.597 149.151 720.954 156.394C729.497 163.637 733.769 176.081 733.769 193.724V265.877C733.769 271.077 734.326 275.163 735.44 278.134C736.555 280.92 738.412 282.963 741.012 284.263C743.612 285.377 746.955 285.934 751.041 285.934H751.877V297.635H714.268L709.811 273.677H707.582C703.682 278.877 699.875 283.52 696.16 287.606C692.446 291.506 688.082 294.663 683.067 297.078C678.238 299.306 671.924 300.421 664.124 300.421ZM670.531 283.149C678.146 283.149 684.646 281.57 690.032 278.413C695.603 275.255 699.875 270.798 702.846 265.041C706.004 259.098 707.582 252.226 707.582 244.426V221.861L689.753 222.696C679.167 223.068 670.81 224.647 664.681 227.432C658.738 230.218 654.466 234.118 651.866 239.133C649.266 243.962 647.966 249.997 647.966 257.241C647.966 262.998 648.802 267.827 650.473 271.727C652.145 275.441 654.652 278.32 657.995 280.363C661.338 282.22 665.517 283.149 670.531 283.149ZM770.396 297.635V285.934H774.017C778.103 285.934 781.818 285.563 785.16 284.82C788.689 283.891 791.475 282.127 793.518 279.527C795.747 276.741 796.861 272.655 796.861 267.269V178.959C796.861 173.388 795.747 169.302 793.518 166.702C791.475 163.916 788.689 162.152 785.16 161.409C781.818 160.48 778.103 160.016 774.017 160.016H770.396V148.315H846.727V160.016H845.891C841.805 160.016 837.998 160.48 834.469 161.409C831.126 162.152 828.341 163.823 826.112 166.423C824.069 169.023 823.047 173.109 823.047 178.681V214.618H896.593V178.959C896.593 173.388 895.479 169.302 893.25 166.702C891.207 163.916 888.421 162.152 884.892 161.409C881.549 160.48 877.835 160.016 873.749 160.016H872.913V148.315H949.245V160.016H945.623C941.537 160.016 937.73 160.48 934.201 161.409C930.858 162.152 928.073 163.823 925.844 166.423C923.801 169.023 922.779 173.109 922.779 178.681V267.269C922.779 272.655 923.801 276.741 925.844 279.527C928.073 282.127 930.858 283.891 934.201 284.82C937.73 285.563 941.537 285.934 945.623 285.934H949.245V297.635H872.913V285.934H873.749C877.835 285.934 881.549 285.563 884.892 284.82C888.421 283.891 891.207 282.127 893.25 279.527C895.479 276.741 896.593 272.655 896.593 267.269V227.432H823.047V267.269C823.047 272.655 824.069 276.741 826.112 279.527C828.341 282.127 831.126 283.891 834.469 284.82C837.998 285.563 841.805 285.934 845.891 285.934H846.727V297.635H770.396ZM962.192 297.635V285.934H965.814C969.899 285.934 973.614 285.563 976.957 284.82C980.486 283.891 983.271 282.127 985.314 279.527C987.543 276.741 988.657 272.655 988.657 267.269V178.959C988.657 173.388 987.543 169.302 985.314 166.702C983.271 163.916 980.486 162.152 976.957 161.409C973.614 160.48 969.899 160.016 965.814 160.016H962.192V148.315H1041.31V160.016H1037.69C1033.6 160.016 1029.79 160.48 1026.27 161.409C1022.92 162.152 1020.14 163.823 1017.91 166.423C1015.87 169.023 1014.84 173.109 1014.84 178.681V248.326L1088.39 179.795V178.959C1088.39 173.388 1087.27 169.302 1085.05 166.702C1083 163.916 1080.22 162.152 1076.69 161.409C1073.35 160.48 1069.63 160.016 1065.55 160.016H1064.71V148.315H1141.04V160.016H1137.42C1133.33 160.016 1129.53 160.48 1126 161.409C1122.65 162.152 1119.87 163.823 1117.64 166.423C1115.6 169.023 1114.58 173.109 1114.58 178.681V267.269C1114.58 272.655 1115.6 276.741 1117.64 279.527C1119.87 282.127 1122.65 283.891 1126 284.82C1129.53 285.563 1133.33 285.934 1137.42 285.934H1141.04V297.635H1061.92V285.934H1065.55C1069.63 285.934 1073.35 285.563 1076.69 284.82C1080.22 283.891 1083 282.127 1085.05 279.527C1087.27 276.741 1088.39 272.655 1088.39 267.269V197.903L1014.84 265.877V267.269C1014.84 272.655 1015.87 276.741 1017.91 279.527C1020.14 282.127 1022.92 283.891 1026.27 284.82C1029.79 285.563 1033.6 285.934 1037.69 285.934H1041.31V297.635H962.192ZM1209.98 300.421C1197.91 300.421 1188.07 299.028 1180.45 296.242C1172.84 293.456 1167.27 290.02 1163.74 285.934C1160.4 281.849 1158.72 277.763 1158.72 273.677C1158.72 271.448 1159.1 269.405 1159.84 267.548C1160.77 265.505 1161.97 263.926 1163.46 262.812C1165.87 266.527 1168.75 269.87 1172.1 272.841C1175.62 275.813 1180.08 278.134 1185.47 279.806C1190.85 281.477 1197.45 282.313 1205.25 282.313C1216.76 282.313 1225.68 280.177 1231.99 275.905C1238.49 271.634 1241.74 264.391 1241.74 254.176C1241.74 244.89 1238.86 238.018 1233.11 233.561C1227.35 229.104 1219.36 226.875 1209.15 226.875H1183.24V211.832H1209.43C1215.74 211.832 1220.94 210.625 1225.03 208.21C1229.3 205.796 1232.46 202.546 1234.5 198.46C1236.54 194.374 1237.56 189.917 1237.56 185.088C1237.56 180.259 1236.73 175.895 1235.06 171.995C1233.57 167.909 1230.97 164.659 1227.26 162.244C1223.73 159.83 1218.81 158.623 1212.49 158.623C1206.36 158.623 1201.16 159.83 1196.89 162.244C1192.62 164.659 1189.37 168.095 1187.14 172.552C1184.91 177.009 1183.8 182.395 1183.8 188.71C1178.97 188.71 1174.88 188.152 1171.54 187.038C1168.2 185.738 1165.69 183.881 1164.02 181.467C1162.53 179.052 1161.79 175.895 1161.79 171.995C1161.79 167.352 1163.55 163.08 1167.08 159.18C1170.61 155.28 1176.09 152.123 1183.52 149.708C1190.95 147.108 1200.42 145.808 1211.93 145.808C1228.46 145.808 1241.28 149.244 1250.38 156.116C1259.48 162.802 1264.03 171.809 1264.03 183.138C1264.03 189.081 1262.82 194.374 1260.41 199.017C1258.18 203.66 1254.93 207.653 1250.66 210.996C1246.38 214.153 1241.46 216.661 1235.89 218.518V219.911C1242.39 221.396 1248.06 223.811 1252.88 227.154C1257.9 230.311 1261.8 234.397 1264.59 239.411C1267.37 244.24 1268.76 250.09 1268.76 256.962C1268.76 265.505 1266.63 273.027 1262.36 279.527C1258.08 286.027 1251.58 291.135 1242.86 294.849C1234.13 298.563 1223.17 300.421 1209.98 300.421ZM1286.21 297.635V285.934H1289.83C1293.91 285.934 1297.63 285.563 1300.97 284.82C1304.5 283.891 1307.28 282.127 1309.33 279.527C1311.56 276.741 1312.67 272.655 1312.67 267.269V178.959C1312.67 173.388 1311.56 169.302 1309.33 166.702C1307.28 163.916 1304.5 162.152 1300.97 161.409C1297.63 160.48 1293.91 160.016 1289.83 160.016H1286.21V148.315H1345.82L1389.84 260.862L1435.8 148.315H1492.63V160.016H1489.01C1484.93 160.016 1481.12 160.48 1477.59 161.409C1474.25 162.152 1471.46 163.823 1469.23 166.423C1467.19 169.023 1466.17 173.109 1466.17 178.681V267.269C1466.17 272.655 1467.19 276.741 1469.23 279.527C1471.46 282.127 1474.25 283.891 1477.59 284.82C1481.12 285.563 1484.93 285.934 1489.01 285.934H1492.63V297.635H1416.3V285.934H1417.14C1421.22 285.934 1424.94 285.563 1428.28 284.82C1431.81 283.891 1434.6 282.127 1436.64 279.527C1438.87 276.741 1439.98 272.655 1439.98 267.269V178.124H1438.03L1389.56 297.635H1376.74L1329.66 178.124H1327.71V267.269C1327.71 272.655 1328.74 276.741 1330.78 279.527C1333.01 282.127 1335.79 283.891 1339.14 284.82C1342.66 285.563 1346.47 285.934 1350.56 285.934H1351.39V297.635H1286.21ZM1505.48 297.635V285.934H1509.1C1513.19 285.934 1516.9 285.563 1520.24 284.82C1523.77 283.891 1526.56 282.127 1528.6 279.527C1530.83 276.741 1531.94 272.655 1531.94 267.269V178.959C1531.94 173.388 1530.83 169.302 1528.6 166.702C1526.56 163.916 1523.77 162.152 1520.24 161.409C1516.9 160.48 1513.19 160.016 1509.1 160.016H1505.48V148.315H1584.6V160.016H1580.97C1576.89 160.016 1573.08 160.48 1569.55 161.409C1566.21 162.152 1563.42 163.916 1561.2 166.702C1559.15 169.302 1558.13 173.388 1558.13 178.959V214.618H1576.8C1588.31 214.618 1598.9 215.639 1608.55 217.682C1618.4 219.539 1626.29 223.347 1632.23 229.104C1638.18 234.861 1641.15 243.497 1641.15 255.012C1641.15 267.269 1636.41 277.484 1626.94 285.656C1617.47 293.642 1602.98 297.635 1583.48 297.635H1505.48ZM1578.19 284.82C1590.63 284.82 1599.55 282.499 1604.93 277.856C1610.32 273.027 1613.01 264.948 1613.01 253.619C1613.01 244.147 1609.85 237.461 1603.54 233.561C1597.23 229.475 1588.22 227.432 1576.52 227.432H1558.13V284.82H1578.19ZM1646.44 297.635V285.934H1647.28C1651.36 285.934 1655.08 285.563 1658.42 284.82C1661.95 283.891 1664.73 282.127 1666.78 279.527C1669.01 276.741 1670.12 272.655 1670.12 267.269V178.959C1670.12 173.388 1669.01 169.302 1666.78 166.702C1664.73 163.916 1661.95 162.152 1658.42 161.409C1655.08 160.48 1651.36 160.016 1647.28 160.016H1646.44V148.315H1719.99V160.016H1719.15C1715.06 160.016 1711.26 160.48 1707.73 161.409C1704.39 162.152 1701.6 163.823 1699.37 166.423C1697.33 169.023 1696.31 173.109 1696.31 178.681V267.269C1696.31 272.655 1697.33 276.741 1699.37 279.527C1701.6 282.127 1704.39 283.891 1707.73 284.82C1711.26 285.563 1715.06 285.934 1719.15 285.934H1719.99V297.635H1646.44ZM1806.61 364.494V352.794H1808.84C1813.11 352.794 1816.92 352.329 1820.26 351.401C1823.79 350.472 1826.57 348.522 1828.62 345.551C1830.66 342.765 1831.68 338.493 1831.68 332.736V178.959C1831.68 173.388 1830.57 169.302 1828.34 166.702C1826.29 163.916 1823.51 162.152 1819.98 161.409C1816.64 160.48 1812.92 160.016 1808.84 160.016H1805.21V148.315H1853.97L1856.75 173.388H1857.87C1862.14 164.845 1867.62 158.066 1874.3 153.051C1880.99 148.037 1889.72 145.53 1900.49 145.53C1918.88 145.53 1932.9 151.751 1942.56 164.195C1952.4 176.452 1957.32 195.953 1957.32 222.696C1957.32 249.626 1952.4 269.312 1942.56 281.756C1932.9 294.199 1918.88 300.421 1900.49 300.421C1889.72 300.421 1880.9 298.192 1874.02 293.735C1867.34 289.092 1861.95 283.149 1857.87 275.905H1856.75C1857.12 279.434 1857.31 283.241 1857.31 287.327C1857.5 291.227 1857.59 294.942 1857.59 298.471C1857.77 301.999 1857.87 304.971 1857.87 307.385V334.129C1857.87 339.515 1858.89 343.508 1860.93 346.108C1863.16 348.894 1865.95 350.658 1869.29 351.401C1872.82 352.329 1876.62 352.794 1880.71 352.794H1881.55V364.494H1806.61ZM1896.03 282.591C1904.2 282.591 1910.8 280.27 1915.81 275.627C1920.83 270.984 1924.45 264.205 1926.68 255.29C1929.09 246.376 1930.3 235.418 1930.3 222.418C1930.3 209.232 1929.09 198.274 1926.68 189.545C1924.45 180.817 1920.83 174.316 1915.81 170.045C1910.8 165.587 1904.11 163.359 1895.75 163.359C1886.1 163.359 1878.48 165.495 1872.91 169.766C1867.52 174.038 1863.62 180.631 1861.21 189.545C1858.98 198.274 1857.87 209.325 1857.87 222.696C1857.87 235.511 1858.98 246.376 1861.21 255.29C1863.62 264.205 1867.62 270.984 1873.19 275.627C1878.76 280.27 1886.37 282.591 1896.03 282.591ZM2052.67 300.421C2032.42 300.421 2016.54 293.735 2005.03 280.363C1993.7 266.991 1988.04 248.233 1988.04 224.089C1988.04 198.089 1993.42 178.495 2004.19 165.309C2014.97 152.123 2030.19 145.53 2049.88 145.53C2067.9 145.53 2082.01 151.101 2092.23 162.244C2102.63 173.388 2107.83 190.01 2107.83 212.11V224.925H2015.06C2015.43 238.483 2017.19 249.533 2020.35 258.076C2023.51 266.619 2028.06 272.934 2034 277.02C2040.13 280.92 2047.65 282.87 2056.57 282.87C2063.07 282.87 2068.82 281.941 2073.84 280.084C2079.04 278.227 2083.5 275.813 2087.21 272.841C2091.11 269.87 2094.18 266.712 2096.4 263.369C2097.7 263.926 2098.91 265.041 2100.03 266.712C2101.14 268.384 2101.7 270.427 2101.7 272.841C2101.7 276.555 2099.93 280.548 2096.4 284.82C2092.88 289.092 2087.49 292.806 2080.25 295.963C2073 298.935 2063.81 300.421 2052.67 300.421ZM2079.69 209.882C2079.69 200.039 2078.67 191.403 2076.62 183.974C2074.77 176.545 2071.61 170.788 2067.15 166.702C2062.7 162.616 2056.75 160.573 2049.32 160.573C2042.45 160.573 2036.6 162.523 2031.77 166.423C2027.13 170.138 2023.42 175.616 2020.63 182.859C2018.03 190.103 2016.36 199.11 2015.62 209.882H2079.69ZM2184.2 300.421C2172.13 300.421 2162.29 299.028 2154.67 296.242C2147.06 293.456 2141.48 290.02 2137.96 285.934C2134.61 281.849 2132.94 277.763 2132.94 273.677C2132.94 271.448 2133.31 269.405 2134.06 267.548C2134.98 265.505 2136.19 263.926 2137.68 262.812C2140.09 266.527 2142.97 269.87 2146.31 272.841C2149.84 275.813 2154.3 278.134 2159.69 279.806C2165.07 281.477 2171.66 282.313 2179.46 282.313C2190.98 282.313 2199.89 280.177 2206.21 275.905C2212.71 271.634 2215.96 264.391 2215.96 254.176C2215.96 244.89 2213.08 238.018 2207.32 233.561C2201.57 229.104 2193.58 226.875 2183.36 226.875H2157.46V211.832H2183.64C2189.96 211.832 2195.16 210.625 2199.24 208.21C2203.52 205.796 2206.67 202.546 2208.72 198.46C2210.76 194.374 2211.78 189.917 2211.78 185.088C2211.78 180.259 2210.94 175.895 2209.27 171.995C2207.79 167.909 2205.19 164.659 2201.47 162.244C2197.94 159.83 2193.02 158.623 2186.71 158.623C2180.58 158.623 2175.38 159.83 2171.11 162.244C2166.84 164.659 2163.59 168.095 2161.36 172.552C2159.13 177.009 2158.01 182.395 2158.01 188.71C2153.18 188.71 2149.1 188.152 2145.76 187.038C2142.41 185.738 2139.91 183.881 2138.23 181.467C2136.75 179.052 2136.01 175.895 2136.01 171.995C2136.01 167.352 2137.77 163.08 2141.3 159.18C2144.83 155.28 2150.31 152.123 2157.74 149.708C2165.16 147.108 2174.64 145.808 2186.15 145.808C2202.68 145.808 2215.49 149.244 2224.59 156.116C2233.69 162.802 2238.24 171.809 2238.24 183.138C2238.24 189.081 2237.04 194.374 2234.62 199.017C2232.39 203.66 2229.14 207.653 2224.87 210.996C2220.6 214.153 2215.68 216.661 2210.11 218.518V219.911C2216.61 221.396 2222.27 223.811 2227.1 227.154C2232.12 230.311 2236.02 234.397 2238.8 239.411C2241.59 244.24 2242.98 250.09 2242.98 256.962C2242.98 265.505 2240.85 273.027 2236.57 279.527C2232.3 286.027 2225.8 291.135 2217.07 294.849C2208.34 298.563 2197.39 300.421 2184.2 300.421ZM2260.42 297.635V285.934H2264.04C2268.13 285.934 2271.84 285.563 2275.19 284.82C2278.72 283.891 2281.5 282.127 2283.54 279.527C2285.77 276.741 2286.89 272.655 2286.89 267.269V178.959C2286.89 173.388 2285.77 169.302 2283.54 166.702C2281.5 163.916 2278.72 162.152 2275.19 161.409C2271.84 160.48 2268.13 160.016 2264.04 160.016H2260.42V148.315H2339.54V160.016H2335.92C2331.83 160.016 2328.02 160.48 2324.5 161.409C2321.15 162.152 2318.37 163.823 2316.14 166.423C2314.1 169.023 2313.07 173.109 2313.07 178.681V248.326L2386.62 179.795V178.959C2386.62 173.388 2385.51 169.302 2383.28 166.702C2381.23 163.916 2378.45 162.152 2374.92 161.409C2371.58 160.48 2367.86 160.016 2363.78 160.016H2362.94V148.315H2439.27V160.016H2435.65C2431.56 160.016 2427.76 160.48 2424.23 161.409C2420.89 162.152 2418.1 163.823 2415.87 166.423C2413.83 169.023 2412.81 173.109 2412.81 178.681V267.269C2412.81 272.655 2413.83 276.741 2415.87 279.527C2418.1 282.127 2420.89 283.891 2424.23 284.82C2427.76 285.563 2431.56 285.934 2435.65 285.934H2439.27V297.635H2360.15V285.934H2363.78C2367.86 285.934 2371.58 285.563 2374.92 284.82C2378.45 283.891 2381.23 282.127 2383.28 279.527C2385.51 276.741 2386.62 272.655 2386.62 267.269V197.903L2313.07 265.877V267.269C2313.07 272.655 2314.1 276.741 2316.14 279.527C2318.37 282.127 2321.15 283.891 2324.5 284.82C2328.02 285.563 2331.83 285.934 2335.92 285.934H2339.54V297.635H2260.42ZM2524.65 300.421C2512.39 300.421 2501.44 297.82 2491.78 292.62C2482.31 287.42 2474.78 279.248 2469.21 268.105C2463.83 256.776 2461.13 242.011 2461.13 223.811C2461.13 203.939 2463.83 188.338 2469.21 177.009C2474.78 165.495 2482.21 157.416 2491.5 152.773C2500.97 147.944 2511.56 145.53 2523.26 145.53C2531.06 145.53 2538.67 146.551 2546.1 148.594C2553.53 150.637 2559.66 153.794 2564.49 158.066C2569.32 162.152 2571.73 167.445 2571.73 173.945C2571.73 178.216 2570.8 181.652 2568.94 184.252C2567.09 186.852 2564.3 188.71 2560.59 189.824C2557.06 190.938 2552.51 191.495 2546.94 191.495C2546.94 185.552 2546.19 180.166 2544.71 175.338C2543.41 170.509 2541.09 166.702 2537.74 163.916C2534.4 160.944 2529.57 159.459 2523.26 159.459C2516.2 159.459 2509.98 161.316 2504.59 165.03C2499.39 168.745 2495.31 175.245 2492.33 184.531C2489.55 193.817 2488.16 206.817 2488.16 223.532C2488.16 236.718 2489.55 247.676 2492.33 256.405C2495.31 265.134 2499.86 271.634 2505.99 275.905C2512.11 280.177 2520.19 282.313 2530.22 282.313C2535.98 282.313 2541.27 281.477 2546.1 279.806C2550.93 278.134 2555.11 275.813 2558.64 272.841C2562.35 269.87 2565.23 266.527 2567.27 262.812C2568.76 263.926 2569.87 265.412 2570.62 267.269C2571.54 268.941 2572.01 271.077 2572.01 273.677C2572.01 277.948 2570.24 282.127 2566.72 286.213C2563.19 290.299 2557.89 293.735 2550.84 296.52C2543.97 299.121 2535.24 300.421 2524.65 300.421ZM2619.7 297.635V285.934H2623.32C2627.41 285.934 2631.12 285.563 2634.46 284.82C2637.99 283.891 2640.78 282.127 2642.82 279.527C2645.05 276.741 2646.16 272.655 2646.16 267.269V161.13H2623.04C2618.77 161.13 2615.33 161.78 2612.73 163.08C2610.32 164.38 2608.37 166.702 2606.88 170.045C2605.58 173.202 2604.47 177.752 2603.54 183.695L2602.15 192.888H2588.5L2590.17 148.315H2728.07L2729.74 192.888H2716.09L2714.69 183.695C2713.77 177.752 2712.56 173.202 2711.07 170.045C2709.77 166.702 2707.82 164.38 2705.22 163.08C2702.81 161.78 2699.47 161.13 2695.19 161.13H2672.35V267.269C2672.35 272.655 2673.37 276.741 2675.41 279.527C2677.64 282.127 2680.43 283.891 2683.77 284.82C2687.3 285.563 2691.11 285.934 2695.19 285.934H2701.6V297.635H2619.7ZM2815.23 300.421C2794.98 300.421 2779.1 293.735 2767.59 280.363C2756.26 266.991 2750.6 248.233 2750.6 224.089C2750.6 198.089 2755.98 178.495 2766.75 165.309C2777.53 152.123 2792.76 145.53 2812.44 145.53C2830.46 145.53 2844.57 151.101 2854.79 162.244C2865.19 173.388 2870.39 190.01 2870.39 212.11V224.925H2777.62C2777.99 238.483 2779.75 249.533 2782.91 258.076C2786.07 266.619 2790.62 272.934 2796.56 277.02C2802.69 280.92 2810.21 282.87 2819.13 282.87C2825.63 282.87 2831.39 281.941 2836.4 280.084C2841.6 278.227 2846.06 275.813 2849.77 272.841C2853.67 269.87 2856.74 266.712 2858.96 263.369C2860.26 263.926 2861.47 265.041 2862.59 266.712C2863.7 268.384 2864.26 270.427 2864.26 272.841C2864.26 276.555 2862.49 280.548 2858.96 284.82C2855.44 289.092 2850.05 292.806 2842.81 295.963C2835.56 298.935 2826.37 300.421 2815.23 300.421ZM2842.25 209.882C2842.25 200.039 2841.23 191.403 2839.19 183.974C2837.33 176.545 2834.17 170.788 2829.71 166.702C2825.26 162.616 2819.31 160.573 2811.88 160.573C2805.01 160.573 2799.16 162.523 2794.33 166.423C2789.69 170.138 2785.98 175.616 2783.19 182.859C2780.59 190.103 2778.92 199.11 2778.18 209.882H2842.25ZM2890.77 297.635V285.934H2894.39C2898.47 285.934 2902.19 285.563 2905.53 284.82C2909.06 283.891 2911.85 282.127 2913.89 279.527C2916.12 276.741 2917.23 272.655 2917.23 267.269V178.959C2917.23 173.388 2916.12 169.302 2913.89 166.702C2911.85 163.916 2909.06 162.152 2905.53 161.409C2902.19 160.48 2898.47 160.016 2894.39 160.016H2890.77V148.315H2967.1V160.016H2966.26C2962.18 160.016 2958.37 160.48 2954.84 161.409C2951.5 162.152 2948.71 163.823 2946.48 166.423C2944.44 169.023 2943.42 173.109 2943.42 178.681V214.618H3016.96V178.959C3016.96 173.388 3015.85 169.302 3013.62 166.702C3011.58 163.916 3008.79 162.152 3005.26 161.409C3001.92 160.48 2998.21 160.016 2994.12 160.016H2993.28V148.315H3069.62V160.016H3065.99C3061.91 160.016 3058.1 160.48 3054.57 161.409C3051.23 162.152 3048.44 163.823 3046.21 166.423C3044.17 169.023 3043.15 173.109 3043.15 178.681V267.269C3043.15 272.655 3044.17 276.741 3046.21 279.527C3048.44 282.127 3051.23 283.891 3054.57 284.82C3058.1 285.563 3061.91 285.934 3065.99 285.934H3069.62V297.635H2993.28V285.934H2994.12C2998.21 285.934 3001.92 285.563 3005.26 284.82C3008.79 283.891 3011.58 282.127 3013.62 279.527C3015.85 276.741 3016.96 272.655 3016.96 267.269V227.432H2943.42V267.269C2943.42 272.655 2944.44 276.741 2946.48 279.527C2948.71 282.127 2951.5 283.891 2954.84 284.82C2958.37 285.563 2962.18 285.934 2966.26 285.934H2967.1V297.635H2890.77ZM3112.93 297.635V285.934H3116.55C3120.64 285.934 3124.35 285.563 3127.69 284.82C3131.22 283.891 3134.01 282.127 3136.05 279.527C3138.28 276.741 3139.39 272.655 3139.39 267.269V161.13H3116.27C3112 161.13 3108.56 161.78 3105.96 163.08C3103.55 164.38 3101.6 166.702 3100.11 170.045C3098.81 173.202 3097.7 177.752 3096.77 183.695L3095.38 192.888H3081.73L3083.4 148.315H3221.3L3222.97 192.888H3209.32L3207.92 183.695C3207 177.752 3205.79 173.202 3204.3 170.045C3203 166.702 3201.05 164.38 3198.45 163.08C3196.04 161.78 3192.69 161.13 3188.42 161.13H3165.58V267.269C3165.58 272.655 3166.6 276.741 3168.64 279.527C3170.87 282.127 3173.66 283.891 3177 284.82C3180.53 285.563 3184.34 285.934 3188.42 285.934H3194.83V297.635H3112.93ZM3234.91 297.635V285.934H3238.53C3242.62 285.934 3246.33 285.563 3249.68 284.82C3253.21 283.891 3255.99 282.127 3258.03 279.527C3260.26 276.741 3261.38 272.655 3261.38 267.269V178.959C3261.38 173.388 3260.26 169.302 3258.03 166.702C3255.99 163.916 3253.21 162.152 3249.68 161.409C3246.33 160.48 3242.62 160.016 3238.53 160.016H3234.91V148.315H3311.24V160.016H3310.41C3306.32 160.016 3302.51 160.48 3298.99 161.409C3295.64 162.152 3292.86 163.823 3290.63 166.423C3288.59 169.023 3287.56 173.109 3287.56 178.681V214.618H3361.11V178.959C3361.11 173.388 3359.99 169.302 3357.77 166.702C3355.72 163.916 3352.94 162.152 3349.41 161.409C3346.07 160.48 3342.35 160.016 3338.27 160.016H3337.43V148.315H3413.76V160.016H3410.14C3406.05 160.016 3402.25 160.48 3398.72 161.409C3395.37 162.152 3392.59 163.823 3390.36 166.423C3388.32 169.023 3387.3 173.109 3387.3 178.681V267.269C3387.3 272.655 3388.32 276.741 3390.36 279.527C3392.59 282.127 3395.37 283.891 3398.72 284.82C3402.25 285.563 3406.05 285.934 3410.14 285.934H3413.76V297.635H3337.43V285.934H3338.27C3342.35 285.934 3346.07 285.563 3349.41 284.82C3352.94 283.891 3355.72 282.127 3357.77 279.527C3359.99 276.741 3361.11 272.655 3361.11 267.269V227.432H3287.56V267.269C3287.56 272.655 3288.59 276.741 3290.63 279.527C3292.86 282.127 3295.64 283.891 3298.99 284.82C3302.51 285.563 3306.32 285.934 3310.41 285.934H3311.24V297.635H3234.91ZM3500.25 300.421C3480.2 300.421 3464.41 294.013 3452.89 281.198C3441.38 268.384 3435.62 248.883 3435.62 222.696C3435.62 196.696 3441.1 177.381 3452.06 164.752C3463.2 151.937 3479.55 145.53 3501.09 145.53C3521.15 145.53 3536.93 151.937 3548.45 164.752C3559.96 177.381 3565.72 196.696 3565.72 222.696C3565.72 248.883 3560.15 268.384 3549.01 281.198C3538.05 294.013 3521.8 300.421 3500.25 300.421ZM3500.81 285.934C3510.1 285.934 3517.53 283.613 3523.1 278.97C3528.67 274.141 3532.66 266.991 3535.08 257.519C3537.49 248.047 3538.7 236.44 3538.7 222.696C3538.7 208.767 3537.4 197.253 3534.8 188.152C3532.38 178.866 3528.39 171.902 3522.82 167.259C3517.25 162.616 3509.82 160.294 3500.53 160.294C3491.25 160.294 3483.82 162.616 3478.25 167.259C3472.67 171.902 3468.68 178.866 3466.27 188.152C3463.85 197.253 3462.65 208.767 3462.65 222.696C3462.65 236.44 3463.85 248.047 3466.27 257.519C3468.87 266.991 3472.95 274.141 3478.52 278.97C3484.1 283.613 3491.52 285.934 3500.81 285.934ZM3659.92 300.421C3647.66 300.421 3636.71 297.82 3627.05 292.62C3617.58 287.42 3610.06 279.248 3604.48 268.105C3599.1 256.776 3596.41 242.011 3596.41 223.811C3596.41 203.939 3599.1 188.338 3604.48 177.009C3610.06 165.495 3617.48 157.416 3626.77 152.773C3636.24 147.944 3646.83 145.53 3658.53 145.53C3666.33 145.53 3673.94 146.551 3681.37 148.594C3688.8 150.637 3694.93 153.794 3699.76 158.066C3704.59 162.152 3707 167.445 3707 173.945C3707 178.216 3706.07 181.652 3704.22 184.252C3702.36 186.852 3699.57 188.71 3695.86 189.824C3692.33 190.938 3687.78 191.495 3682.21 191.495C3682.21 185.552 3681.47 180.166 3679.98 175.338C3678.68 170.509 3676.36 166.702 3673.01 163.916C3669.67 160.944 3664.84 159.459 3658.53 159.459C3651.47 159.459 3645.25 161.316 3639.86 165.03C3634.66 168.745 3630.58 175.245 3627.61 184.531C3624.82 193.817 3623.43 206.817 3623.43 223.532C3623.43 236.718 3624.82 247.676 3627.61 256.405C3630.58 265.134 3635.13 271.634 3641.26 275.905C3647.39 280.177 3655.46 282.313 3665.49 282.313C3671.25 282.313 3676.54 281.477 3681.37 279.806C3686.2 278.134 3690.38 275.813 3693.91 272.841C3697.62 269.87 3700.5 266.527 3702.54 262.812C3704.03 263.926 3705.14 265.412 3705.89 267.269C3706.82 268.941 3707.28 271.077 3707.28 273.677C3707.28 277.948 3705.52 282.127 3701.99 286.213C3698.46 290.299 3693.17 293.735 3686.11 296.52C3679.24 299.121 3670.51 300.421 3659.92 300.421ZM3754.97 297.635V285.934H3758.59C3762.68 285.934 3766.39 285.563 3769.73 284.82C3773.26 283.891 3776.05 282.127 3778.09 279.527C3780.32 276.741 3781.44 272.655 3781.44 267.269V161.13H3758.31C3754.04 161.13 3750.61 161.78 3748.01 163.08C3745.59 164.38 3743.64 166.702 3742.16 170.045C3740.86 173.202 3739.74 177.752 3738.81 183.695L3737.42 192.888H3723.77L3725.44 148.315H3863.34L3865.01 192.888H3851.36L3849.97 183.695C3849.04 177.752 3847.83 173.202 3846.34 170.045C3845.04 166.702 3843.09 164.38 3840.49 163.08C3838.08 161.78 3834.74 161.13 3830.47 161.13H3807.62V267.269C3807.62 272.655 3808.64 276.741 3810.69 279.527C3812.91 282.127 3815.7 283.891 3819.04 284.82C3822.57 285.563 3826.38 285.934 3830.47 285.934H3836.87V297.635H3754.97ZM3876.95 297.635V285.934H3880.58C3884.66 285.934 3888.38 285.563 3891.72 284.82C3895.25 283.891 3898.03 282.127 3900.08 279.527C3902.3 276.741 3903.42 272.655 3903.42 267.269V178.959C3903.42 173.388 3902.3 169.302 3900.08 166.702C3898.03 163.916 3895.25 162.152 3891.72 161.409C3888.38 160.48 3884.66 160.016 3880.58 160.016H3876.95V148.315H3956.07V160.016H3952.45C3948.36 160.016 3944.56 160.48 3941.03 161.409C3937.68 162.152 3934.9 163.823 3932.67 166.423C3930.63 169.023 3929.61 173.109 3929.61 178.681V248.326L4003.15 179.795V178.959C4003.15 173.388 4002.04 169.302 3999.81 166.702C3997.76 163.916 3994.98 162.152 3991.45 161.409C3988.11 160.48 3984.39 160.016 3980.31 160.016H3979.47V148.315H4055.8V160.016H4052.18C4048.1 160.016 4044.29 160.48 4040.76 161.409C4037.42 162.152 4034.63 163.823 4032.4 166.423C4030.36 169.023 4029.34 173.109 4029.34 178.681V267.269C4029.34 272.655 4030.36 276.741 4032.4 279.527C4034.63 282.127 4037.42 283.891 4040.76 284.82C4044.29 285.563 4048.1 285.934 4052.18 285.934H4055.8V297.635H3976.69V285.934H3980.31C3984.39 285.934 3988.11 285.563 3991.45 284.82C3994.98 283.891 3997.76 282.127 3999.81 279.527C4002.04 276.741 4003.15 272.655 4003.15 267.269V197.903L3929.61 265.877V267.269C3929.61 272.655 3930.63 276.741 3932.67 279.527C3934.9 282.127 3937.68 283.891 3941.03 284.82C3944.56 285.563 3948.36 285.934 3952.45 285.934H3956.07V297.635H3876.95ZM45.8895 676.635V664.934H50.9039C55.1755 664.934 58.9828 664.47 62.3257 663.541C65.8544 662.613 68.6402 660.756 70.6832 657.97C72.7261 654.998 73.7475 650.634 73.7475 644.877V557.959C73.7475 552.388 72.6332 548.302 70.4046 545.702C68.3617 542.916 65.5758 541.152 62.0471 540.409C58.7042 539.48 54.9898 539.016 50.9039 539.016H45.8895V527.315H123.614V539.016H122.778C118.878 539.016 115.163 539.48 111.635 540.409C108.106 541.152 105.227 542.73 102.999 545.145C100.956 547.559 99.9342 551.366 99.9342 556.566V591.668C103.649 591.668 106.62 591.482 108.849 591.11C111.263 590.739 113.306 590.089 114.978 589.16C116.649 588.232 118.228 587.117 119.713 585.817C122.128 583.589 124.914 580.06 128.071 575.231C131.414 570.403 135.407 564.46 140.05 557.402C144.321 550.902 148.222 545.33 151.75 540.687C155.465 535.859 159.643 532.144 164.286 529.544C168.929 526.944 174.78 525.644 181.837 525.644C189.637 525.644 195.58 527.223 199.666 530.38C203.752 533.537 205.795 537.623 205.795 542.637C205.795 547.838 204.402 551.923 201.616 554.895C199.016 557.681 195.952 559.445 192.423 560.188C191.68 555.916 190.009 552.295 187.409 549.323C184.994 546.166 181.466 544.587 176.822 544.587C172.179 544.587 168.001 546.352 164.286 549.88C160.572 553.409 156.3 558.702 151.472 565.76C148.129 570.588 145.157 574.767 142.557 578.296C140.143 581.639 137.821 584.517 135.593 586.932C133.55 589.16 131.321 591.11 128.907 592.782C134.664 592.968 139.493 594.082 143.393 596.125C147.479 597.982 151.007 600.675 153.979 604.204C157.136 607.547 160.108 611.818 162.893 617.018L177.38 642.648C180.351 647.848 183.416 652.12 186.573 655.463C189.73 658.62 193.166 661.034 196.88 662.706C200.595 664.191 204.495 664.934 208.581 664.934H209.416V676.635H199.666C190.194 676.635 182.394 675.985 176.265 674.685C170.322 673.199 165.308 670.599 161.222 666.884C157.136 663.17 153.236 657.691 149.522 650.448L135.871 623.426C133.085 618.04 130.299 614.047 127.514 611.447C124.728 608.661 121.199 606.804 116.928 605.875C112.656 604.947 106.992 604.482 99.9342 604.482V646.269C99.9342 651.655 100.956 655.741 102.999 658.527C105.227 661.127 108.013 662.891 111.356 663.82C114.885 664.563 118.692 664.934 122.778 664.934H123.614V676.635H45.8895ZM364.029 679.421C349.914 679.421 338.121 676.263 328.649 669.949C319.177 663.449 312.027 653.605 307.198 640.419C302.37 627.233 299.955 610.518 299.955 590.275C299.955 574.86 300.791 560.745 302.462 547.93C304.32 534.93 307.663 523.508 312.491 513.665C317.32 503.822 324.099 495.836 332.828 489.707C341.742 483.578 353.164 479.678 367.093 478.007C373.222 477.264 379.072 476.614 384.644 476.057C390.401 475.314 395.509 474.478 399.966 473.549C404.423 472.435 408.138 471.135 411.109 469.649C414.081 467.978 416.123 465.935 417.238 463.52H426.152C425.967 471.321 424.481 477.449 421.695 481.907C419.095 486.364 415.288 489.8 410.273 492.214C405.259 494.629 399.037 496.486 391.608 497.786C384.18 499.086 375.636 500.293 365.979 501.407C357.807 502.336 350.843 503.636 345.085 505.308C339.514 506.979 334.964 509.3 331.435 512.272C328.092 515.244 325.399 518.958 323.356 523.415C321.499 527.873 320.106 533.351 319.177 539.852C318.249 546.352 317.599 554.059 317.227 562.974H318.342C320.385 557.216 323.449 552.109 327.535 547.652C331.806 543.009 337.192 539.294 343.692 536.509C350.193 533.723 357.622 532.33 365.979 532.33C387.151 532.33 403.03 538.551 413.616 550.995C424.388 563.252 429.774 581.453 429.774 605.597C429.774 629.369 424.388 647.662 413.616 660.477C403.03 673.106 386.501 679.421 364.029 679.421ZM364.029 664.934C373.872 664.934 381.579 662.706 387.151 658.248C392.908 653.605 396.994 646.919 399.409 638.191C401.823 629.276 403.03 618.411 403.03 605.597C403.03 592.596 401.823 581.732 399.409 573.003C396.994 564.274 392.908 557.681 387.151 553.223C381.579 548.766 373.872 546.537 364.029 546.537C354.186 546.537 346.571 548.766 341.185 553.223C335.799 557.681 331.992 564.274 329.763 573.003C327.72 581.732 326.699 592.596 326.699 605.597C326.699 618.411 327.999 629.276 330.599 638.191C333.199 646.919 337.192 653.605 342.578 658.248C348.15 662.706 355.3 664.934 364.029 664.934ZM525.096 679.421C504.853 679.421 488.974 672.735 477.459 659.363C466.13 645.991 460.466 627.233 460.466 603.089C460.466 577.089 465.852 557.495 476.623 544.309C487.395 531.123 502.624 524.53 522.311 524.53C540.326 524.53 554.44 530.101 564.655 541.244C575.055 552.388 580.256 569.01 580.256 591.11V603.925H487.488C487.86 617.483 489.624 628.533 492.781 637.076C495.938 645.619 500.489 651.934 506.432 656.02C512.56 659.92 520.082 661.87 528.997 661.87C535.497 661.87 541.254 660.941 546.269 659.084C551.469 657.227 555.926 654.813 559.641 651.841C563.541 648.87 566.605 645.712 568.834 642.369C570.134 642.926 571.341 644.041 572.455 645.712C573.57 647.384 574.127 649.427 574.127 651.841C574.127 655.555 572.362 659.548 568.834 663.82C565.305 668.092 559.919 671.806 552.676 674.963C545.433 677.935 536.24 679.421 525.096 679.421ZM552.119 588.882C552.119 579.039 551.097 570.403 549.054 562.974C547.197 555.545 544.04 549.788 539.583 545.702C535.125 541.616 529.182 539.573 521.754 539.573C514.882 539.573 509.032 541.523 504.203 545.423C499.56 549.138 495.845 554.616 493.06 561.859C490.46 569.103 488.788 578.11 488.045 588.882H552.119ZM616.515 678.585C609.086 678.585 603.514 676.913 599.8 673.57C596.085 670.042 594.228 665.213 594.228 659.084C594.228 655.927 594.692 653.048 595.621 650.448C596.735 647.848 598.221 645.805 600.078 644.319C601.935 642.834 604.071 642.091 606.486 642.091C606.486 643.762 606.95 645.619 607.879 647.662C608.993 649.705 610.572 651.47 612.614 652.955C614.657 654.441 617.165 655.184 620.136 655.184C623.665 655.184 626.915 654.348 629.886 652.677C632.858 651.005 635.83 647.384 638.801 641.812C641.773 636.241 644.837 627.605 647.994 615.904C649.109 612.004 650.223 607.454 651.337 602.254C652.452 596.868 653.566 591.296 654.68 585.539C655.794 579.781 656.63 574.396 657.187 569.381C657.93 564.181 658.302 559.817 658.302 556.288C658.302 551.273 657.187 547.559 654.959 545.145C652.916 542.73 650.13 541.152 646.601 540.409C643.258 539.48 639.544 539.016 635.458 539.016H631.837V527.315H762.77V539.016H759.148C755.062 539.016 751.255 539.48 747.726 540.409C744.383 541.152 741.597 542.823 739.369 545.423C737.326 548.023 736.304 552.109 736.304 557.681V646.269C736.304 651.655 737.326 655.741 739.369 658.527C741.597 661.127 744.383 662.891 747.726 663.82C751.255 664.563 755.062 664.934 759.148 664.934H762.77V676.635H686.438V664.934H687.274C691.36 664.934 695.074 664.563 698.417 663.82C701.946 662.891 704.732 661.127 706.775 658.527C709.003 655.741 710.118 651.655 710.118 646.269V540.13H674.181C673.252 548.673 672.231 557.216 671.116 565.76C670.002 574.117 668.702 582.289 667.216 590.275C665.916 598.261 664.43 605.968 662.759 613.397C661.273 620.64 659.602 627.326 657.745 633.455C654.402 644.784 650.873 653.791 647.158 660.477C643.444 666.977 639.172 671.62 634.344 674.406C629.515 677.192 623.572 678.585 616.515 678.585ZM849.11 679.421C829.052 679.421 813.266 673.013 801.751 660.198C790.237 647.384 784.479 627.883 784.479 601.696C784.479 575.696 789.958 556.381 800.916 543.752C812.059 530.937 828.402 524.53 849.946 524.53C870.004 524.53 885.79 530.937 897.305 543.752C908.819 556.381 914.577 575.696 914.577 601.696C914.577 627.883 909.005 647.384 897.862 660.198C886.904 673.013 870.654 679.421 849.11 679.421ZM849.667 664.934C858.953 664.934 866.382 662.613 871.954 657.97C877.525 653.141 881.518 645.991 883.933 636.519C886.347 627.047 887.554 615.44 887.554 601.696C887.554 587.767 886.254 576.253 883.654 567.152C881.24 557.866 877.247 550.902 871.675 546.259C866.103 541.616 858.675 539.294 849.389 539.294C840.103 539.294 832.674 541.616 827.102 546.259C821.53 550.902 817.538 557.866 815.123 567.152C812.709 576.253 811.502 587.767 811.502 601.696C811.502 615.44 812.709 627.047 815.123 636.519C817.723 645.991 821.809 653.141 827.381 657.97C832.952 662.613 840.381 664.934 849.667 664.934ZM936.347 676.635V664.934H939.969C944.055 664.934 947.769 664.563 951.112 663.82C954.641 662.891 957.426 661.127 959.469 658.527C961.698 655.741 962.812 651.655 962.812 646.269V557.959C962.812 552.388 961.698 548.302 959.469 545.702C957.426 542.916 954.641 541.152 951.112 540.409C947.769 539.48 944.055 539.016 939.969 539.016H936.347V527.315H995.963L1039.98 639.862L1085.95 527.315H1142.78V539.016H1139.15C1135.07 539.016 1131.26 539.48 1127.73 540.409C1124.39 541.152 1121.6 542.823 1119.37 545.423C1117.33 548.023 1116.31 552.109 1116.31 557.681V646.269C1116.31 651.655 1117.33 655.741 1119.37 658.527C1121.6 661.127 1124.39 662.891 1127.73 663.82C1131.26 664.563 1135.07 664.934 1139.15 664.934H1142.78V676.635H1066.44V664.934H1067.28C1071.37 664.934 1075.08 664.563 1078.42 663.82C1081.95 662.891 1084.74 661.127 1086.78 658.527C1089.01 655.741 1090.12 651.655 1090.12 646.269V557.124H1088.17L1039.7 676.635H1026.89L979.806 557.124H977.856V646.269C977.856 651.655 978.877 655.741 980.92 658.527C983.149 661.127 985.935 662.891 989.278 663.82C992.806 664.563 996.614 664.934 1000.7 664.934H1001.54V676.635H936.347ZM1159.8 730.401C1169.27 730.401 1177.44 729.008 1184.31 726.222C1191.19 723.436 1197.04 719.536 1201.87 714.522C1206.69 709.693 1210.78 703.936 1214.12 697.25C1217.47 690.564 1220.25 683.321 1222.48 675.52L1170.94 553.781C1169.27 549.88 1167.6 546.909 1165.93 544.866C1164.26 542.637 1162.31 541.152 1160.08 540.409C1157.85 539.48 1154.88 539.016 1151.16 539.016H1150.33V527.315H1217.19V539.016H1216.35C1210.78 539.016 1206.6 540.13 1203.82 542.359C1201.03 544.402 1199.64 547.745 1199.64 552.388C1199.64 553.873 1199.82 555.452 1200.19 557.124C1200.57 558.795 1201.12 560.652 1201.87 562.695L1222.2 612.283C1223.5 615.44 1224.8 618.876 1226.1 622.59C1227.59 626.304 1228.98 630.019 1230.28 633.733C1231.58 637.448 1232.69 640.976 1233.62 644.319C1234.55 647.662 1235.2 650.448 1235.57 652.677C1236.87 647.291 1238.55 641.719 1240.59 635.962C1242.82 630.205 1244.86 624.54 1246.72 618.969L1265.38 564.645C1266.31 562.417 1266.96 560.281 1267.33 558.238C1267.7 556.009 1267.89 554.152 1267.89 552.666C1267.89 547.838 1266.31 544.402 1263.15 542.359C1260.18 540.13 1255.63 539.016 1249.5 539.016H1248.67V527.315H1306.61V539.016H1305.78C1302.25 539.016 1299.28 539.573 1296.86 540.687C1294.45 541.802 1292.31 543.937 1290.45 547.095C1288.78 550.252 1286.83 554.802 1284.6 560.745L1242.26 677.749C1237.43 691.307 1232.79 702.357 1228.33 710.9C1223.87 719.443 1218.86 726.036 1213.29 730.679C1207.9 735.508 1201.12 738.851 1192.95 740.708C1184.78 742.566 1174.56 743.494 1162.31 743.494H1159.8V730.401ZM1440.66 743.773V732.072H1444.29C1448.56 732.072 1452.36 731.608 1455.71 730.679C1459.24 729.751 1462.02 727.801 1464.06 724.829C1466.11 722.043 1467.13 717.772 1467.13 712.015V678.863C1451.9 677.749 1438.81 674.22 1427.85 668.277C1417.08 662.149 1408.81 653.605 1403.06 642.648C1397.3 631.505 1394.42 617.854 1394.42 601.696C1394.42 585.539 1397.11 571.981 1402.5 561.024C1408.07 550.066 1416.24 541.616 1427.01 535.673C1437.78 529.73 1451.16 526.201 1467.13 525.087V495.557C1467.13 489.986 1466.01 485.9 1463.79 483.3C1461.74 480.514 1458.96 478.749 1455.43 478.007C1452.09 477.078 1448.37 476.614 1444.29 476.614H1440.66V464.913H1491.09V525.087C1506.32 526.201 1519.32 529.823 1530.09 535.951C1540.86 541.894 1549.12 550.345 1554.88 561.302C1560.64 572.26 1563.52 585.725 1563.52 601.696C1563.52 617.854 1560.73 631.505 1555.16 642.648C1549.77 653.605 1541.7 662.149 1530.92 668.277C1520.34 674.22 1507.06 677.749 1491.09 678.863V712.015C1491.09 717.772 1492.11 722.043 1494.15 724.829C1496.19 727.801 1498.98 729.751 1502.51 730.679C1506.04 731.608 1509.84 732.072 1513.93 732.072H1517.55V743.773H1440.66ZM1467.13 539.852C1456.17 541.152 1447.35 544.309 1440.66 549.323C1434.16 554.338 1429.43 561.209 1426.46 569.938C1423.67 578.667 1422.28 589.253 1422.28 601.696C1422.28 614.14 1423.67 624.819 1426.46 633.733C1429.43 642.648 1434.16 649.705 1440.66 654.905C1447.35 659.92 1456.17 663.077 1467.13 664.377V539.852ZM1491.09 664.377C1502.04 663.077 1510.77 659.92 1517.27 654.905C1523.77 649.705 1528.42 642.648 1531.2 633.733C1534.17 624.819 1535.66 614.14 1535.66 601.696C1535.66 589.253 1534.17 578.667 1531.2 569.938C1528.42 561.209 1523.77 554.338 1517.27 549.323C1510.77 544.309 1502.04 541.152 1491.09 539.852V664.377ZM1658.74 679.421C1638.68 679.421 1622.89 673.013 1611.38 660.198C1599.86 647.384 1594.11 627.883 1594.11 601.696C1594.11 575.696 1599.58 556.381 1610.54 543.752C1621.68 530.937 1638.03 524.53 1659.57 524.53C1679.63 524.53 1695.42 530.937 1706.93 543.752C1718.44 556.381 1724.2 575.696 1724.2 601.696C1724.2 627.883 1718.63 647.384 1707.49 660.198C1696.53 673.013 1680.28 679.421 1658.74 679.421ZM1659.29 664.934C1668.58 664.934 1676.01 662.613 1681.58 657.97C1687.15 653.141 1691.14 645.991 1693.56 636.519C1695.97 627.047 1697.18 615.44 1697.18 601.696C1697.18 587.767 1695.88 576.253 1693.28 567.152C1690.87 557.866 1686.87 550.902 1681.3 546.259C1675.73 541.616 1668.3 539.294 1659.01 539.294C1649.73 539.294 1642.3 541.616 1636.73 546.259C1631.16 550.902 1627.16 557.866 1624.75 567.152C1622.33 576.253 1621.13 587.767 1621.13 601.696C1621.13 615.44 1622.33 627.047 1624.75 636.519C1627.35 645.991 1631.43 653.141 1637.01 657.97C1642.58 662.613 1650.01 664.934 1659.29 664.934ZM1818.4 679.421C1806.15 679.421 1795.19 676.82 1785.53 671.62C1776.06 666.42 1768.54 658.248 1762.97 647.105C1757.58 635.776 1754.89 621.011 1754.89 602.811C1754.89 582.939 1757.58 567.338 1762.97 556.009C1768.54 544.495 1775.97 536.416 1785.25 531.773C1794.72 526.944 1805.31 524.53 1817.01 524.53C1824.81 524.53 1832.43 525.551 1839.85 527.594C1847.28 529.637 1853.41 532.794 1858.24 537.066C1863.07 541.152 1865.48 546.445 1865.48 552.945C1865.48 557.216 1864.56 560.652 1862.7 563.252C1860.84 565.852 1858.06 567.71 1854.34 568.824C1850.81 569.938 1846.26 570.495 1840.69 570.495C1840.69 564.552 1839.95 559.166 1838.46 554.338C1837.16 549.509 1834.84 545.702 1831.5 542.916C1828.15 539.944 1823.33 538.459 1817.01 538.459C1809.95 538.459 1803.73 540.316 1798.35 544.03C1793.15 547.745 1789.06 554.245 1786.09 563.531C1783.3 572.817 1781.91 585.817 1781.91 602.532C1781.91 615.718 1783.3 626.676 1786.09 635.405C1789.06 644.134 1793.61 650.634 1799.74 654.905C1805.87 659.177 1813.95 661.313 1823.98 661.313C1829.73 661.313 1835.03 660.477 1839.85 658.806C1844.68 657.134 1848.86 654.813 1852.39 651.841C1856.11 648.87 1858.98 645.527 1861.03 641.812C1862.51 642.926 1863.63 644.412 1864.37 646.269C1865.3 647.941 1865.76 650.077 1865.76 652.677C1865.76 656.948 1864 661.127 1860.47 665.213C1856.94 669.299 1851.65 672.735 1844.59 675.52C1837.72 678.121 1828.99 679.421 1818.4 679.421ZM1938.25 743.773V732.072H1941.87C1946.14 732.072 1949.95 731.608 1953.29 730.679C1956.82 729.751 1959.6 727.801 1961.65 724.829C1963.69 722.043 1964.71 717.772 1964.71 712.015V678.863C1949.48 677.749 1936.39 674.22 1925.43 668.277C1914.66 662.149 1906.39 653.605 1900.64 642.648C1894.88 631.505 1892 617.854 1892 601.696C1892 585.539 1894.69 571.981 1900.08 561.024C1905.65 550.066 1913.82 541.616 1924.6 535.673C1935.37 529.73 1948.74 526.201 1964.71 525.087V495.557C1964.71 489.986 1963.6 485.9 1961.37 483.3C1959.33 480.514 1956.54 478.749 1953.01 478.007C1949.67 477.078 1945.95 476.614 1941.87 476.614H1938.25V464.913H1988.67V525.087C2003.9 526.201 2016.9 529.823 2027.67 535.951C2038.44 541.894 2046.71 550.345 2052.46 561.302C2058.22 572.26 2061.1 585.725 2061.1 601.696C2061.1 617.854 2058.31 631.505 2052.74 642.648C2047.36 653.605 2039.28 662.149 2028.51 668.277C2017.92 674.22 2004.64 677.749 1988.67 678.863V712.015C1988.67 717.772 1989.69 722.043 1991.73 724.829C1993.78 727.801 1996.56 729.751 2000.09 730.679C2003.62 731.608 2007.43 732.072 2011.51 732.072H2015.13V743.773H1938.25ZM1964.71 539.852C1953.75 541.152 1944.93 544.309 1938.25 549.323C1931.75 554.338 1927.01 561.209 1924.04 569.938C1921.25 578.667 1919.86 589.253 1919.86 601.696C1919.86 614.14 1921.25 624.819 1924.04 633.733C1927.01 642.648 1931.75 649.705 1938.25 654.905C1944.93 659.92 1953.75 663.077 1964.71 664.377V539.852ZM1988.67 664.377C1999.63 663.077 2008.36 659.92 2014.86 654.905C2021.36 649.705 2026 642.648 2028.78 633.733C2031.76 624.819 2033.24 614.14 2033.24 601.696C2033.24 589.253 2031.76 578.667 2028.78 569.938C2026 561.209 2021.36 554.338 2014.86 549.323C2008.36 544.309 1999.63 541.152 1988.67 539.852V664.377ZM2156.32 679.421C2136.26 679.421 2120.47 673.013 2108.96 660.198C2097.44 647.384 2091.69 627.883 2091.69 601.696C2091.69 575.696 2097.17 556.381 2108.12 543.752C2119.27 530.937 2135.61 524.53 2157.15 524.53C2177.21 524.53 2193 530.937 2204.51 543.752C2216.03 556.381 2221.78 575.696 2221.78 601.696C2221.78 627.883 2216.21 647.384 2205.07 660.198C2194.11 673.013 2177.86 679.421 2156.32 679.421ZM2156.88 664.934C2166.16 664.934 2173.59 662.613 2179.16 657.97C2184.73 653.141 2188.73 645.991 2191.14 636.519C2193.56 627.047 2194.76 615.44 2194.76 601.696C2194.76 587.767 2193.46 576.253 2190.86 567.152C2188.45 557.866 2184.45 550.902 2178.88 546.259C2173.31 541.616 2165.88 539.294 2156.6 539.294C2147.31 539.294 2139.88 541.616 2134.31 546.259C2128.74 550.902 2124.75 557.866 2122.33 567.152C2119.92 576.253 2118.71 587.767 2118.71 601.696C2118.71 615.44 2119.92 627.047 2122.33 636.519C2124.93 645.991 2129.02 653.141 2134.59 657.97C2140.16 662.613 2147.59 664.934 2156.88 664.934ZM2242.16 743.494V731.794H2244.39C2248.66 731.794 2252.47 731.329 2255.81 730.401C2259.34 729.472 2262.13 727.522 2264.17 724.551C2266.21 721.765 2267.23 717.493 2267.23 711.736V557.959C2267.23 552.388 2266.12 548.302 2263.89 545.702C2261.85 542.916 2259.06 541.152 2255.53 540.409C2252.19 539.48 2248.48 539.016 2244.39 539.016H2240.77V527.315H2289.52L2292.31 552.388H2293.42C2297.69 543.845 2303.17 537.066 2309.86 532.051C2316.54 527.037 2325.27 524.53 2336.04 524.53C2354.43 524.53 2368.45 530.751 2378.11 543.195C2387.95 555.452 2392.87 574.953 2392.87 601.696C2392.87 628.626 2387.95 648.312 2378.11 660.756C2368.45 673.199 2354.43 679.421 2336.04 679.421C2325.27 679.421 2316.45 677.192 2309.58 672.735C2302.89 668.092 2297.51 662.149 2293.42 654.905H2292.31C2292.68 658.434 2292.86 662.241 2292.86 666.327C2293.05 670.227 2293.14 673.942 2293.14 677.471C2293.33 680.999 2293.42 683.971 2293.42 686.385V713.129C2293.42 718.515 2294.44 722.508 2296.49 725.108C2298.71 727.894 2301.5 729.658 2304.84 730.401C2308.37 731.329 2312.18 731.794 2316.26 731.794H2317.1V743.494H2242.16ZM2331.59 661.591C2339.76 661.591 2346.35 659.27 2351.37 654.627C2356.38 649.984 2360 643.205 2362.23 634.29C2364.65 625.376 2365.85 614.418 2365.85 601.418C2365.85 588.232 2364.65 577.274 2362.23 568.545C2360 559.817 2356.38 553.316 2351.37 549.045C2346.35 544.587 2339.67 542.359 2331.31 542.359C2321.65 542.359 2314.04 544.495 2308.46 548.766C2303.08 553.038 2299.18 559.631 2296.76 568.545C2294.54 577.274 2293.42 588.325 2293.42 601.696C2293.42 614.511 2294.54 625.376 2296.76 634.29C2299.18 643.205 2303.17 649.984 2308.74 654.627C2314.31 659.27 2321.93 661.591 2331.59 661.591ZM2418.85 730.401C2428.33 730.401 2436.5 729.008 2443.37 726.222C2450.24 723.436 2456.09 719.536 2460.92 714.522C2465.75 709.693 2469.83 703.936 2473.18 697.25C2476.52 690.564 2479.31 683.321 2481.54 675.52L2430 553.781C2428.33 549.88 2426.65 546.909 2424.98 544.866C2423.31 542.637 2421.36 541.152 2419.13 540.409C2416.9 539.48 2413.93 539.016 2410.22 539.016H2409.38V527.315H2476.24V539.016H2475.41C2469.83 539.016 2465.66 540.13 2462.87 542.359C2460.08 544.402 2458.69 547.745 2458.69 552.388C2458.69 553.873 2458.88 555.452 2459.25 557.124C2459.62 558.795 2460.18 560.652 2460.92 562.695L2481.26 612.283C2482.56 615.44 2483.86 618.876 2485.16 622.59C2486.64 626.304 2488.04 630.019 2489.34 633.733C2490.64 637.448 2491.75 640.976 2492.68 644.319C2493.61 647.662 2494.26 650.448 2494.63 652.677C2495.93 647.291 2497.6 641.719 2499.64 635.962C2501.87 630.205 2503.91 624.54 2505.77 618.969L2524.44 564.645C2525.37 562.417 2526.02 560.281 2526.39 558.238C2526.76 556.009 2526.94 554.152 2526.94 552.666C2526.94 547.838 2525.37 544.402 2522.21 542.359C2519.24 540.13 2514.69 539.016 2508.56 539.016H2507.72V527.315H2565.67V539.016H2564.83C2561.3 539.016 2558.33 539.573 2555.92 540.687C2553.5 541.802 2551.37 543.937 2549.51 547.095C2547.84 550.252 2545.89 554.802 2543.66 560.745L2501.31 677.749C2496.49 691.307 2491.84 702.357 2487.39 710.9C2482.93 719.443 2477.91 726.036 2472.34 730.679C2466.96 735.508 2460.18 738.851 2452.01 740.708C2443.83 742.566 2433.62 743.494 2421.36 743.494H2418.85V730.401Z" fill="black"/>
<path d="M121.447 1213.08L52.6875 1029.91H51.5172C51.9073 1033.81 52.1999 1038.79 52.395 1044.83C52.7851 1050.88 53.0777 1057.51 53.2727 1064.73C53.4678 1071.75 53.5653 1078.97 53.5653 1086.38V1213.08H29.28V1004.16H68.195L132.566 1175.33H133.736L199.277 1004.16H237.899V1213.08H211.859V1084.63C211.859 1077.8 211.956 1071.07 212.151 1064.44C212.346 1057.61 212.639 1051.27 213.029 1045.42C213.419 1039.37 213.712 1034.3 213.907 1030.21H212.736L143.099 1213.08H121.447ZM351.785 1053.32C365.244 1053.32 376.753 1056.25 386.311 1062.1C396.064 1067.95 403.476 1076.24 408.548 1086.97C413.815 1097.5 416.448 1109.89 416.448 1124.13V1139.64H309.066C309.456 1157.39 313.943 1170.94 322.525 1180.31C331.303 1189.47 343.495 1194.06 359.1 1194.06C369.048 1194.06 377.826 1193.18 385.433 1191.42C393.236 1189.47 401.233 1186.74 409.426 1183.23V1205.76C401.428 1209.27 393.528 1211.81 385.726 1213.37C377.923 1215.12 368.658 1216 357.929 1216C343.104 1216 329.938 1212.98 318.429 1206.93C307.115 1200.88 298.24 1191.91 291.803 1180.01C285.561 1167.92 282.44 1153.19 282.44 1135.83C282.44 1118.67 285.268 1103.94 290.925 1091.65C296.777 1079.36 304.872 1069.9 315.21 1063.27C325.744 1056.64 337.935 1053.32 351.785 1053.32ZM351.492 1074.39C339.203 1074.39 329.45 1078.39 322.233 1086.38C315.21 1094.19 311.017 1105.11 309.651 1119.15H389.529C389.529 1110.18 388.164 1102.38 385.433 1095.75C382.702 1089.11 378.508 1083.94 372.851 1080.24C367.39 1076.34 360.27 1074.39 351.492 1074.39ZM493.533 1132.91L439.403 1056.25H468.662L509.04 1115.35L549.126 1056.25H578.092L523.962 1132.91L581.018 1213.08H551.759L509.04 1150.46L465.736 1213.08H436.769L493.533 1132.91ZM670.639 1053.61C689.755 1053.61 703.897 1057.81 713.065 1066.19C722.233 1074.58 726.817 1087.94 726.817 1106.28V1213.08H708.091L703.117 1190.84H701.946C697.46 1196.5 692.778 1201.27 687.902 1205.18C683.22 1208.88 677.759 1211.61 671.517 1213.37C665.47 1215.12 658.057 1216 649.279 1216C639.916 1216 631.431 1214.34 623.824 1211.03C616.411 1207.71 610.56 1202.64 606.268 1195.81C601.977 1188.79 599.831 1180.01 599.831 1169.48C599.831 1153.87 605.976 1141.88 618.265 1133.49C630.553 1124.91 649.475 1120.23 675.028 1119.45L701.654 1118.57V1109.21C701.654 1096.14 698.825 1087.07 693.169 1081.99C687.512 1076.92 679.514 1074.39 669.176 1074.39C660.983 1074.39 653.181 1075.65 645.768 1078.19C638.356 1080.53 631.431 1083.26 624.994 1086.38L617.094 1067.07C623.921 1063.37 632.016 1060.24 641.379 1057.71C650.742 1054.98 660.496 1053.61 670.639 1053.61ZM678.246 1137.29C658.74 1138.07 645.183 1141.2 637.576 1146.66C630.163 1152.12 626.457 1159.82 626.457 1169.77C626.457 1178.55 629.091 1184.99 634.357 1189.08C639.819 1193.18 646.744 1195.23 655.131 1195.23C668.396 1195.23 679.417 1191.62 688.194 1184.4C696.972 1176.99 701.361 1165.68 701.361 1150.46V1136.42L678.246 1137.29ZM801.003 1056.25V1121.49H886.148V1056.25H911.896V1213.08H886.148V1143.15H801.003V1213.08H775.255V1056.25H801.003ZM985.84 1151.92C985.84 1153.68 985.743 1156.22 985.547 1159.53C985.547 1162.65 985.45 1166.07 985.255 1169.77C985.06 1173.28 984.865 1176.7 984.67 1180.01C984.475 1183.13 984.28 1185.67 984.085 1187.62L1068.06 1056.25H1099.66V1213.08H1075.67V1120.62C1075.67 1117.5 1075.67 1113.4 1075.67 1108.33C1075.86 1103.26 1076.06 1098.28 1076.25 1093.41C1076.45 1088.33 1076.64 1084.53 1076.84 1081.99L993.448 1213.08H961.555V1056.25H985.84V1151.92ZM1190.82 1053.32C1202.72 1053.32 1213.06 1054.98 1221.84 1058.29C1230.62 1061.42 1237.44 1066.1 1242.32 1072.34C1247.2 1078.39 1249.64 1085.8 1249.64 1094.58C1249.64 1104.13 1247 1111.74 1241.74 1117.4C1236.47 1122.86 1229.25 1126.86 1220.08 1129.39V1130.56C1226.33 1132.32 1232.08 1134.76 1237.35 1137.88C1242.61 1141 1246.81 1145.1 1249.93 1150.17C1253.24 1155.24 1254.9 1161.77 1254.9 1169.77C1254.9 1178.36 1252.46 1186.16 1247.59 1193.18C1242.91 1200.2 1235.59 1205.76 1225.64 1209.86C1215.89 1213.95 1203.31 1216 1187.9 1216C1180.49 1216 1173.37 1215.61 1166.54 1214.83C1159.91 1214.05 1153.86 1212.88 1148.4 1211.32C1143.13 1209.76 1138.45 1207.91 1134.35 1205.76V1182.65C1140.99 1185.77 1148.79 1188.6 1157.76 1191.13C1166.93 1193.67 1176.88 1194.94 1187.61 1194.94C1195.41 1194.94 1202.43 1194.06 1208.67 1192.3C1215.11 1190.55 1220.18 1187.82 1223.89 1184.11C1227.59 1180.21 1229.45 1174.94 1229.45 1168.31C1229.45 1162.26 1227.79 1157.39 1224.47 1153.68C1221.16 1149.78 1216.18 1146.85 1209.55 1144.9C1203.11 1142.95 1194.82 1141.98 1184.68 1141.98H1163.61V1120.91H1180.58C1194.04 1120.91 1204.77 1119.15 1212.77 1115.64C1220.96 1111.94 1225.06 1105.69 1225.06 1096.92C1225.06 1089.5 1221.94 1083.94 1215.7 1080.24C1209.65 1076.53 1200.87 1074.68 1189.36 1074.68C1180.78 1074.68 1173.17 1075.56 1166.54 1077.31C1160.1 1078.87 1152.98 1081.31 1145.18 1084.63L1136.11 1064.15C1144.5 1060.44 1153.28 1057.71 1162.44 1055.95C1171.61 1054.2 1181.07 1053.32 1190.82 1053.32ZM1461.25 1056.25V1213.08H1438.14V1113.01C1438.14 1108.91 1438.23 1104.62 1438.43 1100.13C1438.82 1095.65 1439.21 1091.26 1439.6 1086.97H1438.72L1387.52 1213.08H1365.86L1316.12 1086.97H1315.25C1315.64 1091.26 1315.83 1095.65 1315.83 1100.13C1316.03 1104.62 1316.12 1109.21 1316.12 1113.89V1213.08H1293.01V1056.25H1327.24L1376.69 1182.35L1427.02 1056.25H1461.25ZM1511.31 1213.08V1056.25H1537.06V1120.62H1577.73C1591.38 1120.62 1602.6 1122.27 1611.38 1125.59C1620.16 1128.91 1626.69 1133.88 1630.98 1140.51C1635.27 1146.95 1637.42 1155.14 1637.42 1165.09C1637.42 1174.84 1635.27 1183.33 1630.98 1190.55C1626.89 1197.76 1620.35 1203.32 1611.38 1207.22C1602.6 1211.13 1590.99 1213.08 1576.56 1213.08H1511.31ZM1574.22 1192.3C1585.34 1192.3 1594.41 1190.45 1601.43 1186.74C1608.45 1182.84 1611.96 1176.11 1611.96 1166.55C1611.96 1157 1608.74 1150.56 1602.31 1147.24C1595.87 1143.73 1586.61 1141.98 1574.51 1141.98H1537.06V1192.3H1574.22ZM1663.46 1213.08V1056.25H1689.21V1213.08H1663.46ZM1889.66 1053.32C1908.97 1053.32 1924.48 1060.05 1936.18 1073.51C1948.08 1086.97 1954.03 1107.25 1954.03 1134.37C1954.03 1152.12 1951.3 1167.14 1945.84 1179.43C1940.57 1191.52 1933.06 1200.69 1923.31 1206.93C1913.75 1212.98 1902.44 1216 1889.37 1216C1881.37 1216 1874.25 1214.93 1868.01 1212.78C1861.77 1210.64 1856.4 1207.91 1851.92 1204.59C1847.62 1201.08 1843.92 1197.28 1840.8 1193.18H1839.04C1839.43 1196.5 1839.82 1200.69 1840.21 1205.76C1840.6 1210.83 1840.8 1215.22 1840.8 1218.93V1283.3H1815.05V1056.25H1836.12L1839.63 1077.61H1840.8C1843.92 1073.12 1847.62 1069.02 1851.92 1065.32C1856.4 1061.61 1861.67 1058.68 1867.72 1056.54C1873.96 1054.39 1881.27 1053.32 1889.66 1053.32ZM1884.98 1074.97C1874.45 1074.97 1865.96 1077.02 1859.52 1081.12C1853.09 1085.02 1848.4 1090.97 1845.48 1098.96C1842.55 1106.96 1840.99 1117.11 1840.8 1129.39V1134.37C1840.8 1147.24 1842.16 1158.17 1844.89 1167.14C1847.62 1176.11 1852.21 1182.94 1858.65 1187.62C1865.28 1192.3 1874.25 1194.64 1885.56 1194.64C1895.12 1194.64 1902.92 1192.01 1908.97 1186.74C1915.21 1181.48 1919.8 1174.36 1922.72 1165.38C1925.84 1156.22 1927.4 1145.78 1927.4 1134.08C1927.4 1116.13 1923.89 1101.79 1916.87 1091.06C1910.04 1080.34 1899.41 1074.97 1884.98 1074.97ZM2055.63 1053.32C2069.09 1053.32 2080.6 1056.25 2090.16 1062.1C2099.91 1067.95 2107.32 1076.24 2112.39 1086.97C2117.66 1097.5 2120.29 1109.89 2120.29 1124.13V1139.64H2012.91C2013.3 1157.39 2017.79 1170.94 2026.37 1180.31C2035.15 1189.47 2047.34 1194.06 2062.94 1194.06C2072.89 1194.06 2081.67 1193.18 2089.28 1191.42C2097.08 1189.47 2105.08 1186.74 2113.27 1183.23V1205.76C2105.27 1209.27 2097.37 1211.81 2089.57 1213.37C2081.77 1215.12 2072.5 1216 2061.77 1216C2046.95 1216 2033.78 1212.98 2022.27 1206.93C2010.96 1200.88 2002.08 1191.91 1995.65 1180.01C1989.41 1167.92 1986.28 1153.19 1986.28 1135.83C1986.28 1118.67 1989.11 1103.94 1994.77 1091.65C2000.62 1079.36 2008.72 1069.9 2019.06 1063.27C2029.59 1056.64 2041.78 1053.32 2055.63 1053.32ZM2055.34 1074.39C2043.05 1074.39 2033.29 1078.39 2026.08 1086.38C2019.06 1094.19 2014.86 1105.11 2013.5 1119.15H2093.37C2093.37 1110.18 2092.01 1102.38 2089.28 1095.75C2086.55 1089.11 2082.35 1083.94 2076.7 1080.24C2071.23 1076.34 2064.11 1074.39 2055.34 1074.39ZM2201.47 1053.32C2213.37 1053.32 2223.71 1054.98 2232.49 1058.29C2241.27 1061.42 2248.09 1066.1 2252.97 1072.34C2257.85 1078.39 2260.28 1085.8 2260.28 1094.58C2260.28 1104.13 2257.65 1111.74 2252.38 1117.4C2247.12 1122.86 2239.9 1126.86 2230.73 1129.39V1130.56C2236.97 1132.32 2242.73 1134.76 2248 1137.88C2253.26 1141 2257.46 1145.1 2260.58 1150.17C2263.89 1155.24 2265.55 1161.77 2265.55 1169.77C2265.55 1178.36 2263.11 1186.16 2258.24 1193.18C2253.56 1200.2 2246.24 1205.76 2236.29 1209.86C2226.54 1213.95 2213.96 1216 2198.55 1216C2191.14 1216 2184.02 1215.61 2177.19 1214.83C2170.56 1214.05 2164.51 1212.88 2159.05 1211.32C2153.78 1209.76 2149.1 1207.91 2145 1205.76V1182.65C2151.64 1185.77 2159.44 1188.6 2168.41 1191.13C2177.58 1193.67 2187.53 1194.94 2198.26 1194.94C2206.06 1194.94 2213.08 1194.06 2219.32 1192.3C2225.76 1190.55 2230.83 1187.82 2234.54 1184.11C2238.24 1180.21 2240.1 1174.94 2240.1 1168.31C2240.1 1162.26 2238.44 1157.39 2235.12 1153.68C2231.81 1149.78 2226.83 1146.85 2220.2 1144.9C2213.76 1142.95 2205.47 1141.98 2195.33 1141.98H2174.26V1120.91H2191.23C2204.69 1120.91 2215.42 1119.15 2223.42 1115.64C2231.61 1111.94 2235.71 1105.69 2235.71 1096.92C2235.71 1089.5 2232.59 1083.94 2226.34 1080.24C2220.3 1076.53 2211.52 1074.68 2200.01 1074.68C2191.43 1074.68 2183.82 1075.56 2177.19 1077.31C2170.75 1078.87 2163.63 1081.31 2155.83 1084.63L2146.76 1064.15C2155.15 1060.44 2163.92 1057.71 2173.09 1055.95C2182.26 1054.2 2191.72 1053.32 2201.47 1053.32ZM2327.94 1151.92C2327.94 1153.68 2327.85 1156.22 2327.65 1159.53C2327.65 1162.65 2327.55 1166.07 2327.36 1169.77C2327.16 1173.28 2326.97 1176.7 2326.77 1180.01C2326.58 1183.13 2326.38 1185.67 2326.19 1187.62L2410.16 1056.25H2441.76V1213.08H2417.77V1120.62C2417.77 1117.5 2417.77 1113.4 2417.77 1108.33C2417.96 1103.26 2418.16 1098.28 2418.35 1093.41C2418.55 1088.33 2418.74 1084.53 2418.94 1081.99L2335.55 1213.08H2303.66V1056.25H2327.94V1151.92ZM2554.58 1216C2540.73 1216 2528.34 1213.17 2517.42 1207.52C2506.69 1201.86 2498.21 1193.08 2491.96 1181.18C2485.92 1169.28 2482.89 1154.07 2482.89 1135.54C2482.89 1116.23 2486.11 1100.53 2492.55 1088.43C2498.99 1076.34 2507.67 1067.46 2518.59 1061.81C2529.71 1056.15 2542.29 1053.32 2556.33 1053.32C2564.33 1053.32 2572.04 1054.2 2579.45 1055.95C2586.86 1057.51 2592.91 1059.46 2597.59 1061.81L2589.69 1083.16C2585.01 1081.41 2579.55 1079.75 2573.31 1078.19C2567.06 1076.63 2561.21 1075.85 2555.75 1075.85C2545.22 1075.85 2536.54 1078.09 2529.71 1082.58C2522.88 1087.07 2517.81 1093.7 2514.49 1102.48C2511.18 1111.25 2509.52 1122.18 2509.52 1135.25C2509.52 1147.73 2511.18 1158.36 2514.49 1167.14C2517.81 1175.92 2522.78 1182.55 2529.42 1187.04C2536.05 1191.52 2544.34 1193.76 2554.29 1193.76C2562.87 1193.76 2570.38 1192.89 2576.82 1191.13C2583.45 1189.38 2589.5 1187.23 2594.96 1184.69V1207.52C2589.69 1210.25 2583.84 1212.3 2577.4 1213.66C2571.16 1215.22 2563.55 1216 2554.58 1216ZM2740.51 1077.9H2689.31V1213.08H2663.85V1077.9H2613.24V1056.25H2740.51V1077.9ZM2829.12 1053.32C2842.58 1053.32 2854.09 1056.25 2863.64 1062.1C2873.4 1067.95 2880.81 1076.24 2885.88 1086.97C2891.15 1097.5 2893.78 1109.89 2893.78 1124.13V1139.64H2786.4C2786.79 1157.39 2791.27 1170.94 2799.86 1180.31C2808.64 1189.47 2820.83 1194.06 2836.43 1194.06C2846.38 1194.06 2855.16 1193.18 2862.77 1191.42C2870.57 1189.47 2878.57 1186.74 2886.76 1183.23V1205.76C2878.76 1209.27 2870.86 1211.81 2863.06 1213.37C2855.26 1215.12 2845.99 1216 2835.26 1216C2820.44 1216 2807.27 1212.98 2795.76 1206.93C2784.45 1200.88 2775.57 1191.91 2769.14 1180.01C2762.89 1167.92 2759.77 1153.19 2759.77 1135.83C2759.77 1118.67 2762.6 1103.94 2768.26 1091.65C2774.11 1079.36 2782.2 1069.9 2792.54 1063.27C2803.08 1056.64 2815.27 1053.32 2829.12 1053.32ZM2828.82 1074.39C2816.54 1074.39 2806.78 1078.39 2799.57 1086.38C2792.54 1094.19 2788.35 1105.11 2786.98 1119.15H2866.86C2866.86 1110.18 2865.5 1102.38 2862.77 1095.75C2860.03 1089.11 2855.84 1083.94 2850.18 1080.24C2844.72 1076.34 2837.6 1074.39 2828.82 1074.39ZM2959.45 1056.25V1121.49H3044.6V1056.25H3070.35V1213.08H3044.6V1143.15H2959.45V1213.08H2933.71V1056.25H2959.45ZM3228.27 1077.9H3177.06V1213.08H3151.61V1077.9H3100.99V1056.25H3228.27V1077.9ZM3284.91 1056.25V1121.49H3370.05V1056.25H3395.8V1213.08H3370.05V1143.15H3284.91V1213.08H3259.16V1056.25H3284.91ZM3581.81 1134.37C3581.81 1147.44 3580.05 1159.04 3576.54 1169.19C3573.23 1179.14 3568.35 1187.62 3561.91 1194.64C3555.67 1201.67 3547.96 1207.03 3538.8 1210.74C3529.82 1214.25 3519.78 1216 3508.66 1216C3498.32 1216 3488.76 1214.25 3479.99 1210.74C3471.21 1207.03 3463.6 1201.67 3457.16 1194.64C3450.73 1187.62 3445.65 1179.14 3441.95 1169.19C3438.44 1159.04 3436.68 1147.44 3436.68 1134.37C3436.68 1117.01 3439.61 1102.38 3445.46 1090.48C3451.31 1078.39 3459.7 1069.22 3470.62 1062.98C3481.55 1056.54 3494.52 1053.32 3509.54 1053.32C3523.78 1053.32 3536.26 1056.54 3546.99 1062.98C3557.91 1069.22 3566.4 1078.39 3572.44 1090.48C3578.69 1102.38 3581.81 1117.01 3581.81 1134.37ZM3463.31 1134.37C3463.31 1146.66 3464.87 1157.39 3467.99 1166.55C3471.3 1175.53 3476.38 1182.45 3483.2 1187.33C3490.03 1192.2 3498.71 1194.64 3509.24 1194.64C3519.78 1194.64 3528.46 1192.2 3535.29 1187.33C3542.11 1182.45 3547.09 1175.53 3550.21 1166.55C3553.52 1157.39 3555.18 1146.66 3555.18 1134.37C3555.18 1121.88 3553.52 1111.25 3550.21 1102.48C3546.89 1093.7 3541.82 1086.97 3534.99 1082.29C3528.36 1077.41 3519.68 1074.97 3508.95 1074.97C3492.96 1074.97 3481.35 1080.24 3474.13 1090.77C3466.92 1101.31 3463.31 1115.84 3463.31 1134.37ZM3685.52 1216C3671.67 1216 3659.29 1213.17 3648.36 1207.52C3637.64 1201.86 3629.15 1193.08 3622.91 1181.18C3616.86 1169.28 3613.84 1154.07 3613.84 1135.54C3613.84 1116.23 3617.06 1100.53 3623.49 1088.43C3629.93 1076.34 3638.61 1067.46 3649.53 1061.81C3660.65 1056.15 3673.23 1053.32 3687.28 1053.32C3695.28 1053.32 3702.98 1054.2 3710.39 1055.95C3717.81 1057.51 3723.85 1059.46 3728.53 1061.81L3720.63 1083.16C3715.95 1081.41 3710.49 1079.75 3704.25 1078.19C3698.01 1076.63 3692.16 1075.85 3686.69 1075.85C3676.16 1075.85 3667.48 1078.09 3660.65 1082.58C3653.83 1087.07 3648.75 1093.7 3645.44 1102.48C3642.12 1111.25 3640.46 1122.18 3640.46 1135.25C3640.46 1147.73 3642.12 1158.36 3645.44 1167.14C3648.75 1175.92 3653.73 1182.55 3660.36 1187.04C3666.99 1191.52 3675.28 1193.76 3685.23 1193.76C3693.81 1193.76 3701.32 1192.89 3707.76 1191.13C3714.39 1189.38 3720.44 1187.23 3725.9 1184.69V1207.52C3720.63 1210.25 3714.78 1212.3 3708.35 1213.66C3702.1 1215.22 3694.5 1216 3685.52 1216ZM3871.46 1077.9H3820.25V1213.08H3794.8V1077.9H3744.18V1056.25H3871.46V1077.9ZM3926.64 1151.92C3926.64 1153.68 3926.54 1156.22 3926.34 1159.53C3926.34 1162.65 3926.25 1166.07 3926.05 1169.77C3925.86 1173.28 3925.66 1176.7 3925.47 1180.01C3925.27 1183.13 3925.08 1185.67 3924.88 1187.62L4008.86 1056.25H4040.46V1213.08H4016.46V1120.62C4016.46 1117.5 4016.46 1113.4 4016.46 1108.33C4016.66 1103.26 4016.85 1098.28 4017.05 1093.41C4017.24 1088.33 4017.44 1084.53 4017.63 1081.99L3934.24 1213.08H3902.35V1056.25H3926.64V1151.92ZM118.521 1455.25H146.61L79.6062 1530.74L152.169 1612.08H122.325L51.5172 1532.49V1612.08H25.7689V1455.25H51.5172V1531.32L118.521 1455.25ZM248.451 1517.86C248.451 1495.04 250.694 1475.63 255.181 1459.63C259.862 1443.44 266.982 1430.57 276.54 1421.01C286.293 1411.26 298.777 1404.72 313.992 1401.41C326.671 1398.68 339.058 1396.24 351.152 1394.09C363.245 1391.95 374.559 1390 385.092 1388.24L389.481 1410.77C384.41 1411.55 378.753 1412.53 372.511 1413.7C366.269 1414.67 359.929 1415.75 353.492 1416.92C347.055 1417.89 340.813 1418.96 334.766 1420.13C328.914 1421.11 323.745 1422.09 319.259 1423.06C312.822 1424.43 307.067 1426.77 301.996 1430.08C296.924 1433.2 292.535 1437.5 288.829 1442.96C285.318 1448.42 282.49 1455.15 280.344 1463.15C278.198 1471.14 276.93 1480.6 276.54 1491.53H278.296C281.027 1487.82 284.733 1484.02 289.414 1480.12C294.291 1476.22 300.045 1472.9 306.677 1470.17C313.504 1467.44 321.209 1466.07 329.792 1466.07C343.447 1466.07 354.76 1469.1 363.733 1475.14C372.901 1480.99 379.728 1489.19 384.215 1499.72C388.896 1510.25 391.237 1522.54 391.237 1536.59C391.237 1553.95 388.213 1568.48 382.166 1580.18C376.12 1591.89 367.732 1600.67 357.003 1606.52C346.275 1612.17 333.791 1615 319.551 1615C308.823 1615 299.07 1612.95 290.292 1608.86C281.514 1604.57 274.004 1598.32 267.762 1590.13C261.52 1581.94 256.741 1571.8 253.425 1559.7C250.109 1547.61 248.451 1533.66 248.451 1517.86ZM321.6 1593.64C330.182 1593.64 337.595 1591.89 343.837 1588.38C350.274 1584.86 355.248 1579.11 358.759 1571.11C362.27 1563.12 364.026 1552.48 364.026 1539.22C364.026 1523.23 361.002 1510.64 354.955 1501.48C349.103 1492.11 339.35 1487.43 325.696 1487.43C317.113 1487.43 309.311 1489.38 302.288 1493.28C295.266 1496.99 289.414 1501.28 284.733 1506.16C280.051 1511.03 276.735 1515.13 274.785 1518.45C274.785 1528 275.467 1537.27 276.833 1546.24C278.198 1555.22 280.539 1563.31 283.855 1570.53C287.366 1577.55 292.145 1583.21 298.192 1587.5C304.434 1591.59 312.237 1593.64 321.6 1593.64ZM492.367 1452.32C505.826 1452.32 517.335 1455.25 526.893 1461.1C536.646 1466.95 544.058 1475.24 549.13 1485.97C554.397 1496.5 557.03 1508.89 557.03 1523.13V1538.64H449.648C450.038 1556.39 454.525 1569.94 463.108 1579.31C471.885 1588.47 484.077 1593.06 499.682 1593.06C509.63 1593.06 518.408 1592.18 526.015 1590.42C533.818 1588.47 541.815 1585.74 550.008 1582.23V1604.76C542.01 1608.27 534.11 1610.81 526.308 1612.37C518.505 1614.12 509.24 1615 498.511 1615C483.687 1615 470.52 1611.98 459.011 1605.93C447.698 1599.88 438.822 1590.91 432.385 1579.01C426.143 1566.92 423.022 1552.19 423.022 1534.83C423.022 1517.67 425.851 1502.94 431.507 1490.65C437.359 1478.36 445.454 1468.9 455.793 1462.27C466.326 1455.64 478.517 1452.32 492.367 1452.32ZM492.074 1473.39C479.785 1473.39 470.032 1477.39 462.815 1485.38C455.793 1493.19 451.599 1504.11 450.233 1518.15H530.112C530.112 1509.18 528.746 1501.38 526.015 1494.75C523.284 1488.11 519.09 1482.94 513.434 1479.24C507.972 1475.34 500.852 1473.39 492.074 1473.39ZM716.334 1612.08H690.293V1476.61H644.063C642.112 1501.38 639.674 1522.54 636.748 1540.1C633.822 1557.46 630.116 1571.6 625.63 1582.52C621.143 1593.45 615.779 1601.45 609.537 1606.52C603.295 1611.59 595.98 1614.12 587.592 1614.12C585.057 1614.12 582.521 1613.93 579.985 1613.54C577.644 1613.34 575.694 1612.86 574.133 1612.08V1592.76C575.303 1593.16 576.571 1593.45 577.937 1593.64C579.302 1593.84 580.668 1593.94 582.033 1593.94C586.325 1593.94 590.226 1592.18 593.737 1588.67C597.248 1585.16 600.369 1579.79 603.1 1572.58C606.026 1565.36 608.659 1556.29 611 1545.36C613.341 1534.25 615.389 1521.18 617.144 1506.16C618.9 1491.14 620.46 1474.17 621.826 1455.25H716.334V1612.08ZM902.46 1533.37C902.46 1546.44 900.704 1558.04 897.193 1568.19C893.877 1578.14 889.001 1586.62 882.564 1593.64C876.322 1600.67 868.617 1606.03 859.449 1609.74C850.476 1613.25 840.43 1615 829.312 1615C818.973 1615 809.415 1613.25 800.637 1609.74C791.86 1606.03 784.252 1600.67 777.815 1593.64C771.378 1586.62 766.306 1578.14 762.6 1568.19C759.089 1558.04 757.333 1546.44 757.333 1533.37C757.333 1516.01 760.259 1501.38 766.111 1489.48C771.963 1477.39 780.351 1468.22 791.274 1461.98C802.198 1455.54 815.169 1452.32 830.189 1452.32C844.429 1452.32 856.913 1455.54 867.641 1461.98C878.565 1468.22 887.05 1477.39 893.097 1489.48C899.339 1501.38 902.46 1516.01 902.46 1533.37ZM783.959 1533.37C783.959 1545.66 785.52 1556.39 788.641 1565.55C791.957 1574.53 797.029 1581.45 803.856 1586.33C810.683 1591.2 819.363 1593.64 829.897 1593.64C840.43 1593.64 849.11 1591.2 855.938 1586.33C862.765 1581.45 867.739 1574.53 870.86 1565.55C874.176 1556.39 875.834 1545.66 875.834 1533.37C875.834 1520.88 874.176 1510.25 870.86 1501.48C867.544 1492.7 862.472 1485.97 855.645 1481.29C849.013 1476.41 840.333 1473.97 829.604 1473.97C813.609 1473.97 802.003 1479.24 794.785 1489.77C787.568 1500.31 783.959 1514.84 783.959 1533.37ZM1111.51 1455.25V1612.08H1088.39V1512.01C1088.39 1507.91 1088.49 1503.62 1088.69 1499.13C1089.08 1494.65 1089.47 1490.26 1089.86 1485.97H1088.98L1037.78 1612.08H1016.12L966.383 1485.97H965.505C965.895 1490.26 966.09 1494.65 966.09 1499.13C966.285 1503.62 966.383 1508.21 966.383 1512.89V1612.08H943.268V1455.25H977.501L1026.95 1581.35L1077.28 1455.25H1111.51ZM1136.99 1455.25H1164.5L1198.44 1544.49C1200.39 1549.75 1202.14 1554.83 1203.7 1559.7C1205.46 1564.58 1207.02 1569.36 1208.39 1574.04C1209.75 1578.53 1210.82 1582.91 1211.6 1587.21H1212.77C1213.94 1582.33 1215.8 1575.99 1218.33 1568.19C1220.87 1560.19 1223.5 1552.19 1226.23 1544.19L1258.13 1455.25H1285.92L1218.33 1633.73C1214.63 1643.48 1210.24 1651.97 1205.17 1659.18C1200.29 1666.6 1194.24 1672.25 1187.03 1676.15C1180 1680.25 1171.42 1682.3 1161.28 1682.3C1156.6 1682.3 1152.5 1682.01 1148.99 1681.42C1145.48 1681.03 1142.45 1680.54 1139.92 1679.96V1659.48C1142.06 1659.87 1144.6 1660.26 1147.53 1660.65C1150.65 1661.04 1153.87 1661.23 1157.18 1661.23C1163.23 1661.23 1168.4 1660.06 1172.69 1657.72C1177.18 1655.58 1180.98 1652.36 1184.1 1648.07C1187.22 1643.97 1189.85 1639.09 1192 1633.44L1200.19 1612.66L1136.99 1455.25ZM1480.36 1452.91C1495.97 1454.27 1509.52 1458.37 1521.03 1465.19C1532.73 1472.02 1541.8 1481.19 1548.24 1492.7C1554.68 1504.21 1557.9 1517.86 1557.9 1533.66C1557.9 1549.46 1554.78 1563.21 1548.53 1574.92C1542.29 1586.43 1533.42 1595.59 1521.91 1602.42C1510.4 1609.05 1496.55 1613.05 1480.36 1614.42V1682.3H1455.2V1614.42C1439.79 1613.05 1426.23 1609.05 1414.53 1602.42C1402.82 1595.59 1393.75 1586.43 1387.32 1574.92C1380.88 1563.21 1377.66 1549.46 1377.66 1533.66C1377.66 1517.67 1380.78 1503.91 1387.02 1492.41C1393.26 1480.7 1402.24 1471.53 1413.94 1464.9C1425.65 1458.07 1439.69 1454.08 1456.07 1452.91V1389.7H1480.36V1452.91ZM1456.07 1474.26C1444.18 1475.43 1434.42 1478.46 1426.82 1483.33C1419.21 1488.21 1413.55 1494.84 1409.85 1503.23C1406.33 1511.62 1404.58 1521.76 1404.58 1533.66C1404.58 1545.36 1406.33 1555.51 1409.85 1564.09C1413.55 1572.48 1419.21 1579.21 1426.82 1584.28C1434.42 1589.16 1444.18 1592.18 1456.07 1593.35V1474.26ZM1480.36 1593.35C1492.06 1591.98 1501.62 1588.86 1509.03 1583.99C1516.64 1579.11 1522.2 1572.48 1525.71 1564.09C1529.42 1555.51 1531.27 1545.36 1531.27 1533.66C1531.27 1521.96 1529.42 1511.91 1525.71 1503.52C1522.01 1495.14 1516.35 1488.5 1508.74 1483.63C1501.33 1478.75 1491.87 1475.73 1480.36 1474.56V1593.35ZM1735.1 1533.37C1735.1 1546.44 1733.34 1558.04 1729.83 1568.19C1726.51 1578.14 1721.64 1586.62 1715.2 1593.64C1708.96 1600.67 1701.25 1606.03 1692.08 1609.74C1683.11 1613.25 1673.07 1615 1661.95 1615C1651.61 1615 1642.05 1613.25 1633.27 1609.74C1624.49 1606.03 1616.89 1600.67 1610.45 1593.64C1604.01 1586.62 1598.94 1578.14 1595.24 1568.19C1591.72 1558.04 1589.97 1546.44 1589.97 1533.37C1589.97 1516.01 1592.89 1501.38 1598.75 1489.48C1604.6 1477.39 1612.99 1468.22 1623.91 1461.98C1634.83 1455.54 1647.8 1452.32 1662.82 1452.32C1677.06 1452.32 1689.55 1455.54 1700.28 1461.98C1711.2 1468.22 1719.69 1477.39 1725.73 1489.48C1731.97 1501.38 1735.1 1516.01 1735.1 1533.37ZM1616.59 1533.37C1616.59 1545.66 1618.16 1556.39 1621.28 1565.55C1624.59 1574.53 1629.66 1581.45 1636.49 1586.33C1643.32 1591.2 1652 1593.64 1662.53 1593.64C1673.07 1593.64 1681.75 1591.2 1688.57 1586.33C1695.4 1581.45 1700.37 1574.53 1703.49 1565.55C1706.81 1556.39 1708.47 1545.66 1708.47 1533.37C1708.47 1520.88 1706.81 1510.25 1703.49 1501.48C1700.18 1492.7 1695.11 1485.97 1688.28 1481.29C1681.65 1476.41 1672.97 1473.97 1662.24 1473.97C1646.24 1473.97 1634.64 1479.24 1627.42 1489.77C1620.2 1500.31 1616.59 1514.84 1616.59 1533.37ZM1838.81 1615C1824.96 1615 1812.57 1612.17 1801.65 1606.52C1790.92 1600.86 1782.44 1592.08 1776.2 1580.18C1770.15 1568.28 1767.12 1553.07 1767.12 1534.54C1767.12 1515.23 1770.34 1499.53 1776.78 1487.43C1783.22 1475.34 1791.9 1466.46 1802.82 1460.81C1813.94 1455.15 1826.52 1452.32 1840.57 1452.32C1848.56 1452.32 1856.27 1453.2 1863.68 1454.95C1871.09 1456.51 1877.14 1458.46 1881.82 1460.81L1873.92 1482.16C1869.24 1480.41 1863.78 1478.75 1857.54 1477.19C1851.29 1475.63 1845.44 1474.85 1839.98 1474.85C1829.45 1474.85 1820.77 1477.09 1813.94 1481.58C1807.11 1486.07 1802.04 1492.7 1798.73 1501.48C1795.41 1510.25 1793.75 1521.18 1793.75 1534.25C1793.75 1546.73 1795.41 1557.36 1798.73 1566.14C1802.04 1574.92 1807.02 1581.55 1813.65 1586.04C1820.28 1590.52 1828.57 1592.76 1838.52 1592.76C1847.1 1592.76 1854.61 1591.89 1861.05 1590.13C1867.68 1588.38 1873.73 1586.23 1879.19 1583.69V1606.52C1873.92 1609.25 1868.07 1611.3 1861.63 1612.66C1855.39 1614.22 1847.78 1615 1838.81 1615ZM2010.12 1452.91C2025.72 1454.27 2039.28 1458.37 2050.79 1465.19C2062.49 1472.02 2071.56 1481.19 2078 1492.7C2084.43 1504.21 2087.65 1517.86 2087.65 1533.66C2087.65 1549.46 2084.53 1563.21 2078.29 1574.92C2072.05 1586.43 2063.17 1595.59 2051.66 1602.42C2040.15 1609.05 2026.31 1613.05 2010.12 1614.42V1682.3H1984.95V1614.42C1969.54 1613.05 1955.99 1609.05 1944.28 1602.42C1932.58 1595.59 1923.51 1586.43 1917.07 1574.92C1910.63 1563.21 1907.41 1549.46 1907.41 1533.66C1907.41 1517.67 1910.54 1503.91 1916.78 1492.41C1923.02 1480.7 1931.99 1471.53 1943.7 1464.9C1955.4 1458.07 1969.44 1454.08 1985.83 1452.91V1389.7H2010.12V1452.91ZM1985.83 1474.26C1973.93 1475.43 1964.18 1478.46 1956.57 1483.33C1948.96 1488.21 1943.31 1494.84 1939.6 1503.23C1936.09 1511.62 1934.33 1521.76 1934.33 1533.66C1934.33 1545.36 1936.09 1555.51 1939.6 1564.09C1943.31 1572.48 1948.96 1579.21 1956.57 1584.28C1964.18 1589.16 1973.93 1592.18 1985.83 1593.35V1474.26ZM2010.12 1593.35C2021.82 1591.98 2031.38 1588.86 2038.79 1583.99C2046.4 1579.11 2051.96 1572.48 2055.47 1564.09C2059.17 1555.51 2061.03 1545.36 2061.03 1533.66C2061.03 1521.96 2059.17 1511.91 2055.47 1503.52C2051.76 1495.14 2046.1 1488.5 2038.5 1483.63C2031.08 1478.75 2021.62 1475.73 2010.12 1474.56V1593.35ZM2264.85 1533.37C2264.85 1546.44 2263.09 1558.04 2259.58 1568.19C2256.27 1578.14 2251.39 1586.62 2244.95 1593.64C2238.71 1600.67 2231.01 1606.03 2221.84 1609.74C2212.87 1613.25 2202.82 1615 2191.7 1615C2181.36 1615 2171.8 1613.25 2163.03 1609.74C2154.25 1606.03 2146.64 1600.67 2140.2 1593.64C2133.77 1586.62 2128.7 1578.14 2124.99 1568.19C2121.48 1558.04 2119.72 1546.44 2119.72 1533.37C2119.72 1516.01 2122.65 1501.38 2128.5 1489.48C2134.35 1477.39 2142.74 1468.22 2153.66 1461.98C2164.59 1455.54 2177.56 1452.32 2192.58 1452.32C2206.82 1452.32 2219.3 1455.54 2230.03 1461.98C2240.95 1468.22 2249.44 1477.39 2255.49 1489.48C2261.73 1501.38 2264.85 1516.01 2264.85 1533.37ZM2146.35 1533.37C2146.35 1545.66 2147.91 1556.39 2151.03 1565.55C2154.35 1574.53 2159.42 1581.45 2166.25 1586.33C2173.07 1591.2 2181.75 1593.64 2192.29 1593.64C2202.82 1593.64 2211.5 1591.2 2218.33 1586.33C2225.15 1581.45 2230.13 1574.53 2233.25 1565.55C2236.57 1556.39 2238.22 1545.66 2238.22 1533.37C2238.22 1520.88 2236.57 1510.25 2233.25 1501.48C2229.93 1492.7 2224.86 1485.97 2218.03 1481.29C2211.4 1476.41 2202.72 1473.97 2191.99 1473.97C2176 1473.97 2164.39 1479.24 2157.18 1489.77C2149.96 1500.31 2146.35 1514.84 2146.35 1533.37ZM2380.27 1452.32C2399.58 1452.32 2415.09 1459.05 2426.79 1472.51C2438.69 1485.97 2444.64 1506.25 2444.64 1533.37C2444.64 1551.12 2441.91 1566.14 2436.45 1578.43C2431.18 1590.52 2423.67 1599.69 2413.92 1605.93C2404.36 1611.98 2393.05 1615 2379.98 1615C2371.98 1615 2364.86 1613.93 2358.62 1611.78C2352.38 1609.64 2347.01 1606.91 2342.52 1603.59C2338.23 1600.08 2334.53 1596.28 2331.41 1592.18H2329.65C2330.04 1595.5 2330.43 1599.69 2330.82 1604.76C2331.21 1609.83 2331.41 1614.22 2331.41 1617.93V1682.3H2305.66V1455.25H2326.72L2330.24 1476.61H2331.41C2334.53 1472.12 2338.23 1468.02 2342.52 1464.32C2347.01 1460.61 2352.28 1457.68 2358.32 1455.54C2364.57 1453.39 2371.88 1452.32 2380.27 1452.32ZM2375.59 1473.97C2365.05 1473.97 2356.57 1476.02 2350.13 1480.12C2343.69 1484.02 2339.01 1489.97 2336.09 1497.96C2333.16 1505.96 2331.6 1516.11 2331.41 1528.39V1533.37C2331.41 1546.24 2332.77 1557.17 2335.5 1566.14C2338.23 1575.11 2342.82 1581.94 2349.25 1586.62C2355.89 1591.3 2364.86 1593.64 2376.17 1593.64C2385.73 1593.64 2393.53 1591.01 2399.58 1585.74C2405.82 1580.48 2410.41 1573.36 2413.33 1564.38C2416.45 1555.22 2418.01 1544.78 2418.01 1533.08C2418.01 1515.13 2414.5 1500.79 2407.48 1490.06C2400.65 1479.34 2390.02 1473.97 2375.59 1473.97ZM2458.24 1455.25H2485.74L2519.68 1544.49C2521.63 1549.75 2523.39 1554.83 2524.95 1559.7C2526.7 1564.58 2528.26 1569.36 2529.63 1574.04C2530.99 1578.53 2532.07 1582.91 2532.85 1587.21H2534.02C2535.19 1582.33 2537.04 1575.99 2539.58 1568.19C2542.11 1560.19 2544.75 1552.19 2547.48 1544.19L2579.37 1455.25H2607.17L2539.58 1633.73C2535.87 1643.48 2531.48 1651.97 2526.41 1659.18C2521.53 1666.6 2515.49 1672.25 2508.27 1676.15C2501.25 1680.25 2492.66 1682.3 2482.52 1682.3C2477.84 1682.3 2473.74 1682.01 2470.23 1681.42C2466.72 1681.03 2463.7 1680.54 2461.16 1679.96V1659.48C2463.31 1659.87 2465.84 1660.26 2468.77 1660.65C2471.89 1661.04 2475.11 1661.23 2478.43 1661.23C2484.47 1661.23 2489.64 1660.06 2493.93 1657.72C2498.42 1655.58 2502.22 1652.36 2505.34 1648.07C2508.46 1643.97 2511.1 1639.09 2513.24 1633.44L2521.44 1612.66L2458.24 1455.25Z" fill="black"/>
</g>
<defs>
<clipPath id="clip0_1765_908">
<rect width="4351" height="1785" fill="white" transform="translate(0.5)"/>
</clipPath>
</defs>
</svg>
