<svg width="790" height="1071" viewBox="0 0 790 1071" fill="none" xmlns="http://www.w3.org/2000/svg">
<g clip-path="url(#clip0_1765_2436)">
<rect x="0.835938" y="0.949219" width="788.695" height="1069.59" fill="#E7FFFD"/>
<line x1="28.0943" y1="2.49902" x2="28.0943" y2="1070.54" stroke="#006CB4" stroke-width="0.782435"/>
<line x1="411.235" y1="2.49902" x2="411.235" y2="1070.54" stroke="#006CB4" stroke-width="0.782435"/>
<line x1="379.891" y1="2.49902" x2="379.891" y2="1070.54" stroke="#006CB4" stroke-width="0.782435"/>
<line x1="213.821" y1="2.49902" x2="213.821" y2="1070.54" stroke="#006CB4" stroke-width="0.782435"/>
<line x1="182.485" y1="2.49902" x2="182.485" y2="1070.54" stroke="#006CB4" stroke-width="0.782435"/>
<line x1="760.813" y1="0.949219" x2="760.813" y2="1068.99" stroke="#006CB4" stroke-width="0.782435"/>
<line x1="608.641" y1="2.49902" x2="608.641" y2="1070.54" stroke="#006CB4" stroke-width="0.782435"/>
<line x1="577.305" y1="2.49902" x2="577.305" y2="1070.54" stroke="#006CB4" stroke-width="0.782435"/>
<line x1="789.523" y1="29.4781" x2="0.828857" y2="29.4781" stroke="#006CB4" stroke-width="0.782435"/>
<line x1="789.523" y1="440.107" x2="0.828857" y2="440.107" stroke="#006CB4" stroke-width="0.782435"/>
<line x1="789.523" y1="409.238" x2="0.828857" y2="409.238" stroke="#006CB4" stroke-width="0.782435"/>
<line x1="789.523" y1="664.583" x2="0.828857" y2="664.583" stroke="#006CB4" stroke-width="0.782435"/>
<line x1="789.523" y1="633.713" x2="0.828857" y2="633.714" stroke="#006CB4" stroke-width="0.782435"/>
<line x1="789.523" y1="889.058" x2="0.828857" y2="889.058" stroke="#006CB4" stroke-width="0.782435"/>
<line x1="789.523" y1="858.188" x2="0.828857" y2="858.188" stroke="#006CB4" stroke-width="0.782435"/>
<line x1="789.523" y1="215.632" x2="0.828857" y2="215.632" stroke="#006CB4" stroke-width="0.782435"/>
<line x1="789.523" y1="184.763" x2="0.828857" y2="184.763" stroke="#006CB4" stroke-width="0.782435"/>
<line x1="789.523" y1="1042.98" x2="0.828857" y2="1042.98" stroke="#006CB4" stroke-width="0.782435"/>
<rect x="27.7031" y="27.3711" width="732.734" height="157" fill="#006CB4" fill-opacity="0.39"/>
<rect x="27.7031" y="888.666" width="732.734" height="153.927" fill="#006CB4" fill-opacity="0.39"/>
<rect x="28.8125" y="439.716" width="731.613" height="418.082" fill="#006CB4" fill-opacity="0.39"/>
<rect x="28.8125" y="215.241" width="350.699" height="193.606" fill="#006CB4" fill-opacity="0.39"/>
<rect x="411.969" y="215.241" width="350.699" height="193.606" fill="#006CB4" fill-opacity="0.39"/>
</g>
<rect x="1.03155" y="1.14483" width="788.303" height="1069.2" stroke="#006CB4" stroke-width="0.391218"/>
<defs>
<clipPath id="clip0_1765_2436">
<rect x="0.835938" y="0.949219" width="788.695" height="1069.59" fill="white"/>
</clipPath>
</defs>
</svg>
