<svg width="3839" height="4901" viewBox="0 0 3839 4901" fill="none" xmlns="http://www.w3.org/2000/svg">
<rect x="10.5" y="10.5" width="3818" height="4880" stroke="#CFD6DC" stroke-width="21"/>
<rect x="209.094" y="530.934" width="1133.7" height="51.9853" fill="#CFD6DC"/>
<rect x="1457.49" y="530.934" width="1133.7" height="51.9853" fill="#CFD6DC"/>
<rect x="209.094" y="1766.18" width="1133.7" height="51.9853" fill="#CFD6DC"/>
<rect x="1457.49" y="1766.18" width="1133.7" height="51.9853" fill="#CFD6DC"/>
<rect x="209.094" y="2563.87" width="1133.7" height="51.9853" fill="#CFD6DC"/>
<rect x="1457.49" y="2563.87" width="1133.7" height="51.9853" fill="#CFD6DC"/>
<rect x="209.094" y="796.828" width="1133.7" height="51.9853" fill="#CFD6DC"/>
<rect x="1457.49" y="796.828" width="1133.7" height="51.9853" fill="#CFD6DC"/>
<rect x="209.094" y="2032.08" width="1133.7" height="51.9853" fill="#CFD6DC"/>
<rect x="1457.49" y="2032.08" width="1133.7" height="51.9853" fill="#CFD6DC"/>
<rect x="209.094" y="1062.72" width="1133.7" height="51.9853" fill="#CFD6DC"/>
<rect x="1457.49" y="1062.72" width="1133.7" height="51.9853" fill="#CFD6DC"/>
<rect x="209.094" y="2297.97" width="1133.7" height="51.9853" fill="#CFD6DC"/>
<rect x="1457.49" y="2297.97" width="1133.7" height="51.9853" fill="#CFD6DC"/>
<rect x="209.094" y="3443.41" width="1133.7" height="51.9853" fill="#CFD6DC"/>
<rect x="1457.49" y="3443.41" width="1133.7" height="51.9853" fill="#CFD6DC"/>
<rect x="209.094" y="619.562" width="1133.7" height="51.9853" fill="#CFD6DC"/>
<rect x="1457.49" y="619.562" width="1133.7" height="51.9853" fill="#CFD6DC"/>
<rect x="209.094" y="1854.82" width="1133.7" height="51.9853" fill="#CFD6DC"/>
<rect x="1457.49" y="1854.82" width="1133.7" height="51.9853" fill="#CFD6DC"/>
<rect x="209.094" y="2652.5" width="1133.7" height="51.9853" fill="#CFD6DC"/>
<rect x="1457.49" y="2652.5" width="1133.7" height="51.9853" fill="#CFD6DC"/>
<rect x="209.094" y="885.457" width="1133.7" height="51.9853" fill="#CFD6DC"/>
<rect x="1457.49" y="885.457" width="1133.7" height="51.9853" fill="#CFD6DC"/>
<rect x="209.094" y="2120.71" width="1133.7" height="51.9853" fill="#CFD6DC"/>
<rect x="1457.49" y="2120.71" width="1133.7" height="51.9853" fill="#CFD6DC"/>
<rect x="209.094" y="3266.15" width="1133.7" height="51.9853" fill="#CFD6DC"/>
<rect x="1457.49" y="3266.15" width="1133.7" height="51.9853" fill="#CFD6DC"/>
<rect x="209.094" y="1151.35" width="1133.7" height="51.9853" fill="#CFD6DC"/>
<rect x="1457.49" y="1151.35" width="1133.7" height="51.9853" fill="#CFD6DC"/>
<rect x="209.094" y="2386.61" width="1133.7" height="51.9853" fill="#CFD6DC"/>
<rect x="1457.49" y="2386.61" width="1133.7" height="51.9853" fill="#CFD6DC"/>
<rect x="209.094" y="3532.04" width="1133.7" height="51.9853" fill="#CFD6DC"/>
<rect x="1457.49" y="3532.04" width="1133.7" height="51.9853" fill="#CFD6DC"/>
<rect x="209.094" y="708.195" width="1133.7" height="51.9853" fill="#CFD6DC"/>
<rect x="1457.49" y="708.195" width="1133.7" height="51.9853" fill="#CFD6DC"/>
<rect x="209.094" y="1943.45" width="1133.7" height="51.9853" fill="#CFD6DC"/>
<rect x="1457.49" y="1943.45" width="1133.7" height="51.9853" fill="#CFD6DC"/>
<rect x="209.094" y="2741.13" width="1133.7" height="51.9853" fill="#CFD6DC"/>
<rect x="1457.49" y="2741.13" width="1133.7" height="51.9853" fill="#CFD6DC"/>
<rect x="209.094" y="974.09" width="1133.7" height="51.9853" fill="#CFD6DC"/>
<rect x="1457.49" y="974.09" width="1133.7" height="51.9853" fill="#CFD6DC"/>
<rect x="209.094" y="2209.34" width="1133.7" height="51.9853" fill="#CFD6DC"/>
<rect x="1457.49" y="2209.34" width="1133.7" height="51.9853" fill="#CFD6DC"/>
<rect x="209.094" y="3354.78" width="1133.7" height="51.9853" fill="#CFD6DC"/>
<rect x="1457.49" y="3354.78" width="1133.7" height="51.9853" fill="#CFD6DC"/>
<rect x="209.094" y="1239.98" width="1133.7" height="51.9853" fill="#CFD6DC"/>
<rect x="1457.49" y="1239.98" width="1133.7" height="51.9853" fill="#CFD6DC"/>
<rect x="209.094" y="1434.37" width="1441.84" height="247.887" fill="#CFD6DC"/>
<rect x="209.094" y="2943.48" width="2382.1" height="247.887" fill="#CFD6DC"/>
<rect x="185.109" y="4521.89" width="3420.81" height="247.887" fill="#CFD6DC"/>
<rect x="1701.59" y="1434.37" width="1928.31" height="247.887" fill="#CFD6DC"/>
<rect x="209.094" y="2475.23" width="1133.7" height="51.9853" fill="#CFD6DC"/>
<rect x="1457.49" y="2475.23" width="1133.7" height="51.9853" fill="#CFD6DC"/>
<rect x="209.094" y="3620.67" width="1133.7" height="51.9853" fill="#CFD6DC"/>
<rect x="1457.49" y="3620.67" width="1133.7" height="51.9853" fill="#CFD6DC"/>
<rect width="252.275" height="779.427" transform="matrix(1 0 0 -1 2783.74 1291.97)" fill="#CFD6DC"/>
<rect width="252.275" height="583.775" transform="matrix(1 0 0 -1 3080.68 1291.97)" fill="#CFD6DC"/>
<rect width="822.175" height="1906.47" transform="matrix(1 0 0 -1 2795.73 3672.66)" fill="#CFD6DC"/>
<rect width="252.275" height="672.406" transform="matrix(1 0 0 -1 3377.62 1291.97)" fill="#CFD6DC"/>
<rect width="3420.81" height="289.547" transform="matrix(1 0 0 -1 209.086 409.758)" fill="#CFD6DC"/>
<rect width="3420.81" height="601.219" transform="matrix(1 0 0 -1 185.109 4419.14)" fill="#CFD6DC"/>
</svg>
