<svg width="3839" height="4901" viewBox="0 0 3839 4901" fill="none" xmlns="http://www.w3.org/2000/svg">
<rect x="10.5" y="10.5" width="3818" height="4880" stroke="#CFD6DC" stroke-width="21"/>
<rect x="40.6484" y="516.82" width="1341.42" height="57.0325" fill="#CFD6DC"/>
<rect x="40.6484" y="1699.18" width="1341.42" height="57.0325" fill="#CFD6DC"/>
<rect x="40.6484" y="2574.32" width="1341.42" height="57.0325" fill="#CFD6DC"/>
<rect x="1438.44" y="1699.18" width="1341.42" height="57.0325" fill="#CFD6DC"/>
<rect x="1438.44" y="2574.32" width="1341.42" height="57.0325" fill="#CFD6DC"/>
<rect x="1438.44" y="516.82" width="1341.42" height="57.0325" fill="#CFD6DC"/>
<rect x="40.6484" y="808.531" width="1341.42" height="57.0325" fill="#CFD6DC"/>
<rect x="40.6484" y="1990.89" width="1341.42" height="57.0325" fill="#CFD6DC"/>
<rect x="1438.44" y="1990.89" width="1341.42" height="57.0325" fill="#CFD6DC"/>
<rect x="1438.44" y="808.531" width="1341.42" height="57.0325" fill="#CFD6DC"/>
<rect x="40.6484" y="1100.24" width="1341.42" height="57.0325" fill="#CFD6DC"/>
<rect x="40.6484" y="2282.61" width="1341.42" height="57.0325" fill="#CFD6DC"/>
<rect x="40.6484" y="3414.49" width="1341.42" height="57.0325" fill="#CFD6DC"/>
<rect x="1438.44" y="2282.61" width="1341.42" height="57.0325" fill="#CFD6DC"/>
<rect x="1438.44" y="3414.49" width="1341.42" height="57.0325" fill="#CFD6DC"/>
<rect x="1438.44" y="1100.24" width="1341.42" height="57.0325" fill="#CFD6DC"/>
<rect x="40.6484" y="614.055" width="1341.42" height="57.0325" fill="#CFD6DC"/>
<rect x="40.6484" y="1796.42" width="1341.42" height="57.0325" fill="#CFD6DC"/>
<rect x="40.6484" y="2671.55" width="1341.42" height="57.0325" fill="#CFD6DC"/>
<rect x="1438.44" y="1796.42" width="1341.42" height="57.0325" fill="#CFD6DC"/>
<rect x="1438.44" y="2671.55" width="1341.42" height="57.0325" fill="#CFD6DC"/>
<rect x="1438.44" y="614.055" width="1341.42" height="57.0325" fill="#CFD6DC"/>
<rect x="40.6484" y="905.766" width="1341.42" height="57.0325" fill="#CFD6DC"/>
<rect x="40.6484" y="2088.13" width="1341.42" height="57.0325" fill="#CFD6DC"/>
<rect x="40.6484" y="3220.02" width="1341.42" height="57.0325" fill="#CFD6DC"/>
<rect x="1438.44" y="2088.13" width="1341.42" height="57.0325" fill="#CFD6DC"/>
<rect x="1438.44" y="3220.02" width="1341.42" height="57.0325" fill="#CFD6DC"/>
<rect x="1438.44" y="905.766" width="1341.42" height="57.0325" fill="#CFD6DC"/>
<rect x="40.6484" y="1197.48" width="1341.42" height="57.0325" fill="#CFD6DC"/>
<rect x="40.6484" y="2379.84" width="1341.42" height="57.0325" fill="#CFD6DC"/>
<rect x="40.6484" y="3511.73" width="1341.42" height="57.0325" fill="#CFD6DC"/>
<rect x="1438.44" y="2379.84" width="1341.42" height="57.0325" fill="#CFD6DC"/>
<rect x="1438.44" y="3511.73" width="1341.42" height="57.0325" fill="#CFD6DC"/>
<rect x="1438.44" y="1197.48" width="1341.42" height="57.0325" fill="#CFD6DC"/>
<rect x="40.6484" y="711.293" width="1341.42" height="57.0325" fill="#CFD6DC"/>
<rect x="40.6484" y="1893.66" width="1341.42" height="57.0325" fill="#CFD6DC"/>
<rect x="40.6484" y="2768.79" width="1341.42" height="57.0325" fill="#CFD6DC"/>
<rect x="1438.44" y="1893.66" width="1341.42" height="57.0325" fill="#CFD6DC"/>
<rect x="1438.44" y="2768.79" width="1341.42" height="57.0325" fill="#CFD6DC"/>
<rect x="1438.44" y="711.293" width="1341.42" height="57.0325" fill="#CFD6DC"/>
<rect x="40.6484" y="1003" width="1341.42" height="57.0325" fill="#CFD6DC"/>
<rect x="40.6484" y="2185.37" width="1341.42" height="57.0325" fill="#CFD6DC"/>
<rect x="40.6484" y="3317.25" width="1341.42" height="57.0325" fill="#CFD6DC"/>
<rect x="1438.44" y="2185.37" width="1341.42" height="57.0325" fill="#CFD6DC"/>
<rect x="1438.44" y="3317.25" width="1341.42" height="57.0325" fill="#CFD6DC"/>
<rect x="1438.44" y="1003" width="1341.42" height="57.0325" fill="#CFD6DC"/>
<rect x="40.6484" y="1294.71" width="1341.42" height="57.0325" fill="#CFD6DC"/>
<rect x="40.6484" y="1381.72" width="1581.83" height="271.955" fill="#CFD6DC"/>
<rect x="40.6484" y="2866.03" width="2739.21" height="271.955" fill="#CFD6DC"/>
<rect x="40.6484" y="4582.11" width="3752.94" height="271.955" fill="#CFD6DC"/>
<rect x="1678.05" y="1381.72" width="2115.53" height="271.955" fill="#CFD6DC"/>
<rect x="40.6484" y="2477.08" width="1341.42" height="57.0325" fill="#CFD6DC"/>
<rect x="40.6484" y="3608.96" width="1341.42" height="57.0325" fill="#CFD6DC"/>
<rect x="1438.44" y="2477.08" width="1341.42" height="57.0325" fill="#CFD6DC"/>
<rect x="1438.44" y="3608.96" width="1341.42" height="57.0325" fill="#CFD6DC"/>
<rect x="1438.44" y="1294.71" width="1341.42" height="57.0325" fill="#CFD6DC"/>
<rect width="276.768" height="855.102" transform="matrix(1 0 0 -1 2865.27 1351.75)" fill="#CFD6DC"/>
<rect width="276.768" height="640.453" transform="matrix(1 0 0 -1 3191.04 1351.75)" fill="#CFD6DC"/>
<rect width="902" height="1966.81" transform="matrix(1 0 0 -1 2865.27 3666)" fill="#CFD6DC"/>
<rect width="276.768" height="737.69" transform="matrix(1 0 0 -1 3516.81 1351.75)" fill="#CFD6DC"/>
<rect width="3752.94" height="357.348" transform="matrix(1 0 0 -1 40.6484 403.164)" fill="#CFD6DC"/>
<rect width="3752.94" height="800.429" transform="matrix(1 0 0 -1 40.6484 4548.46)" fill="#CFD6DC"/>
</svg>
