<svg width="5444" height="3435" viewBox="0 0 5444 3435" fill="none" xmlns="http://www.w3.org/2000/svg">
<g clip-path="url(#clip0_1788_2875)">
<path d="M399.035 1220.42C350.231 1220.42 307.162 1210.42 269.828 1190.4C232.494 1170.38 203.369 1142.04 182.453 1105.39C161.537 1068.73 151.079 1025.43 151.079 975.504C151.079 939.069 157.152 905.784 169.296 875.647C181.666 845.285 198.984 819.083 221.249 797.043C243.739 775.002 270.166 758.022 300.528 746.102C331.114 733.957 364.513 727.885 400.722 727.885C440.08 727.885 473.141 732.833 499.904 742.729C526.668 752.624 550.845 766.681 572.436 784.898L516.435 876.996C503.39 863.502 487.647 853.494 469.205 846.971C450.763 840.224 430.409 836.851 408.144 836.851C386.103 836.851 366.424 840.112 349.107 846.634C332.014 852.931 317.395 862.04 305.251 873.96C293.331 885.88 284.222 900.273 277.925 917.141C271.628 934.009 268.479 952.901 268.479 973.817C268.479 1002.6 274.101 1027.23 285.347 1047.7C296.817 1068.16 313.122 1083.91 334.263 1094.93C355.404 1105.72 380.706 1111.12 410.168 1111.12C431.309 1111.12 452.225 1107.97 472.916 1101.67C493.832 1095.15 513.624 1084.69 532.29 1070.3L583.568 1164.42C561.753 1181.29 535.664 1194.9 505.302 1205.24C474.94 1215.36 439.518 1220.42 399.035 1220.42ZM641.757 1210.3V866.201H752.409V990.01H884.315V866.201H994.968V1210.3H884.315V1077.72H752.409V1210.3H641.757ZM1183.33 1220.42C1160.39 1220.42 1139.81 1216.04 1121.6 1207.27C1103.38 1198.27 1088.99 1185.56 1078.42 1169.15C1067.85 1152.5 1062.56 1132.6 1062.56 1109.43C1062.56 1089.64 1067.4 1072.1 1077.07 1056.81C1086.96 1041.51 1101.81 1028.92 1121.6 1019.02C1141.39 1009.13 1166.24 1002.49 1196.15 999.118C1226.29 995.52 1261.49 995.52 1301.74 999.118L1302.76 1067.94C1281.39 1064.12 1262.05 1062.2 1244.73 1062.2C1227.64 1061.98 1213.02 1063.44 1200.88 1066.59C1188.96 1069.51 1179.73 1074.12 1173.21 1080.42C1166.69 1086.72 1163.43 1094.48 1163.43 1103.7C1163.43 1115.62 1167.93 1124.73 1176.92 1131.02C1186.14 1137.32 1198.4 1140.47 1213.69 1140.47C1226.96 1140.47 1238.88 1138.11 1249.45 1133.39C1260.25 1128.66 1268.8 1121.8 1275.09 1112.81C1281.62 1103.59 1284.88 1092.34 1284.88 1079.07V1000.47C1284.88 988.098 1282.29 977.19 1277.12 967.744C1271.94 958.299 1263.74 950.989 1252.49 945.816C1241.47 940.419 1226.74 937.72 1208.3 937.72C1190.53 937.72 1172.87 940.419 1155.33 945.816C1137.79 950.989 1122.05 958.861 1108.1 969.431L1079.76 893.526C1102.03 879.582 1125.87 869.349 1151.28 862.827C1176.7 856.08 1201.66 852.706 1226.18 852.706C1258.56 852.706 1287.01 857.879 1311.53 868.225C1336.27 878.57 1355.61 894.538 1369.55 916.129C1383.5 937.72 1390.47 965.383 1390.47 999.118V1210.3H1295V1173.87C1283.98 1188.71 1268.8 1200.18 1249.45 1208.28C1230.11 1216.38 1208.07 1220.42 1183.33 1220.42ZM1669.59 1210.3V1089.87C1654.75 1093.69 1640.92 1096.61 1628.1 1098.64C1615.28 1100.66 1602.12 1101.67 1588.63 1101.67C1559.62 1101.67 1534.31 1096.95 1512.72 1087.51C1491.13 1078.06 1474.26 1063.33 1462.12 1043.31C1450.2 1023.07 1444.24 996.869 1444.24 964.708V866.201H1554.89V949.865C1554.89 969.656 1559.17 984.725 1567.71 995.07C1576.48 1005.42 1591.21 1010.59 1611.91 1010.59C1624.5 1010.59 1635.18 1010.03 1643.95 1008.9C1652.95 1007.78 1661.5 1006.54 1669.59 1005.19V866.201H1780.25V1210.3H1669.59ZM1969.4 1220.42C1946.46 1220.42 1925.88 1216.04 1907.66 1207.27C1889.44 1198.27 1875.05 1185.56 1864.48 1169.15C1853.91 1152.5 1848.62 1132.6 1848.62 1109.43C1848.62 1089.64 1853.46 1072.1 1863.13 1056.81C1873.03 1041.51 1887.87 1028.92 1907.66 1019.02C1927.45 1009.13 1952.3 1002.49 1982.22 999.118C2012.35 995.52 2047.55 995.52 2087.81 999.118L2088.82 1067.94C2067.45 1064.12 2048.11 1062.2 2030.8 1062.2C2013.7 1061.98 1999.08 1063.44 1986.94 1066.59C1975.02 1069.51 1965.8 1074.12 1959.28 1080.42C1952.75 1086.72 1949.49 1094.48 1949.49 1103.7C1949.49 1115.62 1953.99 1124.73 1962.99 1131.02C1972.21 1137.32 1984.47 1140.47 1999.76 1140.47C2013.03 1140.47 2024.95 1138.11 2035.52 1133.39C2046.31 1128.66 2054.86 1121.8 2061.16 1112.81C2067.68 1103.59 2070.94 1092.34 2070.94 1079.07V1000.47C2070.94 988.098 2068.35 977.19 2063.18 967.744C2058.01 958.299 2049.8 950.989 2038.55 945.816C2027.53 940.419 2012.8 937.72 1994.36 937.72C1976.59 937.72 1958.94 940.419 1941.4 945.816C1923.85 950.989 1908.11 958.861 1894.17 969.431L1865.83 893.526C1888.09 879.582 1911.93 869.349 1937.35 862.827C1962.76 856.08 1987.73 852.706 2012.24 852.706C2044.63 852.706 2073.08 857.879 2097.59 868.225C2122.33 878.57 2141.67 894.538 2155.62 916.129C2169.56 937.72 2176.53 965.383 2176.53 999.118V1210.3H2081.06V1173.87C2070.04 1188.71 2054.86 1200.18 2035.52 1208.28C2016.18 1216.38 1994.14 1220.42 1969.4 1220.42ZM2263.96 1218.74L2228.2 1120.9C2251.37 1115.06 2268.12 1106.51 2278.47 1095.26C2289.04 1084.02 2295.67 1068.95 2298.37 1050.06C2301.29 1030.94 2302.76 1006.77 2302.76 977.528V866.201H2606.04V1210.3H2495.39V953.913H2403.29V977.528C2403.29 1012.61 2401.15 1043.76 2396.88 1070.98C2392.83 1097.96 2385.63 1121.35 2375.29 1141.14C2365.17 1160.94 2351.11 1177.24 2333.12 1190.06C2315.13 1202.88 2292.07 1212.44 2263.96 1218.74ZM2794.33 1220.42C2771.39 1220.42 2750.82 1216.04 2732.6 1207.27C2714.38 1198.27 2699.99 1185.56 2689.42 1169.15C2678.85 1152.5 2673.56 1132.6 2673.56 1109.43C2673.56 1089.64 2678.4 1072.1 2688.07 1056.81C2697.96 1041.51 2712.81 1028.92 2732.6 1019.02C2752.39 1009.13 2777.24 1002.49 2807.15 999.118C2837.29 995.52 2872.49 995.52 2912.75 999.118L2913.76 1067.94C2892.39 1064.12 2873.05 1062.2 2855.73 1062.2C2838.64 1061.98 2824.02 1063.44 2811.88 1066.59C2799.96 1069.51 2790.74 1074.12 2784.21 1080.42C2777.69 1086.72 2774.43 1094.48 2774.43 1103.7C2774.43 1115.62 2778.93 1124.73 2787.93 1131.02C2797.15 1137.32 2809.4 1140.47 2824.7 1140.47C2837.97 1140.47 2849.89 1138.11 2860.46 1133.39C2871.25 1128.66 2879.8 1121.8 2886.1 1112.81C2892.62 1103.59 2895.88 1092.34 2895.88 1079.07V1000.47C2895.88 988.098 2893.29 977.19 2888.12 967.744C2882.95 958.299 2874.74 950.989 2863.49 945.816C2852.47 940.419 2837.74 937.72 2819.3 937.72C2801.53 937.72 2783.88 940.419 2766.33 945.816C2748.79 950.989 2733.05 958.861 2719.1 969.431L2690.77 893.526C2713.03 879.582 2736.87 869.349 2762.29 862.827C2787.7 856.08 2812.66 852.706 2837.18 852.706C2869.57 852.706 2898.02 857.879 2922.53 868.225C2947.27 878.57 2966.61 894.538 2980.55 916.129C2994.5 937.72 3001.47 965.383 3001.47 999.118V1210.3H2906V1173.87C2894.98 1188.71 2879.8 1200.18 2860.46 1208.28C2841.11 1216.38 2819.07 1220.42 2794.33 1220.42ZM3244.4 1210.3V866.201H3425.22C3466.15 866.201 3498.09 873.51 3521.03 888.129C3544.19 902.747 3555.78 924.9 3555.78 954.588C3555.78 970.781 3551.62 984.5 3543.29 995.745C3534.97 1006.77 3523.73 1015.65 3509.56 1022.4C3495.62 1028.92 3480.1 1033.42 3463 1035.89L3461.32 1011.26C3494.83 1014.19 3521.37 1023.86 3540.93 1040.28C3560.72 1056.47 3570.62 1077.95 3570.62 1104.71C3570.62 1126.75 3565.11 1145.64 3554.09 1161.39C3543.29 1177.13 3527.33 1189.27 3506.19 1197.82C3485.04 1206.14 3459.29 1210.3 3428.93 1210.3H3244.4ZM3349.99 1135.75H3414.43C3430.17 1135.75 3442.09 1132.94 3450.18 1127.31C3458.51 1121.69 3462.67 1113.71 3462.67 1103.36C3462.67 1093.47 3458.62 1085.82 3450.52 1080.42C3442.65 1074.8 3430.62 1071.99 3414.43 1071.99H3339.87V1001.48H3405.99C3420.83 1001.48 3432.3 999.118 3440.4 994.396C3448.5 989.448 3452.55 981.801 3452.55 971.455C3452.55 961.335 3448.39 953.688 3440.06 948.515C3431.97 943.342 3420.61 940.756 3405.99 940.756H3349.99V1135.75ZM3641.71 1210.3V866.201H3752.37V1132.71H3794.87C3812.19 1132.71 3825.46 1128.89 3834.68 1121.24C3844.13 1113.37 3848.85 1102.35 3848.85 1088.18C3848.85 1074.46 3844.58 1063.55 3836.03 1055.46C3827.71 1047.14 3815.79 1042.97 3800.27 1042.97H3741.23V966.395H3809.38C3857.06 966.395 3894.39 976.628 3921.38 997.094C3948.59 1017.34 3962.2 1047.7 3962.2 1088.18C3962.2 1113.59 3955.9 1135.41 3943.31 1153.63C3930.71 1171.84 3912.83 1185.9 3889.67 1195.8C3866.5 1205.47 3839.18 1210.3 3807.69 1210.3H3641.71ZM4008.08 1210.3V866.201H4118.73V1210.3H4008.08ZM170.646 1847.3V1503.2H523.519V1847.3H412.867V1590.91H281.298V1847.3H170.646ZM615.401 1988.99V1503.2H710.873V1542.67C723.692 1527.6 739.997 1515.57 759.789 1506.57C779.805 1497.58 802.97 1493.08 829.284 1493.08C862.12 1493.08 891.357 1500.61 916.996 1515.68C942.86 1530.75 963.214 1552 978.058 1579.44C992.901 1606.88 1000.32 1638.82 1000.32 1675.25C1000.32 1700.89 996.05 1724.84 987.504 1747.11C979.182 1769.15 967.262 1788.49 951.744 1805.13C936.226 1821.55 917.896 1834.37 896.755 1843.59C875.839 1852.81 852.674 1857.42 827.26 1857.42C807.019 1857.42 788.352 1854.16 771.259 1847.64C754.391 1841.12 739.21 1831.9 725.716 1819.98V1988.99H615.401ZM808.705 1762.29C824.674 1762.29 838.955 1758.8 851.55 1751.83C864.144 1744.63 874.04 1734.51 881.237 1721.47C888.434 1708.42 892.032 1693.02 892.032 1675.25C892.032 1657.26 888.321 1641.85 880.899 1629.03C873.703 1615.99 863.807 1605.98 851.212 1599.01C838.843 1591.81 824.674 1588.21 808.705 1588.21C792.962 1588.21 778.793 1591.81 766.199 1599.01C753.604 1605.98 743.708 1615.99 736.511 1629.03C729.315 1641.85 725.716 1657.26 725.716 1675.25C725.716 1693.02 729.315 1708.42 736.511 1721.47C743.708 1734.51 753.492 1744.63 765.861 1751.83C778.456 1758.8 792.737 1762.29 808.705 1762.29ZM1232.35 1857.42C1194.8 1857.42 1161.62 1849.21 1132.84 1832.8C1104.05 1816.15 1081.44 1794 1065.03 1766.34C1048.83 1738.67 1040.74 1708.31 1040.74 1675.25C1040.74 1651.19 1045.35 1628.25 1054.57 1606.43C1064.01 1584.39 1077.28 1564.94 1094.38 1548.07C1111.47 1530.98 1131.71 1517.59 1155.1 1507.92C1178.49 1498.03 1204.24 1493.08 1232.35 1493.08C1269.91 1493.08 1303.09 1501.4 1331.87 1518.04C1360.66 1534.46 1383.15 1556.5 1399.35 1584.17C1415.54 1611.83 1423.64 1642.19 1423.64 1675.25C1423.64 1699.32 1419.02 1722.37 1409.8 1744.41C1400.58 1766.23 1387.43 1785.57 1370.33 1802.43C1353.24 1819.3 1333 1832.68 1309.61 1842.58C1286.22 1852.48 1260.47 1857.42 1232.35 1857.42ZM1232.35 1762.29C1248.1 1762.29 1262.27 1758.8 1274.86 1751.83C1287.46 1744.63 1297.35 1734.51 1304.55 1721.47C1311.75 1708.42 1315.34 1693.02 1315.34 1675.25C1315.34 1657.26 1311.75 1641.85 1304.55 1629.03C1297.58 1615.99 1287.79 1605.98 1275.2 1599.01C1262.6 1591.81 1248.32 1588.21 1232.35 1588.21C1216.39 1588.21 1202.11 1591.81 1189.51 1599.01C1176.92 1605.98 1167.02 1615.99 1159.82 1629.03C1152.63 1641.85 1149.03 1657.26 1149.03 1675.25C1149.03 1693.02 1152.63 1708.42 1159.82 1721.47C1167.25 1734.51 1177.25 1744.63 1189.85 1751.83C1202.44 1758.8 1216.61 1762.29 1232.35 1762.29ZM1690.02 1847.3V1726.87C1675.18 1730.69 1661.34 1733.61 1648.52 1735.64C1635.7 1737.66 1622.55 1738.67 1609.05 1738.67C1580.04 1738.67 1554.74 1733.95 1533.15 1724.51C1511.56 1715.06 1494.69 1700.33 1482.55 1680.31C1470.63 1660.07 1464.67 1633.87 1464.67 1601.71V1503.2H1575.32V1586.86C1575.32 1606.66 1579.59 1621.72 1588.14 1632.07C1596.91 1642.42 1611.64 1647.59 1632.33 1647.59C1644.93 1647.59 1655.61 1647.03 1664.38 1645.9C1673.38 1644.78 1681.92 1643.54 1690.02 1642.19V1503.2H1800.67V1847.3H1690.02ZM1893 1847.3V1503.2H1998.59V1692.12L2147.03 1503.2H2246.21V1847.3H2140.62V1655.69L1991.85 1847.3H1893ZM2406.24 1847.3V1590.91H2307.06V1503.2H2615.74V1590.91H2516.89V1847.3H2406.24ZM2773.91 1857.42C2750.97 1857.42 2730.39 1853.04 2712.17 1844.27C2693.96 1835.27 2679.56 1822.56 2668.99 1806.15C2658.42 1789.5 2653.14 1769.6 2653.14 1746.43C2653.14 1726.64 2657.97 1709.1 2667.64 1693.81C2677.54 1678.51 2692.38 1665.92 2712.17 1656.02C2731.96 1646.13 2756.82 1639.49 2786.73 1636.12C2816.87 1632.52 2852.06 1632.52 2892.32 1636.12L2893.33 1704.94C2871.97 1701.12 2852.63 1699.2 2835.31 1699.2C2818.22 1698.98 2803.6 1700.44 2791.45 1703.59C2779.53 1706.51 2770.31 1711.12 2763.79 1717.42C2757.27 1723.72 2754.01 1731.48 2754.01 1740.7C2754.01 1752.62 2758.5 1761.73 2767.5 1768.02C2776.72 1774.32 2788.98 1777.47 2804.27 1777.47C2817.54 1777.47 2829.46 1775.11 2840.03 1770.39C2850.83 1765.66 2859.37 1758.8 2865.67 1749.81C2872.19 1740.59 2875.45 1729.34 2875.45 1716.07V1637.47C2875.45 1625.1 2872.87 1614.19 2867.69 1604.74C2862.52 1595.3 2854.31 1587.99 2843.07 1582.82C2832.05 1577.42 2817.32 1574.72 2798.87 1574.72C2781.11 1574.72 2763.45 1577.42 2745.91 1582.82C2728.37 1587.99 2712.62 1595.86 2698.68 1606.43L2670.34 1530.53C2692.61 1516.58 2716.45 1506.35 2741.86 1499.83C2767.27 1493.08 2792.24 1489.71 2816.75 1489.71C2849.14 1489.71 2877.59 1494.88 2902.1 1505.22C2926.84 1515.57 2946.19 1531.54 2960.13 1553.13C2974.07 1574.72 2981.05 1602.38 2981.05 1636.12V1847.3H2885.57V1810.87C2874.55 1825.71 2859.37 1837.18 2840.03 1845.28C2820.69 1853.38 2798.65 1857.42 2773.91 1857.42ZM3231.42 1857.42C3193.63 1857.42 3160.46 1849.89 3131.9 1834.82C3103.33 1819.53 3081.07 1798.27 3065.1 1771.06C3049.13 1743.62 3041.15 1711.57 3041.15 1674.91C3041.15 1648.38 3045.76 1623.97 3054.98 1601.71C3064.42 1579.44 3077.47 1560.21 3094.11 1544.02C3110.98 1527.83 3130.77 1515.35 3153.49 1506.57C3176.43 1497.58 3201.62 1493.08 3229.05 1493.08C3259.19 1493.08 3286.07 1498.48 3309.68 1509.27C3333.3 1519.84 3352.75 1534.69 3368.04 1553.8C3383.56 1572.7 3394.25 1595.07 3400.09 1620.94C3405.94 1646.58 3406.16 1674.46 3400.77 1704.6H3142.35C3142.58 1718.1 3146.63 1729.9 3154.5 1740.02C3162.37 1750.14 3173.17 1758.13 3186.88 1763.98C3200.6 1769.6 3216.57 1772.41 3234.79 1772.41C3255.03 1772.41 3274.26 1769.82 3292.48 1764.65C3310.69 1759.25 3328.12 1751.04 3344.77 1740.02L3379.51 1814.92C3368.94 1823.01 3355.22 1830.32 3338.36 1836.84C3321.71 1843.14 3303.95 1848.09 3285.05 1851.69C3266.39 1855.51 3248.51 1857.42 3231.42 1857.42ZM3149.1 1630.05H3295.51C3295.06 1612.73 3288.65 1598.9 3276.28 1588.55C3263.91 1578.21 3247.16 1573.03 3226.02 1573.03C3204.65 1573.03 3186.88 1578.21 3172.72 1588.55C3158.77 1598.9 3150.9 1612.73 3149.1 1630.05ZM3537.56 1847.3V1590.91H3438.38V1503.2H3747.06V1590.91H3648.22V1847.3H3537.56ZM3971.36 1857.42C3933.57 1857.42 3900.4 1849.89 3871.84 1834.82C3843.27 1819.53 3821.01 1798.27 3805.04 1771.06C3789.07 1743.62 3781.09 1711.57 3781.09 1674.91C3781.09 1648.38 3785.7 1623.97 3794.92 1601.71C3804.37 1579.44 3817.41 1560.21 3834.05 1544.02C3850.92 1527.83 3870.71 1515.35 3893.43 1506.57C3916.37 1497.58 3941.56 1493.08 3968.99 1493.08C3999.13 1493.08 4026.01 1498.48 4049.62 1509.27C4073.24 1519.84 4092.69 1534.69 4107.98 1553.8C4123.5 1572.7 4134.19 1595.07 4140.03 1620.94C4145.88 1646.58 4146.11 1674.46 4140.71 1704.6H3882.29C3882.52 1718.1 3886.57 1729.9 3894.44 1740.02C3902.31 1750.14 3913.11 1758.13 3926.83 1763.98C3940.54 1769.6 3956.51 1772.41 3974.73 1772.41C3994.97 1772.41 4014.2 1769.82 4032.42 1764.65C4050.63 1759.25 4068.06 1751.04 4084.71 1740.02L4119.45 1814.92C4108.88 1823.01 4095.17 1830.32 4078.3 1836.84C4061.65 1843.14 4043.89 1848.09 4025 1851.69C4006.33 1855.51 3988.45 1857.42 3971.36 1857.42ZM3889.04 1630.05H4035.45C4035 1612.73 4028.59 1598.9 4016.22 1588.55C4003.85 1578.21 3987.1 1573.03 3965.96 1573.03C3944.59 1573.03 3926.83 1578.21 3912.66 1588.55C3898.71 1598.9 3890.84 1612.73 3889.04 1630.05ZM4475.17 1857.42C4456.51 1857.42 4438.07 1855.62 4419.85 1852.03C4401.86 1848.65 4385.1 1843.59 4369.58 1836.84C4354.29 1830.1 4341.13 1821.66 4330.11 1811.54L4372.62 1739.69C4384.76 1751.16 4399.04 1759.82 4415.46 1765.66C4432.11 1771.51 4448.75 1774.43 4465.39 1774.43C4487.66 1774.43 4506.1 1771.06 4520.72 1764.31C4535.34 1757.57 4546.24 1746.88 4553.44 1732.26C4560.64 1717.42 4564.24 1697.74 4564.24 1673.23C4564.24 1639.04 4556.14 1614.3 4539.95 1599.01C4523.75 1583.72 4499.35 1576.07 4466.74 1576.07C4448.75 1576.07 4431.88 1579.22 4416.14 1585.52C4400.62 1591.59 4387.24 1599.57 4375.99 1609.47L4338.21 1537.61C4355.53 1524.12 4376.67 1513.32 4401.63 1505.22C4426.82 1497.13 4453.13 1493.08 4480.57 1493.08C4517.91 1493.08 4550.29 1500.5 4577.73 1515.35C4605.17 1530.19 4626.31 1551.22 4641.15 1578.43C4656.22 1605.42 4663.76 1637.02 4663.76 1673.23C4663.76 1700.89 4659.37 1725.97 4650.6 1748.46C4641.83 1770.95 4629.23 1790.4 4612.82 1806.82C4596.4 1823.01 4576.61 1835.5 4553.44 1844.27C4530.28 1853.04 4504.19 1857.42 4475.17 1857.42ZM4412.09 1710V1633.42H4597.97V1710H4412.09ZM4796.72 1847.3V1590.91H4697.53V1503.2H5006.21V1590.91H4907.37V1847.3H4796.72ZM5231.86 1857.42C5194.3 1857.42 5161.12 1849.21 5132.34 1832.8C5103.55 1816.15 5080.95 1794 5064.53 1766.34C5048.34 1738.67 5040.24 1708.31 5040.24 1675.25C5040.24 1651.19 5044.85 1628.25 5054.07 1606.43C5063.52 1584.39 5076.79 1564.94 5093.88 1548.07C5110.97 1530.98 5131.21 1517.59 5154.6 1507.92C5177.99 1498.03 5203.74 1493.08 5231.86 1493.08C5269.42 1493.08 5302.59 1501.4 5331.38 1518.04C5360.16 1534.46 5382.65 1556.5 5398.85 1584.17C5415.04 1611.83 5423.14 1642.19 5423.14 1675.25C5423.14 1699.32 5418.53 1722.37 5409.31 1744.41C5400.08 1766.23 5386.93 1785.57 5369.83 1802.43C5352.74 1819.3 5332.5 1832.68 5309.11 1842.58C5285.72 1852.48 5259.97 1857.42 5231.86 1857.42ZM5231.86 1762.29C5247.6 1762.29 5261.77 1758.8 5274.36 1751.83C5286.96 1744.63 5296.85 1734.51 5304.05 1721.47C5311.25 1708.42 5314.85 1693.02 5314.85 1675.25C5314.85 1657.26 5311.25 1641.85 5304.05 1629.03C5297.08 1615.99 5287.3 1605.98 5274.7 1599.01C5262.11 1591.81 5247.82 1588.21 5231.86 1588.21C5215.89 1588.21 5201.61 1591.81 5189.01 1599.01C5176.42 1605.98 5166.52 1615.99 5159.33 1629.03C5152.13 1641.85 5148.53 1657.26 5148.53 1675.25C5148.53 1693.02 5152.13 1708.42 5159.33 1721.47C5166.75 1734.51 5176.76 1744.63 5189.35 1751.83C5201.94 1758.8 5216.11 1762.29 5231.86 1762.29Z" fill="black"/>
<path d="M151.467 2469.15V2263.76H316.662V2469.15H283.799V2293.83H184.33V2469.15H151.467ZM432.011 2473.55C416.851 2473.55 403.305 2470.08 391.372 2463.14C379.537 2456.1 370.246 2446.75 363.497 2435.12C356.749 2423.38 353.374 2410.52 353.374 2396.53C353.374 2386.16 355.281 2376.38 359.096 2367.19C363.008 2357.9 368.485 2349.68 375.527 2342.54C382.667 2335.4 391.03 2329.78 400.615 2325.67C410.2 2321.56 420.714 2319.51 432.157 2319.51C447.318 2319.51 460.815 2323.03 472.649 2330.07C484.582 2337.02 493.922 2346.36 500.671 2358.09C507.42 2369.73 510.794 2382.54 510.794 2396.53C510.794 2406.8 508.838 2416.58 504.926 2425.87C501.111 2435.16 495.683 2443.38 488.641 2450.52C481.599 2457.66 473.285 2463.28 463.7 2467.39C454.115 2471.5 443.552 2473.55 432.011 2473.55ZM432.011 2444.95C441.009 2444.95 448.98 2442.99 455.924 2439.08C462.967 2435.07 468.493 2429.44 472.503 2422.21C476.513 2414.97 478.518 2406.41 478.518 2396.53C478.518 2386.65 476.513 2378.09 472.503 2370.86C468.493 2363.52 462.967 2357.9 455.924 2353.98C448.98 2350.07 441.009 2348.12 432.011 2348.12C423.013 2348.12 414.992 2350.07 407.95 2353.98C401.006 2357.9 395.529 2363.52 391.519 2370.86C387.607 2378.09 385.65 2386.65 385.65 2396.53C385.65 2406.41 387.655 2414.97 391.666 2422.21C395.676 2429.44 401.153 2435.07 408.097 2439.08C415.139 2442.99 423.11 2444.95 432.011 2444.95ZM575.638 2469.15V2350.61H527.957V2323.91H655.741V2350.61H607.914V2469.15H575.638ZM751.506 2473.55C736.346 2473.55 722.8 2470.08 710.867 2463.14C699.033 2456.1 689.741 2446.75 682.993 2435.12C676.244 2423.38 672.87 2410.52 672.87 2396.53C672.87 2386.16 674.777 2376.38 678.591 2367.19C682.504 2357.9 687.981 2349.68 695.023 2342.54C702.163 2335.4 710.525 2329.78 720.11 2325.67C729.695 2321.56 740.209 2319.51 751.653 2319.51C766.813 2319.51 780.31 2323.03 792.145 2330.07C804.077 2337.02 813.418 2346.36 820.166 2358.09C826.915 2369.73 830.289 2382.54 830.289 2396.53C830.289 2406.8 828.333 2416.58 824.421 2425.87C820.607 2435.16 815.178 2443.38 808.136 2450.52C801.094 2457.66 792.781 2463.28 783.196 2467.39C773.61 2471.5 763.047 2473.55 751.506 2473.55ZM751.506 2444.95C760.504 2444.95 768.476 2442.99 775.42 2439.08C782.462 2435.07 787.988 2429.44 791.998 2422.21C796.008 2414.97 798.013 2406.41 798.013 2396.53C798.013 2386.65 796.008 2378.09 791.998 2370.86C787.988 2363.52 782.462 2357.9 775.42 2353.98C768.476 2350.07 760.504 2348.12 751.506 2348.12C742.508 2348.12 734.488 2350.07 727.446 2353.98C720.501 2357.9 715.024 2363.52 711.014 2370.86C707.102 2378.09 705.146 2386.65 705.146 2396.53C705.146 2406.41 707.151 2414.97 711.161 2422.21C715.171 2429.44 720.648 2435.07 727.592 2439.08C734.635 2442.99 742.606 2444.95 751.506 2444.95ZM862.71 2469.15V2323.91H890.732H891.612L956.751 2418.1L942.814 2418.39L1004.73 2323.91H1033.33V2469.15H1003.99L1004.43 2361.76L1010.45 2364.4L958.512 2440.25H937.679L883.396 2364.25L889.411 2361.61L889.851 2469.15H862.71ZM1150.11 2469.15V2323.91H1219.36C1235.79 2323.91 1248.95 2327.04 1258.82 2333.3C1268.7 2339.56 1273.64 2348.95 1273.64 2361.47C1273.64 2367.34 1272.22 2372.57 1269.39 2377.17C1266.55 2381.66 1262.64 2385.43 1257.65 2388.46C1252.66 2391.49 1246.84 2393.69 1240.19 2395.06L1239.61 2387.87C1252.42 2389.64 1262.35 2393.89 1269.39 2400.64C1276.43 2407.39 1279.95 2415.95 1279.95 2426.31C1279.95 2435.12 1277.65 2442.74 1273.06 2449.2C1268.46 2455.56 1261.86 2460.5 1253.25 2464.02C1244.64 2467.44 1234.32 2469.15 1222.29 2469.15H1150.11ZM1181.36 2445.24H1217.89C1227.58 2445.24 1235.01 2443.62 1240.19 2440.4C1245.47 2437.17 1248.11 2432.33 1248.11 2425.87C1248.11 2419.52 1245.52 2414.77 1240.34 2411.64C1235.16 2408.41 1227.67 2406.8 1217.89 2406.8H1177.11V2383.77H1214.52C1223.61 2383.77 1230.66 2382.4 1235.64 2379.66C1240.63 2376.82 1243.13 2372.23 1243.13 2365.87C1243.13 2359.51 1240.63 2354.91 1235.64 2352.08C1230.66 2349.14 1223.61 2347.68 1214.52 2347.68H1181.36V2445.24ZM1316.31 2469.15V2323.91H1348.58V2444.65H1374.84C1385.41 2444.65 1393.38 2442.6 1398.76 2438.49C1404.14 2434.38 1406.83 2428.27 1406.83 2420.15C1406.83 2412.13 1404.33 2405.97 1399.35 2401.67C1394.36 2397.36 1387.02 2395.21 1377.34 2395.21H1344.18V2371H1379.83C1398.61 2371 1413.38 2375.21 1424.14 2383.62C1434.9 2392.03 1440.28 2404.21 1440.28 2420.15C1440.28 2430.42 1437.69 2439.22 1432.5 2446.56C1427.32 2453.8 1420.03 2459.37 1410.64 2463.28C1401.35 2467.2 1390.45 2469.15 1377.93 2469.15H1316.31ZM1463.6 2469.15V2323.91H1495.88V2469.15H1463.6ZM1612.59 2469.15V2323.91H1749.77V2469.15H1717.49V2350.61H1644.87V2469.15H1612.59ZM1794.55 2530.77V2323.91H1823.6V2344.3C1829.37 2336.97 1836.75 2331 1845.75 2326.4C1854.75 2321.81 1865.85 2319.51 1879.05 2319.51C1893.23 2319.51 1905.8 2322.88 1916.76 2329.63C1927.81 2336.28 1936.42 2345.43 1942.58 2357.07C1948.74 2368.61 1951.82 2381.76 1951.82 2396.53C1951.82 2407.19 1950.06 2417.22 1946.54 2426.61C1943.02 2435.9 1937.98 2444.06 1931.43 2451.11C1924.97 2458.15 1917.25 2463.68 1908.25 2467.69C1899.35 2471.6 1889.47 2473.55 1878.61 2473.55C1867.27 2473.55 1857.29 2471.5 1848.68 2467.39C1840.08 2463.28 1832.74 2457.76 1826.68 2450.81V2530.77H1794.55ZM1873.18 2444.95C1882.18 2444.95 1890.15 2442.99 1897.1 2439.08C1904.14 2435.07 1909.62 2429.44 1913.53 2422.21C1917.54 2414.97 1919.54 2406.41 1919.54 2396.53C1919.54 2386.65 1917.54 2378.09 1913.53 2370.86C1909.52 2363.52 1903.99 2357.9 1896.95 2353.98C1890.01 2350.07 1882.08 2348.12 1873.18 2348.12C1864.19 2348.12 1856.17 2350.07 1849.12 2353.98C1842.18 2357.9 1836.7 2363.52 1832.69 2370.86C1828.68 2378.09 1826.68 2386.65 1826.68 2396.53C1826.68 2406.41 1828.68 2414.97 1832.69 2422.21C1836.7 2429.44 1842.18 2435.07 1849.12 2439.08C1856.17 2442.99 1864.19 2444.95 1873.18 2444.95ZM2051.84 2473.55C2036.68 2473.55 2023.13 2470.08 2011.2 2463.14C1999.36 2456.1 1990.07 2446.75 1983.32 2435.12C1976.58 2423.38 1973.2 2410.52 1973.2 2396.53C1973.2 2386.16 1975.11 2376.38 1978.92 2367.19C1982.84 2357.9 1988.31 2349.68 1995.35 2342.54C2002.49 2335.4 2010.86 2329.78 2020.44 2325.67C2030.03 2321.56 2040.54 2319.51 2051.98 2319.51C2067.14 2319.51 2080.64 2323.03 2092.48 2330.07C2104.41 2337.02 2113.75 2346.36 2120.5 2358.09C2127.25 2369.73 2130.62 2382.54 2130.62 2396.53C2130.62 2406.8 2128.67 2416.58 2124.75 2425.87C2120.94 2435.16 2115.51 2443.38 2108.47 2450.52C2101.43 2457.66 2093.11 2463.28 2083.53 2467.39C2073.94 2471.5 2063.38 2473.55 2051.84 2473.55ZM2051.84 2444.95C2060.84 2444.95 2068.81 2442.99 2075.75 2439.08C2082.79 2435.07 2088.32 2429.44 2092.33 2422.21C2096.34 2414.97 2098.35 2406.41 2098.35 2396.53C2098.35 2386.65 2096.34 2378.09 2092.33 2370.86C2088.32 2363.52 2082.79 2357.9 2075.75 2353.98C2068.81 2350.07 2060.84 2348.12 2051.84 2348.12C2042.84 2348.12 2034.82 2350.07 2027.78 2353.98C2020.83 2357.9 2015.36 2363.52 2011.35 2370.86C2007.43 2378.09 2005.48 2386.65 2005.48 2396.53C2005.48 2406.41 2007.48 2414.97 2011.49 2422.21C2015.5 2429.44 2020.98 2435.07 2027.92 2439.08C2034.97 2442.99 2042.94 2444.95 2051.84 2444.95ZM2251.15 2469.15V2412.38C2244.3 2414.14 2237.8 2415.46 2231.63 2416.34C2225.57 2417.22 2219.16 2417.66 2212.41 2417.66C2199.41 2417.66 2188.45 2415.65 2179.55 2411.64C2170.65 2407.63 2163.95 2401.57 2159.45 2393.45C2154.95 2385.33 2152.7 2375.11 2152.7 2362.79V2323.91H2184.98V2358.24C2184.98 2368.61 2187.47 2376.48 2192.46 2381.86C2197.45 2387.24 2205.96 2389.93 2217.99 2389.93C2224.93 2389.93 2231 2389.64 2236.18 2389.05C2241.46 2388.36 2246.45 2387.53 2251.15 2386.55V2323.91H2283.42V2469.15H2251.15ZM2328.38 2469.15V2323.91H2359.63V2421.91L2438.41 2323.91H2466.58V2469.15H2435.48V2369.98L2355.96 2469.15H2328.38ZM2543.9 2469.15V2350.61H2496.22V2323.91H2624V2350.61H2576.18V2469.15H2543.9ZM2715.08 2473.55C2700.6 2473.55 2687.79 2470.23 2676.64 2463.58C2665.58 2456.83 2656.88 2447.68 2650.52 2436.14C2644.26 2424.5 2641.13 2411.3 2641.13 2396.53C2641.13 2385.48 2642.94 2375.26 2646.56 2365.87C2650.18 2356.48 2655.27 2348.31 2661.82 2341.37C2668.37 2334.42 2676.2 2329.04 2685.29 2325.23C2694.39 2321.42 2704.32 2319.51 2715.08 2319.51C2729.35 2319.51 2741.29 2322.54 2750.87 2328.6C2760.56 2334.67 2767.94 2342.49 2773.03 2352.08L2768.48 2358.97V2323.91H2797.23V2469.15H2768.48V2434.09L2773.03 2440.98C2767.94 2450.57 2760.56 2458.39 2750.87 2464.46C2741.29 2470.52 2729.35 2473.55 2715.08 2473.55ZM2719.33 2444.95C2728.13 2444.95 2736.01 2442.99 2742.95 2439.08C2749.89 2435.07 2755.32 2429.44 2759.23 2422.21C2763.24 2414.97 2765.25 2406.41 2765.25 2396.53C2765.25 2386.65 2763.24 2378.09 2759.23 2370.86C2755.32 2363.52 2749.89 2357.9 2742.95 2353.98C2736.01 2350.07 2728.13 2348.12 2719.33 2348.12C2710.43 2348.12 2702.51 2350.07 2695.56 2353.98C2688.72 2357.9 2683.29 2363.52 2679.28 2370.86C2675.27 2378.09 2673.26 2386.65 2673.26 2396.53C2673.26 2406.41 2675.27 2414.97 2679.28 2422.21C2683.29 2429.44 2688.72 2435.07 2695.56 2439.08C2702.51 2442.99 2710.43 2444.95 2719.33 2444.95ZM2908.46 2473.55C2892.81 2473.55 2879.07 2470.37 2867.24 2464.02C2855.4 2457.56 2846.16 2448.56 2839.51 2437.02C2832.96 2425.48 2829.68 2412.08 2829.68 2396.82C2829.68 2385.67 2831.59 2375.4 2835.4 2366.02C2839.21 2356.53 2844.59 2348.31 2851.54 2341.37C2858.48 2334.42 2866.6 2329.04 2875.89 2325.23C2885.28 2321.42 2895.5 2319.51 2906.55 2319.51C2918.58 2319.51 2929.29 2321.66 2938.68 2325.96C2948.07 2330.17 2955.85 2336.09 2962.01 2343.72C2968.27 2351.34 2972.67 2360.29 2975.22 2370.56C2977.86 2380.74 2978.3 2391.79 2976.54 2403.72H2860.63C2860.44 2412.42 2862.35 2420.05 2866.36 2426.61C2870.37 2433.06 2876.09 2438.1 2883.52 2441.72C2891.05 2445.34 2899.9 2447.15 2910.08 2447.15C2918.29 2447.15 2926.21 2445.92 2933.84 2443.48C2941.57 2440.94 2948.56 2437.22 2954.82 2432.33L2967.29 2455.51C2962.6 2459.32 2956.93 2462.6 2950.27 2465.34C2943.62 2467.98 2936.68 2469.98 2929.44 2471.35C2922.2 2472.82 2915.21 2473.55 2908.46 2473.55ZM2862.54 2379.95H2944.85C2944.55 2369 2941.03 2360.39 2934.28 2354.13C2927.63 2347.87 2918.14 2344.74 2905.82 2344.74C2893.89 2344.74 2883.96 2347.87 2876.04 2354.13C2868.21 2360.39 2863.72 2369 2862.54 2379.95ZM3042.49 2469.15V2350.61H2994.81V2323.91H3122.59V2350.61H3074.76V2469.15H3042.49ZM3218.5 2473.55C3202.85 2473.55 3189.11 2470.37 3177.28 2464.02C3165.44 2457.56 3156.2 2448.56 3149.55 2437.02C3142.99 2425.48 3139.72 2412.08 3139.72 2396.82C3139.72 2385.67 3141.63 2375.4 3145.44 2366.02C3149.25 2356.53 3154.63 2348.31 3161.58 2341.37C3168.52 2334.42 3176.64 2329.04 3185.93 2325.23C3195.32 2321.42 3205.54 2319.51 3216.59 2319.51C3228.62 2319.51 3239.33 2321.66 3248.72 2325.96C3258.11 2330.17 3265.89 2336.09 3272.05 2343.72C3278.31 2351.34 3282.71 2360.29 3285.25 2370.56C3287.9 2380.74 3288.34 2391.79 3286.57 2403.72H3170.67C3170.48 2412.42 3172.39 2420.05 3176.4 2426.61C3180.41 2433.06 3186.13 2438.1 3193.56 2441.72C3201.09 2445.34 3209.94 2447.15 3220.12 2447.15C3228.33 2447.15 3236.25 2445.92 3243.88 2443.48C3251.61 2440.94 3258.6 2437.22 3264.86 2432.33L3277.33 2455.51C3272.64 2459.32 3266.96 2462.6 3260.31 2465.34C3253.66 2467.98 3246.72 2469.98 3239.48 2471.35C3232.24 2472.82 3225.25 2473.55 3218.5 2473.55ZM3172.58 2379.95H3254.89C3254.59 2369 3251.07 2360.39 3244.32 2354.13C3237.67 2347.87 3228.18 2344.74 3215.86 2344.74C3203.93 2344.74 3194 2347.87 3186.08 2354.13C3178.25 2360.39 3173.75 2369 3172.58 2379.95ZM3434.57 2473.55C3427.33 2473.55 3420.14 2472.87 3413 2471.5C3405.86 2470.23 3399.16 2468.22 3392.91 2465.48C3386.74 2462.65 3381.36 2459.03 3376.77 2454.63L3390.85 2432.47C3396.23 2437.46 3402.59 2441.23 3409.92 2443.77C3417.36 2446.31 3424.84 2447.59 3432.37 2447.59C3442.74 2447.59 3451.64 2445.73 3459.07 2442.01C3466.5 2438.2 3472.18 2432.43 3476.09 2424.7C3480 2416.97 3481.96 2407.19 3481.96 2395.36C3481.96 2378.73 3477.7 2366.26 3469.19 2357.95C3460.78 2349.63 3448.85 2345.48 3433.4 2345.48C3425.67 2345.48 3418.33 2346.85 3411.39 2349.58C3404.45 2352.22 3398.48 2355.7 3393.49 2360L3381.02 2337.7C3387.67 2332.13 3396.04 2327.72 3406.11 2324.5C3416.28 2321.17 3426.55 2319.51 3436.92 2319.51C3452.08 2319.51 3465.28 2322.69 3476.53 2329.04C3487.78 2335.3 3496.53 2344.11 3502.79 2355.45C3509.05 2366.8 3512.18 2380.05 3512.18 2395.21C3512.18 2407.05 3510.32 2417.8 3506.61 2427.49C3502.99 2437.07 3497.75 2445.29 3490.91 2452.13C3484.16 2458.98 3475.99 2464.26 3466.41 2467.98C3456.92 2471.7 3446.31 2473.55 3434.57 2473.55ZM3405.67 2406.95V2382.74H3491.49V2406.95H3405.67ZM3576.89 2469.15V2350.61H3529.21V2323.91H3656.99V2350.61H3609.17V2469.15H3576.89ZM3752.76 2473.55C3737.6 2473.55 3724.05 2470.08 3712.12 2463.14C3700.28 2456.1 3690.99 2446.75 3684.24 2435.12C3677.5 2423.38 3674.12 2410.52 3674.12 2396.53C3674.12 2386.16 3676.03 2376.38 3679.84 2367.19C3683.75 2357.9 3689.23 2349.68 3696.27 2342.54C3703.41 2335.4 3711.78 2329.78 3721.36 2325.67C3730.95 2321.56 3741.46 2319.51 3752.9 2319.51C3768.06 2319.51 3781.56 2323.03 3793.4 2330.07C3805.33 2337.02 3814.67 2346.36 3821.42 2358.09C3828.17 2369.73 3831.54 2382.54 3831.54 2396.53C3831.54 2406.8 3829.58 2416.58 3825.67 2425.87C3821.86 2435.16 3816.43 2443.38 3809.39 2450.52C3802.35 2457.66 3794.03 2463.28 3784.45 2467.39C3774.86 2471.5 3764.3 2473.55 3752.76 2473.55ZM3752.76 2444.95C3761.76 2444.95 3769.73 2442.99 3776.67 2439.08C3783.71 2435.07 3789.24 2429.44 3793.25 2422.21C3797.26 2414.97 3799.26 2406.41 3799.26 2396.53C3799.26 2386.65 3797.26 2378.09 3793.25 2370.86C3789.24 2363.52 3783.71 2357.9 3776.67 2353.98C3769.73 2350.07 3761.76 2348.12 3752.76 2348.12C3743.76 2348.12 3735.74 2350.07 3728.7 2353.98C3721.75 2357.9 3716.28 2363.52 3712.27 2370.86C3708.35 2378.09 3706.4 2386.65 3706.4 2396.53C3706.4 2406.41 3708.4 2414.97 3712.41 2422.21C3716.42 2429.44 3721.9 2435.07 3728.84 2439.08C3735.89 2442.99 3743.86 2444.95 3752.76 2444.95Z" fill="black"/>
<path d="M182.639 3020.05C171.925 3020.05 162.161 3018.66 153.346 3015.88C144.531 3013.1 136.835 3009.13 130.258 3003.98L141.039 2985.67C145.921 2990.08 151.82 2993.54 158.737 2996.05C165.653 2998.49 172.976 2999.71 180.706 2999.71C187.622 2999.71 193.589 2998.73 198.607 2996.76C203.693 2994.79 207.591 2992.05 210.304 2988.52C213.084 2984.93 214.508 2980.72 214.576 2975.91C214.576 2968.38 212.067 2962.69 207.049 2958.82C202.099 2954.89 194.369 2952.92 183.859 2952.92H156.092V2934.61H182.13C187.894 2934.61 192.877 2933.77 197.081 2932.07C201.285 2930.31 204.54 2927.83 206.846 2924.65C209.151 2921.39 210.304 2917.49 210.304 2912.95C210.304 2908.54 209.151 2904.85 206.846 2901.86C204.608 2898.81 201.285 2896.51 196.878 2894.95C192.538 2893.32 187.249 2892.51 181.011 2892.51C174.298 2892.51 167.857 2893.63 161.686 2895.86C155.516 2898.03 150.193 2901.08 145.718 2905.02L134.937 2888.24C140.904 2882.88 148.091 2878.78 156.499 2875.93C164.975 2873.01 174.061 2871.55 183.757 2871.55C193.861 2871.55 202.608 2873.08 209.999 2876.13C217.39 2879.12 223.051 2883.45 226.984 2889.15C230.985 2894.78 232.985 2901.49 232.985 2909.29C232.985 2913.76 231.934 2918.14 229.832 2922.41C227.73 2926.61 224.984 2930.34 221.594 2933.6C218.271 2936.78 214.745 2939.16 211.016 2940.72C218.949 2943.23 225.459 2947.57 230.544 2953.74C235.63 2959.84 238.138 2967.57 238.071 2976.93C238.003 2984.93 235.663 2992.18 231.053 2998.69C226.442 3005.2 219.966 3010.39 211.626 3014.25C203.354 3018.12 193.691 3020.05 182.639 3020.05ZM307.101 3020.05C297.066 3020.05 288.183 3017.75 280.453 3013.14C272.791 3008.46 266.756 3002.12 262.349 2994.12C258.009 2986.05 255.84 2976.89 255.84 2966.65C255.84 2958.99 257.094 2951.91 259.603 2945.4C262.112 2938.89 265.638 2933.22 270.181 2928.41C274.724 2923.6 280.148 2919.87 286.454 2917.22C292.76 2914.58 299.643 2913.26 307.101 2913.26C317.001 2913.26 325.274 2915.36 331.919 2919.56C338.632 2923.77 343.751 2929.19 347.277 2935.84L344.124 2940.62V2916.31H364.059V3017H344.124V2992.69L347.277 2997.47C343.751 3004.12 338.632 3009.54 331.919 3013.75C325.274 3017.95 317.001 3020.05 307.101 3020.05ZM310.051 3000.22C316.154 3000.22 321.612 2998.86 326.426 2996.15C331.241 2993.37 335.004 2989.47 337.716 2984.45C340.496 2979.44 341.886 2973.5 341.886 2966.65C341.886 2959.81 340.496 2953.87 337.716 2948.85C335.004 2943.77 331.241 2939.87 326.426 2937.16C321.612 2934.45 316.154 2933.09 310.051 2933.09C303.881 2933.09 298.388 2934.45 293.574 2937.16C288.828 2939.87 285.064 2943.77 282.284 2948.85C279.504 2953.87 278.114 2959.81 278.114 2966.65C278.114 2973.5 279.504 2979.44 282.284 2984.45C285.064 2989.47 288.828 2993.37 293.574 2996.15C298.388 2998.86 303.881 3000.22 310.051 3000.22ZM417.676 3017V2934.82H384.62V2916.31H473.21V2934.82H440.052V3017H417.676ZM539.703 3020.05C528.854 3020.05 519.327 3017.85 511.122 3013.44C502.918 3008.96 496.51 3002.73 491.899 2994.73C487.356 2986.72 485.084 2977.43 485.084 2966.86C485.084 2959.13 486.407 2952.01 489.051 2945.5C491.696 2938.92 495.425 2933.22 500.239 2928.41C505.053 2923.6 510.681 2919.87 517.123 2917.22C523.633 2914.58 530.718 2913.26 538.38 2913.26C546.721 2913.26 554.146 2914.75 560.655 2917.73C567.164 2920.65 572.555 2924.75 576.827 2930.04C581.166 2935.33 584.218 2941.53 585.981 2948.65C587.812 2955.7 588.117 2963.36 586.896 2971.64H506.545C506.41 2977.67 507.732 2982.96 510.512 2987.5C513.292 2991.98 517.259 2995.47 522.412 2997.98C527.633 3000.49 533.77 3001.74 540.822 3001.74C546.517 3001.74 552.01 3000.9 557.299 2999.2C562.655 2997.44 567.503 2994.86 571.843 2991.47L580.488 3007.54C577.234 3010.19 573.301 3012.46 568.69 3014.36C564.079 3016.19 559.265 3017.58 554.247 3018.53C549.23 3019.54 544.381 3020.05 539.703 3020.05ZM507.867 2955.16H564.927C564.723 2947.57 562.282 2941.6 557.604 2937.26C552.993 2932.92 546.416 2930.75 537.872 2930.75C529.6 2930.75 522.717 2932.92 517.225 2937.26C511.8 2941.6 508.681 2947.57 507.867 2955.16ZM610.14 3017V2916.31H629.567H630.177L675.336 2981.6L665.674 2981.81L708.595 2916.31H728.429V3017H708.087L708.392 2942.55L712.562 2944.38L676.557 2996.96H662.114L624.481 2944.28L628.651 2942.45L628.956 3017H610.14ZM838.884 3020.05C833.867 3020.05 828.883 3019.58 823.933 3018.63C818.983 3017.75 814.338 3016.36 809.999 3014.46C805.727 3012.49 801.997 3009.98 798.811 3006.93L808.575 2991.57C812.304 2995.03 816.711 2997.64 821.797 2999.4C826.95 3001.17 832.137 3002.05 837.359 3002.05C844.546 3002.05 850.717 3000.76 855.87 2998.18C861.023 2995.54 864.956 2991.54 867.668 2986.18C870.38 2980.83 871.737 2974.04 871.737 2965.84C871.737 2954.31 868.787 2945.67 862.888 2939.9C857.056 2934.14 848.784 2931.26 838.071 2931.26C832.714 2931.26 827.628 2932.21 822.814 2934.11C818 2935.94 813.864 2938.34 810.405 2941.33L801.76 2925.87C806.371 2922 812.168 2918.95 819.153 2916.71C826.204 2914.41 833.324 2913.26 840.512 2913.26C851.022 2913.26 860.176 2915.46 867.973 2919.87C875.771 2924.21 881.84 2930.31 886.179 2938.17C890.519 2946.04 892.689 2955.23 892.689 2965.74C892.689 2973.94 891.401 2981.4 888.824 2988.11C886.315 2994.76 882.687 3000.46 877.941 3005.2C873.262 3009.95 867.6 3013.61 860.955 3016.19C854.378 3018.76 847.021 3020.05 838.884 3020.05ZM818.847 2973.87V2957.09H878.348V2973.87H818.847ZM937.549 3017V2934.82H904.494V2916.31H993.083V2934.82H959.926V3017H937.549ZM1059.47 3020.05C1048.96 3020.05 1039.57 3017.64 1031.3 3012.83C1023.1 3007.95 1016.65 3001.47 1011.98 2993.4C1007.3 2985.27 1004.96 2976.35 1004.96 2966.65C1004.96 2959.47 1006.28 2952.69 1008.92 2946.31C1011.64 2939.87 1015.43 2934.17 1020.32 2929.22C1025.27 2924.27 1031.06 2920.38 1037.71 2917.53C1044.35 2914.68 1051.64 2913.26 1059.58 2913.26C1070.09 2913.26 1079.44 2915.7 1087.65 2920.58C1095.92 2925.39 1102.4 2931.87 1107.07 2940.01C1111.75 2948.07 1114.09 2956.96 1114.09 2966.65C1114.09 2973.77 1112.74 2980.55 1110.02 2987C1107.38 2993.44 1103.62 2999.13 1098.73 3004.08C1093.85 3009.03 1088.09 3012.93 1081.44 3015.78C1074.8 3018.63 1067.48 3020.05 1059.47 3020.05ZM1059.47 3000.22C1065.71 3000.22 1071.24 2998.86 1076.05 2996.15C1080.93 2993.37 1084.77 2989.47 1087.55 2984.45C1090.33 2979.44 1091.72 2973.5 1091.72 2966.65C1091.72 2959.81 1090.33 2953.87 1087.55 2948.85C1084.77 2943.77 1080.93 2939.87 1076.05 2937.16C1071.24 2934.45 1065.71 2933.09 1059.47 2933.09C1053.24 2933.09 1047.68 2934.45 1042.79 2937.16C1037.98 2939.87 1034.18 2943.77 1031.4 2948.85C1028.69 2953.87 1027.33 2959.81 1027.33 2966.65C1027.33 2973.5 1028.72 2979.44 1031.5 2984.45C1034.28 2989.47 1038.08 2993.37 1042.9 2996.15C1047.78 2998.86 1053.3 3000.22 1059.47 3000.22Z" fill="black"/>
<path d="M125.957 328.555L156.807 249.161H170.587L202.231 328.555H187.884L180.568 309.614H146.939L139.907 328.555H125.957ZM150.228 298.669H177.166L163.442 264.075L150.228 298.669ZM256.33 330.256C253.532 330.256 250.754 329.991 247.994 329.462C245.234 328.971 242.644 328.196 240.225 327.137C237.843 326.041 235.763 324.642 233.986 322.94L239.431 314.377C241.51 316.305 243.967 317.761 246.803 318.744C249.676 319.727 252.568 320.218 255.48 320.218C259.487 320.218 262.927 319.5 265.801 318.063C268.674 316.589 270.867 314.358 272.379 311.372C273.891 308.385 274.647 304.604 274.647 300.03C274.647 293.602 273.003 288.782 269.714 285.569C266.462 282.355 261.85 280.748 255.876 280.748C252.89 280.748 250.054 281.277 247.37 282.336C244.686 283.357 242.38 284.699 240.451 286.362L235.631 277.743C238.202 275.588 241.434 273.886 245.328 272.639C249.26 271.353 253.23 270.71 257.238 270.71C263.098 270.71 268.201 271.939 272.549 274.397C276.897 276.816 280.281 280.219 282.7 284.604C285.12 288.99 286.33 294.113 286.33 299.973C286.33 304.547 285.611 308.706 284.175 312.449C282.776 316.154 280.753 319.33 278.107 321.976C275.498 324.623 272.341 326.664 268.636 328.101C264.969 329.538 260.867 330.256 256.33 330.256ZM245.158 304.51V295.152H278.334V304.51H245.158ZM311.342 328.555V282.733H292.912V272.412H342.306V282.733H323.819V328.555H311.342ZM379.324 330.256C373.463 330.256 368.227 328.914 363.615 326.23C359.04 323.507 355.449 319.897 352.84 315.398C350.231 310.861 348.927 305.89 348.927 300.483C348.927 296.476 349.664 292.695 351.139 289.141C352.651 285.55 354.768 282.374 357.49 279.614C360.25 276.854 363.483 274.68 367.188 273.092C370.893 271.504 374.957 270.71 379.38 270.71C385.24 270.71 390.458 272.072 395.032 274.794C399.645 277.478 403.255 281.088 405.864 285.625C408.472 290.124 409.777 295.077 409.777 300.483C409.777 304.453 409.021 308.234 407.508 311.825C406.034 315.417 403.936 318.593 401.214 321.353C398.492 324.112 395.278 326.286 391.573 327.874C387.868 329.462 383.785 330.256 379.324 330.256ZM379.324 319.198C382.802 319.198 385.883 318.441 388.567 316.929C391.289 315.379 393.425 313.205 394.975 310.407C396.526 307.61 397.301 304.302 397.301 300.483C397.301 296.665 396.526 293.357 394.975 290.559C393.425 287.723 391.289 285.55 388.567 284.037C385.883 282.525 382.802 281.769 379.324 281.769C375.845 281.769 372.745 282.525 370.023 284.037C367.339 285.55 365.222 287.723 363.672 290.559C362.159 293.357 361.403 296.665 361.403 300.483C361.403 304.302 362.178 307.61 363.728 310.407C365.278 313.205 367.396 315.379 370.08 316.929C372.802 318.441 375.883 319.198 379.324 319.198ZM450.11 328.555V272.412H476.877C483.229 272.412 488.314 273.622 492.132 276.041C495.951 278.461 497.86 282.09 497.86 286.93C497.86 289.198 497.312 291.221 496.215 292.998C495.119 294.737 493.607 296.192 491.678 297.364C489.75 298.536 487.501 299.387 484.93 299.916L484.703 297.137C489.656 297.818 493.493 299.462 496.215 302.071C498.937 304.68 500.298 307.988 500.298 311.995C500.298 315.398 499.41 318.347 497.633 320.842C495.856 323.3 493.304 325.209 489.977 326.57C486.65 327.893 482.662 328.555 478.011 328.555H450.11ZM462.189 319.311H476.31C480.053 319.311 482.926 318.687 484.93 317.44C486.972 316.192 487.992 314.32 487.992 311.825C487.992 309.368 486.99 307.534 484.987 306.324C482.983 305.077 480.091 304.453 476.31 304.453H460.545V295.549H475.006C478.522 295.549 481.244 295.02 483.172 293.962C485.1 292.865 486.064 291.088 486.064 288.631C486.064 286.173 485.1 284.396 483.172 283.3C481.244 282.166 478.522 281.599 475.006 281.599H462.189V319.311ZM514.352 328.555V272.412H526.828V319.084H536.979C541.062 319.084 544.143 318.29 546.223 316.702C548.302 315.114 549.342 312.752 549.342 309.614C549.342 306.513 548.378 304.132 546.45 302.468C544.522 300.805 541.686 299.973 537.943 299.973H525.127V290.616H538.907C546.166 290.616 551.875 292.241 556.034 295.493C560.192 298.744 562.272 303.451 562.272 309.614C562.272 313.583 561.27 316.986 559.266 319.821C557.262 322.619 554.446 324.774 550.816 326.286C547.225 327.799 543.009 328.555 538.17 328.555H514.352ZM571.289 328.555V272.412H583.765V328.555H571.289ZM628.879 328.555V272.412H681.903V328.555H669.427V282.733H641.356V328.555H628.879ZM699.213 352.373V272.412H710.442V280.294C712.672 277.459 715.527 275.153 719.005 273.376C722.483 271.599 726.774 270.71 731.878 270.71C737.36 270.71 742.218 272.015 746.453 274.623C750.725 277.194 754.052 280.729 756.434 285.228C758.815 289.689 760.006 294.774 760.006 300.483C760.006 304.604 759.326 308.479 757.965 312.109C756.604 315.7 754.657 318.857 752.124 321.579C749.628 324.301 746.642 326.438 743.163 327.988C739.723 329.5 735.904 330.256 731.708 330.256C727.322 330.256 723.466 329.462 720.139 327.874C716.812 326.286 713.977 324.15 711.633 321.466V352.373H699.213ZM729.61 319.198C733.088 319.198 736.169 318.441 738.853 316.929C741.576 315.379 743.693 313.205 745.205 310.407C746.755 307.61 747.53 304.302 747.53 300.483C747.53 296.665 746.755 293.357 745.205 290.559C743.655 287.723 741.519 285.55 738.797 284.037C736.112 282.525 733.05 281.769 729.61 281.769C726.131 281.769 723.031 282.525 720.309 284.037C717.625 285.55 715.508 287.723 713.958 290.559C712.408 293.357 711.633 296.665 711.633 300.483C711.633 304.302 712.408 307.61 713.958 310.407C715.508 313.205 717.625 315.379 720.309 316.929C723.031 318.441 726.131 319.198 729.61 319.198ZM798.667 330.256C792.807 330.256 787.571 328.914 782.959 326.23C778.384 323.507 774.792 319.897 772.184 315.398C769.575 310.861 768.271 305.89 768.271 300.483C768.271 296.476 769.008 292.695 770.483 289.141C771.995 285.55 774.112 282.374 776.834 279.614C779.594 276.854 782.826 274.68 786.531 273.092C790.237 271.504 794.301 270.71 798.724 270.71C804.584 270.71 809.801 272.072 814.376 274.794C818.988 277.478 822.599 281.088 825.208 285.625C827.816 290.124 829.121 295.077 829.121 300.483C829.121 304.453 828.365 308.234 826.852 311.825C825.378 315.417 823.28 318.593 820.557 321.353C817.835 324.112 814.622 326.286 810.917 327.874C807.212 329.462 803.129 330.256 798.667 330.256ZM798.667 319.198C802.146 319.198 805.227 318.441 807.911 316.929C810.633 315.379 812.769 313.205 814.319 310.407C815.869 307.61 816.644 304.302 816.644 300.483C816.644 296.665 815.869 293.357 814.319 290.559C812.769 287.723 810.633 285.55 807.911 284.037C805.227 282.525 802.146 281.769 798.667 281.769C795.189 281.769 792.089 282.525 789.367 284.037C786.683 285.55 784.566 287.723 783.015 290.559C781.503 293.357 780.747 296.665 780.747 300.483C780.747 304.302 781.522 307.61 783.072 310.407C784.622 313.205 786.739 315.379 789.424 316.929C792.146 318.441 795.227 319.198 798.667 319.198ZM875.709 328.555V306.608C873.062 307.288 870.548 307.799 868.166 308.139C865.822 308.479 863.346 308.649 860.737 308.649C855.709 308.649 851.475 307.874 848.034 306.324C844.594 304.774 842.004 302.43 840.265 299.292C838.526 296.154 837.656 292.204 837.656 287.44V272.412H850.133V285.682C850.133 289.689 851.097 292.733 853.025 294.812C854.953 296.892 858.242 297.931 862.892 297.931C865.577 297.931 867.921 297.818 869.924 297.591C871.966 297.326 873.894 297.005 875.709 296.627V272.412H888.185V328.555H875.709ZM905.562 328.555V272.412H917.641V310.294L948.095 272.412H958.983V328.555H946.96V290.219L916.224 328.555H905.562ZM988.872 328.555V282.733H970.441V272.412H1019.84V282.733H1001.35V328.555H988.872ZM1055.04 330.256C1049.44 330.256 1044.49 328.971 1040.18 326.4C1035.91 323.791 1032.54 320.256 1030.09 315.795C1027.67 311.296 1026.46 306.192 1026.46 300.483C1026.46 296.211 1027.16 292.26 1028.55 288.631C1029.95 285.001 1031.92 281.845 1034.45 279.16C1036.99 276.476 1040.01 274.397 1043.53 272.922C1047.04 271.448 1050.88 270.71 1055.04 270.71C1060.56 270.71 1065.17 271.882 1068.88 274.227C1072.62 276.571 1075.47 279.595 1077.44 283.3L1075.68 285.965V272.412H1086.8V328.555H1075.68V315.001L1077.44 317.666C1075.47 321.371 1072.62 324.396 1068.88 326.74C1065.17 329.084 1060.56 330.256 1055.04 330.256ZM1056.68 319.198C1060.09 319.198 1063.13 318.441 1065.81 316.929C1068.5 315.379 1070.6 313.205 1072.11 310.407C1073.66 307.61 1074.43 304.302 1074.43 300.483C1074.43 296.665 1073.66 293.357 1072.11 290.559C1070.6 287.723 1068.5 285.55 1065.81 284.037C1063.13 282.525 1060.09 281.769 1056.68 281.769C1053.24 281.769 1050.18 282.525 1047.5 284.037C1044.85 285.55 1042.75 287.723 1041.2 290.559C1039.65 293.357 1038.88 296.665 1038.88 300.483C1038.88 304.302 1039.65 307.61 1041.2 310.407C1042.75 313.205 1044.85 315.379 1047.5 316.929C1050.18 318.441 1053.24 319.198 1056.68 319.198ZM1129.79 330.256C1123.74 330.256 1118.43 329.027 1113.86 326.57C1109.28 324.075 1105.71 320.596 1103.14 316.135C1100.6 311.674 1099.34 306.494 1099.34 300.597C1099.34 296.287 1100.07 292.317 1101.55 288.688C1103.02 285.02 1105.1 281.845 1107.79 279.16C1110.47 276.476 1113.61 274.397 1117.2 272.922C1120.83 271.448 1124.78 270.71 1129.05 270.71C1133.7 270.71 1137.84 271.542 1141.47 273.206C1145.1 274.831 1148.11 277.119 1150.49 280.068C1152.91 283.017 1154.61 286.476 1155.59 290.446C1156.61 294.377 1156.78 298.65 1156.1 303.262H1111.3C1111.23 306.627 1111.97 309.576 1113.52 312.109C1115.07 314.604 1117.28 316.551 1120.15 317.95C1123.06 319.349 1126.48 320.048 1130.41 320.048C1133.59 320.048 1136.65 319.576 1139.6 318.63C1142.59 317.647 1145.29 316.211 1147.71 314.32L1152.53 323.281C1150.72 324.755 1148.52 326.022 1145.95 327.08C1143.38 328.101 1140.7 328.876 1137.9 329.405C1135.1 329.972 1132.4 330.256 1129.79 330.256ZM1112.04 294.075H1143.85C1143.74 289.841 1142.38 286.514 1139.77 284.094C1137.2 281.674 1133.53 280.465 1128.77 280.465C1124.16 280.465 1120.32 281.674 1117.26 284.094C1114.23 286.514 1112.49 289.841 1112.04 294.075ZM1181.6 328.555V282.733H1163.17V272.412H1212.56V282.733H1194.07V328.555H1181.6ZM1249.63 330.256C1243.59 330.256 1238.27 329.027 1233.7 326.57C1229.12 324.075 1225.55 320.596 1222.98 316.135C1220.45 311.674 1219.18 306.494 1219.18 300.597C1219.18 296.287 1219.92 292.317 1221.39 288.688C1222.87 285.02 1224.95 281.845 1227.63 279.16C1230.32 276.476 1233.45 274.397 1237.05 272.922C1240.67 271.448 1244.63 270.71 1248.9 270.71C1253.55 270.71 1257.69 271.542 1261.32 273.206C1264.95 274.831 1267.95 277.119 1270.33 280.068C1272.75 283.017 1274.46 286.476 1275.44 290.446C1276.46 294.377 1276.63 298.65 1275.95 303.262H1231.15C1231.07 306.627 1231.81 309.576 1233.36 312.109C1234.91 314.604 1237.12 316.551 1239.99 317.95C1242.91 319.349 1246.33 320.048 1250.26 320.048C1253.43 320.048 1256.5 319.576 1259.45 318.63C1262.43 317.647 1265.14 316.211 1267.56 314.32L1272.38 323.281C1270.56 324.755 1268.37 326.022 1265.8 327.08C1263.23 328.101 1260.54 328.876 1257.74 329.405C1254.95 329.972 1252.24 330.256 1249.63 330.256ZM1231.88 294.075H1263.7C1263.59 289.841 1262.22 286.514 1259.62 284.094C1257.05 281.674 1253.38 280.465 1248.61 280.465C1244 280.465 1240.16 281.674 1237.1 284.094C1234.08 286.514 1232.34 289.841 1231.88 294.075ZM1316.71 328.555V272.412H1369.73V328.555H1357.26V282.733H1329.19V328.555H1316.71ZM1412.62 330.256C1406.76 330.256 1401.52 328.914 1396.91 326.23C1392.34 323.507 1388.74 319.897 1386.14 315.398C1383.53 310.861 1382.22 305.89 1382.22 300.483C1382.22 296.476 1382.96 292.695 1384.43 289.141C1385.95 285.55 1388.06 282.374 1390.79 279.614C1393.55 276.854 1396.78 274.68 1400.48 273.092C1404.19 271.504 1408.25 270.71 1412.68 270.71C1418.54 270.71 1423.75 272.072 1428.33 274.794C1432.94 277.478 1436.55 281.088 1439.16 285.625C1441.77 290.124 1443.07 295.077 1443.07 300.483C1443.07 304.453 1442.32 308.234 1440.8 311.825C1439.33 315.417 1437.23 318.593 1434.51 321.353C1431.79 324.112 1428.57 326.286 1424.87 327.874C1421.16 329.462 1417.08 330.256 1412.62 330.256ZM1412.62 319.198C1416.1 319.198 1419.18 318.441 1421.86 316.929C1424.59 315.379 1426.72 313.205 1428.27 310.407C1429.82 307.61 1430.6 304.302 1430.6 300.483C1430.6 296.665 1429.82 293.357 1428.27 290.559C1426.72 287.723 1424.59 285.55 1421.86 284.037C1419.18 282.525 1416.1 281.769 1412.62 281.769C1409.14 281.769 1406.04 282.525 1403.32 284.037C1400.63 285.55 1398.52 287.723 1396.97 290.559C1395.46 293.357 1394.7 296.665 1394.7 300.483C1394.7 304.302 1395.47 307.61 1397.02 310.407C1398.57 313.205 1400.69 315.379 1403.38 316.929C1406.1 318.441 1409.18 319.198 1412.62 319.198ZM1481.91 330.256C1476.01 330.256 1470.75 328.971 1466.14 326.4C1461.53 323.791 1457.9 320.256 1455.25 315.795C1452.64 311.296 1451.34 306.192 1451.34 300.483C1451.34 296.173 1452.11 292.222 1453.66 288.631C1455.21 285.001 1457.41 281.845 1460.24 279.16C1463.08 276.476 1466.4 274.397 1470.22 272.922C1474.08 271.448 1478.26 270.71 1482.76 270.71C1486.54 270.71 1490.03 271.221 1493.25 272.242C1496.5 273.225 1499.49 274.756 1502.21 276.835L1496.2 286.362C1494.46 284.812 1492.45 283.659 1490.18 282.903C1487.95 282.147 1485.57 281.769 1483.04 281.769C1479.11 281.769 1475.72 282.506 1472.89 283.981C1470.05 285.455 1467.84 287.591 1466.25 290.389C1464.7 293.149 1463.93 296.495 1463.93 300.427C1463.93 306.287 1465.63 310.88 1469.03 314.207C1472.47 317.534 1477.14 319.198 1483.04 319.198C1485.84 319.198 1488.48 318.687 1490.98 317.666C1493.47 316.608 1495.55 315.228 1497.22 313.527L1503.17 322.997C1500.18 325.266 1496.86 327.042 1493.19 328.328C1489.52 329.613 1485.76 330.256 1481.91 330.256ZM1512.6 329.519L1508.23 318.29C1512.09 317.307 1514.91 315.757 1516.68 313.64C1518.5 311.523 1519.63 308.574 1520.09 304.793C1520.58 301.013 1520.82 296.135 1520.82 290.162V272.412H1566.47V328.555H1554V282.733H1532.45V290.162C1532.45 296.173 1532.16 301.41 1531.6 305.871C1531.07 310.332 1530.08 314.131 1528.65 317.269C1527.21 320.407 1525.19 322.978 1522.58 324.982C1520.01 326.948 1516.68 328.46 1512.6 329.519ZM1609.5 330.256C1603.45 330.256 1598.14 329.027 1593.56 326.57C1588.99 324.075 1585.42 320.596 1582.85 316.135C1580.31 311.674 1579.05 306.494 1579.05 300.597C1579.05 296.287 1579.78 292.317 1581.26 288.688C1582.73 285.02 1584.81 281.845 1587.5 279.16C1590.18 276.476 1593.32 274.397 1596.91 272.922C1600.54 271.448 1604.49 270.71 1608.76 270.71C1613.41 270.71 1617.55 271.542 1621.18 273.206C1624.81 274.831 1627.82 277.119 1630.2 280.068C1632.62 283.017 1634.32 286.476 1635.3 290.446C1636.32 294.377 1636.49 298.65 1635.81 303.262H1591.01C1590.94 306.627 1591.67 309.576 1593.22 312.109C1594.77 314.604 1596.99 316.551 1599.86 317.95C1602.77 319.349 1606.19 320.048 1610.12 320.048C1613.3 320.048 1616.36 319.576 1619.31 318.63C1622.3 317.647 1625 316.211 1627.42 314.32L1632.24 323.281C1630.43 324.755 1628.23 326.022 1625.66 327.08C1623.09 328.101 1620.41 328.876 1617.61 329.405C1614.81 329.972 1612.11 330.256 1609.5 330.256ZM1591.75 294.075H1623.56C1623.45 289.841 1622.09 286.514 1619.48 284.094C1616.91 281.674 1613.24 280.465 1608.48 280.465C1603.87 280.465 1600.03 281.674 1596.97 284.094C1593.94 286.514 1592.2 289.841 1591.75 294.075ZM1689.55 328.555V282.733H1666.86V290.162C1666.86 295.266 1666.56 299.878 1665.96 303.999C1665.35 308.12 1664.27 311.75 1662.72 314.888C1661.17 317.988 1659 320.559 1656.2 322.6C1653.44 324.642 1649.91 326.135 1645.6 327.08L1642.54 318.63C1646.13 317.761 1648.83 316.135 1650.64 313.753C1652.46 311.372 1653.67 308.234 1654.27 304.34C1654.92 300.408 1655.24 295.682 1655.24 290.162V272.412H1702.02V328.555H1689.55ZM1642.54 345.568V318.63L1650.25 319.424L1652.18 318.233H1713.31V345.568H1701.91V328.555H1653.93V345.568H1642.54ZM1724.31 328.555V272.412H1736.79V294.075H1764.92V272.412H1777.39V328.555H1764.92V304.396H1736.79V328.555H1724.31ZM1794.76 328.555V272.412H1806.84V310.294L1837.29 272.412H1848.18V328.555H1836.16V290.219L1805.42 328.555H1794.76ZM1865.53 328.555V272.412H1876.37H1876.71L1901.89 308.82L1896.5 308.933L1920.43 272.412H1931.49V328.555H1920.15L1920.32 287.043L1922.64 288.064L1902.57 317.383H1894.51L1873.53 288.007L1875.86 286.986L1876.03 328.555H1865.53Z" fill="black"/>
</g>
<defs>
<clipPath id="clip0_1788_2875">
<rect width="5444" height="3435" fill="white"/>
</clipPath>
</defs>
</svg>
